<svg width="1440" height="303" viewBox="0 0 1440 303" fill="none" xmlns="http://www.w3.org/2000/svg">
<path fill-rule="evenodd" clip-rule="evenodd" d="M1440 0H0V303H1440V0ZM103.688 134.469L97.625 132.938C96.7917 136.792 95.1979 139.698 92.8438 141.656C90.4896 143.615 87.6146 144.594 84.2188 144.594C81.4271 144.594 78.8333 143.875 76.4375 142.438C74.0417 141 72.2708 138.833 71.125 135.938C70 133.021 69.4375 129.615 69.4375 125.719C69.4375 122.698 69.9167 119.771 70.875 116.938C71.8333 114.083 73.4896 111.812 75.8438 110.125C78.2188 108.438 81.1667 107.594 84.6875 107.594C87.75 107.594 90.2917 108.354 92.3125 109.875C94.3333 111.396 95.875 113.823 96.9375 117.156L102.906 115.75C101.677 111.521 99.5 108.24 96.375 105.906C93.25 103.573 89.3958 102.406 84.8125 102.406C80.7708 102.406 77.0625 103.333 73.6875 105.188C70.3333 107.021 67.7396 109.719 65.9062 113.281C64.0938 116.823 63.1875 120.979 63.1875 125.75C63.1875 130.125 63.9896 134.219 65.5938 138.031C67.2188 141.844 69.5729 144.76 72.6562 146.781C75.7604 148.781 79.7812 149.781 84.7188 149.781C89.4896 149.781 93.5208 148.479 96.8125 145.875C100.125 143.25 102.417 139.448 103.688 134.469ZM141.094 103.188H112.406V135.438C112.406 139.271 112.062 141.708 111.375 142.75C110.688 143.771 109.656 144.281 108.281 144.281C107.573 144.281 106.719 144.073 105.719 143.656L104.688 149.031C106.562 149.531 108.167 149.781 109.5 149.781C111.708 149.781 113.531 149.167 114.969 147.938C116.406 146.688 117.344 144.948 117.781 142.719C118.24 140.49 118.469 136.979 118.469 132.188V108.594H135.031V149H141.094V103.188ZM156.656 103.188H151.156V149H157.219L181.625 112.812V149H187.125V103.188H181.031L156.656 139.469V103.188ZM208.719 108.594V149H214.781V108.594H229.938V103.188H193.625V108.594H208.719ZM242.469 103.188H236.406V149H253.812C260.396 149 264.896 147.667 267.312 145C269.729 142.333 270.938 139.229 270.938 135.688C270.938 133.521 270.438 131.417 269.438 129.375C268.438 127.333 266.792 125.719 264.5 124.531C262.208 123.344 258.51 122.75 253.406 122.75H242.469V103.188ZM253.562 143.844H242.469V127.969H250.594C254.531 127.969 257.323 128.156 258.969 128.531C260.615 128.906 261.927 129.74 262.906 131.031C263.906 132.302 264.406 133.854 264.406 135.688C264.406 137.938 263.719 139.865 262.344 141.469C260.99 143.052 258.062 143.844 253.562 143.844ZM315.5 134.469L309.438 132.938C308.604 136.792 307.01 139.698 304.656 141.656C302.302 143.615 299.427 144.594 296.031 144.594C293.24 144.594 290.646 143.875 288.25 142.438C285.854 141 284.083 138.833 282.938 135.938C281.812 133.021 281.25 129.615 281.25 125.719C281.25 122.698 281.729 119.771 282.688 116.938C283.646 114.083 285.302 111.812 287.656 110.125C290.031 108.438 292.979 107.594 296.5 107.594C299.562 107.594 302.104 108.354 304.125 109.875C306.146 111.396 307.688 113.823 308.75 117.156L314.719 115.75C313.49 111.521 311.312 108.24 308.188 105.906C305.062 103.573 301.208 102.406 296.625 102.406C292.583 102.406 288.875 103.333 285.5 105.188C282.146 107.021 279.552 109.719 277.719 113.281C275.906 116.823 275 120.979 275 125.75C275 130.125 275.802 134.219 277.406 138.031C279.031 141.844 281.385 144.76 284.469 146.781C287.573 148.781 291.594 149.781 296.531 149.781C301.302 149.781 305.333 148.479 308.625 145.875C311.938 143.25 314.229 139.448 315.5 134.469ZM353.188 149H359.25V103.188H338.938C334.854 103.188 331.75 103.604 329.625 104.438C327.5 105.25 325.802 106.698 324.531 108.781C323.26 110.865 322.625 113.167 322.625 115.688C322.625 118.938 323.677 121.677 325.781 123.906C327.885 126.135 331.135 127.552 335.531 128.156C333.927 128.927 332.708 129.688 331.875 130.438C330.104 132.062 328.427 134.094 326.844 136.531L318.875 149H326.5L332.562 139.469C334.333 136.719 335.792 134.615 336.938 133.156C338.083 131.698 339.104 130.677 340 130.094C340.917 129.51 341.844 129.104 342.781 128.875C343.469 128.729 344.594 128.656 346.156 128.656H353.188V149ZM353.188 108.25V123.406H340.156C337.385 123.406 335.219 123.125 333.656 122.562C332.094 121.979 330.906 121.062 330.094 119.812C329.281 118.542 328.875 117.167 328.875 115.688C328.875 113.521 329.656 111.74 331.219 110.344C332.802 108.948 335.292 108.25 338.688 108.25H353.188ZM425.812 134.469L419.75 132.938C418.917 136.792 417.323 139.698 414.969 141.656C412.615 143.615 409.74 144.594 406.344 144.594C403.552 144.594 400.958 143.875 398.562 142.438C396.167 141 394.396 138.833 393.25 135.938C392.125 133.021 391.562 129.615 391.562 125.719C391.562 122.698 392.042 119.771 393 116.938C393.958 114.083 395.615 111.812 397.969 110.125C400.344 108.438 403.292 107.594 406.812 107.594C409.875 107.594 412.417 108.354 414.438 109.875C416.458 111.396 418 113.823 419.062 117.156L425.031 115.75C423.802 111.521 421.625 108.24 418.5 105.906C415.375 103.573 411.521 102.406 406.938 102.406C402.896 102.406 399.188 103.333 395.812 105.188C392.458 107.021 389.865 109.719 388.031 113.281C386.219 116.823 385.312 120.979 385.312 125.75C385.312 130.125 386.115 134.219 387.719 138.031C389.344 141.844 391.698 144.76 394.781 146.781C397.885 148.781 401.906 149.781 406.844 149.781C411.615 149.781 415.646 148.479 418.938 145.875C422.25 143.25 424.542 139.448 425.812 134.469ZM450.938 103.188V149H456.781V110L470.031 149H475.5L488.812 110.656V149H494.656V103.188H486.5L475.531 135.062C474.427 138.292 473.615 140.74 473.094 142.406C472.635 140.906 471.906 138.646 470.906 135.625L460.062 103.188H450.938ZM505.938 103.188H499.812L518.375 136.844C517.083 140.219 515.896 142.385 514.812 143.344C513.75 144.281 512.479 144.75 511 144.75C509.188 144.75 507.469 144.281 505.844 143.344V148.531C508.115 149.26 510.031 149.625 511.594 149.625C514.156 149.625 516.125 148.938 517.5 147.562C518.875 146.188 520.635 143.271 522.781 138.812L539.969 103.188H533.938L520.875 131.25L505.938 103.188ZM546.969 134.562L541.188 136.062C543.792 145.208 549.427 149.781 558.094 149.781C563.135 149.781 567.177 148.458 570.219 145.812C573.281 143.146 574.812 139.844 574.812 135.906C574.812 133.135 574.021 130.76 572.438 128.781C570.875 126.781 568.927 125.458 566.594 124.812C570.635 122.458 572.656 119.146 572.656 114.875C572.656 111.542 571.344 108.635 568.719 106.156C566.094 103.656 562.542 102.406 558.062 102.406C548.75 102.406 543.375 107.271 541.938 117L547.75 118.312C547.75 117.375 548.062 115.958 548.688 114.062C549.312 112.146 550.438 110.615 552.062 109.469C553.708 108.302 555.688 107.719 558 107.719C560.646 107.719 562.74 108.458 564.281 109.938C565.844 111.417 566.625 113.156 566.625 115.156C566.625 116.844 566.052 118.354 564.906 119.688C563.781 121 562.479 121.823 561 122.156C559.521 122.469 557.385 122.625 554.594 122.625V127.906H557.5C560.875 127.906 563.542 128.656 565.5 130.156C567.458 131.635 568.438 133.635 568.438 136.156C568.438 138.49 567.51 140.479 565.656 142.125C563.802 143.771 561.271 144.594 558.062 144.594C554.917 144.594 552.385 143.479 550.469 141.25C548.573 139.021 547.406 136.792 546.969 134.562ZM588.75 103.188H582.688V149H600.125C606.688 149 611.177 147.677 613.594 145.031C616.01 142.365 617.219 139.26 617.219 135.719C617.219 132.365 616.083 129.365 613.812 126.719C611.562 124.073 606.854 122.75 599.688 122.75H588.75V103.188ZM599.844 143.844H588.75V127.969H596.875C600.729 127.969 603.479 128.146 605.125 128.5C606.771 128.854 608.115 129.677 609.156 130.969C610.198 132.26 610.719 133.865 610.719 135.781C610.719 138.594 609.854 140.646 608.125 141.938C606.417 143.208 603.656 143.844 599.844 143.844ZM628.781 103.188H622.719V149H628.781V103.188ZM645.219 103.188H639.156V149H645.219V127.562C647.469 127.562 649.302 128.208 650.719 129.5C652.135 130.771 653.896 133.125 656 136.562L663.656 149H671.188L661.75 133.75C658.875 129.104 655.958 126.375 653 125.562C654.479 124.958 655.75 124.156 656.812 123.156C657.875 122.135 659.177 119.688 660.719 115.812C661.948 112.75 663.042 110.75 664 109.812C664.938 108.875 666.375 108.406 668.312 108.406C668.458 108.406 668.865 108.417 669.531 108.438C670.135 108.458 670.542 108.469 670.75 108.469V103.219C670.625 103.177 669.396 103.156 667.062 103.156C665.229 103.156 663.552 103.583 662.031 104.438C660.51 105.271 659.333 106.312 658.5 107.562C657.688 108.792 656.646 110.906 655.375 113.906C653.625 117.99 652.188 120.573 651.062 121.656C649.938 122.719 647.99 123.25 645.219 123.25V103.188ZM679.906 108.844C675.823 113.135 673.781 119.083 673.781 126.688C673.781 130.708 674.656 134.521 676.406 138.125C678.156 141.729 680.729 144.573 684.125 146.656C687.521 148.74 691.375 149.781 695.688 149.781C699.667 149.781 703.375 148.844 706.812 146.969C710.25 145.073 712.906 142.292 714.781 138.625C716.656 134.958 717.594 130.802 717.594 126.156C717.594 121.573 716.698 117.479 714.906 113.875C713.135 110.25 710.552 107.427 707.156 105.406C703.76 103.385 699.948 102.375 695.719 102.375C689.26 102.375 683.99 104.531 679.906 108.844ZM684.469 139.844C681.51 136.656 680.031 132.302 680.031 126.781C680.031 119.885 681.573 114.969 684.656 112.031C687.76 109.073 691.458 107.594 695.75 107.594C698.771 107.594 701.49 108.365 703.906 109.906C706.344 111.427 708.188 113.583 709.438 116.375C710.708 119.146 711.344 122.396 711.344 126.125C711.344 132.021 709.865 136.573 706.906 139.781C703.969 142.99 700.219 144.594 695.656 144.594C691.177 144.594 687.448 143.01 684.469 139.844ZM731.031 103.188H725.531V149H731.594L756 112.812V149H761.5V103.188H755.406L731.031 139.469V103.188ZM752.156 92.2812H748.312C748.021 93.7396 747.438 94.8125 746.562 95.5C745.708 96.1667 744.438 96.5 742.75 96.5C741.292 96.5 740.125 96.1562 739.25 95.4688C738.396 94.7604 737.823 93.6979 737.531 92.2812H733.688C734 94.9062 734.948 96.9167 736.531 98.3125C738.135 99.6875 740.271 100.375 742.938 100.375C745.583 100.375 747.698 99.6771 749.281 98.2812C750.885 96.8854 751.844 94.8854 752.156 92.2812ZM64.6875 177.188V223H82.1562C85.0729 223 87.5312 222.75 89.5312 222.25C91.5521 221.729 93.2292 220.969 94.5625 219.969C95.8958 218.969 97.0104 217.552 97.9062 215.719C98.8229 213.865 99.2812 211.865 99.2812 209.719C99.2812 207.052 98.5312 204.74 97.0312 202.781C95.5521 200.823 93.4271 199.438 90.6562 198.625C92.8021 197.562 94.4062 196.167 95.4688 194.438C96.5312 192.708 97.0625 190.865 97.0625 188.906C97.0625 186.802 96.4583 184.792 95.25 182.875C94.0625 180.938 92.4062 179.51 90.2812 178.594C88.1771 177.656 85.375 177.188 81.875 177.188H64.6875ZM80.6562 196.438H70.75V182.594H79.9062C83.1979 182.594 85.5208 182.812 86.875 183.25C88.2292 183.667 89.2708 184.458 90 185.625C90.7292 186.771 91.0938 188.104 91.0938 189.625C91.0938 191.229 90.6979 192.562 89.9062 193.625C89.1354 194.688 87.9792 195.448 86.4375 195.906C85.2708 196.26 83.3438 196.438 80.6562 196.438ZM82.1562 217.594H70.75V201.844H81.3438C84.2604 201.844 86.4896 202.104 88.0312 202.625C89.5938 203.125 90.8125 204.01 91.6875 205.281C92.5625 206.531 93 208.01 93 209.719C93 211.177 92.6979 212.469 92.0938 213.594C91.4896 214.698 90.7188 215.542 89.7812 216.125C88.8438 216.708 87.6771 217.125 86.2812 217.375C85.4896 217.521 84.1146 217.594 82.1562 217.594ZM109.781 182.844C105.698 187.135 103.656 193.083 103.656 200.688C103.656 204.708 104.531 208.521 106.281 212.125C108.031 215.729 110.604 218.573 114 220.656C117.396 222.74 121.25 223.781 125.562 223.781C129.542 223.781 133.25 222.844 136.688 220.969C140.125 219.073 142.781 216.292 144.656 212.625C146.531 208.958 147.469 204.802 147.469 200.156C147.469 195.573 146.573 191.479 144.781 187.875C143.01 184.25 140.427 181.427 137.031 179.406C133.635 177.385 129.823 176.375 125.594 176.375C119.135 176.375 113.865 178.531 109.781 182.844ZM114.344 213.844C111.385 210.656 109.906 206.302 109.906 200.781C109.906 193.885 111.448 188.969 114.531 186.031C117.635 183.073 121.333 181.594 125.625 181.594C128.646 181.594 131.365 182.365 133.781 183.906C136.219 185.427 138.062 187.583 139.312 190.375C140.583 193.146 141.219 196.396 141.219 200.125C141.219 206.021 139.74 210.573 136.781 213.781C133.844 216.99 130.094 218.594 125.531 218.594C121.052 218.594 117.323 217.01 114.344 213.844ZM155.438 177.188V223H189.625V217.594H161.5V202H186.844V196.625H161.5V182.594H188.562V177.188H155.438ZM230.031 177.188H202.156V183.875C202.156 200.792 200.312 212.031 196.625 217.594H193.062V233.688H198.469V223H228.75V233.688H234.156V217.594H230.031V177.188ZM208 182.594H223.969V217.594H202.844C204.885 213.24 206.25 207.688 206.938 200.938C207.646 194.167 208 188.833 208 184.938V182.594ZM246.969 177.188H241.469V223H247.531L271.938 186.812V223H277.438V177.188H271.344L246.969 213.469V177.188ZM287.562 177.188V223H293.625V201.406H317.438V223H323.5V177.188H317.438V196H293.625V177.188H287.562ZM337.906 182.844C333.823 187.135 331.781 193.083 331.781 200.688C331.781 204.708 332.656 208.521 334.406 212.125C336.156 215.729 338.729 218.573 342.125 220.656C345.521 222.74 349.375 223.781 353.688 223.781C357.667 223.781 361.375 222.844 364.812 220.969C368.25 219.073 370.906 216.292 372.781 212.625C374.656 208.958 375.594 204.802 375.594 200.156C375.594 195.573 374.698 191.479 372.906 187.875C371.135 184.25 368.552 181.427 365.156 179.406C361.76 177.385 357.948 176.375 353.719 176.375C347.26 176.375 341.99 178.531 337.906 182.844ZM342.469 213.844C339.51 210.656 338.031 206.302 338.031 200.781C338.031 193.885 339.573 188.969 342.656 186.031C345.76 183.073 349.458 181.594 353.75 181.594C356.771 181.594 359.49 182.365 361.906 183.906C364.344 185.427 366.188 187.583 367.438 190.375C368.708 193.146 369.344 196.396 369.344 200.125C369.344 206.021 367.865 210.573 364.906 213.781C361.969 216.99 358.219 218.594 353.656 218.594C349.177 218.594 345.448 217.01 342.469 213.844Z" fill="#FFD089"/>
</svg>
