<svg width="101" height="43" viewBox="0 0 101 43" fill="none" xmlns="http://www.w3.org/2000/svg">
<path fill-rule="evenodd" clip-rule="evenodd" d="M27.5549 0H0V11.6021H27.5549V0ZM5.94922 10.4492C8.4345 10.4492 10.4492 8.4345 10.4492 5.94922C10.4492 3.46394 8.4345 1.44922 5.94922 1.44922C3.46394 1.44922 1.44922 3.46394 1.44922 5.94922C1.44922 8.4345 3.46394 10.4492 5.94922 10.4492Z" fill="#A9A9A9"/>
<path fill-rule="evenodd" clip-rule="evenodd" d="M0 0V26.8298H11.6021V0H0ZM5.94922 10.449C8.4345 10.449 10.4492 8.43424 10.4492 5.94896C10.4492 3.46368 8.4345 1.44896 5.94922 1.44896C3.46394 1.44896 1.44922 3.46368 1.44922 5.94896C1.44922 8.43424 3.46394 10.449 5.94922 10.449Z" fill="#FFD089"/>
<path fill-rule="evenodd" clip-rule="evenodd" d="M27.5549 15.2285H0V26.8306H27.5549V15.2285ZM21.9043 25.6777C24.3896 25.6777 26.4043 23.663 26.4043 21.1777C26.4043 18.6925 24.3896 16.6777 21.9043 16.6777C19.419 16.6777 17.4043 18.6925 17.4043 21.1777C17.4043 23.663 19.419 25.6777 21.9043 25.6777Z" fill="#FFD089"/>
<path fill-rule="evenodd" clip-rule="evenodd" d="M27.5549 30.457H0V42.0591H27.5549V30.457ZM5.94922 40.9062C8.4345 40.9062 10.4492 38.8915 10.4492 36.4062C10.4492 33.921 8.4345 31.9062 5.94922 31.9062C3.46394 31.9062 1.44922 33.921 1.44922 36.4062C1.44922 38.8915 3.46394 40.9062 5.94922 40.9062Z" fill="#A9A9A9"/>
<path fill-rule="evenodd" clip-rule="evenodd" d="M15.9512 15.2266V42.0564H27.5533V15.2266H15.9512ZM21.9043 25.6775C24.3896 25.6775 26.4043 23.6628 26.4043 21.1775C26.4043 18.6922 24.3896 16.6775 21.9043 16.6775C19.419 16.6775 17.4043 18.6922 17.4043 21.1775C17.4043 23.6628 19.419 25.6775 21.9043 25.6775Z" fill="#FFD089"/>
<path fill-rule="evenodd" clip-rule="evenodd" d="M64.5374 0.00195312H36.9824V11.604H64.5374V0.00195312ZM43.8525 9.59315C46.3072 9.20437 47.9819 6.89928 47.5932 4.4446C47.2044 1.98991 44.8993 0.315171 42.4446 0.703955C39.9899 1.09274 38.3152 3.39782 38.704 5.85251C39.0927 8.30719 41.3978 9.98193 43.8525 9.59315Z" fill="#A9A9A9"/>
<path fill-rule="evenodd" clip-rule="evenodd" d="M36.9824 30.459H64.5374V42.0611H36.9824V30.459ZM47.5932 35.4468C47.9819 37.9015 46.3072 40.2066 43.8525 40.5954C41.3978 40.9842 39.0927 39.3094 38.704 36.8548C38.3152 34.4001 39.9899 32.095 42.4446 31.7062C44.8993 31.3174 47.2044 32.9922 47.5932 35.4468Z" fill="#A9A9A9"/>
<path fill-rule="evenodd" clip-rule="evenodd" d="M36.9824 0V42.0576H48.5845V0H36.9824ZM43.8525 9.59344C46.0699 9.24224 47.6509 7.32729 47.6492 5.15091C47.649 4.91793 47.6307 4.68197 47.5932 4.4446C47.2044 1.98991 44.8993 0.315171 42.4446 0.703955C40.2272 1.05516 38.6462 2.97011 38.6479 5.14649C38.6481 5.37946 38.6664 5.61543 38.704 5.8528C39.0927 8.30748 41.3978 9.98223 43.8525 9.59344ZM43.8525 40.5954C46.3072 40.2066 47.9819 37.9015 47.5932 35.4468C47.2044 32.9922 44.8993 31.3174 42.4446 31.7062C39.9899 32.095 38.3152 34.4001 38.704 36.8548C39.0927 39.3094 41.3978 40.9842 43.8525 40.5954Z" fill="#FFD089"/>
<path fill-rule="evenodd" clip-rule="evenodd" d="M100.555 0.00195312H73V11.604H100.555V0.00195312ZM79.8701 9.59315C82.3248 9.20437 83.9995 6.89928 83.6107 4.4446C83.2219 1.98991 80.9169 0.315171 78.4622 0.703955C76.0075 1.09274 74.3327 3.39782 74.7215 5.85251C75.1103 8.30719 77.4154 9.98193 79.8701 9.59315Z" fill="#FFD089"/>
<path fill-rule="evenodd" clip-rule="evenodd" d="M73 30.459H100.555V42.0611H73V30.459ZM83.6107 35.4468C83.9995 37.9015 82.3248 40.2066 79.8701 40.5954C77.4154 40.9842 75.1103 39.3094 74.7215 36.8548C74.3327 34.4001 76.0075 32.095 78.4622 31.7062C80.9169 31.3174 83.2219 32.9922 83.6107 35.4468Z" fill="#FFD089"/>
<path fill-rule="evenodd" clip-rule="evenodd" d="M73 0V42.0576H84.6021V0H73ZM79.8701 9.59344C82.0875 9.24224 83.6685 7.32729 83.6668 5.15091C83.6666 4.91793 83.6483 4.68197 83.6107 4.4446C83.2219 1.98991 80.9169 0.315171 78.4622 0.703955C76.2448 1.05516 74.6638 2.97011 74.6655 5.14649C74.6656 5.37946 74.6839 5.61543 74.7215 5.8528C75.1103 8.30748 77.4154 9.98223 79.8701 9.59344ZM79.8701 40.5954C82.3248 40.2066 83.9995 37.9015 83.6107 35.4468C83.2219 32.9922 80.9169 31.3174 78.4622 31.7062C76.0075 32.095 74.3327 34.4001 74.7215 36.8548C75.1103 39.3094 77.4154 40.9842 79.8701 40.5954Z" fill="#A9A9A9"/>
</svg>
