<svg width="287" height="255" viewBox="0 0 287 255" fill="none" xmlns="http://www.w3.org/2000/svg">
<path d="M278.588 254.904L258.367 234.302L286.319 227.09L278.588 254.904ZM0.599609 2.90527C0.560587 0.405578 0.560705 0.405576 0.560827 0.405574C0.560872 0.405573 0.560996 0.405571 0.561086 0.40557C0.561265 0.405567 0.561458 0.405564 0.561663 0.405561C0.562074 0.405555 0.562536 0.405548 0.563051 0.40554C0.564081 0.405525 0.565319 0.405507 0.566765 0.405486C0.569656 0.405445 0.573379 0.405395 0.577931 0.405337C0.587035 0.405222 0.599455 0.405078 0.61517 0.404926C0.646599 0.404622 0.691208 0.404283 0.748831 0.404071C0.864076 0.403646 1.03138 0.403724 1.24941 0.405586C1.68546 0.409309 2.32446 0.420165 3.15573 0.448393L2.98604 5.44551C2.19816 5.41876 1.60151 5.40878 1.20672 5.4054C1.00932 5.40372 0.8624 5.40369 0.767274 5.40404C0.719711 5.40421 0.685099 5.40448 0.663603 5.40469C0.652855 5.4048 0.645386 5.40488 0.641218 5.40494C0.639133 5.40496 0.637874 5.40498 0.637442 5.40499C0.637226 5.40499 0.637217 5.40499 0.637415 5.40499C0.637514 5.40499 0.637665 5.40498 0.637868 5.40498C0.637969 5.40498 0.638084 5.40498 0.638211 5.40498C0.638274 5.40497 0.63838 5.40497 0.638412 5.40497C0.63852 5.40497 0.638632 5.40497 0.599609 2.90527ZM8.25567 0.734533C9.74905 0.847061 11.445 0.997523 13.3305 1.19856L12.8003 6.17038C10.9677 5.97497 9.32321 5.82915 7.87998 5.7204L8.25567 0.734533ZM18.3911 1.80847C19.9817 2.02156 21.6665 2.26685 23.4406 2.54919L22.6547 7.48705C20.922 7.21129 19.2778 6.97193 17.7272 6.7642L18.3911 1.80847ZM28.4252 3.40174C30.0262 3.69432 31.6855 4.01539 33.4001 4.36772L32.3937 9.2654C30.7154 8.92053 29.092 8.6064 27.5264 8.32028L28.4252 3.40174ZM38.3583 5.44152C39.9643 5.80704 41.6116 6.19905 43.2981 6.61946L42.0888 11.471C40.4359 11.059 38.8218 10.6749 37.2487 10.3168L38.3583 5.44152ZM48.204 7.89471C49.7933 8.32476 51.4131 8.77947 53.0619 9.26026L51.6622 14.0604C50.0449 13.5888 48.4563 13.1428 46.898 12.7211L48.204 7.89471ZM57.9004 10.7217C59.4843 11.2167 61.0922 11.7354 62.7227 12.279L61.1414 17.0224C59.5411 16.4888 57.9632 15.9798 56.409 15.4941L57.9004 10.7217ZM67.5315 13.9324C69.0946 14.4861 70.6764 15.0626 72.2762 15.6626L70.5202 20.3441C68.9494 19.7549 67.3962 19.189 65.8617 18.6453L67.5315 13.9324ZM76.9873 17.4787C78.5398 18.0933 80.1076 18.7301 81.6898 19.3898L79.7656 24.0047C78.2114 23.3567 76.6715 22.7312 75.1467 22.1276L76.9873 17.4787ZM86.3461 21.3802C87.8681 22.0469 89.4023 22.7347 90.9479 23.4444L88.8616 27.9883C87.3427 27.2909 85.8353 26.6151 84.3399 25.9601L86.3461 21.3802ZM95.5453 25.6045C97.0462 26.3258 98.557 27.0677 100.077 27.8309L97.8335 32.2993C96.3394 31.5492 94.8546 30.82 93.3795 30.1111L95.5453 25.6045ZM104.574 30.1373C106.061 30.9159 107.555 31.715 109.058 32.5349L106.662 36.9238C105.185 36.1176 103.716 35.332 102.254 34.5665L104.574 30.1373ZM113.453 34.9818C114.912 35.8103 116.377 36.6585 117.849 37.5271L115.307 41.8329C113.86 40.9787 112.418 40.1445 110.984 39.3298L113.453 34.9818ZM122.168 40.1251C123.595 40.9996 125.027 41.8934 126.464 42.8068L123.781 47.0263C122.368 46.1277 120.959 45.2485 119.555 44.3882L122.168 40.1251ZM130.708 45.5543C132.103 46.4734 133.502 47.4112 134.904 48.3681L132.086 52.4982C130.706 51.5566 129.33 50.6338 127.957 49.7294L130.708 45.5543ZM139.066 51.2571C140.429 52.2194 141.794 53.1999 143.163 54.1989L140.214 58.2371C138.867 57.2537 137.523 56.2886 136.182 55.3414L139.066 51.2571ZM147.234 57.2214C148.565 58.2257 149.898 59.2477 151.233 60.2878L148.16 64.2318C146.845 63.2076 145.533 62.2013 144.223 61.2125L147.234 57.2214ZM155.208 63.4355C156.508 64.4807 157.809 65.5433 159.11 66.6235L155.918 70.4714C154.635 69.4074 153.354 68.3609 152.074 67.3314L155.208 63.4355ZM162.985 69.888C164.253 70.9734 165.522 72.0757 166.792 73.1952L163.485 76.9455C162.234 75.8425 160.984 74.7564 159.734 73.6872L162.985 69.888ZM170.561 76.5682C171.189 77.1388 171.818 77.7138 172.446 78.293L169.057 81.9691C168.438 81.3983 167.818 80.8317 167.199 80.2693L170.561 76.5682ZM172.446 78.293C173.093 78.8897 173.737 79.4874 174.377 80.086L170.961 83.7377C170.33 83.1472 169.695 82.5577 169.057 81.9691L172.446 78.293ZM178.175 83.6892C179.436 84.9035 180.684 86.1214 181.917 87.3423L178.399 90.8955C177.183 89.691 175.952 88.4897 174.708 87.2918L178.175 83.6892ZM185.613 91.0533C186.84 92.3027 188.052 93.5549 189.249 94.8094L185.633 98.262C184.451 97.0243 183.255 95.789 182.045 94.5564L185.613 91.0533ZM192.84 98.6233C194.031 99.9069 195.208 101.192 196.37 102.48L192.658 105.83C191.512 104.56 190.351 103.291 189.175 102.025L192.84 98.6233ZM199.851 106.391C201.007 107.708 202.148 109.026 203.274 110.345L199.472 113.592C198.36 112.29 197.235 110.989 196.094 109.689L199.851 106.391ZM206.644 114.348C207.765 115.698 208.871 117.048 209.96 118.398L206.07 121.539C204.995 120.207 203.904 118.874 202.798 117.542L206.644 114.348ZM213.216 122.486C214.301 123.868 215.371 125.249 216.425 126.629L212.451 129.664C211.411 128.302 210.355 126.938 209.284 125.574L213.216 122.486ZM219.563 130.796C220.613 132.21 221.647 133.622 222.664 135.031L218.611 137.958C217.606 136.567 216.586 135.173 215.549 133.777L219.563 130.796ZM225.684 139.27C226.698 140.715 227.696 142.156 228.676 143.593L224.547 146.411C223.578 144.993 222.593 143.57 221.592 142.144L225.684 139.27ZM231.59 147.922C232.563 149.388 233.518 150.849 234.456 152.305L230.254 155.014C229.328 153.577 228.384 152.134 227.424 150.687L231.59 147.922ZM237.265 156.724C238.195 158.208 239.107 159.685 240.001 161.154L235.73 163.754C234.846 162.302 233.946 160.844 233.028 159.378L237.265 156.724ZM242.704 165.663C243.598 167.176 244.474 168.68 245.331 170.174L240.993 172.662C240.147 171.186 239.282 169.701 238.399 168.206L242.704 165.663ZM247.901 174.723C248.761 176.27 249.602 177.804 250.423 179.326L246.023 181.7C245.212 180.198 244.382 178.682 243.532 177.155L247.901 174.723ZM252.871 183.933C253.689 185.497 254.486 187.045 255.262 188.577L250.802 190.837C250.035 189.324 249.248 187.795 248.44 186.25L252.871 183.933ZM257.605 193.277C258.385 194.867 259.142 196.437 259.877 197.986L255.359 200.129C254.634 198.6 253.886 197.049 253.116 195.478L257.605 193.277ZM262.078 202.707C262.819 204.325 263.536 205.917 264.227 207.48L259.654 209.503C258.972 207.959 258.265 206.388 257.532 204.79L262.078 202.707ZM266.318 212.296C267.021 213.945 267.694 215.557 268.339 217.131L263.713 219.027C263.076 217.475 262.412 215.883 261.718 214.256L266.318 212.296ZM270.291 221.99C270.953 223.672 271.58 225.302 272.173 226.876L267.494 228.638C266.909 227.087 266.291 225.479 265.638 223.82L270.291 221.99ZM273.982 231.791C274.604 233.522 275.18 235.17 275.712 236.727L270.98 238.342C270.457 236.809 269.89 235.188 269.277 233.482L273.982 231.791ZM277.351 241.67C277.954 243.546 278.476 245.236 278.921 246.724L274.131 248.157C273.695 246.701 273.184 245.044 272.591 243.201L277.351 241.67ZM278.588 254.904L258.367 234.302L286.319 227.09L278.588 254.904ZM0.599609 2.90527C0.560587 0.405578 0.560705 0.405576 0.560827 0.405574C0.560872 0.405573 0.560996 0.405571 0.561086 0.40557C0.561265 0.405567 0.561458 0.405564 0.561663 0.405561C0.562074 0.405555 0.562536 0.405548 0.563051 0.40554C0.564081 0.405525 0.565319 0.405507 0.566765 0.405486C0.569656 0.405445 0.573379 0.405395 0.577931 0.405337C0.587035 0.405222 0.599455 0.405078 0.61517 0.404926C0.646599 0.404622 0.691208 0.404283 0.748831 0.404071C0.864076 0.403646 1.03138 0.403724 1.24941 0.405586C1.68546 0.409309 2.32446 0.420165 3.15573 0.448393L2.98604 5.44551C2.19816 5.41876 1.60151 5.40878 1.20672 5.4054C1.00932 5.40372 0.8624 5.40369 0.767274 5.40404C0.719711 5.40421 0.685099 5.40448 0.663603 5.40469C0.652855 5.4048 0.645386 5.40488 0.641218 5.40494C0.639133 5.40496 0.637874 5.40498 0.637442 5.40499C0.637226 5.40499 0.637217 5.40499 0.637415 5.40499C0.637514 5.40499 0.637665 5.40498 0.637868 5.40498C0.637969 5.40498 0.638084 5.40498 0.638211 5.40498C0.638274 5.40497 0.63838 5.40497 0.638412 5.40497C0.63852 5.40497 0.638632 5.40497 0.599609 2.90527ZM8.25567 0.734533C9.74905 0.847061 11.445 0.997523 13.3305 1.19856L12.8003 6.17038C10.9677 5.97497 9.32321 5.82915 7.87998 5.7204L8.25567 0.734533ZM18.3911 1.80847C19.9817 2.02156 21.6665 2.26685 23.4406 2.54919L22.6547 7.48705C20.922 7.21129 19.2778 6.97193 17.7272 6.7642L18.3911 1.80847ZM28.4252 3.40174C30.0262 3.69432 31.6855 4.01539 33.4001 4.36772L32.3937 9.2654C30.7154 8.92053 29.092 8.6064 27.5264 8.32028L28.4252 3.40174ZM38.3583 5.44152C39.9643 5.80704 41.6116 6.19905 43.2981 6.61946L42.0888 11.471C40.4359 11.059 38.8218 10.6749 37.2487 10.3168L38.3583 5.44152ZM48.204 7.89471C49.7933 8.32476 51.4131 8.77947 53.0619 9.26026L51.6622 14.0604C50.0449 13.5888 48.4563 13.1428 46.898 12.7211L48.204 7.89471ZM57.9004 10.7217C59.4843 11.2167 61.0922 11.7354 62.7227 12.279L61.1414 17.0224C59.5411 16.4888 57.9632 15.9798 56.409 15.4941L57.9004 10.7217ZM67.5315 13.9324C69.0946 14.4861 70.6764 15.0626 72.2762 15.6626L70.5202 20.3441C68.9494 19.7549 67.3962 19.189 65.8617 18.6453L67.5315 13.9324ZM76.9873 17.4787C78.5398 18.0933 80.1076 18.7301 81.6898 19.3898L79.7656 24.0047C78.2114 23.3567 76.6715 22.7312 75.1467 22.1276L76.9873 17.4787ZM86.3461 21.3802C87.8681 22.0469 89.4023 22.7347 90.9479 23.4444L88.8616 27.9883C87.3427 27.2909 85.8353 26.6151 84.3399 25.9601L86.3461 21.3802ZM95.5453 25.6045C97.0462 26.3258 98.557 27.0677 100.077 27.8309L97.8335 32.2993C96.3394 31.5492 94.8546 30.82 93.3795 30.1111L95.5453 25.6045ZM104.574 30.1373C106.061 30.9159 107.555 31.715 109.058 32.5349L106.662 36.9238C105.185 36.1176 103.716 35.332 102.254 34.5665L104.574 30.1373ZM113.453 34.9818C114.912 35.8103 116.377 36.6585 117.849 37.5271L115.307 41.8329C113.86 40.9787 112.418 40.1445 110.984 39.3298L113.453 34.9818ZM122.168 40.1251C123.595 40.9996 125.027 41.8934 126.464 42.8068L123.781 47.0263C122.368 46.1277 120.959 45.2485 119.555 44.3882L122.168 40.1251ZM130.708 45.5543C132.103 46.4734 133.502 47.4112 134.904 48.3681L132.086 52.4982C130.706 51.5566 129.33 50.6338 127.957 49.7294L130.708 45.5543ZM139.066 51.2571C140.429 52.2194 141.794 53.1999 143.163 54.1989L140.214 58.2371C138.867 57.2537 137.523 56.2886 136.182 55.3414L139.066 51.2571ZM147.234 57.2214C148.565 58.2257 149.898 59.2477 151.233 60.2878L148.16 64.2318C146.845 63.2076 145.533 62.2013 144.223 61.2125L147.234 57.2214ZM155.208 63.4355C156.508 64.4807 157.809 65.5433 159.11 66.6235L155.918 70.4714C154.635 69.4074 153.354 68.3609 152.074 67.3314L155.208 63.4355ZM162.985 69.888C164.253 70.9734 165.522 72.0757 166.792 73.1952L163.485 76.9455C162.234 75.8425 160.984 74.7564 159.734 73.6872L162.985 69.888ZM170.561 76.5682C171.189 77.1388 171.818 77.7138 172.446 78.293L169.057 81.9691C168.438 81.3983 167.818 80.8317 167.199 80.2693L170.561 76.5682ZM172.446 78.293C173.093 78.8897 173.737 79.4874 174.377 80.086L170.961 83.7377C170.33 83.1472 169.695 82.5577 169.057 81.9691L172.446 78.293ZM178.175 83.6892C179.436 84.9035 180.684 86.1214 181.917 87.3423L178.399 90.8955C177.183 89.691 175.952 88.4897 174.708 87.2918L178.175 83.6892ZM185.613 91.0533C186.84 92.3027 188.052 93.5549 189.249 94.8094L185.633 98.262C184.451 97.0243 183.255 95.789 182.045 94.5564L185.613 91.0533ZM192.84 98.6233C194.031 99.9069 195.208 101.192 196.37 102.48L192.658 105.83C191.512 104.56 190.351 103.291 189.175 102.025L192.84 98.6233ZM199.851 106.391C201.007 107.708 202.148 109.026 203.274 110.345L199.472 113.592C198.36 112.29 197.235 110.989 196.094 109.689L199.851 106.391ZM206.644 114.348C207.765 115.698 208.871 117.048 209.96 118.398L206.07 121.539C204.995 120.207 203.904 118.874 202.798 117.542L206.644 114.348ZM213.216 122.486C214.301 123.868 215.371 125.249 216.425 126.629L212.451 129.664C211.411 128.302 210.355 126.938 209.284 125.574L213.216 122.486ZM219.563 130.796C220.613 132.21 221.647 133.622 222.664 135.031L218.611 137.958C217.606 136.567 216.586 135.173 215.549 133.777L219.563 130.796ZM225.684 139.27C226.698 140.715 227.696 142.156 228.676 143.593L224.547 146.411C223.578 144.993 222.593 143.57 221.592 142.144L225.684 139.27ZM231.59 147.922C232.563 149.388 233.518 150.849 234.456 152.305L230.254 155.014C229.328 153.577 228.384 152.134 227.424 150.687L231.59 147.922ZM237.265 156.724C238.195 158.208 239.107 159.685 240.001 161.154L235.73 163.754C234.846 162.302 233.946 160.844 233.028 159.378L237.265 156.724ZM242.704 165.663C243.598 167.176 244.474 168.68 245.331 170.174L240.993 172.662C240.147 171.186 239.282 169.701 238.399 168.206L242.704 165.663ZM247.901 174.723C248.761 176.27 249.602 177.804 250.423 179.326L246.023 181.7C245.212 180.198 244.382 178.682 243.532 177.155L247.901 174.723ZM252.871 183.933C253.689 185.497 254.486 187.045 255.262 188.577L250.802 190.837C250.035 189.324 249.248 187.795 248.44 186.25L252.871 183.933ZM257.605 193.277C258.385 194.867 259.142 196.437 259.877 197.986L255.359 200.129C254.634 198.6 253.886 197.049 253.116 195.478L257.605 193.277ZM262.078 202.707C262.819 204.325 263.536 205.917 264.227 207.48L259.654 209.503C258.972 207.959 258.265 206.388 257.532 204.79L262.078 202.707ZM266.318 212.296C267.021 213.945 267.694 215.557 268.339 217.131L263.713 219.027C263.076 217.475 262.412 215.883 261.718 214.256L266.318 212.296ZM270.291 221.99C270.953 223.672 271.58 225.302 272.173 226.876L267.494 228.638C266.909 227.087 266.291 225.479 265.638 223.82L270.291 221.99ZM273.982 231.791C274.604 233.522 275.18 235.17 275.712 236.727L270.98 238.342C270.457 236.809 269.89 235.188 269.277 233.482L273.982 231.791ZM277.351 241.67C277.954 243.546 278.476 245.236 278.921 246.724L274.131 248.157C273.695 246.701 273.184 245.044 272.591 243.201L277.351 241.67Z" fill="#C9DFF3"/>
</svg>
