<svg width="570" height="570" viewBox="0 0 570 570" fill="none" xmlns="http://www.w3.org/2000/svg">
<ellipse cx="285.499" cy="285" rx="284.501" ry="285" fill="white"/>
<mask id="mask0_527_609" style="mask-type:alpha" maskUnits="userSpaceOnUse" x="0" y="0" width="570" height="570">
<ellipse cx="284.501" cy="285" rx="284.501" ry="285" fill="#D9D9D9"/>
</mask>
<g mask="url(#mask0_527_609)">
<path d="M268.365 16.7254C266.504 15.1343 263.64 15.3527 261.975 17.3067C260.311 19.2607 260.546 22.1282 262.407 23.7193C264.268 25.3103 267.132 25.0919 268.797 23.1379C270.461 21.184 270.226 18.3164 268.365 16.7254Z" stroke="#FFC977" stroke-width="4"/>
<path d="M170.577 40.3855C168.716 38.7944 165.852 39.0129 164.187 40.9668C162.523 42.9208 162.758 45.7883 164.619 47.3794C166.48 48.9705 169.344 48.7521 171.009 46.7981C172.673 44.8441 172.438 41.9766 170.577 40.3855Z" stroke="#FFC977" stroke-width="4"/>
<line y1="-2" x2="82.1404" y2="-2" transform="matrix(0.9715 -0.2348 0.234271 0.972715 177.02 43.1074)" stroke="#FFC977" stroke-width="4"/>
<path d="M303.964 553.858C305.907 555.348 308.756 554.977 310.314 552.936C311.872 550.896 311.484 548.045 309.541 546.556C307.598 545.067 304.75 545.438 303.192 547.478C301.633 549.519 302.021 552.369 303.964 553.858Z" stroke="#FFC977" stroke-width="4"/>
<path d="M400.353 525.003C402.296 526.492 405.144 526.121 406.702 524.081C408.261 522.04 407.873 519.189 405.93 517.7C403.987 516.211 401.138 516.582 399.58 518.623C398.022 520.663 398.41 523.514 400.353 525.003Z" stroke="#FFC977" stroke-width="4"/>
<line y1="-2" x2="82.1459" y2="-2" transform="matrix(-0.957536 0.286404 -0.285797 -0.958862 393.774 522.629)" stroke="#FFC977" stroke-width="4"/>
<path d="M555.386 268.99C556.909 267.075 556.596 264.215 554.588 262.613C552.58 261.011 549.728 261.346 548.205 263.261C546.682 265.177 546.995 268.037 549.003 269.639C551.011 271.24 553.864 270.906 555.386 268.99Z" stroke="#FFC977" stroke-width="4"/>
<path d="M528.463 171.891C529.986 169.975 529.673 167.115 527.665 165.513C525.657 163.912 522.805 164.246 521.282 166.162C519.759 168.077 520.072 170.937 522.08 172.539C524.088 174.141 526.941 173.806 528.463 171.891Z" stroke="#FFC977" stroke-width="4"/>
<line y1="-2" x2="82.1782" y2="-2" transform="matrix(0.267077 0.964237 -0.962951 0.267658 525.966 178.431)" stroke="#FFC977" stroke-width="4"/>
<path d="M18.4308 299.17C16.8849 301.067 17.163 303.931 19.1513 305.557C21.1396 307.183 23.9961 306.883 25.5419 304.986C27.0877 303.09 26.8096 300.226 24.8214 298.6C22.8331 296.974 19.9766 297.274 18.4308 299.17Z" stroke="#FFC977" stroke-width="4"/>
<path d="M43.336 397.929C41.7902 399.826 42.0683 402.689 44.0566 404.316C46.0448 405.942 48.9013 405.642 50.4472 403.745C51.993 401.849 51.7149 398.985 49.7266 397.359C47.7383 395.732 44.8818 396.032 43.336 397.929Z" stroke="#FFC977" stroke-width="4"/>
<line y1="-2" x2="82.1795" y2="-2" transform="matrix(-0.255324 -0.967411 0.96615 -0.255887 47.2178 391.088)" stroke="#FFC977" stroke-width="4"/>
<path d="M302.638 18.8035C304.499 17.2124 307.363 17.4308 309.028 19.3848C310.692 21.3388 310.457 24.2063 308.596 25.7974C306.734 27.3885 303.871 27.17 302.206 25.2161C300.542 23.2621 300.777 20.3946 302.638 18.8035Z" stroke="#FFC977" stroke-width="4"/>
<path d="M400.426 42.4636C402.287 40.8726 405.151 41.091 406.816 43.045C408.48 44.9989 408.245 47.8665 406.384 49.4575C404.523 51.0486 401.659 50.8302 399.994 48.8762C398.33 46.9222 398.565 44.0547 400.426 42.4636Z" stroke="#FFC977" stroke-width="4"/>
<path d="M313.573 25.831L323.998 20.3962L331.719 29.8134L342.144 24.3786L348.827 33.5682L357.697 27.792L363.862 36.8679L373.251 31.2055L380.453 40.5089L389.323 34.7327L395.488 43.8086" stroke="#FFC977" stroke-width="4"/>
<path d="M433.357 501.415C433.051 498.985 434.803 496.706 437.349 496.384C439.895 496.062 442.158 497.833 442.465 500.263C442.771 502.693 441.018 504.973 438.472 505.295C435.927 505.617 433.663 503.845 433.357 501.415Z" stroke="#FFC977" stroke-width="4"/>
<path d="M506.76 432.504C506.453 430.074 508.206 427.795 510.752 427.473C513.298 427.151 515.561 428.922 515.867 431.352C516.173 433.782 514.421 436.061 511.875 436.383C509.329 436.706 507.066 434.934 506.76 432.504Z" stroke="#FFC977" stroke-width="4"/>
<path d="M445.224 496.114L446.408 484.401L458.504 483.103L459.689 471.39L471.025 470.835L471.072 460.237L482.029 460.054L482.455 449.084L494.171 448.158L494.218 437.56L505.175 437.377" stroke="#FFC977" stroke-width="4"/>
<path d="M136.356 510.079C133.921 510.315 131.698 508.494 131.45 505.937C131.202 503.379 133.034 501.164 135.469 500.927C137.903 500.69 140.127 502.511 140.375 505.069C140.622 507.626 138.79 509.842 136.356 510.079Z" stroke="#FFC977" stroke-width="4"/>
<path d="M69.7072 434.591C67.2728 434.828 65.0492 433.007 64.8013 430.449C64.5534 427.892 66.3857 425.676 68.8202 425.439C71.2546 425.203 73.4782 427.024 73.7261 429.581C73.974 432.139 72.1417 434.355 69.7072 434.591Z" stroke="#FFC977" stroke-width="4"/>
<path d="M131.407 498.044L119.754 496.52L118.807 484.371L107.153 482.847L106.926 471.479L96.3525 471.128L96.4854 460.151L85.5519 459.408L84.9648 447.65L74.3913 447.298L74.5243 436.321" stroke="#FFC977" stroke-width="4"/>
<path d="M509.895 142.339C510.406 139.897 508.815 137.443 506.263 136.907C503.712 136.371 501.27 137.978 500.759 140.419C500.248 142.861 501.839 145.315 504.391 145.851C506.942 146.387 509.384 144.78 509.895 142.339Z" stroke="#FFC977" stroke-width="4"/>
<path d="M441.502 66.8028C442.014 64.3613 440.422 61.9069 437.871 61.3708C435.319 60.8347 432.878 62.4416 432.366 64.8831C431.855 67.3246 433.447 69.7789 435.998 70.315C438.549 70.8511 440.991 69.2443 441.502 66.8028Z" stroke="#FFC977" stroke-width="4"/>
<line y1="-2" x2="15.5042" y2="-2" transform="matrix(0.683974 0.730122 -0.728271 0.684636 441.988 73.6416)" stroke="#FFC977" stroke-width="4"/>
<line y1="-2" x2="15.5042" y2="-2" transform="matrix(0.683974 0.730122 -0.728271 0.684636 457.424 90.1133)" stroke="#FFC977" stroke-width="4"/>
<line y1="-2" x2="15.5042" y2="-2" transform="matrix(0.683974 0.730122 -0.728271 0.684636 472.86 106.584)" stroke="#FFC977" stroke-width="4"/>
<line y1="-2" x2="15.5042" y2="-2" transform="matrix(0.683974 0.730122 -0.728271 0.684636 488.296 123.055)" stroke="#FFC977" stroke-width="4"/>
<path d="M270.198 548.372C269.37 546.018 266.738 544.748 264.281 545.615C261.824 546.483 260.567 549.125 261.395 551.479C262.223 553.834 264.855 555.103 267.313 554.236C269.77 553.369 271.026 550.727 270.198 548.372Z" stroke="#FFC977" stroke-width="4"/>
<path d="M172.63 521.488C171.802 519.133 169.17 517.863 166.713 518.731C164.255 519.598 162.999 522.24 163.827 524.594C164.655 526.949 167.287 528.219 169.744 527.351C172.202 526.484 173.458 523.842 172.63 521.488Z" stroke="#FFC977" stroke-width="4"/>
<line y1="-2" x2="15.4997" y2="-2" transform="matrix(0.963132 0.268761 -0.267926 0.963514 175.947 528.508)" stroke="#FFC977" stroke-width="4"/>
<line y1="-2" x2="15.4997" y2="-2" transform="matrix(0.963132 0.268761 -0.267926 0.963514 197.674 534.565)" stroke="#FFC977" stroke-width="4"/>
<line y1="-2" x2="15.4997" y2="-2" transform="matrix(0.963132 0.268761 -0.267926 0.963514 219.4 540.623)" stroke="#FFC977" stroke-width="4"/>
<line y1="-2" x2="15.4997" y2="-2" transform="matrix(0.963132 0.268761 -0.267926 0.963514 241.128 546.681)" stroke="#FFC977" stroke-width="4"/>
<path d="M19.9954 265.447C22.364 264.696 23.7207 262.104 22.932 259.609C22.1432 257.114 19.5445 255.777 17.1759 256.528C14.8073 257.279 13.4506 259.871 14.2393 262.366C15.028 264.861 17.6268 266.199 19.9954 265.447Z" stroke="#FFC977" stroke-width="4"/>
<path d="M49.9455 168.618C52.3142 167.867 53.6709 165.275 52.8822 162.78C52.0934 160.285 49.4947 158.947 47.1261 159.699C44.7575 160.45 43.4008 163.042 44.1895 165.537C44.9782 168.032 47.5769 169.37 49.9455 168.618Z" stroke="#FFC977" stroke-width="4"/>
<line y1="-2" x2="15.5208" y2="-2" transform="matrix(-0.298604 0.954416 -0.954046 -0.299537 42.8359 171.712)" stroke="#FFC977" stroke-width="4"/>
<line y1="-2" x2="15.5208" y2="-2" transform="matrix(-0.298604 0.954416 -0.954046 -0.299537 36.0967 193.271)" stroke="#FFC977" stroke-width="4"/>
<line y1="-2" x2="15.5208" y2="-2" transform="matrix(-0.298604 0.954416 -0.954046 -0.299537 29.3564 214.831)" stroke="#FFC977" stroke-width="4"/>
<line y1="-2" x2="15.5208" y2="-2" transform="matrix(-0.298604 0.954416 -0.954046 -0.299537 22.6143 236.389)" stroke="#FFC977" stroke-width="4"/>
<path d="M554.266 301.196C555.847 303.063 555.623 305.931 553.665 307.595C551.708 309.258 548.847 309.012 547.265 307.145C545.684 305.277 545.908 302.409 547.865 300.746C549.823 299.082 552.684 299.328 554.266 301.196Z" stroke="#FFC977" stroke-width="4"/>
<path d="M526.846 398.89C528.427 400.757 528.203 403.626 526.246 405.289C524.288 406.952 521.427 406.706 519.845 404.839C518.264 402.972 518.488 400.103 520.446 398.44C522.403 396.777 525.264 397.023 526.846 398.89Z" stroke="#FFC977" stroke-width="4"/>
<path d="M535.17 369.824C534.841 370.972 533.647 371.631 532.508 371.304C531.369 370.977 530.705 369.784 531.034 368.636C531.247 367.891 532.016 366.484 533.026 365.333C533.52 364.77 533.98 364.374 534.346 364.16C534.43 364.11 534.497 364.077 534.549 364.055C534.583 364.104 534.626 364.171 534.676 364.265C534.879 364.647 535.067 365.232 535.196 365.974C535.46 367.496 535.379 369.093 535.17 369.824ZM534.684 364.011C534.684 364.011 534.682 364.011 534.679 364.012C534.682 364.011 534.684 364.011 534.684 364.011ZM534.459 363.95C534.457 363.948 534.456 363.948 534.456 363.947C534.456 363.947 534.457 363.948 534.459 363.95Z" stroke="#FFC977" stroke-width="4"/>
<path d="M538.142 360.1C537.814 361.248 536.62 361.908 535.481 361.58C534.341 361.253 533.678 360.06 534.007 358.912C534.22 358.167 534.988 356.761 535.999 355.609C536.492 355.046 536.953 354.65 537.319 354.436C537.403 354.387 537.47 354.354 537.521 354.332C537.556 354.38 537.599 354.448 537.648 354.541C537.852 354.923 538.04 355.509 538.168 356.25C538.432 357.772 538.352 359.369 538.142 360.1ZM537.657 354.287C537.657 354.288 537.655 354.288 537.651 354.288C537.655 354.288 537.657 354.287 537.657 354.287ZM537.431 354.226C537.429 354.225 537.428 354.224 537.428 354.224C537.428 354.224 537.429 354.224 537.431 354.226Z" stroke="#FFC977" stroke-width="4"/>
<path d="M532.31 379.818C531.981 380.967 530.788 381.626 529.648 381.298C528.509 380.971 527.846 379.778 528.174 378.63C528.38 377.913 529.187 376.481 530.265 375.282C530.789 374.7 531.283 374.28 531.68 374.048C531.768 373.997 531.84 373.961 531.896 373.936C531.92 373.977 531.949 374.028 531.98 374.091C532.168 374.476 532.336 375.073 532.441 375.835C532.654 377.388 532.531 379.046 532.31 379.818ZM531.791 373.794C531.791 373.794 531.793 373.796 531.797 373.8C531.793 373.796 531.791 373.794 531.791 373.794Z" stroke="#FFC977" stroke-width="4"/>
<path d="M529.45 389.809C529.121 390.957 527.928 391.617 526.788 391.289C525.649 390.962 524.985 389.769 525.314 388.621C525.539 387.836 526.338 386.281 527.369 384.994C527.876 384.361 528.351 383.907 528.729 383.656C528.77 383.629 528.807 383.606 528.84 383.586C528.869 383.634 528.901 383.693 528.937 383.765C529.153 384.202 529.346 384.862 529.477 385.678C529.745 387.357 529.658 389.084 529.45 389.809ZM529.052 383.489C529.052 383.489 529.049 383.49 529.042 383.491C529.049 383.489 529.052 383.488 529.052 383.489ZM528.705 383.402C528.704 383.401 528.704 383.401 528.704 383.401L528.705 383.402Z" stroke="#FFC977" stroke-width="4"/>
<path d="M544.479 337.886C544.821 336.742 544.173 335.541 543.037 335.2C541.902 334.858 540.7 335.503 540.358 336.647C540.135 337.389 540.023 338.989 540.252 340.505C540.364 341.245 540.538 341.828 540.73 342.206C540.774 342.293 540.813 342.357 540.844 342.404C540.899 342.382 540.972 342.348 541.064 342.296C541.441 342.085 541.916 341.694 542.424 341.14C543.467 340.002 544.26 338.614 544.479 337.886ZM540.934 342.514C540.935 342.514 540.933 342.513 540.93 342.511C540.933 342.513 540.934 342.514 540.934 342.514ZM540.712 342.444C540.709 342.444 540.708 342.444 540.708 342.444C540.708 342.444 540.709 342.444 540.712 342.444Z" stroke="#FFC977" stroke-width="4"/>
<path d="M541.731 347.676C542.074 346.532 541.426 345.331 540.29 344.99C539.155 344.648 537.953 345.293 537.611 346.437C537.388 347.179 537.276 348.779 537.505 350.295C537.617 351.035 537.791 351.618 537.983 351.996C538.027 352.083 538.066 352.147 538.097 352.194C538.152 352.172 538.225 352.138 538.317 352.086C538.694 351.875 539.168 351.484 539.677 350.93C540.72 349.792 541.513 348.404 541.731 347.676ZM538.187 352.304C538.187 352.304 538.186 352.303 538.183 352.301C538.186 352.303 538.187 352.304 538.187 352.304ZM537.965 352.234C537.962 352.234 537.961 352.234 537.961 352.234C537.961 352.234 537.962 352.234 537.965 352.234Z" stroke="#FFC977" stroke-width="4"/>
<path d="M547.461 327.929C547.804 326.785 547.155 325.584 546.02 325.243C544.885 324.902 543.683 325.546 543.341 326.69C543.126 327.405 543.033 329.046 543.294 330.639C543.421 331.412 543.61 332.033 543.818 332.443C543.865 332.534 543.906 332.603 543.94 332.655C543.982 332.634 544.034 332.606 544.094 332.569C544.46 332.347 544.923 331.936 545.423 331.351C546.44 330.16 547.231 328.698 547.461 327.929ZM543.775 332.717C543.775 332.717 543.778 332.717 543.783 332.716C543.778 332.716 543.775 332.717 543.775 332.717Z" stroke="#FFC977" stroke-width="4"/>
<path d="M550.444 317.972C550.787 316.828 550.139 315.627 549.003 315.285C547.868 314.944 546.666 315.589 546.324 316.733C546.089 317.514 545.923 319.256 546.096 320.897C546.181 321.704 546.336 322.343 546.519 322.759C546.539 322.804 546.557 322.844 546.575 322.878C546.625 322.853 546.684 322.821 546.752 322.78C547.17 322.529 547.689 322.078 548.239 321.462C549.37 320.195 550.228 318.695 550.444 317.972ZM546.7 323.075C546.7 323.075 546.698 323.072 546.693 323.068C546.698 323.073 546.7 323.075 546.7 323.075ZM546.362 322.96C546.361 322.96 546.36 322.96 546.36 322.96L546.362 322.96Z" stroke="#FFC977" stroke-width="4"/>
<path d="M132.999 65.7411C133.536 68.1311 132.008 70.5676 129.505 71.1315C127.002 71.6954 124.58 70.1487 124.044 67.7587C123.507 65.3687 125.035 62.9322 127.538 62.3683C130.041 61.8044 132.463 63.3511 132.999 65.7411Z" stroke="#FFC977" stroke-width="4"/>
<path d="M63.8937 137.621C64.4302 140.011 62.9026 142.447 60.3995 143.011C57.8964 143.575 55.4746 142.029 54.938 139.639C54.4015 137.249 55.9291 134.812 58.4322 134.248C60.9353 133.684 63.3571 135.231 63.8937 137.621Z" stroke="#FFC977" stroke-width="4"/>
<path d="M83.7294 115.489C82.9088 116.351 81.5462 116.384 80.6859 115.562C79.8256 114.74 79.7931 113.375 80.6137 112.513C81.1467 111.953 82.4784 111.064 83.9066 110.513C84.6041 110.244 85.1954 110.108 85.6188 110.088C85.7173 110.083 85.7927 110.085 85.8488 110.089C85.8572 110.148 85.864 110.229 85.8648 110.337C85.868 110.769 85.7636 111.376 85.5342 112.092C85.0632 113.563 84.2526 114.94 83.7294 115.489ZM85.9875 110.113C85.9874 110.113 85.9857 110.113 85.9825 110.111C85.9859 110.112 85.9875 110.113 85.9875 110.113ZM85.8182 109.956C85.8172 109.954 85.8167 109.953 85.8167 109.953C85.8168 109.953 85.8173 109.954 85.8182 109.956Z" stroke="#FFC977" stroke-width="4"/>
<path d="M90.8632 108.255C90.0426 109.117 88.68 109.149 87.8197 108.327C86.9594 107.506 86.9268 106.141 87.7475 105.279C88.2805 104.719 89.6122 103.83 91.0404 103.279C91.7379 103.01 92.3292 102.873 92.7525 102.853C92.8511 102.849 92.9265 102.851 92.9826 102.855C92.9909 102.914 92.9978 102.995 92.9986 103.102C93.0018 103.535 92.8974 104.141 92.668 104.858C92.197 106.329 91.3864 107.705 90.8632 108.255ZM93.1213 102.879C93.1212 102.879 93.1195 102.878 93.1163 102.877C93.1197 102.878 93.1213 102.879 93.1213 102.879ZM92.952 102.722C92.9509 102.72 92.9505 102.718 92.9505 102.718C92.9505 102.718 92.9511 102.719 92.952 102.722Z" stroke="#FFC977" stroke-width="4"/>
<path d="M76.5677 123.014C75.7471 123.876 74.3844 123.908 73.5241 123.086C72.6639 122.265 72.6313 120.9 73.4519 120.038C73.9652 119.498 75.3424 118.605 76.853 118.044C77.5863 117.772 78.2181 117.63 78.6769 117.608C78.7806 117.604 78.8615 117.605 78.9233 117.61C78.9262 117.657 78.9275 117.717 78.9256 117.789C78.9141 118.217 78.7868 118.823 78.5266 119.547C77.9966 121.022 77.1203 122.433 76.5677 123.014ZM78.8959 117.437C78.8961 117.437 78.8972 117.44 78.899 117.445C78.8967 117.44 78.8958 117.437 78.8959 117.437Z" stroke="#FFC977" stroke-width="4"/>
<path d="M69.406 130.537C68.5854 131.399 67.2227 131.431 66.3624 130.609C65.5022 129.788 65.4696 128.423 66.2902 127.561C66.8519 126.971 68.2802 125.964 69.7887 125.303C70.5309 124.978 71.1614 124.796 71.6123 124.75C71.6629 124.745 71.7074 124.741 71.7463 124.74C71.7496 124.796 71.7512 124.864 71.7492 124.946C71.7379 125.433 71.604 126.108 71.3418 126.891C70.8025 128.503 69.9253 129.991 69.406 130.537ZM71.9767 124.752C71.9765 124.752 71.9731 124.751 71.9669 124.749C71.9738 124.751 71.9769 124.752 71.9767 124.752ZM71.7118 124.516C71.7113 124.515 71.7111 124.514 71.7111 124.514L71.7118 124.516Z" stroke="#FFC977" stroke-width="4"/>
<path d="M106.763 91.5202C107.594 90.6682 107.578 89.3029 106.728 88.4706C105.878 87.6384 104.515 87.6539 103.684 88.5058C103.144 89.0592 102.304 90.4237 101.805 91.873C101.561 92.5808 101.446 93.1776 101.441 93.6021C101.439 93.7009 101.444 93.7763 101.45 93.8324C101.51 93.8386 101.591 93.8427 101.698 93.8397C102.129 93.8276 102.731 93.7017 103.437 93.4468C104.888 92.9234 106.233 92.0633 106.763 91.5202ZM101.479 93.9703C101.479 93.9703 101.479 93.9686 101.477 93.9654C101.478 93.9688 101.479 93.9704 101.479 93.9703ZM101.316 93.8064C101.314 93.8054 101.313 93.805 101.313 93.805C101.313 93.8051 101.314 93.8056 101.316 93.8064Z" stroke="#FFC977" stroke-width="4"/>
<path d="M99.795 98.9176C100.626 98.0657 100.61 96.7004 99.7601 95.8681C98.91 95.0358 97.547 95.0514 96.7159 95.9033C96.176 96.4567 95.3362 97.8212 94.8371 99.2705C94.5933 99.9782 94.4779 100.575 94.4729 101C94.4717 101.098 94.4763 101.174 94.4827 101.23C94.5419 101.236 94.6228 101.24 94.7299 101.237C95.1617 101.225 95.7628 101.099 96.4694 100.844C97.9203 100.321 99.2652 99.4608 99.795 98.9176ZM94.5114 101.368C94.5115 101.368 94.5108 101.366 94.5093 101.363C94.5106 101.366 94.5114 101.368 94.5114 101.368ZM94.3486 101.204C94.3464 101.203 94.3453 101.202 94.3452 101.202C94.3452 101.203 94.3463 101.203 94.3486 101.204Z" stroke="#FFC977" stroke-width="4"/>
<path d="M114.015 84.086C114.846 83.234 114.83 81.8687 113.98 81.0364C113.13 80.2042 111.767 80.2197 110.936 81.0716C110.416 81.6045 109.574 83.0147 109.067 84.5468C108.822 85.2906 108.702 85.9281 108.697 86.3882C108.696 86.4921 108.7 86.5731 108.707 86.6348C108.754 86.636 108.813 86.6353 108.885 86.6308C109.312 86.6042 109.913 86.4554 110.626 86.1694C112.078 85.5868 113.455 84.6597 114.015 84.086ZM108.534 86.6135C108.534 86.6136 108.536 86.6147 108.542 86.6162C108.537 86.6141 108.534 86.6134 108.534 86.6135Z" stroke="#FFC977" stroke-width="4"/>
<path d="M121.268 76.6486C122.099 75.7967 122.084 74.4313 121.233 73.5991C120.383 72.7668 119.02 72.7823 118.189 73.6342C117.62 74.2173 116.667 75.6828 116.061 77.2163C115.762 77.9708 115.603 78.6084 115.573 79.0614C115.569 79.1123 115.568 79.1569 115.567 79.1959C115.623 79.1973 115.691 79.1964 115.773 79.1916C116.259 79.1631 116.927 79.0053 117.699 78.7151C119.288 78.1184 120.742 77.1878 121.268 76.6486ZM115.588 79.4262C115.588 79.426 115.587 79.4226 115.584 79.4165C115.586 79.4233 115.587 79.4263 115.588 79.4262ZM115.343 79.1693C115.342 79.1688 115.341 79.1686 115.341 79.1686L115.343 79.1693Z" stroke="#FFC977" stroke-width="4"/>
</g>
</svg>
