<svg width="417" height="418" viewBox="0 0 417 418" fill="none" xmlns="http://www.w3.org/2000/svg">
<circle cx="395.427" cy="208.956" r="21.4809" transform="rotate(90 395.427 208.956)" fill="#FFC977"/>
<circle cx="385.441" cy="269.322" r="21.4809" transform="rotate(108.844 385.441 269.322)" fill="#FFC977"/>
<circle cx="356.127" cy="323.487" r="21.4809" transform="rotate(127.914 356.127 323.487)" fill="#FFC977"/>
<circle cx="310.988" cy="365.074" r="21.4809" transform="rotate(146.692 310.988 365.074)" fill="#FFC977"/>
<circle cx="254.739" cy="389.782" r="21.4809" transform="rotate(165.707 254.739 389.782)" fill="#FFC977"/>
<circle cx="192.798" cy="394.761" r="21.4809" transform="rotate(-175.138 192.798 394.761)" fill="#FFC977"/>
<circle cx="133.371" cy="379.507" r="21.4809" transform="rotate(-156.218 133.371 379.507)" fill="#FFC977"/>
<circle cx="82.1879" cy="345.761" r="21.4809" transform="rotate(-137.29 82.1879 345.761)" fill="#FFC977"/>
<circle cx="44.5384" cy="297.089" r="21.4809" transform="rotate(-118.248 44.5384 297.089)" fill="#FFC977"/>
<circle cx="24.8745" cy="239.163" r="21.4809" transform="rotate(-99.2639 24.8745 239.163)" fill="#FFC977"/>
<circle cx="25.102" cy="177.386" r="21.4809" transform="rotate(-80.2972 25.102 177.386)" fill="#FFC977"/>
<circle cx="45.4961" cy="119.065" r="21.4809" transform="rotate(-61.1175 45.4961 119.065)" fill="#FFC977"/>
<circle cx="83.3032" cy="71.1259" r="21.4809" transform="rotate(-42.2934 83.3032 71.1259)" fill="#FFC977"/>
<circle cx="134.81" cy="37.7749" r="21.4809" transform="rotate(-23.3544 134.81 37.7749)" fill="#FFC977"/>
<circle cx="193.723" cy="23.0725" r="21.4809" transform="rotate(-4.42015 193.723 23.0725)" fill="#FFC977"/>
<circle cx="256.103" cy="28.4793" r="21.4809" transform="rotate(14.7278 256.103 28.4793)" fill="#FFC977"/>
<circle cx="311.993" cy="53.501" r="21.4809" transform="rotate(33.7277 311.993 53.501)" fill="#FFC977"/>
<circle cx="357.366" cy="96.034" r="21.4809" transform="rotate(52.7124 357.366 96.034)" fill="#FFC977"/>
<circle cx="385.87" cy="149.863" r="21.4809" transform="rotate(71.5876 385.87 149.863)" fill="#FFC977"/>
</svg>
