<svg width="699" height="697" viewBox="0 0 699 697" fill="none" xmlns="http://www.w3.org/2000/svg">
<circle cx="350.886" cy="348.469" r="348" fill="#C9DFF3"/>
<rect x="613.336" y="234.001" width="30.0249" height="52.7082" transform="rotate(-117.27 613.336 234.001)" stroke="white" stroke-width="4"/>
<path d="M623.993 229.927L609.098 201.033" stroke="white" stroke-width="4"/>
<path d="M649.922 215.73L635.535 187.821" stroke="white" stroke-width="4"/>
<rect x="17.1851" y="307.392" width="30.0249" height="52.7082" transform="rotate(-80.6159 17.1851 307.392)" stroke="white" stroke-width="4"/>
<path d="M28.1661 310.485L33.4666 278.413" stroke="white" stroke-width="4"/>
<path d="M57.4432 314.575L62.563 283.596" stroke="white" stroke-width="4"/>
<rect x="210.45" y="650.311" width="36.4897" height="63.4828" transform="rotate(-69.9434 210.45 650.311)" stroke="white" stroke-width="4"/>
<path d="M223.097 656.121L236.364 619.784" stroke="white" stroke-width="4"/>
<path d="M256.433 667.356L269.247 632.257" stroke="white" stroke-width="4"/>
<rect x="442.946" y="34.795" width="26" height="46" transform="rotate(19.6963 442.946 34.795)" stroke="white" stroke-width="4"/>
<rect x="456.574" y="26.3967" width="26" height="46" transform="rotate(19.6963 456.574 26.3967)" stroke="white" stroke-width="4"/>
<rect x="556.656" y="553.41" width="30.4629" height="53.4381" transform="rotate(45.2357 556.656 553.41)" stroke="white" stroke-width="4"/>
<rect x="574.941" y="551.454" width="30.4629" height="53.4381" transform="rotate(45.2357 574.941 551.454)" stroke="white" stroke-width="4"/>
<rect x="143.656" y="86.3902" width="30.4629" height="53.4381" transform="rotate(45.2357 143.656 86.3902)" stroke="white" stroke-width="4"/>
<rect x="161.941" y="84.4735" width="30.4629" height="53.4381" transform="rotate(45.2357 161.941 84.4735)" stroke="white" stroke-width="4"/>
<rect x="681.102" y="276.594" width="29.7976" height="53.2028" transform="rotate(86.2936 681.102 276.594)" stroke="white" stroke-width="4"/>
<rect x="681.756" y="287.841" width="38.7846" height="38.8276" transform="rotate(86.2936 681.756 287.841)" stroke="white" stroke-width="4"/>
<rect x="678.757" y="384.594" width="38.7846" height="38.8276" transform="rotate(86.2936 678.757 384.594)" stroke="white" stroke-width="4"/>
<rect x="681.465" y="381.173" width="38.7846" height="38.8276" transform="rotate(116.014 681.465 381.173)" stroke="white" stroke-width="4"/>
<rect x="97.7572" y="187.594" width="38.7846" height="38.8276" transform="rotate(86.2936 97.7572 187.594)" stroke="white" stroke-width="4"/>
<rect x="100.465" y="184.173" width="38.7846" height="38.8276" transform="rotate(116.014 100.465 184.173)" stroke="white" stroke-width="4"/>
<rect x="73.28" y="475.226" width="38.7846" height="38.8276" transform="rotate(32.1075 73.28 475.226)" stroke="white" stroke-width="4"/>
<rect x="102.465" y="482.173" width="38.7846" height="38.8276" transform="rotate(116.014 102.465 482.173)" stroke="white" stroke-width="4"/>
<rect x="376.608" y="648.367" width="38.7846" height="38.8276" transform="rotate(90.1899 376.608 648.367)" stroke="white" stroke-width="4"/>
<rect x="388.608" y="632.367" width="38.7846" height="38.8276" transform="rotate(90.1899 388.608 632.367)" stroke="white" stroke-width="4"/>
<rect x="325.959" y="14.407" width="29.7976" height="53.2028" transform="rotate(-2.13511 325.959 14.407)" stroke="white" stroke-width="4"/>
<rect x="337.22" y="14.0618" width="38.7846" height="38.8276" transform="rotate(-2.13511 337.22 14.0618)" stroke="white" stroke-width="4"/>
<rect x="209.506" y="41.9068" width="30.396" height="53.3267" transform="rotate(-22.886 209.506 41.9068)" stroke="white" stroke-width="4"/>
<rect x="230.422" y="90.9532" width="30.396" height="53.3267" transform="rotate(-113.074 230.422 90.9532)" stroke="white" stroke-width="4"/>
<rect x="123.124" y="556.508" width="30.396" height="53.3267" transform="rotate(-7.29969 123.124 556.508)" stroke="white" stroke-width="4"/>
<rect x="130.092" y="609.371" width="30.396" height="53.3267" transform="rotate(-97.4873 130.092 609.371)" stroke="white" stroke-width="4"/>
<rect x="432.506" y="622.907" width="30.396" height="53.3267" transform="rotate(-22.886 432.506 622.907)" stroke="white" stroke-width="4"/>
<rect x="453.422" y="671.953" width="30.396" height="53.3267" transform="rotate(-113.074 453.422 671.953)" stroke="white" stroke-width="4"/>
<rect x="585.647" y="507.364" width="30.396" height="53.3267" transform="rotate(-57.4749 585.647 507.364)" stroke="white" stroke-width="4"/>
<rect x="630.709" y="535.867" width="30.396" height="53.3267" transform="rotate(-147.662 630.709 535.867)" stroke="white" stroke-width="4"/>
<rect x="528.085" y="96.2757" width="30.396" height="53.3267" transform="rotate(-22.886 528.085 96.2757)" stroke="white" stroke-width="4"/>
<rect x="569.646" y="158.681" width="30.396" height="53.3267" transform="rotate(-154.88 569.646 158.681)" stroke="white" stroke-width="4"/>
<rect x="10.0853" y="372.276" width="30.396" height="53.3267" transform="rotate(-22.886 10.0853 372.276)" stroke="white" stroke-width="4"/>
<rect x="51.6461" y="434.681" width="30.396" height="53.3267" transform="rotate(-154.88 51.6461 434.681)" stroke="white" stroke-width="4"/>
</svg>
