<svg width="940" height="940" viewBox="0 0 940 940" fill="none" xmlns="http://www.w3.org/2000/svg">
<circle cx="469.835" cy="469.835" r="410" transform="rotate(-9.12537 469.835 469.835)" fill="white"/>
<path d="M359.105 83.2706L348.877 128.426L314.886 96.9907" stroke="#FFC977" stroke-width="4"/>
<path d="M356.895 132.158L367.123 87.0029L401.114 118.438" stroke="#FFC977" stroke-width="4"/>
<path d="M374.748 109.515L382.302 116.501L372.475 119.55L374.748 109.515Z" fill="#FFC977"/>
<path d="M339.34 95.623L346.893 102.609L337.067 105.658L339.34 95.623Z" fill="#FFC977"/>
<path d="M584.643 103.057C586.403 97.7979 586.444 92.6059 585.184 88.4943C583.923 84.3782 581.429 81.5063 578.194 80.424C574.96 79.3417 571.239 80.1342 567.755 82.6623C564.274 85.1877 561.182 89.3589 559.423 94.6175C557.663 99.8762 557.622 105.068 558.882 109.18C560.143 113.296 562.637 116.168 565.872 117.25C569.106 118.332 572.827 117.54 576.311 115.012C579.792 112.486 582.884 108.315 584.643 103.057Z" stroke="#FFC977" stroke-width="4"/>
<line y1="-2" x2="42.833" y2="-2" transform="matrix(0.94832 0.317315 0.317315 -0.94832 544.927 112.351)" stroke="#FFC977" stroke-width="4"/>
<line y1="-2" x2="42.833" y2="-2" transform="matrix(0.94832 0.317315 0.317315 -0.94832 542.986 118.154)" stroke="#FFC977" stroke-width="4"/>
<path d="M480.275 77.7624C489.653 86.071 491.952 98.7104 486.714 105.934C481.476 113.157 469.814 113.429 460.436 105.12C451.058 96.8112 448.759 84.1719 453.997 76.9487C459.235 69.7255 470.897 69.4537 480.275 77.7624Z" stroke="#FFC977" stroke-width="4"/>
<path d="M450.023 87.6958L488.007 96.7096" stroke="#FFC977" stroke-width="4"/>
<path d="M495.987 835.703C505.366 844.012 507.664 856.651 502.426 863.874C497.188 871.098 485.527 871.369 476.148 863.061C466.77 854.752 464.471 842.113 469.709 834.889C474.947 827.666 486.609 827.394 495.987 835.703Z" stroke="#FFC977" stroke-width="4"/>
<path d="M465.735 845.637L503.719 854.651" stroke="#FFC977" stroke-width="4"/>
<path d="M105.109 576.28C117.365 573.674 128.897 579.336 131.594 587.841C134.291 596.346 127.58 605.887 115.324 608.493C103.069 611.099 91.5371 605.437 88.8401 596.931C86.143 588.426 92.8539 578.885 105.109 576.28Z" stroke="#FFC977" stroke-width="4"/>
<path d="M95.1223 606.514L124.943 581.32" stroke="#FFC977" stroke-width="4"/>
<circle cx="634.936" cy="144.681" r="8.15106" transform="rotate(28.459 634.936 144.681)" fill="#FFC977"/>
<path d="M680.54 157.474C686.261 146.92 682.343 133.727 671.789 128.006C661.235 122.286 648.042 126.204 642.321 136.758" stroke="#FFC977" stroke-width="4"/>
<circle cx="800.822" cy="289.405" r="21.5059" transform="rotate(-9.12537 800.822 289.405)" stroke="#FFC977" stroke-width="4"/>
<path d="M804.76 276.87L811.182 284.765L801.133 286.379L804.76 276.87Z" fill="#FFC977"/>
<path d="M796.884 301.942L800.51 292.432L790.461 294.046L796.884 301.942Z" fill="#FFC977"/>
<circle cx="103.822" cy="369.405" r="21.5059" transform="rotate(-9.12537 103.822 369.405)" stroke="#FFC977" stroke-width="4"/>
<path d="M107.76 356.87L114.182 364.765L104.133 366.379L107.76 356.87Z" fill="#FFC977"/>
<path d="M99.8836 381.942L103.51 372.432L93.4613 374.046L99.8836 381.942Z" fill="#FFC977"/>
<path d="M724.094 173.872L768.747 224.601M706.19 189.632L750.843 240.361" stroke="#FFC977" stroke-width="4"/>
<circle cx="725.649" cy="193.689" r="7.95075" transform="rotate(48.6448 725.649 193.689)" fill="#FFC977"/>
<circle cx="751.915" cy="223.529" r="7.95075" transform="rotate(48.6448 751.915 223.529)" fill="#FFC977"/>
<path d="M836.301 341.386L844.42 393.563L815.886 350.791" stroke="#FFC977" stroke-width="4"/>
<path d="M557.917 831.533L610.498 826.668L566.037 852.493" stroke="#FFC977" stroke-width="4"/>
<path d="M852.127 433.948C856.733 438.597 856.941 444.738 853.908 447.742C850.875 450.747 844.737 450.48 840.132 445.831C835.526 441.182 835.318 435.042 838.351 432.037C841.384 429.033 847.522 429.299 852.127 433.948Z" stroke="#FFC977" stroke-width="4"/>
<path d="M853.079 454.812C857.685 459.461 857.893 465.601 854.86 468.606C851.827 471.61 845.689 471.344 841.084 466.695C836.478 462.046 836.27 455.905 839.303 452.901C842.336 449.896 848.474 450.163 853.079 454.812Z" stroke="#FFC977" stroke-width="4"/>
<path d="M854.031 475.675C858.637 480.324 858.846 486.464 855.813 489.469C852.78 492.473 846.641 492.207 842.036 487.558C837.43 482.909 837.222 476.768 840.255 473.764C843.288 470.759 849.426 471.026 854.031 475.675Z" stroke="#FFC977" stroke-width="4"/>
<path d="M854.984 496.538C859.589 501.187 859.798 507.328 856.765 510.332C853.732 513.337 847.594 513.07 842.988 508.421C838.383 503.772 838.174 497.632 841.207 494.627C844.24 491.623 850.378 491.889 854.984 496.538Z" stroke="#FFC977" stroke-width="4"/>
<path d="M821.347 547.469L856.464 577.514L812.886 592.904" stroke="#FFC977" stroke-width="4"/>
<circle cx="828.886" cy="571.758" r="5.92945" transform="rotate(-79.4512 828.886 571.758)" fill="#FFC977"/>
<path d="M199.603 180.472L212.856 224.747L167.886 214.087" stroke="#FFC977" stroke-width="4"/>
<circle cx="192.789" cy="204.974" r="5.92945" transform="rotate(-46.6646 192.789 204.974)" fill="#FFC977"/>
<path d="M771.886 678.863L802.915 629.469M792.224 691.639L823.253 642.246" stroke="#FFC977" stroke-width="4"/>
<ellipse cx="808.651" cy="665.49" rx="6.86247" ry="10.2937" transform="rotate(-57.8627 808.651 665.49)" fill="#FFC977"/>
<path d="M745.908 726.693C742.437 723.099 738.309 720.912 734.514 720.211C730.714 719.51 727.424 720.31 725.252 722.408C723.081 724.506 722.167 727.766 722.736 731.588C723.304 735.405 725.346 739.606 728.818 743.2C732.29 746.795 736.418 748.982 740.213 749.682C744.012 750.383 747.302 749.583 749.474 747.485C751.646 745.388 752.56 742.127 751.991 738.306C751.422 734.489 749.38 730.287 745.908 726.693Z" stroke="#FFC977" stroke-width="4"/>
<line y1="-2" x2="38.8649" y2="-2" transform="matrix(0.719268 -0.694733 -0.694733 -0.719268 721.457 746.45)" stroke="#FFC977" stroke-width="4"/>
<line y1="-2" x2="38.8649" y2="-2" transform="matrix(0.719268 -0.694733 -0.694733 -0.719268 736.886 762.424)" stroke="#FFC977" stroke-width="4"/>
<path d="M677.65 787.288L694.732 774.551" stroke="#FFC977" stroke-width="4"/>
<ellipse cx="662.704" cy="798.432" rx="5.32682" ry="5.32682" transform="rotate(-36.7104 662.704 798.432)" fill="#FFC977"/>
<path d="M678.182 786.891C684.556 795.439 682.794 807.536 674.245 813.91C665.697 820.285 653.6 818.522 647.226 809.974C640.852 801.425 642.614 789.328 651.163 782.954C659.711 776.58 671.808 778.343 678.182 786.891Z" stroke="#FFC977" stroke-width="4"/>
<circle cx="396.456" cy="831.91" r="10.2568" transform="rotate(11.309 396.456 831.91)" fill="#FFC977"/>
<path d="M408.526 858.526C411.488 843.714 401.882 829.304 387.069 826.342C372.257 823.38 357.848 832.986 354.885 847.799" stroke="#FFC977" stroke-width="4"/>
<circle cx="272.34" cy="135.122" r="10.2568" transform="rotate(-31.3487 272.34 135.122)" fill="#FFC977"/>
<path d="M299.39 146.667C291.531 133.767 274.702 129.68 261.802 137.538C248.901 145.397 244.814 162.226 252.672 175.126" stroke="#FFC977" stroke-width="4"/>
<path d="M300.609 809.916C303.167 805.153 304.062 800.172 303.53 796.016C302.998 791.857 301.078 788.696 298.16 787.129C295.242 785.561 291.547 785.706 287.784 787.559C284.027 789.41 280.368 792.907 277.809 797.67C275.251 802.433 274.356 807.414 274.888 811.57C275.42 815.729 277.341 818.89 280.258 820.457C283.176 822.025 286.872 821.88 290.634 820.027C294.392 818.176 298.05 814.679 300.609 809.916Z" stroke="#FFC977" stroke-width="4"/>
<line y1="-2" x2="41.8323" y2="-2" transform="matrix(0.880963 0.473185 0.473185 -0.880963 272.197 791.263)" stroke="#FFC977" stroke-width="4"/>
<line x1="140.394" y1="654.948" x2="166.235" y2="692.677" stroke="#FFC977" stroke-width="4"/>
<line x1="133.014" y1="686.018" x2="170.743" y2="660.177" stroke="#FFC977" stroke-width="4"/>
<circle cx="144.927" cy="662.745" r="5.10664" transform="rotate(-34.4075 144.927 662.745)" fill="#FFC977"/>
<path d="M204.417 748.217C201.033 751.73 199.046 755.832 198.497 759.555C197.947 763.282 198.844 766.452 200.957 768.488C203.07 770.523 206.272 771.3 209.976 770.612C213.675 769.924 217.701 767.785 221.085 764.272C224.469 760.759 226.455 756.657 227.004 752.934C227.554 749.207 226.658 746.036 224.545 744.001C222.431 741.965 219.23 741.188 215.526 741.877C211.826 742.565 207.801 744.703 204.417 748.217Z" fill="#FFC977" stroke="#FFC977" stroke-width="4"/>
<line y1="-2" x2="38" y2="-2" transform="matrix(-0.720209 -0.693757 -0.693757 0.720209 239.616 755.742)" stroke="#FFC977" stroke-width="4"/>
<line y1="-2" x2="38" y2="-2" transform="matrix(-0.720209 -0.693757 -0.693757 0.720209 243.382 751.832)" stroke="#FFC977" stroke-width="4"/>
<line x1="95.5819" y1="511.896" x2="92.0416" y2="440.822" stroke="#FFC977" stroke-width="4"/>
<circle cx="92.3857" cy="458.617" r="7.62456" transform="rotate(-92.8516 92.3857 458.617)" fill="#FFC977"/>
<path d="M149.45 279.389C154.064 282.545 157.258 286.693 158.748 290.765C160.24 294.842 159.984 298.671 158.041 301.513C156.098 304.355 152.622 305.983 148.282 306.072C143.946 306.161 138.922 304.69 134.308 301.535C129.693 298.38 126.5 294.232 125.009 290.159C123.518 286.083 123.773 282.253 125.717 279.411C127.66 276.569 131.135 274.941 135.476 274.852C139.811 274.763 144.835 276.234 149.45 279.389Z" fill="#FFC977" stroke="#FFC977" stroke-width="4"/>
<line x1="110.235" y1="294.967" x2="134.594" y2="259.34" stroke="#FFC977" stroke-width="4"/>
<line x1="125.504" y1="305.407" x2="149.863" y2="269.78" stroke="#FFC977" stroke-width="4"/>
</svg>
