<svg width="511" height="508" viewBox="0 0 511 508" fill="none" xmlns="http://www.w3.org/2000/svg">
<path d="M255.236 41.5287V0.467285M336.393 57.9533L352.818 19.3072M404.507 104.329L434.94 73.4117M450.399 173.408L490.494 156.018M466.823 253.599H510.3M452.814 333.307L490.494 349.731M406.922 402.386L436.873 430.888M338.325 447.795L355.233 486.442M253.304 464.22V507.697M173.113 447.795L155.723 486.442M105 401.903L73.5998 432.82M59.5906 333.79L19.0122 350.697M44.1321 253.599H0.172241M20.4614 155.052L60.5567 172.442M76.4982 73.4117L106.932 103.362M158.138 19.3072L174.08 57.9533" stroke="#FFC977" stroke-width="4.83076"/>
</svg>
