<svg width="471" height="471" viewBox="0 0 471 471" fill="none" xmlns="http://www.w3.org/2000/svg">
<circle cx="235.886" cy="235.469" r="235" fill="#C9DFF3"/>
<circle cx="308.886" cy="36.4692" r="13" fill="white"/>
<rect x="305.886" y="33.4692" width="6" height="6" fill="#FFC977"/>
<circle cx="408.886" cy="358.469" r="13" fill="white"/>
<rect x="405.886" y="355.469" width="6" height="6" fill="#FFC977"/>
<rect x="428.886" y="175.431" width="25" height="25" transform="rotate(-11.4486 428.886 175.431)" fill="white"/>
<circle cx="443.904" cy="185.67" r="3" transform="rotate(13.559 443.904 185.67)" fill="#FFC977"/>
<path d="M234.386 434.469L249.541 460.719H219.23L234.386 434.469Z" fill="white"/>
<rect x="231.886" y="449.469" width="5" height="5" fill="#FFC977"/>
<path d="M37.2196 124.358L67.4046 121.599L54.7018 149.12L37.2196 124.358Z" fill="white"/>
<rect x="49.7911" y="132.915" width="5" height="5" transform="rotate(-65.2232 49.7911 132.915)" fill="#FFC977"/>
<rect x="25.8856" y="316.943" width="20" height="36" transform="rotate(-28.2726 25.8856 316.943)" fill="white"/>
<circle cx="43.8856" cy="328.469" r="3" fill="#FFC977"/>
</svg>
