<svg width="87" height="104" viewBox="0 0 87 104" fill="none" xmlns="http://www.w3.org/2000/svg">
<path d="M71.6755 43.2193C71.6755 31.7299 68.3455 21.4291 63.0835 14.0624C57.8183 6.69109 50.7622 2.41523 43.2199 2.41523C35.6776 2.41523 28.6215 6.69109 23.3563 14.0624C18.0943 21.4291 14.7643 31.7299 14.7643 43.2193C14.7643 54.7086 18.0943 65.0094 23.3563 72.3761C28.6215 79.7475 35.6776 84.0233 43.2199 84.0233C50.7622 84.0233 57.8183 79.7475 63.0835 72.3761C68.3455 65.0094 71.6755 54.7086 71.6755 43.2193Z" stroke="#FFC977" stroke-width="4.83076"/>
<line y1="-2.41538" x2="86.4389" y2="-2.41538" transform="matrix(1 0 0 -1 0 86.4387)" stroke="#FFC977" stroke-width="4.83076"/>
<line y1="-2.41538" x2="86.4389" y2="-2.41538" transform="matrix(1 0 0 -1 0 98.7875)" stroke="#FFC977" stroke-width="4.83076"/>
</svg>
