<svg width="657" height="882" viewBox="0 0 657 882" fill="none" xmlns="http://www.w3.org/2000/svg">
<path fill-rule="evenodd" clip-rule="evenodd" d="M0.983154 57.9691C0.983154 25.9536 26.9368 0 58.9522 0H599.031C631.046 0 657 25.9536 657 57.9691V823.161C657 855.177 631.046 881.13 599.031 881.13H58.9522C26.9368 881.13 0.983154 855.177 0.983154 823.161V57.9691ZM319.33 178.738V219.799H314.499V178.738H319.33ZM416.719 198.523L400.294 237.169L395.848 235.279L412.273 196.633L416.719 198.523ZM233.525 237.145L217.584 198.499L222.049 196.657L237.991 235.303L233.525 237.145ZM166.916 283.355L136.482 253.404L139.871 249.961L170.305 279.912L166.916 283.355ZM498.34 253.377L467.906 284.294L464.464 280.905L494.897 249.988L498.34 253.377ZM121.274 352.929L81.1787 335.538L83.1009 331.106L123.196 348.497L121.274 352.929ZM553.134 336.504L513.038 353.895L511.116 349.463L551.211 332.073L553.134 336.504ZM61.8506 429.454H105.811V434.285H61.8506V429.454ZM571.979 434.285H528.502V429.454H571.979V434.285ZM551.207 530.216L513.527 513.791L515.458 509.363L553.138 525.788L551.207 530.216ZM79.7616 526.738L120.34 509.831L122.198 514.29L81.6196 531.198L79.7616 526.738ZM133.583 609.37L164.983 578.453L168.373 581.895L136.973 612.812L133.583 609.37ZM496.886 610.908L466.935 582.407L470.265 578.907L500.216 607.409L496.886 610.908ZM215.198 663.721L232.589 625.075L236.994 627.057L219.604 665.703L215.198 663.721ZM414.698 665.68L397.791 627.034L402.217 625.098L419.124 663.744L414.698 665.68ZM312.567 685.968V642.491H317.398V685.968H312.567ZM374.884 850.911L509.523 767.124L506.971 763.023L372.331 846.81L374.884 850.911ZM590.68 767.124L456.04 850.911L453.488 846.81L588.128 763.023L590.68 767.124ZM143.985 84.5439C143.985 113.094 120.84 136.239 92.2901 136.239C63.7398 136.239 40.5953 113.094 40.5953 84.5439C40.5953 55.9937 63.7398 32.8492 92.2901 32.8492C120.84 32.8492 143.985 55.9937 143.985 84.5439ZM148.816 84.5439C148.816 115.762 123.508 141.069 92.2901 141.069C61.0719 141.069 35.7645 115.762 35.7645 84.5439C35.7645 53.3257 61.0719 28.0184 92.2901 28.0184C123.508 28.0184 148.816 53.3257 148.816 84.5439ZM106.42 56.2811L118.658 77.4769H94.1828L106.42 56.2811ZM90.3955 91.6109L78.1582 112.807L65.9208 91.6109H90.3955ZM616.672 602.887C621.609 609.799 624.814 619.596 624.814 630.64C624.814 641.683 621.609 651.48 616.672 658.392C611.728 665.314 605.334 669.028 598.774 669.028C592.214 669.028 585.82 665.314 580.876 658.392C575.938 651.48 572.734 641.683 572.734 630.64C572.734 619.596 575.938 609.799 580.876 602.887C585.82 595.965 592.214 592.251 598.774 592.251C605.334 592.251 611.728 595.965 616.672 602.887ZM598.774 587.42C615.823 587.42 629.645 606.77 629.645 630.64C629.645 654.509 615.823 673.859 598.774 673.859C581.724 673.859 567.903 654.509 567.903 630.64C567.903 606.77 581.724 587.42 598.774 587.42ZM598.774 673.859H641.993V678.69H555.554V673.859H598.774ZM555.554 686.208V691.038H641.993V686.208H555.554ZM396.02 42.2438C392.945 39.6205 388.176 39.9567 385.384 43.2284C382.592 46.5002 383.01 51.2633 386.084 53.8866C389.158 56.5099 393.928 56.1736 396.72 52.9019C399.512 49.6302 399.094 44.8671 396.02 42.2438ZM399.155 38.5691C393.995 34.166 386.185 34.8481 381.709 40.0927C377.234 45.3372 377.789 53.1581 382.948 57.5612C388.108 61.9643 395.919 61.2822 400.395 56.0377C404.87 50.7931 404.315 42.9722 399.155 38.5691ZM200.082 87.9863C202.874 84.7146 207.644 84.3784 210.718 87.0017C213.792 89.625 214.21 94.3881 211.418 97.6598C208.626 100.931 203.857 101.268 200.783 98.6444C197.709 96.0211 197.29 91.258 200.082 87.9863ZM196.408 84.8505C200.883 79.606 208.694 78.9239 213.854 83.327C219.014 87.7301 219.568 95.551 215.093 100.796C210.618 106.04 202.807 106.722 197.647 102.319C192.487 97.916 191.932 90.0951 196.408 84.8505ZM223.604 91.3578L374.819 54.8751L373.686 50.1791L222.471 86.6618L223.604 91.3578ZM572.805 205.628C564.135 209.814 560.5 220.235 564.686 228.905C568.871 237.575 579.293 241.21 587.962 237.024C596.632 232.838 600.267 222.417 596.081 213.747C591.896 205.078 581.474 201.443 572.805 205.628ZM597 204.169C618.918 193.587 628.107 167.241 617.526 145.323C606.944 123.405 580.598 114.216 558.68 124.798L556.579 120.447C580.9 108.705 610.134 118.902 621.876 143.223C633.618 167.543 623.421 196.777 599.1 208.519L597 204.169ZM36.7937 335.255L35.7645 587.388L30.9338 587.369L31.9629 335.235L36.7937 335.255ZM68.6137 217.384C68.6137 229.657 58.6648 239.606 46.3922 239.606C34.1196 239.606 24.1707 229.657 24.1707 217.384C24.1707 205.112 34.1196 195.163 46.3922 195.163C58.6648 195.163 68.6137 205.112 68.6137 217.384ZM73.4444 217.384C73.4444 232.325 61.3327 244.436 46.3922 244.436C31.4517 244.436 19.34 232.325 19.34 217.384C19.34 202.444 31.4517 190.332 46.3922 190.332C61.3327 190.332 73.4444 202.444 73.4444 217.384ZM292.761 800.94C292.761 812.679 283.245 822.195 271.506 822.195C259.767 822.195 250.25 812.679 250.25 800.94C250.25 789.201 259.767 779.684 271.506 779.684C283.245 779.684 292.761 789.201 292.761 800.94ZM625.117 327.525C625.117 339.798 615.168 349.747 602.896 349.747C590.623 349.747 580.674 339.798 580.674 327.525C580.674 315.253 590.623 305.304 602.896 305.304C615.168 305.304 625.117 315.253 625.117 327.525ZM629.948 327.525C629.948 342.466 617.836 354.578 602.896 354.578C587.955 354.578 575.843 342.466 575.843 327.525C575.843 312.585 587.955 300.473 602.896 300.473C617.836 300.473 629.948 312.585 629.948 327.525ZM71.0291 612.54L83.1614 681.378H58.8967L71.0291 612.54ZM142.041 787.414C142.041 819.963 115.655 846.349 83.106 846.349C50.5569 846.349 24.1707 819.963 24.1707 787.414C24.1707 754.865 50.5569 728.478 83.106 728.478C115.655 728.478 142.041 754.865 142.041 787.414ZM146.872 787.414C146.872 822.63 118.323 851.18 83.106 851.18C47.889 851.18 19.34 822.63 19.34 787.414C19.34 752.197 47.889 723.648 83.106 723.648C118.323 723.648 146.872 752.197 146.872 787.414ZM468.732 42.2784L472.926 75.0325C492.641 73.6463 510.272 87.8487 512.88 107.706C515.589 128.332 501.064 147.249 480.438 149.958C459.811 152.667 440.895 138.143 438.185 117.516C435.581 97.6894 448.901 79.4418 468.258 75.6512L468.137 75.6667L463.94 42.892L468.732 42.2784ZM484.869 111.384C484.192 106.228 479.463 102.597 474.306 103.274C469.149 103.951 465.518 108.68 466.196 113.837C466.873 118.994 471.602 122.625 476.759 121.948C481.915 121.27 485.546 116.541 484.869 111.384ZM508.09 108.335C505.728 90.3542 489.238 77.6922 471.257 80.0538C453.276 82.4154 440.614 98.9063 442.975 116.887C445.337 134.868 461.828 147.53 479.809 145.169C497.79 142.807 510.452 126.316 508.09 108.335ZM358.459 390.325H274.404V474.38H358.459V390.325Z" fill="white"/>
</svg>
