<svg width="306" height="315" viewBox="0 0 306 315" fill="none" xmlns="http://www.w3.org/2000/svg">
<path d="M3.33476 41.1526L24.477 60.8081L30.9281 32.6706L3.33476 41.1526ZM262.781 312.203C265.281 312.175 265.281 312.174 265.281 312.174C265.281 312.174 265.281 312.174 265.281 312.174C265.281 312.174 265.281 312.174 265.281 312.173C265.281 312.173 265.281 312.173 265.281 312.172C265.281 312.171 265.281 312.17 265.281 312.168C265.281 312.166 265.281 312.162 265.281 312.157C265.28 312.148 265.28 312.136 265.28 312.12C265.279 312.089 265.279 312.044 265.277 311.986C265.275 311.871 265.27 311.704 265.262 311.486C265.247 311.05 265.218 310.412 265.168 309.582L260.177 309.887C260.225 310.674 260.251 311.27 260.265 311.664C260.272 311.862 260.276 312.008 260.279 312.104C260.28 312.151 260.28 312.186 260.281 312.207C260.281 312.218 260.281 312.225 260.281 312.23C260.281 312.232 260.281 312.233 260.281 312.233C260.281 312.234 260.281 312.234 260.281 312.233C260.281 312.233 260.281 312.233 260.281 312.233C260.281 312.233 260.281 312.233 260.281 312.233C260.281 312.233 260.281 312.232 260.281 312.232C260.281 312.232 260.281 312.232 262.781 312.203ZM264.743 304.491C264.59 303.001 264.394 301.31 264.142 299.431L259.186 300.096C259.431 301.922 259.622 303.562 259.769 305.002L264.743 304.491ZM263.395 294.389C263.139 292.804 262.848 291.127 262.517 289.361L257.603 290.281C257.925 292.005 258.209 293.642 258.459 295.187L263.395 294.389ZM261.53 284.401C261.194 282.809 260.828 281.159 260.429 279.455L255.561 280.593C255.951 282.262 256.309 283.876 256.638 285.433L261.53 284.401ZM259.221 274.527C258.812 272.932 258.376 271.296 257.91 269.621L253.093 270.962C253.55 272.603 253.977 274.206 254.378 275.769L259.221 274.527ZM256.502 264.752C256.029 263.175 255.531 261.568 255.005 259.933L250.245 261.462C250.76 263.066 251.249 264.642 251.713 266.188L256.502 264.752ZM253.413 255.136C252.875 253.566 252.313 251.973 251.726 250.357L247.027 252.067C247.604 253.652 248.155 255.216 248.683 256.756L253.413 255.136ZM249.942 245.595C249.346 244.048 248.727 242.482 248.084 240.899L243.452 242.782C244.083 244.336 244.691 245.873 245.276 247.392L249.942 245.595ZM246.141 236.239C245.484 234.704 244.805 233.154 244.103 231.59L239.542 233.639C240.232 235.175 240.899 236.697 241.544 238.205L246.141 236.239ZM241.987 226.99C241.279 225.486 240.55 223.971 239.799 222.445L235.313 224.654C236.051 226.154 236.768 227.642 237.463 229.119L241.987 226.99ZM237.515 217.908C236.753 216.428 235.97 214.937 235.166 213.439L230.76 215.803C231.551 217.276 232.32 218.74 233.068 220.196L237.515 217.908ZM232.739 209.006C231.92 207.541 231.081 206.068 230.22 204.589L225.898 207.103C226.744 208.557 227.569 210.005 228.374 211.445L232.739 209.006ZM227.655 200.262C226.787 198.826 225.9 197.384 224.991 195.937L220.756 198.594C221.649 200.018 222.522 201.436 223.376 202.848L227.655 200.262ZM222.277 191.69C221.364 190.287 220.432 188.88 219.48 187.468L215.335 190.264C216.271 191.653 217.189 193.037 218.087 194.417L222.277 191.69ZM216.618 183.3C215.662 181.93 214.686 180.557 213.692 179.181L209.64 182.111C210.618 183.465 211.578 184.815 212.519 186.163L216.618 183.3ZM210.691 175.1C209.692 173.763 208.675 172.425 207.639 171.084L203.682 174.141C204.702 175.461 205.703 176.778 206.686 178.093L210.691 175.1ZM204.507 167.096C203.467 165.793 202.409 164.488 201.334 163.182L197.474 166.361C198.534 167.647 199.575 168.932 200.599 170.215L204.507 167.096ZM198.079 159.293C196.999 158.023 195.902 156.751 194.786 155.479L191.027 158.775C192.125 160.028 193.206 161.281 194.27 162.532L198.079 159.293ZM191.418 151.695C190.299 150.456 189.162 149.218 188.009 147.979L184.35 151.386C185.486 152.607 186.606 153.827 187.708 155.047L191.418 151.695ZM184.535 144.303C183.947 143.69 183.356 143.078 182.76 142.465L179.177 145.953C179.764 146.556 180.347 147.16 180.926 147.764L184.535 144.303ZM182.76 142.465C182.146 141.835 181.531 141.207 180.915 140.584L177.357 144.097C177.964 144.712 178.571 145.331 179.177 145.953L182.76 142.465ZM177.21 136.885C175.962 135.657 174.711 134.443 173.457 133.243L170 136.856C171.237 138.039 172.471 139.237 173.703 140.449L177.21 136.885ZM169.647 129.649C168.365 128.457 167.08 127.279 165.793 126.116L162.44 129.825C163.709 130.973 164.977 132.134 166.242 133.311L169.647 129.649ZM161.884 122.631C160.568 121.474 159.251 120.333 157.933 119.207L154.684 123.008C155.985 124.119 157.285 125.245 158.583 126.386L161.884 122.631ZM153.929 115.832C152.581 114.712 151.232 113.607 149.883 112.518L146.741 116.407C148.072 117.482 149.403 118.573 150.733 119.678L153.929 115.832ZM145.79 109.257C144.41 108.174 143.031 107.105 141.652 106.052L138.617 110.026C139.978 111.066 141.34 112.12 142.702 113.189L145.79 109.257ZM137.477 102.909C136.066 101.861 134.656 100.83 133.248 99.8137L130.322 103.868C131.712 104.871 133.104 105.89 134.496 106.924L137.477 102.909ZM128.998 96.79C127.556 95.7785 126.117 94.7833 124.68 93.8043L121.864 97.9357C123.282 98.9023 124.703 99.8848 126.127 100.883L128.998 96.79ZM120.361 90.9012C118.889 89.9264 117.422 88.9684 115.959 88.027L113.253 92.2316C114.697 93.1611 116.146 94.107 117.599 95.0695L120.361 90.9012ZM111.551 85.2316C110.06 84.299 108.573 83.3836 107.093 82.4852L104.499 86.7594C105.96 87.6466 107.428 88.5505 108.901 89.4714L111.551 85.2316ZM102.599 79.7973C101.091 78.9083 99.5894 78.037 98.0963 77.183L95.6138 81.5232C97.0884 82.3666 98.5709 83.2271 100.061 84.105L102.599 79.7973ZM93.5162 74.6028C91.9791 73.7501 90.4518 72.9159 88.9351 72.0998L86.5661 76.503C88.0641 77.309 89.5725 78.1329 91.0905 78.975L93.5162 74.6028ZM84.3178 69.654C82.7485 68.8356 81.1918 68.0369 79.6487 67.2575L77.3944 71.7205C78.9185 72.4903 80.4559 73.2791 82.0059 74.0874L84.3178 69.654ZM74.9772 64.9356C73.3917 64.1603 71.8221 63.4056 70.2698 62.6713L68.1316 67.191C69.6647 67.9163 71.2148 68.6616 72.7807 69.4273L74.9772 64.9356ZM65.508 60.4565C63.8971 59.72 62.3068 59.0058 60.7387 58.3136L58.7194 62.8876C60.2678 63.5712 61.8381 64.2764 63.429 65.0038L65.508 60.4565ZM55.9603 56.2413C54.3224 55.5438 52.7118 54.871 51.1301 54.2222L49.2326 58.8481C50.7939 59.4886 52.384 60.1528 54.0011 60.8415L55.9603 56.2413ZM46.2595 52.2626C44.5923 51.605 42.9622 50.9755 41.3714 50.3733L39.6011 55.0495C41.1708 55.6437 42.7795 56.2649 44.4249 56.9139L46.2595 52.2626ZM36.4616 48.554C34.7622 47.9381 33.116 47.3556 31.5262 46.8055L29.8911 51.5306C31.4583 52.0729 33.0816 52.6472 34.7577 53.2547L36.4616 48.554ZM26.5638 45.1302C24.8161 44.5552 23.1538 44.0242 21.5823 43.5352L20.0967 48.3094C21.6429 48.7905 23.2795 49.3133 25.0011 49.8797L26.5638 45.1302ZM16.5967 42.0308C14.7052 41.4785 13.0022 41.0029 11.5027 40.5982L10.2 45.4256C11.6674 45.8215 13.3375 46.2879 15.1952 46.8304L16.5967 42.0308ZM3.33476 41.1526L24.477 60.8081L30.9281 32.6706L3.33476 41.1526ZM262.781 312.203C265.281 312.175 265.281 312.174 265.281 312.174C265.281 312.174 265.281 312.174 265.281 312.174C265.281 312.174 265.281 312.174 265.281 312.173C265.281 312.173 265.281 312.173 265.281 312.172C265.281 312.171 265.281 312.17 265.281 312.168C265.281 312.166 265.281 312.162 265.281 312.157C265.28 312.148 265.28 312.136 265.28 312.12C265.279 312.089 265.279 312.044 265.277 311.986C265.275 311.871 265.27 311.704 265.262 311.486C265.247 311.05 265.218 310.412 265.168 309.582L260.177 309.887C260.225 310.674 260.251 311.27 260.265 311.664C260.272 311.862 260.276 312.008 260.279 312.104C260.28 312.151 260.28 312.186 260.281 312.207C260.281 312.218 260.281 312.225 260.281 312.23C260.281 312.232 260.281 312.233 260.281 312.233C260.281 312.234 260.281 312.234 260.281 312.233C260.281 312.233 260.281 312.233 260.281 312.233C260.281 312.233 260.281 312.233 260.281 312.233C260.281 312.233 260.281 312.232 260.281 312.232C260.281 312.232 260.281 312.232 262.781 312.203ZM264.743 304.491C264.59 303.001 264.394 301.31 264.142 299.431L259.186 300.096C259.431 301.922 259.622 303.562 259.769 305.002L264.743 304.491ZM263.395 294.389C263.139 292.804 262.848 291.127 262.517 289.361L257.603 290.281C257.925 292.005 258.209 293.642 258.459 295.187L263.395 294.389ZM261.53 284.401C261.194 282.809 260.828 281.159 260.429 279.455L255.561 280.593C255.951 282.262 256.309 283.876 256.638 285.433L261.53 284.401ZM259.221 274.527C258.812 272.932 258.376 271.296 257.91 269.621L253.093 270.962C253.55 272.603 253.977 274.206 254.378 275.769L259.221 274.527ZM256.502 264.752C256.029 263.175 255.531 261.568 255.005 259.933L250.245 261.462C250.76 263.066 251.249 264.642 251.713 266.188L256.502 264.752ZM253.413 255.136C252.875 253.566 252.313 251.973 251.726 250.357L247.027 252.067C247.604 253.652 248.155 255.216 248.683 256.756L253.413 255.136ZM249.942 245.595C249.346 244.048 248.727 242.482 248.084 240.899L243.452 242.782C244.083 244.336 244.691 245.873 245.276 247.392L249.942 245.595ZM246.141 236.239C245.484 234.704 244.805 233.154 244.103 231.59L239.542 233.639C240.232 235.175 240.899 236.697 241.544 238.205L246.141 236.239ZM241.987 226.99C241.279 225.486 240.55 223.971 239.799 222.445L235.313 224.654C236.051 226.154 236.768 227.642 237.463 229.119L241.987 226.99ZM237.515 217.908C236.753 216.428 235.97 214.937 235.166 213.439L230.76 215.803C231.551 217.276 232.32 218.74 233.068 220.196L237.515 217.908ZM232.739 209.006C231.92 207.541 231.081 206.068 230.22 204.589L225.898 207.103C226.744 208.557 227.569 210.005 228.374 211.445L232.739 209.006ZM227.655 200.262C226.787 198.826 225.9 197.384 224.991 195.937L220.756 198.594C221.649 200.018 222.522 201.436 223.376 202.848L227.655 200.262ZM222.277 191.69C221.364 190.287 220.432 188.88 219.48 187.468L215.335 190.264C216.271 191.653 217.189 193.037 218.087 194.417L222.277 191.69ZM216.618 183.3C215.662 181.93 214.686 180.557 213.692 179.181L209.64 182.111C210.618 183.465 211.578 184.815 212.519 186.163L216.618 183.3ZM210.691 175.1C209.692 173.763 208.675 172.425 207.639 171.084L203.682 174.141C204.702 175.461 205.703 176.778 206.686 178.093L210.691 175.1ZM204.507 167.096C203.467 165.793 202.409 164.488 201.334 163.182L197.474 166.361C198.534 167.647 199.575 168.932 200.599 170.215L204.507 167.096ZM198.079 159.293C196.999 158.023 195.902 156.751 194.786 155.479L191.027 158.775C192.125 160.028 193.206 161.281 194.27 162.532L198.079 159.293ZM191.418 151.695C190.299 150.456 189.162 149.218 188.009 147.979L184.35 151.386C185.486 152.607 186.606 153.827 187.708 155.047L191.418 151.695ZM184.535 144.303C183.947 143.69 183.356 143.078 182.76 142.465L179.177 145.953C179.764 146.556 180.347 147.16 180.926 147.764L184.535 144.303ZM182.76 142.465C182.146 141.835 181.531 141.207 180.915 140.584L177.357 144.097C177.964 144.712 178.571 145.331 179.177 145.953L182.76 142.465ZM177.21 136.885C175.962 135.657 174.711 134.443 173.457 133.243L170 136.856C171.237 138.039 172.471 139.237 173.703 140.449L177.21 136.885ZM169.647 129.649C168.365 128.457 167.08 127.279 165.793 126.116L162.44 129.825C163.709 130.973 164.977 132.134 166.242 133.311L169.647 129.649ZM161.884 122.631C160.568 121.474 159.251 120.333 157.933 119.207L154.684 123.008C155.985 124.119 157.285 125.245 158.583 126.386L161.884 122.631ZM153.929 115.832C152.581 114.712 151.232 113.607 149.883 112.518L146.741 116.407C148.072 117.482 149.403 118.573 150.733 119.678L153.929 115.832ZM145.79 109.257C144.41 108.174 143.031 107.105 141.652 106.052L138.617 110.026C139.978 111.066 141.34 112.12 142.702 113.189L145.79 109.257ZM137.477 102.909C136.066 101.861 134.656 100.83 133.248 99.8137L130.322 103.868C131.712 104.871 133.104 105.89 134.496 106.924L137.477 102.909ZM128.998 96.79C127.556 95.7785 126.117 94.7833 124.68 93.8043L121.864 97.9357C123.282 98.9023 124.703 99.8848 126.127 100.883L128.998 96.79ZM120.361 90.9012C118.889 89.9264 117.422 88.9684 115.959 88.027L113.253 92.2316C114.697 93.1611 116.146 94.107 117.599 95.0695L120.361 90.9012ZM111.551 85.2316C110.06 84.299 108.573 83.3836 107.093 82.4852L104.499 86.7594C105.96 87.6466 107.428 88.5505 108.901 89.4714L111.551 85.2316ZM102.599 79.7973C101.091 78.9083 99.5894 78.037 98.0963 77.183L95.6138 81.5232C97.0884 82.3666 98.5709 83.2271 100.061 84.105L102.599 79.7973ZM93.5162 74.6028C91.9791 73.7501 90.4518 72.9159 88.9351 72.0998L86.5661 76.503C88.0641 77.309 89.5725 78.1329 91.0905 78.975L93.5162 74.6028ZM84.3178 69.654C82.7485 68.8356 81.1918 68.0369 79.6487 67.2575L77.3944 71.7205C78.9185 72.4903 80.4559 73.2791 82.0059 74.0874L84.3178 69.654ZM74.9772 64.9356C73.3917 64.1603 71.8221 63.4056 70.2698 62.6713L68.1316 67.191C69.6647 67.9163 71.2148 68.6616 72.7807 69.4273L74.9772 64.9356ZM65.508 60.4565C63.8971 59.72 62.3068 59.0058 60.7387 58.3136L58.7194 62.8876C60.2678 63.5712 61.8381 64.2764 63.429 65.0038L65.508 60.4565ZM55.9603 56.2413C54.3224 55.5438 52.7118 54.871 51.1301 54.2222L49.2326 58.8481C50.7939 59.4886 52.384 60.1528 54.0011 60.8415L55.9603 56.2413ZM46.2595 52.2626C44.5923 51.605 42.9622 50.9755 41.3714 50.3733L39.6011 55.0495C41.1708 55.6437 42.7795 56.2649 44.4249 56.9139L46.2595 52.2626ZM36.4616 48.554C34.7622 47.9381 33.116 47.3556 31.5262 46.8055L29.8911 51.5306C31.4583 52.0729 33.0816 52.6472 34.7577 53.2547L36.4616 48.554ZM26.5638 45.1302C24.8161 44.5552 23.1538 44.0242 21.5823 43.5352L20.0967 48.3094C21.6429 48.7905 23.2795 49.3133 25.0011 49.8797L26.5638 45.1302ZM16.5967 42.0308C14.7052 41.4785 13.0022 41.0029 11.5027 40.5982L10.2 45.4256C11.6674 45.8215 13.3375 46.2879 15.1952 46.8304L16.5967 42.0308Z" fill="#C9DFF3"/>
</svg>
