<svg width="643" height="547" viewBox="0 0 643 547" fill="none" xmlns="http://www.w3.org/2000/svg">
<rect x="12" y="12" width="620" height="523" fill="#C0C0C0"/>
<circle cx="625" cy="529" r="18" fill="#C0C0C0"/>
<circle cx="18" cy="529" r="18" fill="#C0C0C0"/>
<circle cx="625" cy="18" r="18" fill="#C0C0C0"/>
<circle cx="18" cy="18" r="18" fill="#C0C0C0"/>
<path d="M301.602 176.02C139.173 97.5077 -4.8965 231.858 34.5941 362.263L590.313 362.263C610.777 280.277 554.285 172.148 421.235 192.21C390.895 197.66 338.671 193.938 301.602 176.02Z" fill="#DDDDDD" stroke="#1C1C1C" stroke-width="2.00921"/>
<path d="M302.115 184.658C146.659 109.534 8.89083 237.485 46.6864 362.264L578.624 362.264C598.209 283.815 543.952 180.953 416.613 200.15C387.576 205.364 337.593 201.803 302.115 184.658Z" fill="#EFEFEF" stroke="#1C1C1C" stroke-width="2.00921"/>
<path d="M594.596 322.682H601.829V362.263H585.555" stroke="#1C1C1C" stroke-width="2.00921"/>
<path d="M608.011 321.476L605.111 326.499L610.911 326.499L608.011 321.476ZM608.513 363.368L608.513 325.997H607.508L607.509 363.368L608.513 363.368Z" fill="#1C1C1C"/>
<path d="M611.878 344.546V344.032L613.807 341.92C614.033 341.673 614.22 341.458 614.366 341.275C614.513 341.091 614.621 340.918 614.692 340.756C614.764 340.592 614.8 340.421 614.8 340.242C614.8 340.037 614.751 339.859 614.652 339.708C614.555 339.558 614.421 339.442 614.252 339.36C614.083 339.278 613.892 339.237 613.681 339.237C613.457 339.237 613.261 339.284 613.093 339.377C612.928 339.469 612.799 339.597 612.708 339.763C612.619 339.928 612.574 340.122 612.574 340.345H611.9C611.9 340.002 611.979 339.702 612.137 339.443C612.295 339.184 612.51 338.983 612.782 338.838C613.056 338.693 613.363 338.621 613.704 338.621C614.047 338.621 614.35 338.693 614.614 338.838C614.879 338.983 615.086 339.178 615.237 339.423C615.387 339.668 615.462 339.941 615.462 340.242C615.462 340.457 615.423 340.667 615.345 340.873C615.269 341.076 615.136 341.304 614.946 341.555C614.757 341.804 614.496 342.109 614.161 342.468L612.848 343.872V343.918H615.565V344.546H611.878ZM621.413 343.633L622.942 340.162H623.582L621.687 344.546H621.139L619.278 340.162H619.906L621.413 343.633ZM619.689 340.162V344.546H619.015V340.162H619.689ZM623.136 344.546V340.162H623.81V344.546H623.136Z" fill="#1C1C1C"/>
<path d="M195.876 151.999L192.976 157.022H198.776L195.876 151.999ZM196.378 362.264V156.52H195.374V362.264H196.378Z" fill="#1C1C1C"/>
<path d="M304.636 388.828C304.259 388.828 303.923 388.763 303.628 388.634C303.335 388.505 303.102 388.325 302.929 388.094C302.758 387.862 302.665 387.593 302.649 387.287H303.368C303.384 387.475 303.448 387.638 303.563 387.775C303.677 387.91 303.826 388.015 304.011 388.089C304.195 388.163 304.4 388.2 304.624 388.2C304.875 388.2 305.098 388.156 305.292 388.069C305.486 387.981 305.638 387.86 305.749 387.703C305.859 387.547 305.914 387.367 305.914 387.161C305.914 386.946 305.861 386.757 305.754 386.593C305.648 386.428 305.492 386.298 305.286 386.205C305.081 386.112 304.83 386.065 304.533 386.065H304.065V385.437H304.533C304.765 385.437 304.969 385.396 305.144 385.312C305.321 385.228 305.459 385.11 305.558 384.958C305.658 384.806 305.709 384.627 305.709 384.421C305.709 384.224 305.665 384.051 305.577 383.905C305.49 383.758 305.366 383.644 305.206 383.562C305.049 383.481 304.862 383.44 304.647 383.44C304.445 383.44 304.255 383.477 304.076 383.551C303.899 383.623 303.755 383.729 303.642 383.868C303.53 384.005 303.469 384.17 303.46 384.364H302.775C302.786 384.058 302.879 383.79 303.052 383.559C303.225 383.327 303.451 383.147 303.731 383.017C304.013 382.888 304.322 382.823 304.658 382.823C305.02 382.823 305.33 382.896 305.589 383.043C305.848 383.188 306.046 383.379 306.185 383.617C306.324 383.854 306.394 384.111 306.394 384.387C306.394 384.716 306.307 384.997 306.134 385.229C305.963 385.461 305.73 385.622 305.435 385.711V385.757C305.804 385.818 306.092 385.975 306.3 386.228C306.507 386.479 306.611 386.79 306.611 387.161C306.611 387.479 306.524 387.764 306.351 388.017C306.18 388.269 305.946 388.466 305.649 388.611C305.352 388.756 305.014 388.828 304.636 388.828ZM309.684 388.828C309.254 388.828 308.888 388.711 308.586 388.477C308.283 388.241 308.052 387.899 307.892 387.452C307.732 387.003 307.652 386.461 307.652 385.826C307.652 385.194 307.732 384.654 307.892 384.207C308.054 383.758 308.286 383.416 308.588 383.18C308.893 382.942 309.258 382.823 309.684 382.823C310.111 382.823 310.475 382.942 310.777 383.18C311.082 383.416 311.314 383.758 311.474 384.207C311.636 384.654 311.716 385.194 311.716 385.826C311.716 386.461 311.636 387.003 311.477 387.452C311.317 387.899 311.086 388.241 310.783 388.477C310.481 388.711 310.114 388.828 309.684 388.828ZM309.684 388.2C310.111 388.2 310.442 387.995 310.678 387.584C310.913 387.173 311.031 386.587 311.031 385.826C311.031 385.319 310.977 384.889 310.869 384.533C310.762 384.177 310.608 383.906 310.406 383.719C310.207 383.533 309.966 383.44 309.684 383.44C309.262 383.44 308.932 383.648 308.694 384.065C308.456 384.479 308.337 385.066 308.337 385.826C308.337 386.332 308.391 386.762 308.497 387.116C308.604 387.469 308.757 387.739 308.957 387.923C309.158 388.108 309.401 388.2 309.684 388.2ZM317.47 387.835L319 384.364H319.639L317.744 388.748H317.196L315.335 384.364H315.963L317.47 387.835ZM315.746 384.364V388.748H315.073V384.364H315.746ZM319.194 388.748V384.364H319.867V388.748H319.194Z" fill="#1C1C1C"/>
<path d="M218.119 259.739V265.584H217.411V260.481H217.377L215.95 261.429V260.709L217.411 259.739H218.119ZM221.855 259.739V265.584H221.147V260.481H221.113L219.686 261.429V260.709L221.147 259.739H221.855ZM228.205 264.671L229.735 261.2H230.374L228.479 265.584H227.931L226.07 261.2H226.698L228.205 264.671ZM226.481 261.2V265.584H225.808V261.2H226.481ZM229.929 265.584V261.2H230.602V265.584H229.929Z" fill="#1C1C1C"/>
<path d="M32.8223 370.903L37.8453 373.803V368.003L32.8223 370.903ZM590.176 370.903L585.153 368.003V373.803L590.176 370.903ZM37.343 371.406H585.655V370.401H37.343V371.406Z" fill="#1C1C1C"/>
</svg>
