<svg width="620" height="523" viewBox="0 0 620 523" fill="none" xmlns="http://www.w3.org/2000/svg">
<path fill-rule="evenodd" clip-rule="evenodd" d="M9 24C18.9411 24 27 15.9411 27 6C27 3.89619 26.6391 1.87667 25.9758 0H599.024C598.361 1.87667 598 3.89619 598 6C598 15.9411 606.059 24 616 24C617.375 24 618.714 23.8459 620 23.554V499.446C618.714 499.154 617.375 499 616 499C606.059 499 598 507.059 598 517C598 519.104 598.361 521.123 599.024 523H25.9758C26.6391 521.123 27 519.104 27 517C27 507.059 18.9411 499 9 499C5.72142 499 2.64756 499.877 0 501.408V21.5919C2.64756 23.1235 5.72142 24 9 24Z" fill="#C0C0C0"/>
<path d="M155.088 122.981C143.016 164.978 101.285 219.549 71.5959 251.511C-87.5714 429.14 142.124 566.689 242.504 480.884C288.785 441.324 322.071 438.601 372.908 480.88C507.38 577.975 712.518 392.213 532.387 240.238C510.477 221.753 474.354 184.107 455.454 122.971C408.228 -29.7905 197.763 -25.4838 155.088 122.981Z" fill="#474747"/>
<circle cx="163.196" cy="362.752" r="135.876" fill="#EFEFEF"/>
<path d="M181.581 309.883C174.252 323.463 157.595 330.252 136.829 322.127C99.8508 312.002 59.4301 336.155 57.6533 379.675C59.208 433.101 113.176 439.779 139.827 424.308C150.488 418.12 171.355 420.074 178.138 429.651C206.677 469.943 253.205 429.651 234.439 397.706C227.887 389.692 229.708 372.261 238.769 363.087C280.634 312.447 207.899 275.05 181.581 309.883Z" fill="#A9A9A9"/>
<path d="M159.123 309.027C157.314 306.935 157.544 303.772 159.637 301.963L164.562 297.705C166.655 295.896 169.818 296.126 171.627 298.219L179.16 306.933L166.656 317.742L159.123 309.027Z" fill="#A9A9A9"/>
<path d="M112.844 303.259C113.012 300.498 115.386 298.395 118.147 298.563L124.646 298.957C127.407 299.124 129.509 301.498 129.342 304.259L128.645 315.758L112.147 314.757L112.844 303.259Z" fill="#A9A9A9"/>
<path d="M61.3412 323.819C59.6502 321.63 60.0538 318.485 62.2427 316.794L67.3952 312.813C69.5842 311.122 72.7296 311.526 74.4206 313.714L81.4631 322.83L68.3837 332.935L61.3412 323.819Z" fill="#A9A9A9"/>
<path d="M40.4287 372.39C37.6797 372.083 35.7 369.605 36.007 366.856L36.7296 360.386C37.0365 357.637 39.5139 355.657 42.2629 355.964L53.7112 357.242L51.8769 373.668L40.4287 372.39Z" fill="#A9A9A9"/>
<path d="M54.7737 422.991C52.36 424.342 49.3081 423.481 47.957 421.067L44.7768 415.386C43.4257 412.972 44.2871 409.92 46.7008 408.569L56.7527 402.942L64.8255 417.365L54.7737 422.991Z" fill="#A9A9A9"/>
<path d="M100.969 446.084C100.227 448.748 97.4649 450.306 94.8003 449.564L88.5282 447.817C85.8636 447.074 84.3053 444.312 85.0476 441.648L88.1392 430.551L104.061 434.987L100.969 446.084Z" fill="#A9A9A9"/>
<path d="M166.746 436.976C166.746 439.742 164.504 441.984 161.738 441.984H155.227C152.461 441.984 150.218 439.742 150.218 436.976V425.457H166.746V436.976Z" fill="#A9A9A9"/>
<circle cx="304.232" cy="156.363" r="135.876" fill="#EFEFEF"/>
<path d="M240.634 448.322C241.989 450.734 241.132 453.787 238.72 455.142L233.044 458.331C230.632 459.686 227.579 458.829 226.224 456.417L220.582 446.374L234.992 438.279L240.634 448.322Z" fill="#A9A9A9"/>
<path d="M246.571 373.738C249.337 373.762 251.56 376.024 251.536 378.79L251.479 385.3C251.455 388.066 249.194 390.289 246.428 390.265L234.909 390.165L235.052 373.638L246.571 373.738Z" fill="#A9A9A9"/>
<path d="M236.222 285.169C237.739 282.856 240.844 282.212 243.157 283.729L248.6 287.302C250.913 288.82 251.557 291.925 250.04 294.237L243.719 303.868L229.901 294.799L236.222 285.169Z" fill="#A9A9A9"/>
<circle cx="22.4476" cy="22.4476" r="22.2026" transform="matrix(0.667966 0.744192 0.744192 -0.667966 231.48 50.4746)" stroke="#A9A9A9" stroke-width="0.489964"/>
<circle cx="13.792" cy="13.792" r="13.547" transform="matrix(0.667966 0.744192 0.744192 -0.667966 243.57 51.126)" stroke="#A9A9A9" stroke-width="0.489964"/>
<circle cx="17.7869" cy="17.7869" r="17.6918" transform="matrix(0.667966 0.744192 0.744192 -0.667966 237.87 64.4238)" fill="#A9A9A9" stroke="#A9A9A9" stroke-width="0.190234"/>
<circle cx="22.4476" cy="22.4476" r="22.2026" transform="matrix(0.537914 0.843 0.843 -0.537914 304.482 43.6982)" stroke="#A9A9A9" stroke-width="0.489964"/>
<circle cx="13.792" cy="13.792" r="13.547" transform="matrix(0.537914 0.843 0.843 -0.537914 316.306 46.3086)" stroke="#A9A9A9" stroke-width="0.489964"/>
<circle cx="17.7869" cy="17.7869" r="17.6918" transform="matrix(0.537914 0.843 0.843 -0.537914 308.517 58.501)" fill="#A9A9A9" stroke="#A9A9A9" stroke-width="0.190234"/>
<circle cx="458.09" cy="362.752" r="135.876" fill="#EFEFEF"/>
<circle cx="22.4476" cy="22.4476" r="22.2026" transform="matrix(-0.0042769 0.999991 0.999991 0.0042769 369.521 73.668)" stroke="#A9A9A9" stroke-width="0.489964"/>
<circle cx="13.792" cy="13.792" r="13.547" transform="matrix(-0.0042769 0.999991 0.999991 0.0042769 378.048 82.2646)" stroke="#A9A9A9" stroke-width="0.489964"/>
<circle cx="17.7869" cy="17.7869" r="17.6918" transform="matrix(-0.0042769 0.999991 0.999991 0.0042769 364.897 88.2969)" fill="#A9A9A9" stroke="#A9A9A9" stroke-width="0.190234"/>
<circle cx="22.4476" cy="22.4476" r="22.2026" transform="matrix(-0.0437925 0.999041 0.999041 0.0437925 392.766 133.578)" stroke="#A9A9A9" stroke-width="0.489964"/>
<circle cx="13.792" cy="13.792" r="13.547" transform="matrix(-0.0437925 0.999041 0.999041 0.0437925 400.945 142.505)" stroke="#A9A9A9" stroke-width="0.489964"/>
<circle cx="17.7869" cy="17.7869" r="17.6918" transform="matrix(-0.0437925 0.999041 0.999041 0.0437925 387.565 148.013)" fill="#A9A9A9" stroke="#A9A9A9" stroke-width="0.190234"/>
<circle cx="22.4476" cy="22.4476" r="22.2026" transform="matrix(0.998292 -0.0584165 -0.0584165 -0.998292 189.43 121.401)" stroke="#A9A9A9" stroke-width="0.489964"/>
<circle cx="13.792" cy="13.792" r="13.547" transform="matrix(0.998292 -0.0584165 -0.0584165 -0.998292 197.477 112.354)" stroke="#A9A9A9" stroke-width="0.489964"/>
<circle cx="17.7869" cy="17.7869" r="17.6918" transform="matrix(0.998292 -0.0584165 -0.0584165 -0.998292 204.319 125.101)" fill="#A9A9A9" stroke="#A9A9A9" stroke-width="0.190234"/>
<circle cx="22.4476" cy="22.4476" r="22.2026" transform="matrix(0.996585 -0.0825714 -0.0825714 -0.996585 170.499 180.073)" stroke="#A9A9A9" stroke-width="0.489964"/>
<circle cx="13.792" cy="13.792" r="13.547" transform="matrix(0.996585 -0.0825714 -0.0825714 -0.996585 178.324 170.833)" stroke="#A9A9A9" stroke-width="0.489964"/>
<circle cx="17.7869" cy="17.7869" r="17.6918" transform="matrix(0.996585 -0.0825714 -0.0825714 -0.996585 185.475 183.41)" fill="#A9A9A9" stroke="#A9A9A9" stroke-width="0.190234"/>
<rect x="564.08" y="318.27" width="82.2474" height="21.0585" rx="3.9733" transform="rotate(90 564.08 318.27)" fill="#A9A9A9"/>
<path d="M580.987 329.566C583.652 329.566 585.813 331.727 585.813 334.392V340.997C585.813 343.663 583.652 345.824 580.987 345.824H569.555V329.566H580.987Z" fill="#A9A9A9" stroke="#A9A9A9" stroke-width="0.508076"/>
<line x1="572.604" y1="329.312" x2="572.604" y2="346.078" stroke="#A9A9A9" stroke-width="0.508076"/>
<path d="M580.987 365.535C583.652 365.535 585.813 367.696 585.813 370.362V376.967C585.813 379.633 583.652 381.794 580.987 381.794H569.555V365.535H580.987Z" fill="#A9A9A9" stroke="#A9A9A9" stroke-width="0.508076"/>
<line x1="572.604" y1="365.281" x2="572.604" y2="382.048" stroke="#A9A9A9" stroke-width="0.508076"/>
<rect x="561.042" y="295.679" width="15.0986" height="15.0986" transform="rotate(90 561.042 295.679)" fill="#A9A9A9"/>
<rect x="565.185" y="406.388" width="14.7012" height="23.4425" transform="rotate(90 565.185 406.388)" fill="#A9A9A9"/>
<rect x="364.538" y="335.673" width="55.33" height="28.2004" rx="3.56967" transform="rotate(89.6262 364.538 335.673)" fill="#A9A9A9"/>
<rect x="388.882" y="345.866" width="34.2689" height="17.4914" transform="rotate(89.6262 388.882 345.866)" fill="#A9A9A9"/>
<rect x="364.533" y="334.961" width="28.2004" height="7.13935" rx="3.56967" transform="rotate(179.626 364.533 334.961)" fill="#A9A9A9"/>
<rect x="364.95" y="398.856" width="28.2004" height="7.13935" rx="3.56967" transform="rotate(179.626 364.95 398.856)" fill="#A9A9A9"/>
<circle cx="350.921" cy="409.478" r="6.96087" transform="rotate(179.626 350.921 409.478)" fill="#A9A9A9"/>
<circle cx="350.32" cy="317.382" r="6.96087" transform="rotate(179.626 350.32 317.382)" fill="#A9A9A9"/>
<rect x="520.064" y="462.909" width="9.68073" height="9.68073" transform="rotate(-31.274 520.064 462.909)" fill="#A9A9A9"/>
<rect x="533.043" y="449.505" width="16.6705" height="16.6705" rx="1.25029" transform="rotate(-36.7528 533.043 449.505)" fill="#A9A9A9"/>
<rect x="497.65" y="471.42" width="16.6705" height="16.6705" rx="1.25029" transform="rotate(-28.7884 497.65 471.42)" fill="#A9A9A9"/>
<rect x="379.829" y="448.949" width="9.68073" height="9.68073" transform="rotate(45.7412 379.829 448.949)" fill="#A9A9A9"/>
<rect x="394.256" y="457.049" width="16.6705" height="16.6705" rx="1.25029" transform="rotate(40.2623 394.256 457.049)" fill="#A9A9A9"/>
<rect x="366.15" y="428.831" width="16.6705" height="16.6705" rx="1.25029" transform="rotate(48.2268 366.15 428.831)" fill="#A9A9A9"/>
<rect x="138.021" y="494.568" width="35.6618" height="19.7013" fill="white"/>
<rect x="440.421" y="494.568" width="35.6618" height="19.7013" fill="white"/>
</svg>
