<svg width="254" height="254" viewBox="0 0 254 254" fill="none" xmlns="http://www.w3.org/2000/svg">
<circle cx="126.519" cy="126.519" r="123.019" stroke="#FFD089" stroke-width="7"/>
<path d="M170.01 187.297C193.514 163.117 192.966 124.461 168.785 100.956C144.604 77.4523 105.948 78.0007 82.444 102.181C58.9399 126.362 59.4883 165.018 83.6689 188.522" stroke="#C0C0C0" stroke-width="7"/>
<path d="M165.369 86.1136L201.439 67.8848L167.618 45.7617L165.369 86.1136ZM192.507 38.2325L179.683 57.8363L185.541 61.6682L198.365 42.0644L192.507 38.2325Z" fill="#C0C0C0"/>
<path d="M87.9062 86.1136L51.8362 67.8848L85.6578 45.7617L87.9062 86.1136ZM60.7689 38.2325L73.592 57.8363L67.7339 61.6682L54.9108 42.0644L60.7689 38.2325Z" fill="#C0C0C0"/>
<path d="M126.611 75.5971L146.819 40.5971H106.404L126.611 75.5971ZM123.111 20.6719V44.0971H130.111V20.6719H123.111Z" fill="#C0C0C0"/>
<path d="M191.207 115.605L231.103 109.151L205.565 77.8268L191.207 115.605ZM231.566 78.1857L213.41 92.9877L217.833 98.4131L235.989 83.6112L231.566 78.1857Z" fill="#C0C0C0"/>
<path d="M61.2543 115.605L21.3584 109.151L46.8955 77.8268L61.2543 115.605ZM20.8952 78.1857L39.0513 92.9877L34.6281 98.4131L16.472 83.6112L20.8952 78.1857Z" fill="#C0C0C0"/>
</svg>
