<svg width="254" height="254" viewBox="0 0 254 254" fill="none" xmlns="http://www.w3.org/2000/svg">
<circle cx="126.519" cy="126.519" r="123.019" stroke="#C0C0C0" stroke-width="7"/>
<path d="M170.011 187.293C193.515 163.113 192.966 124.457 168.786 100.953C144.605 77.4484 105.949 77.9968 82.445 102.177C58.9408 126.358 59.4893 165.014 83.6699 188.518" stroke="#FFD089" stroke-width="7"/>
<path d="M165.369 86.1146L201.439 67.8858L167.618 45.7626L165.369 86.1146ZM192.507 38.2335L179.683 57.8373L185.541 61.6692L198.365 42.0653L192.507 38.2335Z" fill="#FFD089"/>
<path d="M87.9052 86.1146L51.8353 67.8858L85.6569 45.7626L87.9052 86.1146ZM60.7679 38.2335L73.591 57.8373L67.7329 61.6692L54.9098 42.0653L60.7679 38.2335Z" fill="#FFD089"/>
<path d="M126.611 75.5961L146.819 40.5961H106.404L126.611 75.5961ZM123.111 20.6709V44.0961H130.111V20.6709H123.111Z" fill="#FFD089"/>
<path d="M191.207 115.602L231.103 109.148L205.565 77.8239L191.207 115.602ZM231.566 78.1828L213.41 92.9847L217.833 98.4102L235.989 83.6082L231.566 78.1828Z" fill="#FFD089"/>
<path d="M61.2543 115.602L21.3584 109.148L46.8955 77.8239L61.2543 115.602ZM20.8952 78.1828L39.0513 92.9847L34.6281 98.4102L16.472 83.6082L20.8952 78.1828Z" fill="#FFD089"/>
</svg>
