<svg width="254" height="254" viewBox="0 0 254 254" fill="none" xmlns="http://www.w3.org/2000/svg">
<circle cx="126.519" cy="126.519" r="123.019" stroke="#FFD089" stroke-width="7"/>
<path d="M170.336 126.61L185.377 95.6433L151.038 98.1016L170.336 126.61ZM126.719 214.661C116.479 214.661 106.331 205.898 98.5655 189.692C90.9042 173.702 86.083 151.403 86.083 126.61H80.1202C80.1202 152.094 85.063 175.311 93.1881 192.268C101.209 209.009 112.87 220.624 126.719 220.624V214.661ZM86.083 126.61C86.083 101.818 90.9042 79.5188 98.5655 63.5291C106.331 47.323 116.479 38.5595 126.719 38.5595V32.5967C112.87 32.5967 101.209 44.2116 93.1881 60.9526C85.063 77.9101 80.1202 101.127 80.1202 126.61H86.083ZM126.719 38.5595C135.048 38.5595 143.313 44.3189 150.362 55.3596C157.361 66.3223 162.774 81.955 165.47 100.275L171.37 99.4069C168.589 80.5156 162.964 64.0169 155.388 52.1509C147.862 40.3631 138.015 32.5967 126.719 32.5967V38.5595Z" fill="#C0C0C0"/>
<path d="M126.61 162.524L157.577 177.564L155.119 143.226L126.61 162.524ZM38.5594 118.906C38.5594 108.667 47.3228 98.5181 63.529 90.753C79.5187 83.0917 101.818 78.2705 126.61 78.2705V72.3077C101.127 72.3077 77.91 77.2505 60.9525 85.3756C44.2114 93.3969 32.5966 105.057 32.5966 118.906H38.5594ZM126.61 78.2705C151.403 78.2705 173.702 83.0917 189.692 90.753C205.898 98.5181 214.661 108.667 214.661 118.906H220.624C220.624 105.057 209.009 93.3969 192.268 85.3756C175.311 77.2505 152.094 72.3077 126.61 72.3077V78.2705ZM214.661 118.906C214.661 127.236 208.902 135.501 197.861 142.549C186.898 149.549 171.266 154.961 152.945 157.658L153.814 163.557C172.705 160.776 189.204 155.151 201.07 147.575C212.858 140.049 220.624 130.202 220.624 118.906H214.661Z" fill="#C0C0C0"/>
</svg>
