<svg width="126" height="37" viewBox="0 0 126 37" fill="none" xmlns="http://www.w3.org/2000/svg">
<path fill-rule="evenodd" clip-rule="evenodd" d="M32.035 8.14844C30.9009 8.14844 29.9814 9.06785 29.9814 10.202V26.6306C29.9814 27.7647 30.9009 28.6842 32.035 28.6842H123.624C124.758 28.6842 125.678 27.7647 125.678 26.6306V10.202C125.678 9.06785 124.758 8.14844 123.624 8.14844H32.035ZM42.7147 14.3125C41.5805 14.3125 40.6611 15.2319 40.6611 16.3661V20.4732C40.6611 21.6074 41.5806 22.5268 42.7147 22.5268H112.536C113.67 22.5268 114.59 21.6074 114.59 20.4732V16.3661C114.59 15.2319 113.67 14.3125 112.536 14.3125H42.7147Z" fill="#C0C0C0"/>
<path fill-rule="evenodd" clip-rule="evenodd" d="M1.02679 16.6399C-0.342261 17.4303 -0.342262 19.4064 1.02679 20.1968L29.3661 36.5585C30.7351 37.3489 32.4464 36.3609 32.4464 34.78V2.05664C32.4464 0.475796 30.7351 -0.51223 29.3661 0.27819L1.02679 16.6399ZM20.9456 24.9909C24.5749 24.9909 27.517 22.0487 27.517 18.4194C27.517 14.7901 24.5749 11.848 20.9456 11.848C17.3163 11.848 14.3742 14.7901 14.3742 18.4194C14.3742 22.0487 17.3163 24.9909 20.9456 24.9909Z" fill="#FFD089"/>
</svg>
