<svg width="681" height="283" viewBox="0 0 681 283" fill="none" xmlns="http://www.w3.org/2000/svg">
<path fill-rule="evenodd" clip-rule="evenodd" d="M120.861 12.9918C131.71 -0.256656 151.244 -2.20248 164.492 8.6457L172.169 14.9313C185.417 25.7794 187.363 45.3136 176.515 58.5621L63.2893 196.84C52.4411 210.089 32.9069 212.035 19.6584 201.186L11.9821 194.901C-1.26642 184.053 -3.21224 164.519 7.63593 151.27L120.861 12.9918ZM181.063 37.993C181.063 56.1436 166.349 70.8576 148.198 70.8576C130.048 70.8576 115.334 56.1436 115.334 37.993C115.334 19.8423 130.048 5.12834 148.198 5.12834C166.349 5.12834 181.063 19.8423 181.063 37.993ZM36.5833 204.794C54.734 204.794 69.448 190.08 69.448 171.93C69.448 153.779 54.734 139.065 36.5833 139.065C18.4327 139.065 3.71871 153.779 3.71871 171.93C3.71871 190.08 18.4327 204.794 36.5833 204.794Z" fill="#C0C0C0"/>
<path fill-rule="evenodd" clip-rule="evenodd" d="M143.858 0.160156C126.735 0.160156 112.854 14.0413 112.854 31.1645V241.994C112.854 259.117 126.735 272.999 143.858 272.999H153.779C170.903 272.999 184.784 259.117 184.784 241.994V31.1645C184.784 14.0413 170.903 0.160156 153.779 0.160156H143.858ZM148.199 204.789C166.349 204.789 181.063 190.075 181.063 171.925C181.063 153.774 166.349 139.06 148.199 139.06C130.048 139.06 115.334 153.774 115.334 171.925C115.334 190.075 130.048 204.789 148.199 204.789ZM115.345 37.1377C115.349 36.9823 115.354 36.8273 115.36 36.6724C116.049 19.1307 130.488 5.12132 148.199 5.12132C166.349 5.12132 181.063 19.8353 181.063 37.986C181.063 38.2873 181.059 38.5877 181.051 38.887C181.045 39.1108 181.037 39.334 181.026 39.5566C180.209 56.9796 165.824 70.8543 148.199 70.8543C130.048 70.8543 115.334 56.1403 115.334 37.9896C115.334 37.7048 115.338 37.4208 115.345 37.1377Z" fill="#FFD089"/>
<path fill-rule="evenodd" clip-rule="evenodd" d="M0 177.504C0 194.627 13.8811 208.508 31.0044 208.508H198.605C215.729 208.508 229.61 194.627 229.61 177.504V167.582C229.61 150.459 215.729 136.578 198.605 136.578H31.0044C13.8811 136.578 0 150.459 0 167.582V177.504ZM36.585 204.787C54.7357 204.787 69.4497 190.073 69.4497 171.922C69.4497 153.771 54.7357 139.057 36.585 139.057C18.4344 139.057 3.72042 153.771 3.72042 171.922C3.72042 190.073 18.4344 204.787 36.585 204.787Z" fill="#FFD089"/>
<path fill-rule="evenodd" clip-rule="evenodd" d="M571.856 12.8317C582.704 -0.416812 602.238 -2.36263 615.486 8.48554L623.163 14.7711C636.411 25.6193 638.357 45.1535 627.509 58.402L514.283 196.68C503.435 209.929 483.901 211.874 470.653 201.026L462.976 194.741C449.728 183.893 447.782 164.358 458.63 151.11L571.856 12.8317ZM632.057 37.8328C632.057 55.9834 617.343 70.6974 599.193 70.6974C581.042 70.6974 566.328 55.9834 566.328 37.8328C566.328 19.6822 581.042 4.96819 599.193 4.96819C617.343 4.96819 632.057 19.6822 632.057 37.8328ZM487.577 204.634C505.728 204.634 520.442 189.92 520.442 171.769C520.442 153.619 505.728 138.905 487.577 138.905C469.427 138.905 454.713 153.619 454.713 171.769C454.713 189.92 469.427 204.634 487.577 204.634Z" fill="#C0C0C0"/>
<path fill-rule="evenodd" clip-rule="evenodd" d="M594.852 0C577.729 0 563.848 13.8811 563.848 31.0044V241.834C563.848 258.957 577.729 272.838 594.852 272.838H604.773C621.897 272.838 635.778 258.957 635.778 241.834V31.0044C635.778 13.8811 621.897 0 604.773 0H594.852ZM599.193 204.629C617.344 204.629 632.057 189.915 632.057 171.765C632.057 153.614 617.344 138.9 599.193 138.9C581.042 138.9 566.328 153.614 566.328 171.765C566.328 189.915 581.042 204.629 599.193 204.629ZM566.339 36.9775C566.343 36.8222 566.348 36.6671 566.354 36.5123C567.043 18.9706 581.482 4.96117 599.193 4.96117C617.344 4.96117 632.057 19.6752 632.057 37.8258C632.057 38.1271 632.053 38.4275 632.045 38.7269C632.039 38.9506 632.031 39.1738 632.021 39.3964C631.203 56.8194 616.818 70.6941 599.193 70.6941C581.042 70.6941 566.328 55.9801 566.328 37.8295C566.328 37.5446 566.332 37.2606 566.339 36.9775Z" fill="#FFD089"/>
<path fill-rule="evenodd" clip-rule="evenodd" d="M450.994 177.344C450.994 194.467 464.875 208.348 481.998 208.348H649.6C666.723 208.348 680.604 194.467 680.604 177.344V167.422C680.604 150.299 666.723 136.418 649.6 136.418H481.999C464.875 136.418 450.994 150.299 450.994 167.422V177.344ZM487.579 204.626C505.73 204.626 520.444 189.912 520.444 171.762C520.444 153.611 505.73 138.897 487.579 138.897C469.429 138.897 454.715 153.611 454.715 171.762C454.715 189.912 469.429 204.626 487.579 204.626Z" fill="#FFD089"/>
<path fill-rule="evenodd" clip-rule="evenodd" d="M340.086 5C294.196 5 256.994 42.2014 256.994 88.0917V199.707C256.994 245.598 294.196 282.799 340.086 282.799C385.976 282.799 423.178 245.598 423.178 199.707V88.0917C423.178 42.2014 385.976 5 340.086 5ZM339.465 124.059C332.273 124.059 326.443 129.889 326.443 137.08V154.443C326.443 161.635 332.273 167.465 339.465 167.465C346.657 167.465 352.487 161.635 352.487 154.443V137.08C352.487 129.889 346.657 124.059 339.465 124.059Z" fill="#FFD089"/>
<path fill-rule="evenodd" clip-rule="evenodd" d="M339.466 76.9336C317.206 76.9336 299.16 94.979 299.16 117.239V170.567C299.16 192.827 317.206 210.872 339.466 210.872C361.726 210.872 379.771 192.827 379.771 170.567V117.239C379.771 94.9791 361.726 76.9336 339.466 76.9336ZM339.465 124.059C332.273 124.059 326.443 129.889 326.443 137.08V154.443C326.443 161.635 332.273 167.465 339.465 167.465C346.657 167.465 352.487 161.635 352.487 154.443V137.08C352.487 129.889 346.657 124.059 339.465 124.059Z" fill="#C0C0C0"/>
</svg>
