<svg width="65" height="98" viewBox="0 0 65 98" fill="none" xmlns="http://www.w3.org/2000/svg">
<g clip-path="url(#clip0_201_286)">
<rect width="65" height="97.4079" fill="#B3B3B3"/>
<path d="M64.9816 0H0.0429688V97.4079H64.9816V0Z" fill="#B3B3B3"/>
<path d="M3.4803 3.38225H4.27209V6.27932L7.1753 3.38225H8.28625L5.80655 5.78215L8.35377 9.32984H7.33488L5.24187 6.33456L4.27822 7.26138V9.32984H3.4803V3.38225ZM8.90004 4.99651H9.64272V5.59188H9.66113C9.71024 5.49367 9.77161 5.39547 9.84527 5.30954C9.91892 5.21747 10.011 5.14382 10.1092 5.0763C10.2135 5.00878 10.3363 4.95354 10.4713 4.91671C10.6064 4.87989 10.7659 4.86147 10.9378 4.86147C11.171 4.86147 11.392 4.90444 11.6068 4.99651C11.8217 5.08857 12.0058 5.21747 12.1715 5.39547C12.3372 5.57347 12.4661 5.79443 12.5643 6.0645C12.6625 6.33456 12.7117 6.64145 12.7117 6.99745C12.7117 7.44552 12.6687 7.81993 12.5766 8.13296C12.4907 8.44599 12.3618 8.69764 12.1899 8.89405C12.0242 9.09046 11.8278 9.23163 11.5884 9.3237C11.349 9.41577 11.0913 9.45874 10.8028 9.45874C10.6616 9.45874 10.5266 9.44032 10.4038 9.40349C10.2811 9.36667 10.1706 9.31756 10.0662 9.25619C9.96803 9.19481 9.88823 9.12729 9.81458 9.05364C9.74706 8.97998 9.69182 8.90633 9.655 8.83267H9.63658V11.03H8.90004V4.99651ZM9.62431 7.18772C9.62431 7.42096 9.64886 7.64193 9.69182 7.83834C9.73479 8.03475 9.80844 8.20661 9.90051 8.35392C9.99872 8.50123 10.1153 8.61171 10.2626 8.69764C10.41 8.77743 10.5818 8.8204 10.7782 8.8204C10.9808 8.8204 11.1588 8.77743 11.3061 8.69764C11.4595 8.61171 11.5823 8.50123 11.6805 8.35392C11.7787 8.20661 11.8462 8.03475 11.8953 7.83834C11.9383 7.63579 11.9628 7.42096 11.9628 7.18772C11.9628 6.94221 11.9383 6.71511 11.8953 6.51256C11.8524 6.31001 11.7787 6.13201 11.6805 5.9847C11.5823 5.83739 11.4595 5.72077 11.3061 5.64098C11.1588 5.55505 10.9808 5.51823 10.7782 5.51823C10.5818 5.51823 10.41 5.56119 10.2626 5.64098C10.1215 5.72077 9.99872 5.83739 9.90051 5.9847C9.80844 6.13201 9.73479 6.31001 9.69182 6.51256C9.64886 6.71511 9.62431 6.94221 9.62431 7.18772ZM17.2414 7.94882C17.2107 8.13909 17.1493 8.32323 17.045 8.50123C16.9468 8.67923 16.8117 8.84495 16.6522 8.98612C16.4926 9.12729 16.2962 9.24391 16.0752 9.32984C15.8542 9.41577 15.6149 9.46487 15.3448 9.46487C15.0563 9.46487 14.7863 9.41577 14.5346 9.3237C14.2891 9.2255 14.0743 9.08433 13.8963 8.88791C13.7183 8.6915 13.5771 8.45212 13.4727 8.15751C13.3684 7.86903 13.3193 7.52531 13.3193 7.13248C13.3193 6.86856 13.35 6.62918 13.4052 6.41435C13.4666 6.19953 13.5403 6.00925 13.6385 5.83739C13.7367 5.66553 13.8533 5.52436 13.9822 5.40161C14.1111 5.27885 14.2461 5.1745 14.3934 5.10085C14.5407 5.02106 14.688 4.95968 14.8415 4.92285C14.9949 4.87989 15.1361 4.86147 15.2773 4.86147C15.5719 4.86147 15.8481 4.90444 16.0875 4.99651C16.333 5.08857 16.5417 5.22361 16.7197 5.40774C16.8977 5.58574 17.0327 5.81898 17.1309 6.08905C17.2291 6.35911 17.2782 6.68442 17.2782 7.05269V7.4271H14.1111C14.1111 7.63579 14.1418 7.82606 14.197 8.00406C14.2523 8.17592 14.332 8.31709 14.4425 8.43985C14.5469 8.56261 14.6758 8.65468 14.8231 8.72219C14.9765 8.78971 15.1422 8.8204 15.3325 8.8204C15.5228 8.8204 15.6885 8.79585 15.8174 8.7406C15.9524 8.68536 16.0629 8.61785 16.1489 8.53192C16.2409 8.44599 16.3084 8.35392 16.3637 8.25571C16.4189 8.15137 16.468 8.05316 16.5049 7.95496H17.2414V7.94882ZM16.5417 6.83173C16.5355 6.62304 16.5049 6.43277 16.4435 6.26704C16.3882 6.10132 16.3084 5.96629 16.198 5.85581C16.0936 5.74533 15.9709 5.6594 15.8235 5.59802C15.6762 5.53664 15.5167 5.50595 15.3387 5.50595C15.1668 5.50595 15.0134 5.53664 14.8722 5.60416C14.731 5.67167 14.6021 5.7576 14.4978 5.88036C14.3873 5.99698 14.3014 6.13815 14.24 6.29773C14.1725 6.45732 14.1356 6.62918 14.1234 6.82559H16.5417V6.83173ZM20.9303 5.64098H18.9048V9.32984H18.1621V4.99651H21.6791V9.32984H20.9303V5.64098ZM22.7716 4.99651H23.5143V7.08952L25.7055 4.99651H26.6814L24.6437 6.91152L26.7121 9.32984H25.7546L24.0606 7.36572L23.5143 7.81993V9.32984H22.7716V4.99651ZM27.3136 4.99651H28.0563V8.31709H28.0747L30.2046 4.99651H31.0577V9.32984H30.3089V6.00925H30.2905L28.1668 9.32984H27.3136V4.99651ZM33.3226 3.31473C33.3594 3.48659 33.4331 3.62776 33.5436 3.72597C33.6541 3.82417 33.8198 3.87328 34.0346 3.87328C34.2556 3.87328 34.4151 3.82417 34.5256 3.72597C34.6361 3.62776 34.7098 3.48659 34.7405 3.30859H35.434C35.434 3.46818 35.3972 3.61549 35.3297 3.75052C35.2622 3.87942 35.164 3.9899 35.0412 4.08196C34.9185 4.17403 34.7711 4.24769 34.5993 4.29679C34.4274 4.34589 34.2433 4.37044 34.0346 4.37044C33.8259 4.37044 33.6356 4.34589 33.4699 4.29679C33.2981 4.24769 33.1569 4.18017 33.0341 4.0881C32.9114 3.99603 32.8193 3.88555 32.7456 3.75666C32.6781 3.62162 32.6413 3.47432 32.6413 3.30859H33.3226V3.31473ZM32.1503 4.99651H32.8991V8.31709H32.9175L35.0473 4.99651H35.9005V9.32984H35.1517V6.00925H35.1333L33.0096 9.32984H32.1564V4.99651H32.1503ZM6.8193 15.658C6.80703 15.7623 6.78861 15.8789 6.75178 16.0017C6.7211 16.1245 6.67813 16.2472 6.61675 16.3761C6.55537 16.4989 6.48172 16.6155 6.38351 16.726C6.29144 16.8365 6.18096 16.9408 6.04593 17.0267C5.9109 17.1127 5.75745 17.1802 5.57945 17.2354C5.40145 17.2907 5.19277 17.3152 4.95953 17.3152C4.83063 17.3152 4.70174 17.2968 4.56057 17.2661C4.4194 17.2354 4.28436 17.1863 4.14933 17.1127C4.0143 17.039 3.89154 16.9469 3.76878 16.8364C3.65216 16.7198 3.54782 16.5787 3.45575 16.4068C3.36368 16.2349 3.29617 16.0385 3.24093 15.8176C3.18568 15.5905 3.16113 15.3327 3.16113 15.0381C3.16113 14.6821 3.21024 14.3568 3.31458 14.0683C3.41892 13.7798 3.55396 13.5343 3.72582 13.3379C3.89768 13.1353 4.10023 12.9819 4.32733 12.8775C4.55443 12.767 4.79381 12.7179 5.04546 12.7179C5.27256 12.7179 5.46897 12.7425 5.64697 12.7916C5.82497 12.8407 5.97228 12.9021 6.10117 12.988C6.23007 13.0678 6.34055 13.166 6.42648 13.2703C6.51241 13.3747 6.58606 13.4852 6.6413 13.6079C6.69654 13.7246 6.73951 13.8412 6.76406 13.9639C6.79475 14.0867 6.81316 14.2033 6.8193 14.3138H6.11958C6.08276 14.0192 5.97841 13.7921 5.81269 13.6202C5.64697 13.4545 5.41373 13.3686 5.11911 13.3686C4.91656 13.3686 4.73243 13.4115 4.57898 13.4913C4.42553 13.5772 4.30278 13.6939 4.19843 13.8412C4.10023 13.9885 4.02043 14.1726 3.97133 14.3813C3.92223 14.59 3.89768 14.8232 3.89768 15.0749C3.89768 15.3634 3.92223 15.6089 3.97747 15.8176C4.03271 16.0201 4.10636 16.192 4.21071 16.327C4.30891 16.462 4.43167 16.5602 4.57284 16.6216C4.72015 16.683 4.88587 16.7137 5.06387 16.7137C5.19277 16.7137 5.31552 16.6891 5.43214 16.6462C5.54876 16.5971 5.65311 16.5296 5.74517 16.4375C5.83724 16.3454 5.91703 16.2349 5.97841 16.0999C6.04593 15.9649 6.08889 15.8176 6.11345 15.6518H6.8193V15.658ZM10.5818 15.0135C10.5818 14.7741 10.5573 14.5532 10.502 14.3568C10.4468 14.1542 10.367 13.9823 10.2565 13.835C10.146 13.6877 10.0171 13.5772 9.85755 13.4975C9.7041 13.4115 9.51996 13.3747 9.31127 13.3747C9.10259 13.3747 8.91845 13.4177 8.765 13.4975C8.61156 13.5772 8.47653 13.6939 8.36604 13.835C8.25556 13.9823 8.17577 14.1542 8.12053 14.3568C8.06529 14.5593 8.04074 14.7741 8.04074 15.0135C8.04074 15.259 8.06529 15.48 8.12053 15.6825C8.17577 15.8851 8.25556 16.0569 8.36604 16.2043C8.47653 16.3516 8.60542 16.462 8.765 16.548C8.91845 16.6278 9.10259 16.6707 9.31127 16.6707C9.51996 16.6707 9.69796 16.6278 9.85755 16.548C10.0171 16.462 10.1522 16.3516 10.2565 16.2043C10.367 16.0569 10.4468 15.8851 10.502 15.6825C10.5511 15.48 10.5818 15.259 10.5818 15.0135ZM11.3245 15.0135C11.3245 15.3695 11.2815 15.6887 11.1895 15.9771C11.0974 16.2595 10.9685 16.4989 10.7905 16.7014C10.6186 16.904 10.4038 17.0574 10.1583 17.1618C9.91279 17.2661 9.63044 17.3213 9.31127 17.3213C8.99824 17.3213 8.7159 17.2661 8.46425 17.1618C8.21873 17.0513 8.00391 16.8978 7.83205 16.7014C7.66019 16.4989 7.52516 16.2595 7.43309 15.9771C7.34102 15.6887 7.29805 15.3695 7.29805 15.0135C7.29805 14.6636 7.34102 14.3445 7.43309 14.0621C7.52516 13.7798 7.65405 13.5404 7.83205 13.3379C8.00391 13.1353 8.2126 12.988 8.46425 12.8837C8.70976 12.7732 8.99211 12.7241 9.31127 12.7241C9.62431 12.7241 9.90665 12.7793 10.1583 12.8837C10.41 12.988 10.6186 13.1415 10.7905 13.3379C10.9624 13.5404 11.0974 13.7798 11.1895 14.0621C11.2815 14.3445 11.3245 14.6636 11.3245 15.0135ZM12.1654 12.853H12.9081V14.6023H14.9336V12.853H15.6824V17.1863H14.9336V15.2467H12.9081V17.1863H12.1654V12.853Z" fill="white"/>
<path d="M3.14258 94.2774C3.16713 93.7802 3.27147 93.3444 3.44947 92.9762C3.62747 92.6079 3.98347 92.2703 4.49905 91.9696L5.27856 91.5154C5.62841 91.3128 5.86779 91.1409 6.00896 90.9998C6.22992 90.7727 6.34041 90.521 6.34041 90.2325C6.34041 89.895 6.2422 89.631 6.03965 89.4346C5.8371 89.2382 5.56703 89.1339 5.22945 89.1339C4.73229 89.1339 4.38243 89.3241 4.19215 89.6986C4.08781 89.9011 4.03257 90.1834 4.02029 90.5394H3.28375C3.28989 90.0361 3.38195 89.6249 3.55995 89.3057C3.87298 88.7472 4.43153 88.4648 5.22945 88.4648C5.89234 88.4648 6.37723 88.6428 6.68413 89.005C6.99102 89.361 7.14447 89.7599 7.14447 90.2019C7.14447 90.6683 6.97874 91.0612 6.65344 91.3926C6.46316 91.5829 6.12558 91.8161 5.64069 92.0862L5.08828 92.3931C4.82435 92.5404 4.61567 92.6754 4.46222 92.8104C4.19215 93.0437 4.02029 93.3076 3.95278 93.59H7.11992V94.2774H3.14258ZM11.8338 88.5815V89.2198C11.6497 89.3978 11.398 89.717 11.0911 90.165C10.7842 90.6131 10.5142 91.098 10.2748 91.6136C10.0415 92.1169 9.86354 92.5772 9.74078 92.9946C9.66099 93.2585 9.56279 93.6943 9.44003 94.2835H8.63597C8.8201 93.1787 9.2252 92.08 9.85127 90.9814C10.2195 90.3369 10.6062 89.7845 11.0175 89.318H7.81349V88.5876H11.8338V88.5815ZM12.8159 93.3935H13.6629V94.2774H12.8159V93.3935ZM13.6752 90.1773V89.6188C14.203 89.5697 14.5651 89.4837 14.7738 89.361C14.9825 89.2382 15.136 88.9559 15.2403 88.5078H15.8173V94.2774H15.0378V90.1773H13.6752ZM17.7507 94.2774C17.7753 93.7802 17.8796 93.3444 18.0576 92.9762C18.2356 92.6079 18.5916 92.2703 19.1072 91.9696L19.8867 91.5215C20.2365 91.3189 20.4759 91.1471 20.6171 91.0059C20.838 90.7788 20.9485 90.5272 20.9485 90.2387C20.9485 89.9011 20.8503 89.6372 20.6478 89.4408C20.4452 89.2443 20.1752 89.14 19.8376 89.14C19.3404 89.14 18.9905 89.3303 18.8003 89.7047C18.6959 89.9072 18.6407 90.1896 18.6284 90.5456H17.8857C17.8919 90.0423 17.9839 89.631 18.1619 89.3119C18.475 88.7533 19.0335 88.471 19.8314 88.471C20.4943 88.471 20.9792 88.649 21.2861 89.0111C21.593 89.3671 21.7464 89.7661 21.7464 90.208C21.7464 90.6745 21.5807 91.0673 21.2554 91.3987C21.0651 91.589 20.7276 91.8223 20.2427 92.0923L19.6903 92.3992C19.4263 92.5465 19.2176 92.6816 19.0642 92.8166C18.7941 93.0498 18.6223 93.3138 18.5548 93.5961H21.728V94.2835H17.7507V94.2774ZM22.8144 93.3935H23.6615V94.2774H22.8144V93.3935ZM24.6742 94.2774C24.6988 93.7802 24.8031 93.3444 24.9811 92.9762C25.1591 92.6079 25.5151 92.2703 26.0307 91.9696L26.8102 91.5215C27.16 91.3189 27.3994 91.1471 27.5406 91.0059C27.7616 90.7788 27.872 90.5272 27.872 90.2387C27.872 89.9011 27.7738 89.6372 27.5713 89.4408C27.3687 89.2443 27.0987 89.14 26.7611 89.14C26.2639 89.14 25.9141 89.3303 25.7238 89.7047C25.6194 89.9072 25.5642 90.1896 25.5519 90.5456H24.8092C24.8154 90.0423 24.9075 89.631 25.0854 89.3119C25.3985 88.7533 25.957 88.471 26.7549 88.471C27.4178 88.471 27.9027 88.649 28.2096 89.0111C28.5165 89.3671 28.67 89.7661 28.67 90.208C28.67 90.6745 28.5042 91.0673 28.1789 91.3987C27.9887 91.589 27.6511 91.8223 27.1662 92.0923L26.6138 92.3992C26.3498 92.5465 26.1412 92.6816 25.9877 92.8166C25.7176 93.0498 25.5458 93.3138 25.4783 93.5961H28.6393V94.2835H24.6742V94.2774ZM31.2663 88.4833C32.0151 88.4833 32.5552 88.7901 32.8928 89.4101C33.1506 89.8888 33.2795 90.5394 33.2795 91.3742C33.2795 92.1598 33.1629 92.8104 32.9296 93.326C32.5921 94.0626 32.0335 94.437 31.2601 94.437C30.5666 94.437 30.0448 94.1362 29.7073 93.5286C29.4249 93.0253 29.2837 92.3501 29.2837 91.4969C29.2837 90.8402 29.3697 90.2755 29.5415 89.8029C29.8546 88.9252 30.4315 88.4833 31.2663 88.4833ZM31.2601 93.7741C31.6407 93.7741 31.9414 93.6084 32.1624 93.2708C32.3834 92.9393 32.5 92.3133 32.5 91.3987C32.5 90.742 32.4202 90.2019 32.2545 89.7783C32.0949 89.3548 31.7757 89.14 31.3092 89.14C30.8796 89.14 30.5666 89.3426 30.364 89.7477C30.1676 90.1466 30.0694 90.742 30.0694 91.5276C30.0694 92.1169 30.1308 92.5895 30.2597 92.9516C30.4561 93.4979 30.7875 93.7741 31.2601 93.7741ZM33.8994 94.2774C33.924 93.7802 34.0283 93.3444 34.2063 92.9762C34.3843 92.6079 34.7403 92.2703 35.2559 91.9696L36.0354 91.5215C36.3853 91.3189 36.6246 91.1471 36.7658 91.0059C36.9868 90.7788 37.0973 90.5272 37.0973 90.2387C37.0973 89.9011 36.999 89.6372 36.7965 89.4408C36.5939 89.2443 36.3239 89.14 35.9863 89.14C35.4891 89.14 35.1393 89.3303 34.949 89.7047C34.8447 89.9072 34.7894 90.1896 34.7771 90.5456H34.0345C34.0406 90.0423 34.1327 89.631 34.3107 89.3119C34.6237 88.7533 35.1822 88.471 35.9802 88.471C36.643 88.471 37.1279 88.649 37.4348 89.0111C37.7417 89.3671 37.8952 89.7661 37.8952 90.208C37.8952 90.6745 37.7295 91.0673 37.4041 91.3987C37.2139 91.589 36.8763 91.8223 36.3914 92.0923L35.839 92.3992C35.5751 92.5465 35.3664 92.6816 35.2129 92.8166C34.9429 93.0498 34.771 93.3138 34.7035 93.5961H37.8706V94.2835H33.8994V94.2774ZM40.3994 94.437C39.712 94.437 39.2148 94.2528 38.9079 93.8723C38.601 93.4918 38.4476 93.0376 38.4476 92.4974H39.2087C39.2394 92.8718 39.313 93.1419 39.4174 93.3138C39.6076 93.6207 39.9452 93.768 40.4424 93.768C40.8229 93.768 41.1298 93.6636 41.3631 93.4611C41.5963 93.2585 41.7129 92.9885 41.7129 92.6693C41.7129 92.2703 41.5902 91.9941 41.3447 91.8345C41.0991 91.6749 40.7616 91.5952 40.3319 91.5952C40.2828 91.5952 40.2337 91.5952 40.1846 91.6013C40.1355 91.6013 40.0864 91.6013 40.0373 91.6074V90.963C40.1109 90.9691 40.1785 90.9752 40.2276 90.9814C40.2767 90.9814 40.3319 90.9875 40.3933 90.9875C40.6633 90.9875 40.8905 90.9445 41.0623 90.8586C41.3692 90.7052 41.5227 90.4351 41.5227 90.0484C41.5227 89.7599 41.4183 89.539 41.2158 89.3794C41.0132 89.2259 40.7738 89.1461 40.4976 89.1461C40.0127 89.1461 39.6752 89.3057 39.491 89.631C39.3867 89.809 39.3314 90.0607 39.3192 90.3921H38.601C38.601 89.9625 38.687 89.5942 38.8588 89.2935C39.1534 88.7533 39.6752 88.4833 40.424 88.4833C41.0132 88.4833 41.4736 88.6183 41.7927 88.8822C42.118 89.1461 42.2776 89.5267 42.2776 90.0239C42.2776 90.3799 42.1794 90.6683 41.9891 90.8893C41.8725 91.0243 41.7191 91.1348 41.5288 91.2146C41.8357 91.3005 42.0689 91.4601 42.2408 91.6995C42.4126 91.9389 42.4986 92.2273 42.4986 92.5711C42.4986 93.1235 42.3144 93.5715 41.9523 93.9214C41.5902 94.259 41.0685 94.437 40.3994 94.437Z" fill="white"/>
<path d="M3.12402 82.5052V81.9466C3.65188 81.8975 4.01401 81.8116 4.2227 81.6888C4.43139 81.5661 4.58484 81.2837 4.68918 80.8357H5.26614V86.6052H4.48663V82.5052H3.12402ZM11.2812 80.9093V81.5476C11.0971 81.7256 10.8455 82.0448 10.5386 82.4929C10.2317 82.9409 9.96161 83.4258 9.72223 83.9414C9.48899 84.4447 9.31099 84.9051 9.18823 85.3224C9.10844 85.5864 9.01024 86.0221 8.88748 86.6114H8.08342C8.26755 85.5066 8.67265 84.4079 9.29872 83.3092C9.66699 82.6647 10.0537 82.1123 10.4649 81.6458H7.26095V80.9154H11.2812V80.9093ZM12.4781 82.3272H13.319V83.211H12.472V82.3272H12.4781ZM12.4781 85.7214H13.319V86.6052H12.472V85.7214H12.4781ZM16.1056 80.8111C16.8544 80.8111 17.3946 81.118 17.7321 81.7379C17.9899 82.2167 18.1188 82.8673 18.1188 83.702C18.1188 84.4877 18.0022 85.1383 17.769 85.6539C17.4314 86.3904 16.8728 86.7648 16.0995 86.7648C15.4059 86.7648 14.8842 86.4641 14.5466 85.8564C14.2643 85.3531 14.1231 84.678 14.1231 83.8248C14.1231 83.168 14.209 82.6034 14.3809 82.1307C14.6939 81.253 15.2709 80.8111 16.1056 80.8111ZM16.0995 86.1019C16.48 86.1019 16.7808 85.9362 17.0017 85.5986C17.2227 85.2672 17.3393 84.6411 17.3393 83.7266C17.3393 83.0698 17.2595 82.5297 17.0938 82.1062C16.9342 81.6827 16.6151 81.4679 16.1486 81.4679C15.7189 81.4679 15.4059 81.6704 15.2033 82.0755C15.0069 82.4745 14.9087 83.0698 14.9087 83.8555C14.9087 84.4447 14.9701 84.9173 15.099 85.2795C15.2954 85.8257 15.6269 86.1019 16.0995 86.1019ZM20.7151 80.8111C21.464 80.8111 22.0041 81.118 22.3417 81.7379C22.5995 82.2167 22.7284 82.8673 22.7284 83.702C22.7284 84.4877 22.6117 85.1383 22.3785 85.6539C22.0409 86.3904 21.4824 86.7648 20.709 86.7648C20.0154 86.7648 19.4937 86.4641 19.1561 85.8564C18.8738 85.3531 18.7326 84.678 18.7326 83.8248C18.7326 83.168 18.8185 82.6034 18.9904 82.1307C19.3096 81.253 19.8865 80.8111 20.7151 80.8111ZM20.709 86.1019C21.0896 86.1019 21.3903 85.9362 21.6113 85.5986C21.8322 85.2672 21.9489 84.6411 21.9489 83.7266C21.9489 83.0698 21.8691 82.5297 21.7033 82.1062C21.5438 81.6827 21.2246 81.4679 20.7581 81.4679C20.3285 81.4679 20.0154 81.6704 19.8129 82.0755C19.6165 82.4745 19.5183 83.0698 19.5183 83.8555C19.5183 84.4447 19.5796 84.9173 19.7085 85.2795C19.9111 85.8257 20.2425 86.1019 20.709 86.1019ZM24.0664 84.0151H30.4007V84.6104H24.0664V84.0151ZM31.6344 86.6052C31.659 86.1081 31.7633 85.6723 31.9413 85.304C32.1193 84.9358 32.4753 84.5982 32.9909 84.2974L33.7704 83.8493C34.1202 83.6468 34.3596 83.4749 34.5008 83.3338C34.7218 83.1067 34.8322 82.855 34.8322 82.5665C34.8322 82.2289 34.734 81.965 34.5315 81.7686C34.3289 81.5722 34.0589 81.4679 33.7213 81.4679C33.2241 81.4679 32.8743 81.6581 32.684 82.0325C32.5796 82.2351 32.5244 82.5174 32.5121 82.8734H31.7694C31.7756 82.3701 31.8676 81.9589 32.0456 81.6397C32.3587 81.0812 32.9172 80.7988 33.7151 80.7988C34.378 80.7988 34.8629 80.9768 35.1698 81.339C35.4767 81.695 35.6302 82.0939 35.6302 82.5358C35.6302 83.0023 35.4644 83.3951 35.1391 83.7266C34.9489 83.9169 34.6113 84.1501 34.1264 84.4202L33.574 84.7271C33.31 84.8744 33.1014 85.0094 32.9479 85.1444C32.6778 85.3777 32.506 85.6416 32.4385 85.9239H35.5995V86.6114H31.6344V86.6052ZM38.2265 80.8111C38.9753 80.8111 39.5154 81.118 39.853 81.7379C40.1108 82.2167 40.2397 82.8673 40.2397 83.702C40.2397 84.4877 40.1231 85.1383 39.8898 85.6539C39.5523 86.3904 38.9937 86.7648 38.2203 86.7648C37.5268 86.7648 37.005 86.4641 36.6675 85.8564C36.3851 85.3531 36.2439 84.678 36.2439 83.8248C36.2439 83.168 36.3299 82.6034 36.5017 82.1307C36.8209 81.253 37.3979 80.8111 38.2265 80.8111ZM38.2203 86.1019C38.6009 86.1019 38.9016 85.9362 39.1226 85.5986C39.3436 85.2672 39.4602 84.6411 39.4602 83.7266C39.4602 83.0698 39.3804 82.5297 39.2147 82.1062C39.0551 81.6827 38.7359 81.4679 38.2694 81.4679C37.8398 81.4679 37.5268 81.6704 37.3242 82.0755C37.1278 82.4745 37.0296 83.0698 37.0296 83.8555C37.0296 84.4447 37.091 84.9173 37.2199 85.2795C37.4163 85.8257 37.7539 86.1019 38.2203 86.1019ZM41.5164 82.3272H42.3634V83.211H41.5164V82.3272ZM41.5164 85.7214H42.3634V86.6052H41.5164V85.7214ZM45.15 80.8111C45.8988 80.8111 46.4451 81.118 46.7765 81.7379C47.0343 82.2167 47.1632 82.8673 47.1632 83.702C47.1632 84.4877 47.0466 85.1383 46.8134 85.6539C46.4758 86.3904 45.9172 86.7648 45.1439 86.7648C44.4503 86.7648 43.9286 86.4641 43.591 85.8564C43.3086 85.3531 43.1675 84.678 43.1675 83.8248C43.1675 83.168 43.2534 82.6034 43.4252 82.1307C43.7383 81.253 44.3152 80.8111 45.15 80.8111ZM45.1377 86.1019C45.5183 86.1019 45.819 85.9362 46.04 85.5986C46.2609 85.2672 46.3776 84.6411 46.3776 83.7266C46.3776 83.0698 46.2978 82.5297 46.132 82.1062C45.9725 81.6827 45.6533 81.4679 45.1868 81.4679C44.7572 81.4679 44.4441 81.6704 44.2416 82.0755C44.0452 82.4745 43.947 83.0698 43.947 83.8555C43.947 84.4447 44.0083 84.9173 44.1372 85.2795C44.3398 85.8257 44.6712 86.1019 45.1377 86.1019ZM49.7595 80.8111C50.5083 80.8111 51.0546 81.118 51.3861 81.7379C51.6439 82.2167 51.7727 82.8673 51.7727 83.702C51.7727 84.4877 51.6561 85.1383 51.4229 85.6539C51.0853 86.3904 50.5268 86.7648 49.7534 86.7648C49.0598 86.7648 48.5381 86.4641 48.2005 85.8564C47.9182 85.3531 47.777 84.678 47.777 83.8248C47.777 83.168 47.8629 82.6034 48.0348 82.1307C48.3478 81.253 48.9248 80.8111 49.7595 80.8111ZM49.7534 86.1019C50.1339 86.1019 50.4347 85.9362 50.6557 85.5986C50.8766 85.2672 50.9932 84.6411 50.9932 83.7266C50.9932 83.0698 50.9134 82.5297 50.7477 82.1062C50.5881 81.6827 50.269 81.4679 49.8025 81.4679C49.3728 81.4679 49.0598 81.6704 48.8573 82.0755C48.6608 82.4745 48.5626 83.0698 48.5626 83.8555C48.5626 84.4447 48.624 84.9173 48.7529 85.2795C48.9493 85.8257 49.2808 86.1019 49.7534 86.1019Z" fill="white"/>
<path d="M49.5755 3.88448H49.8333L50.1033 4.72537H50.1095L50.3857 3.88448H50.625V4.90951H50.4593V4.0809H50.4532L50.1831 4.90951H50.0113L49.7412 4.0809H49.7351V4.90951H49.5693V3.88448H49.5755ZM50.8767 4.19138C50.8767 4.13 50.889 4.07476 50.9135 4.03179C50.9381 3.98883 50.9626 3.952 50.9995 3.92745C51.0363 3.9029 51.0793 3.87835 51.1284 3.87221C51.1775 3.85993 51.2327 3.85379 51.2941 3.85379C51.3432 3.85379 51.3923 3.85993 51.4414 3.86607C51.4905 3.87835 51.5335 3.89062 51.5641 3.91517C51.601 3.93972 51.6317 3.96428 51.6501 4.0011C51.6746 4.03793 51.6808 4.0809 51.6808 4.13V4.72537C51.6808 4.74378 51.6869 4.75606 51.693 4.76834C51.6992 4.78061 51.7176 4.78675 51.736 4.78675C51.7421 4.78675 51.7544 4.78675 51.7667 4.78675C51.779 4.78675 51.7851 4.78061 51.7974 4.78061V4.90337C51.7851 4.90951 51.7667 4.90951 51.7544 4.91564C51.7421 4.92178 51.7237 4.92178 51.7053 4.92178C51.6746 4.92178 51.6501 4.92178 51.6255 4.91564C51.601 4.90951 51.5826 4.90337 51.5703 4.89109C51.558 4.87882 51.5457 4.86654 51.5335 4.84199C51.5273 4.82358 51.5212 4.79903 51.515 4.77447C51.4905 4.79903 51.4721 4.81744 51.4475 4.84199C51.423 4.8604 51.3984 4.87882 51.3677 4.89723C51.337 4.90951 51.3064 4.92178 51.2695 4.93406C51.2327 4.9402 51.1897 4.94633 51.1468 4.94633C51.1099 4.94633 51.067 4.9402 51.0302 4.92792C50.9933 4.91564 50.9565 4.89723 50.9319 4.87268C50.9013 4.84813 50.8767 4.81744 50.8583 4.78061C50.8399 4.74378 50.8337 4.70082 50.8337 4.65172C50.8337 4.59648 50.8399 4.55351 50.8583 4.51668C50.8767 4.47986 50.9013 4.44303 50.9258 4.41848C50.9565 4.39393 50.9872 4.36937 51.024 4.3571C51.0608 4.34482 51.0977 4.33255 51.1345 4.32641L51.423 4.28958C51.4475 4.28344 51.4721 4.27731 51.4844 4.25889C51.5028 4.24048 51.5089 4.20979 51.5089 4.17296C51.5089 4.11158 51.4905 4.06862 51.4475 4.03793C51.4046 4.01338 51.3493 3.99496 51.2757 3.99496C51.1959 3.99496 51.1406 4.01338 51.1038 4.04407C51.067 4.07476 51.0424 4.12386 51.0363 4.19138H50.8767ZM51.515 4.38779C51.5028 4.40006 51.4844 4.4062 51.4598 4.41234C51.4414 4.41848 51.4168 4.42462 51.3923 4.43075C51.3677 4.43689 51.3432 4.43689 51.3125 4.44303C51.2818 4.44917 51.2572 4.44917 51.2266 4.4553C51.1959 4.46144 51.1652 4.46758 51.1406 4.47372C51.1161 4.47986 51.0915 4.49213 51.0731 4.50441C51.0547 4.51668 51.0363 4.5351 51.024 4.55351C51.0117 4.57192 51.0056 4.59648 51.0056 4.62103C51.0056 4.65172 51.0117 4.67627 51.0179 4.70082C51.0302 4.72537 51.0424 4.74378 51.0547 4.75606C51.0731 4.76834 51.0915 4.78061 51.1161 4.79289C51.1406 4.80516 51.1652 4.80516 51.1897 4.80516C51.2081 4.80516 51.2266 4.80516 51.2511 4.79903C51.2757 4.79289 51.2941 4.78675 51.3186 4.78061C51.3432 4.77447 51.3677 4.7622 51.3861 4.74992C51.4107 4.73765 51.4291 4.71923 51.4475 4.70082C51.4659 4.68241 51.4782 4.66399 51.4905 4.63944C51.5028 4.61489 51.5089 4.59034 51.5089 4.55965V4.38779H51.515ZM52.7794 4.54737C52.7794 4.57192 52.7733 4.59648 52.7672 4.62717C52.761 4.65785 52.7488 4.68854 52.7365 4.7131C52.7242 4.74378 52.7058 4.76834 52.6812 4.79903C52.6567 4.82358 52.6321 4.84813 52.6014 4.87268C52.5708 4.89109 52.5339 4.90951 52.491 4.92178C52.448 4.93406 52.3989 4.9402 52.3437 4.9402C52.313 4.9402 52.2823 4.93406 52.2516 4.92792C52.2209 4.92178 52.1841 4.90951 52.1534 4.89109C52.1227 4.87268 52.092 4.85427 52.0613 4.82358C52.0306 4.79903 52.0061 4.7622 51.9877 4.71923C51.9692 4.67627 51.9508 4.6333 51.9386 4.57806C51.9263 4.52282 51.9201 4.46144 51.9201 4.39393C51.9201 4.308 51.9324 4.23434 51.957 4.16683C51.9815 4.09931 52.0122 4.03793 52.0552 3.99496C52.0981 3.94586 52.1411 3.90903 52.1963 3.88448C52.2516 3.85993 52.3068 3.84766 52.3682 3.84766C52.4234 3.84766 52.4664 3.85379 52.5094 3.86607C52.5523 3.87835 52.5892 3.89062 52.6199 3.91517C52.6505 3.93359 52.6751 3.95814 52.6996 3.98269C52.7181 4.00724 52.7365 4.03179 52.7488 4.06248C52.761 4.08703 52.7733 4.11772 52.7794 4.14841C52.7856 4.1791 52.7917 4.20365 52.7917 4.2282H52.626C52.6199 4.16069 52.5953 4.10545 52.5523 4.06248C52.5155 4.02565 52.4603 4.0011 52.3866 4.0011C52.3375 4.0011 52.2946 4.01338 52.2577 4.03179C52.2209 4.05021 52.1902 4.08089 52.1657 4.11772C52.1411 4.15455 52.1227 4.19751 52.1104 4.24662C52.0981 4.29572 52.092 4.35096 52.092 4.41234C52.092 4.47986 52.0981 4.54124 52.1104 4.59034C52.1227 4.63944 52.1411 4.67627 52.1657 4.7131C52.1902 4.74378 52.2209 4.76834 52.2516 4.78061C52.2884 4.79289 52.3252 4.80516 52.3682 4.80516C52.3989 4.80516 52.4296 4.79903 52.4541 4.78675C52.4787 4.77447 52.5032 4.75606 52.5278 4.73765C52.5523 4.7131 52.5708 4.68854 52.583 4.65785C52.5953 4.62717 52.6076 4.59034 52.6137 4.55351H52.7794V4.54737ZM53.2275 4.03793H52.8715V3.88448H53.7554V4.03793H53.3994V4.90951H53.2214V4.03793H53.2275ZM54.8111 4.5842C54.8049 4.62716 54.7865 4.67013 54.762 4.7131C54.7374 4.75606 54.7067 4.79289 54.6699 4.82971C54.6331 4.86654 54.584 4.89109 54.5349 4.90951C54.4858 4.92792 54.4244 4.9402 54.363 4.9402C54.2955 4.9402 54.228 4.92792 54.1727 4.90951C54.1175 4.88496 54.0623 4.85427 54.0193 4.80516C53.9763 4.75606 53.9456 4.70082 53.9211 4.6333C53.8965 4.56579 53.8843 4.48599 53.8843 4.38779C53.8843 4.32641 53.8904 4.27117 53.9027 4.21593C53.9149 4.16683 53.9334 4.11772 53.9579 4.0809C53.9825 4.03793 54.007 4.00724 54.0377 3.97655C54.0684 3.94586 54.0991 3.92131 54.1359 3.9029C54.1727 3.88448 54.2034 3.87221 54.2403 3.85993C54.2771 3.84766 54.3078 3.84766 54.3446 3.84766C54.4121 3.84766 54.4796 3.85993 54.5349 3.87835C54.5901 3.89676 54.6454 3.93359 54.6822 3.97655C54.7251 4.01952 54.7558 4.07476 54.7804 4.13614C54.8049 4.20365 54.8172 4.27731 54.8172 4.36324V4.44917H54.0745C54.0745 4.49827 54.0807 4.54737 54.0929 4.5842C54.1052 4.62716 54.1236 4.65785 54.1482 4.68854C54.1727 4.71923 54.2034 4.73765 54.2403 4.75606C54.2771 4.76834 54.3139 4.78061 54.363 4.78061C54.406 4.78061 54.4489 4.77447 54.4796 4.7622C54.5103 4.74992 54.5349 4.73151 54.5594 4.7131C54.5778 4.69468 54.5963 4.67013 54.6085 4.64558C54.6208 4.62103 54.6331 4.59648 54.6392 4.57192H54.8111V4.5842ZM54.6454 4.31413C54.6454 4.26503 54.6392 4.22207 54.6208 4.1791C54.6085 4.14227 54.5901 4.10545 54.5656 4.0809C54.541 4.05634 54.5103 4.03179 54.4796 4.01952C54.4428 4.00724 54.406 4.0011 54.363 4.0011C54.32 4.0011 54.2832 4.00724 54.2525 4.02565C54.2157 4.03793 54.1912 4.06248 54.1605 4.09317C54.1359 4.11772 54.1114 4.15455 54.0991 4.19138C54.0868 4.2282 54.0745 4.27117 54.0684 4.31413H54.6454ZM55.0198 3.88448H55.1978V4.02565H55.2039C55.2162 4.0011 55.2284 3.97655 55.2469 3.95814C55.2653 3.93972 55.2837 3.92131 55.3082 3.9029C55.3328 3.88448 55.3635 3.87221 55.3942 3.86607C55.4249 3.85993 55.4617 3.85379 55.5047 3.85379C55.5599 3.85379 55.6151 3.86607 55.6642 3.88448C55.7133 3.9029 55.7624 3.93972 55.7993 3.97655C55.8361 4.01952 55.8668 4.07476 55.8913 4.13614C55.9159 4.19751 55.9282 4.27117 55.9282 4.3571C55.9282 4.46144 55.9159 4.55351 55.8975 4.62717C55.8791 4.70082 55.8484 4.7622 55.8054 4.80516C55.7686 4.85427 55.7195 4.88496 55.6642 4.90951C55.609 4.92792 55.5476 4.9402 55.4801 4.9402C55.4433 4.9402 55.4126 4.93406 55.388 4.92792C55.3573 4.92178 55.3328 4.90951 55.3082 4.89109C55.2837 4.87882 55.2653 4.8604 55.2469 4.84199C55.2284 4.82358 55.2162 4.80516 55.21 4.79289H55.2039V5.31461H55.0259V3.88448H55.0198ZM55.1916 4.40006C55.1916 4.4553 55.1978 4.50441 55.21 4.55351C55.2223 4.60261 55.2346 4.63944 55.2591 4.67627C55.2837 4.7131 55.3082 4.73765 55.3451 4.75606C55.3819 4.77447 55.4187 4.78675 55.4678 4.78675C55.5169 4.78675 55.5599 4.77447 55.5906 4.75606C55.6274 4.73765 55.6581 4.70696 55.6765 4.67627C55.7011 4.63944 55.7195 4.60261 55.7256 4.55351C55.7379 4.50441 55.744 4.4553 55.744 4.40006C55.744 4.34482 55.7379 4.28958 55.7256 4.24048C55.7133 4.19138 55.6949 4.14841 55.6765 4.11772C55.6581 4.08703 55.6213 4.05634 55.5906 4.03793C55.5538 4.01952 55.5108 4.00724 55.4678 4.00724C55.4187 4.00724 55.3819 4.01952 55.3451 4.03793C55.3082 4.05634 55.2837 4.08703 55.2591 4.11772C55.2346 4.15455 55.2223 4.19751 55.21 4.24048C55.1978 4.28958 55.1916 4.34482 55.1916 4.40006ZM56.0755 4.27117H56.5542V4.44917H56.0755V4.27117ZM56.7813 3.88448H56.9593V4.38165L57.481 3.88448H57.7143L57.2294 4.33869L57.7204 4.90951H57.4933L57.0944 4.44303L56.9655 4.55351V4.90951H56.7875V3.88448H56.7813ZM58.549 4.03793H58.1562L58.1501 4.28344C58.1439 4.4062 58.1378 4.51055 58.1194 4.59648C58.1071 4.68241 58.0826 4.74378 58.058 4.79903C58.0335 4.84813 58.0028 4.88496 57.9598 4.90951C57.923 4.92792 57.88 4.9402 57.8309 4.9402C57.8125 4.9402 57.8002 4.9402 57.7818 4.93406C57.7695 4.92792 57.7573 4.92178 57.7511 4.91564V4.7622C57.7757 4.77447 57.8002 4.77447 57.8186 4.77447C57.8309 4.77447 57.8432 4.77447 57.8555 4.76834C57.8677 4.7622 57.88 4.75606 57.8923 4.74378C57.9046 4.73151 57.9168 4.7131 57.923 4.68854C57.9352 4.66399 57.9414 4.6333 57.9475 4.59648C57.9537 4.55965 57.9598 4.51055 57.9659 4.46144C57.9721 4.4062 57.9721 4.34482 57.9782 4.27117L57.9844 3.89062H58.7209V4.90951H58.5429V4.03793H58.549ZM58.9787 4.19138C58.9787 4.13 58.991 4.07476 59.0155 4.03179C59.0401 3.98883 59.0646 3.952 59.1014 3.92745C59.1383 3.9029 59.1812 3.87835 59.2303 3.87221C59.2794 3.85993 59.3347 3.85379 59.3961 3.85379C59.4452 3.85379 59.4943 3.85993 59.5434 3.86607C59.5925 3.87835 59.6354 3.89062 59.6661 3.91517C59.703 3.93972 59.7336 3.96428 59.7521 4.0011C59.7766 4.03793 59.7827 4.0809 59.7827 4.13V4.72537C59.7827 4.74378 59.7889 4.75606 59.795 4.76834C59.8012 4.78061 59.8196 4.78675 59.838 4.78675C59.8441 4.78675 59.8564 4.78675 59.8687 4.78675C59.881 4.78675 59.8871 4.78061 59.8994 4.78061V4.90337C59.8871 4.90951 59.8687 4.90951 59.8564 4.91564C59.8441 4.92178 59.8257 4.92178 59.8073 4.92178C59.7766 4.92178 59.7521 4.92178 59.7275 4.91564C59.703 4.90951 59.6845 4.90337 59.6723 4.89109C59.66 4.87882 59.6477 4.86654 59.6354 4.84199C59.6293 4.82358 59.6232 4.79903 59.617 4.77447C59.5925 4.79903 59.5741 4.81744 59.5495 4.84199C59.525 4.8604 59.5004 4.87882 59.4697 4.89723C59.439 4.90951 59.4083 4.92178 59.3715 4.93406C59.3347 4.9402 59.2917 4.94633 59.2488 4.94633C59.2119 4.94633 59.169 4.9402 59.1321 4.92792C59.0953 4.91564 59.0585 4.89723 59.0339 4.87268C59.0032 4.84813 58.9787 4.81744 58.9603 4.78061C58.9419 4.74378 58.9357 4.70082 58.9357 4.65172C58.9357 4.59648 58.9419 4.55351 58.9603 4.51668C58.9787 4.47986 59.0032 4.44303 59.0278 4.41848C59.0585 4.39393 59.0892 4.36937 59.126 4.3571C59.1628 4.34482 59.1996 4.33255 59.2365 4.32641L59.525 4.28958C59.5495 4.28344 59.5741 4.27731 59.5863 4.25889C59.6047 4.24048 59.6109 4.20979 59.6109 4.17296C59.6109 4.11158 59.5925 4.06862 59.5495 4.03793C59.5065 4.01338 59.4513 3.99496 59.3776 3.99496C59.2979 3.99496 59.2426 4.01338 59.2058 4.04407C59.169 4.07476 59.1444 4.12386 59.1383 4.19138H58.9787ZM59.617 4.38779C59.6047 4.40006 59.5863 4.4062 59.5618 4.41234C59.5434 4.41848 59.5188 4.42462 59.4943 4.43075C59.4697 4.43689 59.4452 4.43689 59.4145 4.44303C59.3838 4.44917 59.3592 4.44917 59.3285 4.4553C59.2979 4.46144 59.2672 4.46758 59.2426 4.47372C59.2181 4.47986 59.1935 4.49213 59.1751 4.50441C59.1567 4.51668 59.1383 4.5351 59.126 4.55351C59.1137 4.57192 59.1076 4.59648 59.1076 4.62103C59.1076 4.65172 59.1137 4.67627 59.1199 4.70082C59.1321 4.72537 59.1444 4.74378 59.1567 4.75606C59.1751 4.76834 59.1935 4.78061 59.2181 4.79289C59.2426 4.80516 59.2672 4.80516 59.2917 4.80516C59.3101 4.80516 59.3285 4.80516 59.3531 4.79903C59.3776 4.79289 59.3961 4.78675 59.4206 4.78061C59.4452 4.77447 59.4697 4.7622 59.4881 4.74992C59.5127 4.73765 59.5311 4.71923 59.5495 4.70082C59.5679 4.68241 59.5802 4.66399 59.5925 4.63944C59.6048 4.61489 59.6109 4.59034 59.6109 4.55965V4.38779H59.617ZM60.8814 4.54737C60.8814 4.57192 60.8753 4.59648 60.8691 4.62717C60.863 4.65785 60.8507 4.68854 60.8385 4.7131C60.8262 4.74378 60.8078 4.76834 60.7832 4.79903C60.7587 4.82358 60.7341 4.84813 60.7034 4.87268C60.6727 4.89109 60.6359 4.90951 60.5929 4.92178C60.55 4.93406 60.5009 4.9402 60.4456 4.9402C60.4149 4.9402 60.3843 4.93406 60.3536 4.92792C60.3229 4.92178 60.2861 4.90951 60.2554 4.89109C60.2247 4.87268 60.194 4.85427 60.1633 4.82358C60.1326 4.79903 60.1081 4.7622 60.0896 4.71923C60.0712 4.67627 60.0528 4.6333 60.0405 4.57806C60.0283 4.52282 60.0221 4.46144 60.0221 4.39393C60.0221 4.308 60.0344 4.23434 60.059 4.16683C60.0835 4.09931 60.1142 4.03793 60.1572 3.99496C60.2001 3.94586 60.2431 3.90903 60.2983 3.88448C60.3536 3.85993 60.4088 3.84766 60.4702 3.84766C60.5254 3.84766 60.5684 3.85379 60.6114 3.86607C60.6543 3.87835 60.6912 3.89062 60.7218 3.91517C60.7525 3.93359 60.7771 3.95814 60.8016 3.98269C60.82 4.00724 60.8385 4.03179 60.8507 4.06248C60.863 4.08703 60.8753 4.11772 60.8814 4.14841C60.8876 4.1791 60.8937 4.20365 60.8937 4.2282H60.728C60.7218 4.16069 60.6973 4.10545 60.6543 4.06248C60.6175 4.02565 60.5623 4.0011 60.4886 4.0011C60.4395 4.0011 60.3965 4.01338 60.3597 4.03179C60.3229 4.05021 60.2922 4.08089 60.2676 4.11772C60.2431 4.15455 60.2247 4.19751 60.2124 4.24662C60.2001 4.29572 60.194 4.35096 60.194 4.41234C60.194 4.47986 60.2001 4.54124 60.2124 4.59034C60.2247 4.63944 60.2431 4.67627 60.2676 4.7131C60.2922 4.74378 60.3229 4.76834 60.3536 4.78061C60.3904 4.79289 60.4272 4.80516 60.4702 4.80516C60.5009 4.80516 60.5316 4.79903 60.5561 4.78675C60.5807 4.77447 60.6052 4.75606 60.6298 4.73765C60.6543 4.7131 60.6727 4.68854 60.685 4.65785C60.6973 4.62717 60.7096 4.59034 60.7157 4.55351H60.8814V4.54737ZM61.8635 4.54737C61.8635 4.57192 61.8573 4.59648 61.8512 4.62717C61.8451 4.65785 61.8328 4.68854 61.8205 4.7131C61.8082 4.74378 61.7898 4.76834 61.7653 4.79903C61.7407 4.82358 61.7162 4.84813 61.6855 4.87268C61.6548 4.89109 61.618 4.90951 61.575 4.92178C61.532 4.93406 61.4829 4.9402 61.4277 4.9402C61.397 4.9402 61.3663 4.93406 61.3356 4.92792C61.3049 4.92178 61.2681 4.90951 61.2374 4.89109C61.2067 4.87268 61.176 4.85427 61.1454 4.82358C61.1147 4.79903 61.0901 4.7622 61.0717 4.71923C61.0533 4.67627 61.0349 4.6333 61.0226 4.57806C61.0103 4.52282 61.0042 4.46144 61.0042 4.39393C61.0042 4.308 61.0165 4.23434 61.041 4.16683C61.0656 4.09931 61.0962 4.03793 61.1392 3.99496C61.1822 3.94586 61.2251 3.90903 61.2804 3.88448C61.3356 3.85993 61.3909 3.84766 61.4522 3.84766C61.5075 3.84766 61.5505 3.85379 61.5934 3.86607C61.6364 3.87835 61.6732 3.89062 61.7039 3.91517C61.7346 3.93359 61.7591 3.95814 61.7837 3.98269C61.8021 4.00724 61.8205 4.03179 61.8328 4.06248C61.8451 4.08703 61.8573 4.11772 61.8635 4.14841C61.8696 4.1791 61.8758 4.20365 61.8758 4.2282H61.71C61.6978 4.16069 61.6793 4.10545 61.6364 4.06248C61.5996 4.02565 61.5443 4.0011 61.4707 4.0011C61.4216 4.0011 61.3786 4.01338 61.3418 4.03179C61.3049 4.05021 61.2742 4.08089 61.2497 4.11772C61.2251 4.15455 61.2067 4.19751 61.1945 4.24662C61.1822 4.29572 61.176 4.35096 61.176 4.41234C61.176 4.47986 61.1822 4.54124 61.1945 4.59034C61.2067 4.63944 61.2251 4.67627 61.2497 4.7131C61.2742 4.74378 61.3049 4.76834 61.3356 4.78061C61.3725 4.79289 61.4093 4.80516 61.4522 4.80516C61.4829 4.80516 61.5136 4.79903 61.5382 4.78675C61.5627 4.77447 61.5873 4.75606 61.6118 4.73765C61.6302 4.7131 61.6548 4.68854 61.6671 4.65785C61.6793 4.62717 61.6916 4.59034 61.6978 4.55351H61.8635V4.54737ZM50.8522 6.37032H50.3734V7.2419H50.1954V6.21687H51.0302V7.2419H50.8522V6.37032ZM52.0061 6.72631C52.0061 6.67107 51.9999 6.61583 51.9877 6.57287C51.9754 6.52377 51.957 6.4808 51.9324 6.45011C51.9079 6.41328 51.8772 6.38873 51.8403 6.37032C51.8035 6.35191 51.7606 6.33963 51.7115 6.33963C51.6623 6.33963 51.6194 6.35191 51.5826 6.37032C51.5457 6.38873 51.515 6.41942 51.4905 6.45011C51.4659 6.48694 51.4475 6.52377 51.4352 6.57287C51.423 6.62197 51.4168 6.67107 51.4168 6.72631C51.4168 6.78156 51.423 6.8368 51.4352 6.8859C51.4475 6.935 51.4659 6.97797 51.4905 7.00866C51.515 7.04548 51.5457 7.07004 51.5826 7.08845C51.6194 7.10686 51.6623 7.11914 51.7115 7.11914C51.7606 7.11914 51.8035 7.10686 51.8403 7.08845C51.8772 7.07004 51.9079 7.03935 51.9324 7.00866C51.957 6.97183 51.9754 6.935 51.9877 6.8859C51.9999 6.8368 52.0061 6.78156 52.0061 6.72631ZM52.1841 6.72631C52.1841 6.81225 52.1718 6.8859 52.1534 6.95342C52.1288 7.02093 52.0981 7.07617 52.0613 7.12528C52.0183 7.17438 51.9692 7.21121 51.9079 7.23576C51.8465 7.26031 51.7851 7.27259 51.7053 7.27259C51.6317 7.27259 51.5641 7.26031 51.5028 7.23576C51.4414 7.21121 51.3923 7.17438 51.3555 7.12528C51.3125 7.07617 51.2818 7.02093 51.2634 6.95342C51.2388 6.8859 51.2327 6.81225 51.2327 6.72631C51.2327 6.64038 51.245 6.56673 51.2634 6.49921C51.2879 6.4317 51.3186 6.37646 51.3555 6.32735C51.3984 6.27825 51.4475 6.24142 51.5028 6.21687C51.5641 6.19232 51.6255 6.18004 51.7053 6.18004C51.779 6.18004 51.8465 6.19232 51.9079 6.21687C51.9692 6.24142 52.0183 6.27825 52.0613 6.32735C52.1043 6.37646 52.135 6.4317 52.1534 6.49921C52.1718 6.56673 52.1841 6.64652 52.1841 6.72631ZM53.7369 6.87976C53.7369 6.90431 53.7308 6.92886 53.7247 6.95955C53.7185 6.99024 53.7063 7.02093 53.694 7.04548C53.6817 7.07617 53.6633 7.10072 53.6387 7.13141C53.6142 7.15597 53.5896 7.18052 53.5589 7.20507C53.5283 7.22348 53.4914 7.2419 53.4485 7.25417C53.4055 7.26645 53.3564 7.27259 53.3012 7.27259C53.2705 7.27259 53.2398 7.26645 53.2091 7.26031C53.1784 7.25417 53.1416 7.2419 53.1109 7.22348C53.0802 7.20507 53.0495 7.18665 53.0188 7.15597C52.9881 7.13141 52.9636 7.09459 52.9452 7.05162C52.9267 7.00866 52.9083 6.96569 52.8961 6.91045C52.8838 6.85521 52.8776 6.79383 52.8776 6.72631C52.8776 6.64038 52.8899 6.56673 52.9145 6.49921C52.939 6.4317 52.9697 6.37032 53.0127 6.32735C53.0556 6.27825 53.0986 6.24142 53.1539 6.21687C53.2091 6.19232 53.2643 6.18004 53.3257 6.18004C53.381 6.18004 53.4239 6.18618 53.4669 6.19846C53.5098 6.21073 53.5467 6.22301 53.5774 6.24756C53.6081 6.26598 53.6326 6.29053 53.6572 6.31508C53.6756 6.33963 53.694 6.36418 53.7063 6.39487C53.7185 6.41942 53.7308 6.45011 53.7369 6.4808C53.7431 6.51149 53.7492 6.53604 53.7492 6.56059H53.5835C53.5774 6.49308 53.5528 6.43784 53.5098 6.39487C53.473 6.35804 53.4178 6.33349 53.3441 6.33349C53.295 6.33349 53.2521 6.34577 53.2152 6.36418C53.1784 6.38259 53.1477 6.41328 53.1232 6.45011C53.0986 6.48694 53.0802 6.5299 53.0679 6.57901C53.0556 6.62811 53.0495 6.68335 53.0495 6.74473C53.0495 6.81225 53.0556 6.87362 53.0679 6.92273C53.0802 6.97183 53.0986 7.00866 53.1232 7.04548C53.1477 7.07617 53.1784 7.10072 53.2091 7.113C53.2459 7.12528 53.2827 7.13755 53.3257 7.13755C53.3564 7.13755 53.3871 7.13141 53.4116 7.11914C53.4362 7.10686 53.4607 7.08845 53.4853 7.07004C53.5098 7.04548 53.5283 7.02093 53.5405 6.99024C53.5528 6.95955 53.5651 6.92273 53.5712 6.8859H53.7369V6.87976ZM54.6269 6.72631C54.6269 6.67107 54.6208 6.61583 54.6085 6.57287C54.5963 6.52377 54.5778 6.4808 54.5533 6.45011C54.5287 6.41328 54.498 6.38873 54.4612 6.37032C54.4244 6.35191 54.3814 6.33963 54.3323 6.33963C54.2832 6.33963 54.2403 6.35191 54.2034 6.37032C54.1666 6.38873 54.1359 6.41942 54.1114 6.45011C54.0868 6.48694 54.0684 6.52377 54.0561 6.57287C54.0438 6.62197 54.0377 6.67107 54.0377 6.72631C54.0377 6.78156 54.0438 6.8368 54.0561 6.8859C54.0684 6.935 54.0868 6.97797 54.1114 7.00866C54.1359 7.04548 54.1666 7.07004 54.2034 7.08845C54.2403 7.10686 54.2832 7.11914 54.3323 7.11914C54.3814 7.11914 54.4244 7.10686 54.4612 7.08845C54.498 7.07004 54.5287 7.03935 54.5533 7.00866C54.5778 6.97183 54.5963 6.935 54.6085 6.8859C54.6208 6.8368 54.6269 6.78156 54.6269 6.72631ZM54.8049 6.72631C54.8049 6.81225 54.7927 6.8859 54.7742 6.95342C54.7497 7.02093 54.719 7.07617 54.6822 7.12528C54.6392 7.17438 54.5901 7.21121 54.5287 7.23576C54.4674 7.26031 54.406 7.27259 54.3262 7.27259C54.2525 7.27259 54.185 7.26031 54.1236 7.23576C54.0623 7.21121 54.0132 7.17438 53.9763 7.12528C53.9334 7.07617 53.9027 7.02093 53.8843 6.95342C53.8597 6.8859 53.8536 6.81225 53.8536 6.72631C53.8536 6.64038 53.8658 6.56673 53.8843 6.49921C53.9088 6.4317 53.9395 6.37646 53.9763 6.32735C54.0193 6.27825 54.0684 6.24142 54.1236 6.21687C54.185 6.19232 54.2464 6.18004 54.3262 6.18004C54.3998 6.18004 54.4674 6.19232 54.5287 6.21687C54.5901 6.24142 54.6392 6.27825 54.6822 6.32735C54.7251 6.37646 54.7558 6.4317 54.7742 6.49921C54.7927 6.56673 54.8049 6.64652 54.8049 6.72631ZM55.2714 6.64652H55.3635C55.388 6.64652 55.4126 6.64652 55.4371 6.64038C55.4617 6.63425 55.4862 6.62811 55.5047 6.61583C55.5231 6.60356 55.5415 6.58514 55.5538 6.56673C55.566 6.54832 55.5722 6.52377 55.5722 6.49308C55.5722 6.47466 55.566 6.45011 55.5599 6.4317C55.5538 6.41328 55.5415 6.39487 55.5231 6.38259C55.5047 6.37032 55.4862 6.35804 55.4617 6.34577C55.4371 6.33963 55.4064 6.33349 55.3696 6.33349C55.3512 6.33349 55.3328 6.33349 55.3082 6.33963C55.2837 6.34577 55.2591 6.35191 55.2346 6.37032C55.21 6.38259 55.1916 6.40101 55.1732 6.4317C55.1548 6.45625 55.1425 6.48694 55.1364 6.5299H54.9707C54.9768 6.4808 54.9829 6.44397 55.0013 6.40715C55.0136 6.37032 55.032 6.33963 55.0566 6.31508C55.075 6.29053 55.0996 6.26598 55.1302 6.2537C55.1548 6.23529 55.1855 6.22301 55.21 6.21073C55.2407 6.19846 55.2653 6.19232 55.296 6.18618C55.3267 6.18005 55.3512 6.18004 55.3758 6.18004C55.4249 6.18004 55.4678 6.18618 55.5108 6.19846C55.5538 6.21073 55.5967 6.22915 55.6336 6.2537C55.6704 6.27825 55.7011 6.30894 55.7195 6.34577C55.744 6.38259 55.7502 6.42556 55.7502 6.47466C55.7502 6.50535 55.744 6.53604 55.7379 6.56059C55.7318 6.58514 55.7195 6.60356 55.7011 6.62197C55.6888 6.64039 55.6704 6.65266 55.652 6.67107C55.6335 6.68335 55.6151 6.69563 55.5967 6.70176V6.7079C55.6151 6.71404 55.6335 6.72018 55.6581 6.72631C55.6827 6.73859 55.7011 6.75087 55.7195 6.76928C55.7379 6.78769 55.7563 6.81225 55.7686 6.8368C55.7809 6.86749 55.787 6.89818 55.787 6.94114C55.787 6.99638 55.7747 7.05162 55.7502 7.08845C55.7256 7.13141 55.6949 7.16824 55.652 7.19279C55.6151 7.21734 55.566 7.2419 55.5169 7.25417C55.4678 7.26645 55.4187 7.27259 55.3635 7.27259C55.296 7.27259 55.2407 7.26645 55.1855 7.24803C55.1302 7.22962 55.0873 7.20507 55.0505 7.17438C55.0136 7.14369 54.9829 7.10686 54.9584 7.0639C54.9338 7.02093 54.9216 6.97183 54.9154 6.92273H55.0934C55.0996 6.95955 55.1057 6.99024 55.1241 7.01479C55.1425 7.03935 55.1609 7.05776 55.1855 7.07617C55.21 7.08845 55.2346 7.10073 55.2653 7.10686C55.296 7.113 55.3267 7.11914 55.3573 7.11914C55.4371 7.11914 55.4985 7.10072 55.5415 7.07004C55.5844 7.03935 55.6029 6.99638 55.6029 6.94114C55.6029 6.91659 55.5967 6.89818 55.5906 6.87976C55.5844 6.86135 55.5722 6.84293 55.5538 6.83066C55.5353 6.81838 55.5108 6.80611 55.4862 6.79997C55.4556 6.79383 55.4249 6.78769 55.3819 6.78769C55.3758 6.78769 55.3635 6.78769 55.3512 6.78769C55.3389 6.78769 55.3328 6.78769 55.3205 6.78769C55.3082 6.78769 55.3021 6.78769 55.2898 6.78769C55.2776 6.78769 55.2714 6.78769 55.2591 6.78769V6.64652H55.2714ZM56.8427 7.2419H56.0509V7.49355H55.8852V7.08845H56.0202C56.0509 7.02093 56.0693 6.94728 56.0878 6.87976C56.1062 6.80611 56.1184 6.73245 56.1246 6.66494C56.1307 6.59128 56.1369 6.51763 56.143 6.44397C56.143 6.37032 56.1491 6.29666 56.1491 6.22301H56.8673V7.09459H57.0146V7.49969H56.8488V7.2419H56.8427ZM56.6893 7.08845V6.37032H56.3149C56.3087 6.42556 56.3026 6.48694 56.3026 6.54832C56.2964 6.6097 56.2903 6.67107 56.2842 6.73245C56.278 6.79383 56.2657 6.85521 56.2535 6.91659C56.2412 6.97797 56.2228 7.03321 56.2044 7.08845H56.6893ZM57.1742 6.52377C57.1742 6.46239 57.1864 6.40715 57.211 6.36418C57.2355 6.32122 57.2601 6.28439 57.2969 6.25984C57.3337 6.23529 57.3767 6.21073 57.4258 6.2046C57.4749 6.19232 57.5301 6.18618 57.5915 6.18618C57.6406 6.18618 57.6897 6.19232 57.7388 6.19846C57.7879 6.21073 57.8309 6.22301 57.8616 6.24756C57.8984 6.27211 57.9291 6.29666 57.9475 6.33349C57.9721 6.37032 57.9782 6.41328 57.9782 6.46239V7.05776C57.9782 7.07617 57.9844 7.08845 57.9905 7.10072C57.9966 7.113 58.015 7.11914 58.0335 7.11914C58.0396 7.11914 58.0519 7.11914 58.0641 7.11914C58.0764 7.11914 58.0826 7.113 58.0948 7.113V7.23576C58.0826 7.2419 58.0641 7.2419 58.0519 7.24803C58.0396 7.25417 58.0212 7.25417 58.0028 7.25417C57.9721 7.25417 57.9475 7.25417 57.923 7.24803C57.8984 7.2419 57.88 7.23576 57.8677 7.22348C57.8555 7.21121 57.8432 7.19893 57.8309 7.17438C57.8248 7.15597 57.8186 7.13141 57.8125 7.10686C57.7879 7.13141 57.7695 7.14983 57.745 7.17438C57.7204 7.19279 57.6959 7.21121 57.6652 7.22962C57.6345 7.2419 57.6038 7.25417 57.567 7.26645C57.5302 7.27259 57.4872 7.27872 57.4442 7.27872C57.4074 7.27872 57.3644 7.27259 57.3276 7.26031C57.2908 7.24803 57.2539 7.22962 57.2294 7.20507C57.1987 7.18052 57.1742 7.14983 57.1557 7.113C57.1373 7.07617 57.1312 7.03321 57.1312 6.98411C57.1312 6.92886 57.1373 6.8859 57.1557 6.84907C57.1742 6.81225 57.1987 6.77542 57.2233 6.75087C57.2539 6.72632 57.2846 6.70176 57.3215 6.68949C57.3583 6.67721 57.3951 6.66494 57.4319 6.6588L57.7204 6.62197C57.745 6.61583 57.7695 6.6097 57.7818 6.59128C57.8002 6.57287 57.8064 6.54218 57.8064 6.50535C57.8064 6.44397 57.7879 6.40101 57.745 6.37032C57.702 6.34577 57.6468 6.32735 57.5731 6.32735C57.4933 6.32735 57.4381 6.34577 57.4013 6.37646C57.3644 6.40715 57.3399 6.45625 57.3337 6.52377H57.1742ZM57.8125 6.72018C57.8002 6.73245 57.7818 6.73859 57.7573 6.74473C57.7388 6.75087 57.7143 6.757 57.6897 6.76314C57.6652 6.76928 57.6406 6.76928 57.6099 6.77542C57.5793 6.78156 57.5547 6.78156 57.524 6.78769C57.4933 6.79383 57.4626 6.79997 57.4381 6.80611C57.4135 6.81225 57.389 6.82452 57.3706 6.8368C57.3522 6.84907 57.3337 6.86749 57.3215 6.8859C57.3092 6.90431 57.303 6.92886 57.303 6.95342C57.303 6.98411 57.3092 7.00866 57.3153 7.03321C57.3276 7.05776 57.3399 7.07617 57.3522 7.08845C57.3706 7.10072 57.389 7.113 57.4135 7.12528C57.4381 7.13755 57.4626 7.13755 57.4872 7.13755C57.5056 7.13755 57.524 7.13755 57.5486 7.13141C57.5731 7.12528 57.5915 7.11914 57.6161 7.113C57.6406 7.10686 57.6652 7.09459 57.6836 7.08231C57.7081 7.07004 57.7266 7.05162 57.745 7.03321C57.7634 7.01479 57.7757 6.99638 57.7879 6.97183C57.8002 6.94728 57.8064 6.92273 57.8064 6.89204V6.72018H57.8125ZM58.2728 6.21687H58.4508V6.63425H58.9296V6.21687H59.1076V7.2419H58.9296V6.78156H58.4508V7.2419H58.2728V6.21687ZM59.3654 6.21687H59.5434V7.00252H59.5495L60.0528 6.21687H60.2554V7.2419H60.0774V6.45625H60.0712L59.5679 7.2419H59.3654V6.21687ZM61.6671 6.72631C61.6671 6.67107 61.6609 6.61583 61.6487 6.57287C61.6364 6.52377 61.618 6.4808 61.5934 6.45011C61.5689 6.41328 61.5382 6.38873 61.5013 6.37032C61.4645 6.35191 61.4216 6.33963 61.3725 6.33963C61.3234 6.33963 61.2804 6.35191 61.2436 6.37032C61.2067 6.38873 61.176 6.41942 61.1515 6.45011C61.1269 6.48694 61.1085 6.52377 61.0963 6.57287C61.084 6.62197 61.0778 6.67107 61.0778 6.72631C61.0778 6.78156 61.084 6.8368 61.0963 6.8859C61.1085 6.935 61.1269 6.97797 61.1515 7.00866C61.176 7.04548 61.2067 7.07004 61.2436 7.08845C61.2804 7.10686 61.3234 7.11914 61.3725 7.11914C61.4216 7.11914 61.4645 7.10686 61.5013 7.08845C61.5382 7.07004 61.5689 7.03935 61.5934 7.00866C61.618 6.97183 61.6364 6.935 61.6487 6.8859C61.6548 6.8368 61.6671 6.78156 61.6671 6.72631ZM60.5132 6.21687H60.6912V6.65266H60.8876C60.8937 6.57901 60.9121 6.51763 60.9367 6.45625C60.9612 6.40101 60.9919 6.35191 61.0349 6.30894C61.0778 6.26598 61.1269 6.23529 61.1822 6.21687C61.2374 6.19232 61.2988 6.18618 61.3663 6.18618C61.44 6.18618 61.5075 6.19846 61.5689 6.22301C61.6302 6.24756 61.6793 6.28439 61.7162 6.33349C61.7591 6.38259 61.7898 6.43784 61.8082 6.50535C61.8328 6.57287 61.8389 6.64652 61.8389 6.73245C61.8389 6.81838 61.8267 6.89204 61.8082 6.95955C61.7837 7.02707 61.753 7.08231 61.7162 7.13141C61.6732 7.18052 61.6241 7.21734 61.5689 7.2419C61.5075 7.26645 61.44 7.27872 61.3663 7.27872C61.2988 7.27872 61.2313 7.26645 61.176 7.24803C61.1208 7.22348 61.0717 7.19279 61.0287 7.14983C60.9858 7.10686 60.9551 7.05776 60.9305 6.99638C60.906 6.935 60.8937 6.86749 60.8876 6.79383H60.6912V7.24803H60.5132V6.21687ZM52.9022 8.70271H52.4234V9.57428H52.2454V8.54926H53.0802V9.57428H52.9022V8.70271ZM54.0316 8.70271H53.6387L53.6326 8.94822C53.6265 9.07098 53.6203 9.17532 53.6019 9.26125C53.5896 9.34718 53.5651 9.40856 53.5405 9.4638C53.516 9.51291 53.4853 9.54973 53.4423 9.57428C53.4055 9.5927 53.3625 9.60497 53.3134 9.60497C53.295 9.60497 53.2827 9.60497 53.2643 9.59884C53.2521 9.5927 53.2398 9.58656 53.2336 9.58042V9.42698C53.2582 9.43925 53.2827 9.43925 53.3012 9.43925C53.3134 9.43925 53.3257 9.43925 53.338 9.43311C53.3503 9.42698 53.3625 9.42084 53.3748 9.40856C53.3871 9.39629 53.3994 9.37787 53.4055 9.35332C53.4178 9.32877 53.4239 9.29808 53.4301 9.26125C53.4362 9.22443 53.4423 9.17532 53.4485 9.12622C53.4546 9.07098 53.4546 9.0096 53.4607 8.93595L53.4669 8.5554H54.2034V9.57428H54.0254V8.70271H54.0316ZM55.3451 9.24898C55.3389 9.29194 55.3205 9.33491 55.296 9.37787C55.2714 9.42084 55.2407 9.45767 55.2039 9.49449C55.1671 9.53132 55.118 9.55587 55.0689 9.57428C55.0198 9.5927 54.9584 9.60497 54.897 9.60497C54.8295 9.60497 54.762 9.5927 54.7067 9.57428C54.6515 9.54973 54.5962 9.51904 54.5533 9.46994C54.5103 9.42084 54.4796 9.3656 54.4551 9.29808C54.4305 9.23056 54.4183 9.15077 54.4183 9.05257C54.4183 8.99119 54.4244 8.93595 54.4367 8.88071C54.4489 8.8316 54.4674 8.7825 54.4919 8.74567C54.5165 8.70271 54.541 8.67202 54.5717 8.64133C54.6024 8.61064 54.6331 8.58609 54.6699 8.56768C54.7067 8.54926 54.7374 8.53699 54.7742 8.52471C54.8111 8.51243 54.8418 8.51243 54.8786 8.51243C54.9461 8.51243 55.0136 8.52471 55.0689 8.54312C55.1241 8.56154 55.1793 8.59836 55.2162 8.64133C55.2591 8.68429 55.2898 8.73953 55.3144 8.80091C55.3389 8.86843 55.3512 8.94209 55.3512 9.02802V9.11394H54.6024C54.6024 9.16305 54.6085 9.21215 54.6208 9.24898C54.6331 9.29194 54.6515 9.32263 54.676 9.35332C54.7006 9.38401 54.7313 9.40242 54.7681 9.42084C54.8049 9.43311 54.8418 9.44539 54.8909 9.44539C54.9338 9.44539 54.9768 9.43925 55.0075 9.42698C55.0382 9.4147 55.0627 9.39629 55.0873 9.37787C55.1057 9.35946 55.1241 9.33491 55.1364 9.31036C55.1487 9.28581 55.1609 9.26125 55.1671 9.2367H55.3451V9.24898ZM55.1732 8.97891C55.1732 8.92981 55.1671 8.88684 55.1487 8.84388C55.1364 8.80705 55.118 8.77022 55.0934 8.74567C55.0689 8.72112 55.0382 8.69657 55.0075 8.68429C54.9707 8.67202 54.9338 8.66588 54.8909 8.66588C54.8479 8.66588 54.8111 8.67202 54.7804 8.69043C54.7436 8.70271 54.719 8.72726 54.6883 8.75795C54.6638 8.7825 54.6392 8.81933 54.6269 8.85615C54.6147 8.89298 54.6024 8.93595 54.5962 8.97891H55.1732ZM55.8361 8.1503C55.8422 8.19327 55.8607 8.22395 55.8852 8.24851C55.9098 8.27306 55.9527 8.28533 56.0018 8.28533C56.0509 8.28533 56.0939 8.27306 56.1184 8.24851C56.143 8.22395 56.1614 8.19327 56.1675 8.1503H56.3333C56.3333 8.18713 56.3271 8.22395 56.3087 8.25464C56.2903 8.28533 56.2719 8.30988 56.2412 8.33444C56.2105 8.35899 56.1798 8.37126 56.1369 8.38354C56.0939 8.39582 56.0509 8.40195 56.0018 8.40195C55.9527 8.40195 55.9098 8.39582 55.8668 8.38354C55.8238 8.37126 55.7931 8.35285 55.7624 8.33444C55.7318 8.30988 55.7133 8.28533 55.6949 8.25464C55.6765 8.22395 55.6704 8.18713 55.6704 8.1503H55.8361ZM55.5599 8.54926H55.7379V9.33491H55.744L56.2473 8.54926H56.4499V9.57428H56.2719V8.78864H56.2658L55.7624 9.57428H55.5599V8.54926ZM57.4013 8.70271H57.0084L57.0023 8.94822C56.9962 9.07098 56.99 9.17532 56.9716 9.26125C56.9593 9.34718 56.9348 9.40856 56.9102 9.4638C56.8857 9.51291 56.855 9.54973 56.812 9.57428C56.7752 9.5927 56.7322 9.60497 56.6831 9.60497C56.6647 9.60497 56.6524 9.60497 56.634 9.59884C56.6217 9.5927 56.6095 9.58656 56.6033 9.58042V9.42698C56.6279 9.43925 56.6524 9.43925 56.6708 9.43925C56.6831 9.43925 56.6954 9.43925 56.7077 9.43311C56.72 9.42698 56.7322 9.42084 56.7445 9.40856C56.7568 9.39629 56.7691 9.37787 56.7752 9.35332C56.7875 9.32877 56.7936 9.29808 56.7997 9.26125C56.8059 9.22443 56.812 9.17532 56.8182 9.12622C56.8243 9.07098 56.8243 9.0096 56.8304 8.93595L56.8366 8.5554H57.5731V9.57428H57.3951V8.70271H57.4013ZM57.837 8.54926H58.015V9.33491H58.0212L58.5245 8.54926H58.727V9.57428H58.549V8.78864H58.5429L58.0396 9.57428H57.837V8.54926ZM59.7889 9.21215C59.7889 9.2367 59.7827 9.26125 59.7766 9.29194C59.7705 9.32263 59.7582 9.35332 59.7459 9.37787C59.7336 9.40856 59.7152 9.43311 59.6907 9.4638C59.6661 9.48835 59.6416 9.51291 59.6109 9.53746C59.5802 9.55587 59.5434 9.57428 59.5004 9.58656C59.4574 9.59884 59.4083 9.60497 59.3531 9.60497C59.3224 9.60497 59.2917 9.59884 59.261 9.5927C59.2303 9.58656 59.1935 9.57428 59.1628 9.55587C59.1321 9.53746 59.1014 9.51904 59.0708 9.48836C59.0401 9.4638 59.0155 9.42698 58.9971 9.38401C58.9787 9.34105 58.9603 9.29808 58.948 9.24284C58.9357 9.1876 58.9296 9.12622 58.9296 9.0587C58.9296 8.97277 58.9419 8.89912 58.9664 8.8316C58.991 8.76409 59.0217 8.70271 59.0646 8.65974C59.1076 8.61064 59.1505 8.57381 59.2058 8.54926C59.261 8.52471 59.3163 8.51243 59.3776 8.51243C59.4329 8.51243 59.4759 8.51857 59.5188 8.53085C59.5618 8.54312 59.5986 8.5554 59.6293 8.57995C59.66 8.59836 59.6845 8.62292 59.7091 8.64747C59.7275 8.67202 59.7459 8.69657 59.7582 8.72726C59.7705 8.75181 59.7827 8.7825 59.7889 8.81319C59.795 8.84388 59.8012 8.86843 59.8012 8.89298H59.6354C59.6293 8.82546 59.6048 8.77022 59.5618 8.72726C59.525 8.69043 59.4697 8.66588 59.3961 8.66588C59.347 8.66588 59.304 8.67816 59.2672 8.69657C59.2303 8.71498 59.1996 8.74567 59.1751 8.7825C59.1505 8.81933 59.1321 8.86229 59.1199 8.9114C59.1076 8.9605 59.1014 9.01574 59.1014 9.07712C59.1014 9.14463 59.1076 9.20601 59.1199 9.25512C59.1321 9.30422 59.1505 9.34105 59.1751 9.37787C59.1996 9.40856 59.2303 9.43311 59.261 9.44539C59.2979 9.45767 59.3347 9.46994 59.3776 9.46994C59.4083 9.46994 59.439 9.4638 59.4636 9.45153C59.4881 9.43925 59.5127 9.42084 59.5372 9.40242C59.5618 9.37787 59.5802 9.35332 59.5925 9.32263C59.6048 9.29194 59.617 9.25512 59.6232 9.21829H59.7889V9.21215ZM60.237 8.70271H59.881V8.54926H60.7648V8.70271H60.4088V9.57428H60.2308V8.70271H60.237ZM60.9428 8.85615C60.9428 8.79478 60.9551 8.73953 60.9796 8.69657C61.0042 8.6536 61.0287 8.61678 61.0656 8.59223C61.1024 8.56767 61.1454 8.54312 61.1945 8.53699C61.2436 8.52471 61.2988 8.51857 61.3602 8.51857C61.4093 8.51857 61.4584 8.52471 61.5075 8.53085C61.5566 8.54312 61.5996 8.5554 61.6302 8.57995C61.6671 8.6045 61.6978 8.62905 61.7162 8.66588C61.7407 8.70271 61.7469 8.74567 61.7469 8.79478V9.39015C61.7469 9.40856 61.753 9.42084 61.7591 9.43311C61.7653 9.44539 61.7837 9.45153 61.8021 9.45153C61.8082 9.45153 61.8205 9.45153 61.8328 9.45153C61.8451 9.45153 61.8512 9.44539 61.8635 9.44539V9.56815C61.8512 9.57428 61.8328 9.57429 61.8205 9.58042C61.8082 9.58656 61.7898 9.58656 61.7714 9.58656C61.7407 9.58656 61.7162 9.58656 61.6916 9.58042C61.6671 9.57429 61.6487 9.56815 61.6364 9.55587C61.6241 9.5436 61.6118 9.53132 61.5996 9.50677C61.5934 9.48835 61.5873 9.4638 61.5811 9.43925C61.5566 9.4638 61.5382 9.48222 61.5136 9.50677C61.4891 9.52518 61.4645 9.5436 61.4338 9.56201C61.4031 9.57429 61.3725 9.58656 61.3356 9.59884C61.2988 9.60497 61.2558 9.61111 61.2129 9.61111C61.176 9.61111 61.1331 9.60497 61.0963 9.5927C61.0594 9.58042 61.0226 9.56201 60.998 9.53746C60.9674 9.51291 60.9428 9.48222 60.9244 9.44539C60.906 9.40856 60.8998 9.3656 60.8998 9.31649C60.8998 9.26125 60.906 9.21829 60.9244 9.18146C60.9428 9.14463 60.9674 9.10781 60.9919 9.08326C61.0226 9.0587 61.0533 9.03415 61.0901 9.02188C61.1269 9.0096 61.1638 8.99733 61.2006 8.99119L61.4891 8.95436C61.5198 8.94822 61.5382 8.94208 61.5505 8.92367C61.5689 8.90526 61.575 8.87457 61.575 8.83774C61.575 8.77636 61.5566 8.7334 61.5136 8.70271C61.4707 8.67816 61.4154 8.65974 61.3418 8.65974C61.262 8.65974 61.2067 8.67816 61.1699 8.70885C61.1331 8.73953 61.1085 8.78864 61.1024 8.85615H60.9428ZM61.5811 9.05257C61.5689 9.06484 61.5505 9.07098 61.5259 9.07712C61.5075 9.08326 61.4829 9.08939 61.4584 9.09553C61.4338 9.10167 61.4093 9.10167 61.3786 9.10781C61.3479 9.11394 61.3233 9.11395 61.2927 9.12008C61.262 9.12622 61.2313 9.13236 61.2067 9.1385C61.1822 9.14463 61.1576 9.15691 61.1392 9.16919C61.1208 9.18146 61.1024 9.19987 61.0901 9.21829C61.0778 9.2367 61.0717 9.26125 61.0717 9.28581C61.0717 9.31649 61.0778 9.34105 61.084 9.3656C61.0963 9.39015 61.1085 9.40856 61.1208 9.42084C61.1392 9.43311 61.1576 9.44539 61.1822 9.45767C61.2067 9.46994 61.2313 9.46994 61.2558 9.46994C61.2742 9.46994 61.2927 9.46994 61.3172 9.4638C61.3418 9.45767 61.3602 9.45153 61.3847 9.44539C61.4093 9.43925 61.4338 9.42698 61.4522 9.4147C61.4768 9.40242 61.4952 9.38401 61.5136 9.3656C61.532 9.34718 61.5443 9.32877 61.5566 9.30422C61.5689 9.27967 61.575 9.25512 61.575 9.22443V9.05257H61.5811Z" fill="white"/>
<path d="M59.4572 88.852C59.4633 88.9318 59.4817 88.9993 59.5124 89.0484C59.5738 89.1405 59.6843 89.1896 59.85 89.1896C59.9237 89.1896 59.9851 89.1773 60.0464 89.1589C60.1631 89.116 60.2183 89.0484 60.2183 88.9441C60.2183 88.8704 60.1937 88.8152 60.1446 88.7784C60.0955 88.7477 60.0219 88.717 59.9175 88.6924L59.7273 88.6495C59.6045 88.6249 59.5124 88.5881 59.4633 88.5574C59.3713 88.496 59.3283 88.4101 59.3283 88.2935C59.3283 88.1646 59.3713 88.0602 59.4572 87.9805C59.5431 87.9007 59.6659 87.8577 59.8316 87.8577C59.9789 87.8577 60.1017 87.8945 60.206 87.9682C60.3104 88.0418 60.3595 88.1523 60.3595 88.3119H60.1815C60.1692 88.2382 60.1508 88.1769 60.1201 88.14C60.0648 88.0664 59.9605 88.0296 59.8255 88.0296C59.715 88.0296 59.6291 88.0541 59.58 88.1032C59.5309 88.1523 59.5063 88.2076 59.5063 88.2689C59.5063 88.3364 59.537 88.3856 59.5922 88.4224C59.6291 88.4408 59.715 88.4715 59.85 88.496L60.0464 88.539C60.1446 88.5636 60.2183 88.5881 60.2674 88.6311C60.3595 88.6986 60.4024 88.7906 60.4024 88.9195C60.4024 89.073 60.3472 89.1896 60.2306 89.2571C60.1201 89.3246 59.9851 89.3553 59.8377 89.3553C59.6598 89.3553 59.5247 89.3124 59.4265 89.2203C59.3283 89.1344 59.2792 89.0116 59.2792 88.8582H59.4572V88.852ZM60.7584 88.6004C60.7584 88.6863 60.7707 88.7661 60.7891 88.8398C60.8137 88.9134 60.8444 88.9687 60.8812 89.0178C60.9242 89.0669 60.9733 89.1098 61.0285 89.1344C61.0837 89.1589 61.1513 89.1773 61.2188 89.1773C61.2801 89.1773 61.3354 89.1651 61.3784 89.1467C61.4275 89.1282 61.4704 89.0975 61.5011 89.0607C61.5379 89.0239 61.5625 88.9871 61.587 88.938C61.6055 88.895 61.6239 88.8459 61.63 88.8029H61.8141C61.808 88.8459 61.8019 88.8827 61.7896 88.9257C61.7773 88.9687 61.7589 89.0116 61.7343 89.0484C61.7098 89.0914 61.6852 89.1282 61.6484 89.1589C61.6177 89.1958 61.5809 89.2264 61.5379 89.251C61.495 89.2755 61.4459 89.3001 61.3968 89.3124C61.3477 89.3246 61.2863 89.3369 61.2249 89.3369C61.1819 89.3369 61.139 89.3308 61.0899 89.3247C61.0408 89.3124 60.9917 89.3001 60.9426 89.2817C60.8935 89.2633 60.8505 89.2326 60.8014 89.1957C60.7584 89.1589 60.7155 89.116 60.6848 89.0607C60.6479 89.0055 60.6234 88.9441 60.605 88.8704C60.5866 88.7968 60.5743 88.7109 60.5743 88.6127C60.5743 88.5144 60.5804 88.4347 60.5988 88.3549C60.6173 88.2812 60.6418 88.2137 60.6725 88.1585C60.7032 88.1032 60.74 88.0541 60.783 88.0173C60.8259 87.9805 60.8689 87.9436 60.918 87.9252C60.9671 87.9007 61.0162 87.8822 61.0715 87.87C61.1267 87.8577 61.1758 87.8516 61.2249 87.8516C61.2863 87.8516 61.3477 87.8577 61.3968 87.87C61.452 87.8822 61.495 87.9007 61.5379 87.9252C61.5809 87.9498 61.6177 87.9743 61.6484 88.005C61.6791 88.0357 61.7037 88.0664 61.7282 88.1032C61.7466 88.1339 61.765 88.1707 61.7773 88.2076C61.7896 88.2444 61.7957 88.2751 61.8019 88.3119H61.6177C61.6055 88.2689 61.587 88.226 61.5625 88.1891C61.5379 88.1523 61.5134 88.1216 61.4766 88.0971C61.4459 88.0725 61.4029 88.0541 61.3661 88.0418C61.3231 88.0296 61.2801 88.0234 61.231 88.0234C61.1574 88.0234 61.096 88.0357 61.0346 88.0664C60.9794 88.0909 60.9241 88.1339 60.8873 88.183C60.8444 88.2321 60.8137 88.2935 60.7891 88.361C60.7646 88.4347 60.7584 88.5144 60.7584 88.6004ZM47.697 90.5522H47.9548L48.2249 91.3931H48.231L48.5072 90.5522H48.7466V91.5772H48.5809V90.7486H48.5748L48.3047 91.5772H48.1328L47.8628 90.7486H47.8566V91.5772H47.6909V90.5522H47.697ZM49.0044 90.8591C49.0044 90.7977 49.0167 90.7425 49.0412 90.6995C49.0658 90.6566 49.0903 90.6197 49.1272 90.5952C49.164 90.5706 49.207 90.5461 49.2561 90.5399C49.3052 90.5277 49.3604 90.5215 49.4218 90.5215C49.4709 90.5215 49.52 90.5277 49.5691 90.5338C49.6182 90.5461 49.6612 90.5584 49.6919 90.5829C49.7287 90.6075 49.7594 90.632 49.7778 90.6688C49.8023 90.7057 49.8085 90.7486 49.8085 90.7977V91.3931C49.8085 91.4115 49.8146 91.4238 49.8208 91.4361C49.8269 91.4483 49.8453 91.4545 49.8637 91.4545C49.8699 91.4545 49.8821 91.4545 49.8944 91.4545C49.9067 91.4545 49.9128 91.4484 49.9251 91.4484V91.5711C49.9128 91.5772 49.8944 91.5772 49.8821 91.5834C49.8699 91.5834 49.8514 91.5895 49.833 91.5895C49.8023 91.5895 49.7778 91.5895 49.7532 91.5834C49.7287 91.5772 49.7103 91.5711 49.698 91.5588C49.6857 91.5466 49.6734 91.5343 49.6612 91.5097C49.655 91.4913 49.6489 91.4668 49.6428 91.4422C49.6182 91.4668 49.5998 91.4852 49.5752 91.5097C49.5507 91.5281 49.5261 91.5466 49.4954 91.5588C49.4648 91.5711 49.4341 91.5834 49.3972 91.5957C49.3604 91.6018 49.3174 91.6079 49.2745 91.6079C49.2377 91.6079 49.1947 91.6018 49.1579 91.5895C49.121 91.5772 49.0842 91.5588 49.0597 91.5343C49.029 91.5097 49.0044 91.479 48.986 91.4422C48.9676 91.4054 48.9614 91.3624 48.9614 91.3133C48.9614 91.2581 48.9676 91.2151 48.986 91.1783C49.0044 91.1415 49.029 91.1046 49.0535 91.0801C49.0842 91.0555 49.1149 91.031 49.1517 91.0187C49.1885 91.0064 49.2254 90.9941 49.2622 90.988L49.5507 90.9512C49.5752 90.9512 49.5998 90.9389 49.6121 90.9205C49.6305 90.9021 49.6366 90.8714 49.6366 90.8346C49.6366 90.7732 49.6182 90.7302 49.5752 90.6995C49.5323 90.675 49.477 90.6566 49.4034 90.6566C49.3236 90.6566 49.2683 90.675 49.2315 90.7057C49.1947 90.7364 49.1701 90.7855 49.164 90.853H49.0044V90.8591ZM49.6428 91.0555C49.6305 91.0678 49.6121 91.0739 49.5875 91.0801C49.5691 91.0862 49.5445 91.0923 49.52 91.0985C49.4954 91.1046 49.4709 91.1046 49.4402 91.1108C49.4095 91.1169 49.385 91.1169 49.3543 91.123C49.3236 91.1292 49.2929 91.1353 49.2683 91.1415C49.2438 91.1476 49.2192 91.1599 49.2008 91.1721C49.1824 91.1844 49.164 91.2028 49.1517 91.2212C49.1394 91.2397 49.1333 91.2642 49.1333 91.2888C49.1333 91.3195 49.1394 91.344 49.1456 91.3686C49.1579 91.3931 49.1701 91.4115 49.1824 91.4238C49.2008 91.4361 49.2192 91.4483 49.2438 91.4606C49.2683 91.4668 49.2929 91.4729 49.3174 91.4729C49.3359 91.4729 49.3543 91.4729 49.3788 91.4668C49.4034 91.4606 49.4218 91.4545 49.4463 91.4484C49.4709 91.4422 49.4954 91.4299 49.5139 91.4177C49.5384 91.4054 49.5568 91.387 49.5752 91.3686C49.5936 91.3501 49.6059 91.3256 49.6182 91.3072C49.6305 91.2826 49.6366 91.2581 49.6366 91.2274V91.0555H49.6428ZM50.097 90.5522H50.7353V90.7057H50.275V91.5772H50.097V90.5522ZM50.8887 90.8591C50.8887 90.7977 50.901 90.7425 50.9256 90.6995C50.9501 90.6566 50.9747 90.6197 51.0115 90.5952C51.0483 90.5706 51.0913 90.5461 51.1404 90.5399C51.1895 90.5277 51.2447 90.5215 51.3061 90.5215C51.3552 90.5215 51.4043 90.5277 51.4534 90.5338C51.5025 90.5461 51.5455 90.5584 51.5762 90.5829C51.613 90.6075 51.6437 90.632 51.6621 90.6688C51.6867 90.7057 51.6928 90.7486 51.6928 90.7977V91.3931C51.6928 91.4115 51.6989 91.4238 51.7051 91.4361C51.7112 91.4483 51.7296 91.4545 51.748 91.4545C51.7542 91.4545 51.7665 91.4545 51.7787 91.4545C51.791 91.4545 51.7971 91.4484 51.8094 91.4484V91.5711C51.7971 91.5772 51.7787 91.5772 51.7665 91.5834C51.7542 91.5834 51.7358 91.5895 51.7173 91.5895C51.6867 91.5895 51.6621 91.5895 51.6376 91.5834C51.613 91.5772 51.5946 91.5711 51.5823 91.5588C51.57 91.5466 51.5578 91.5343 51.5455 91.5097C51.5394 91.4913 51.5332 91.4668 51.5271 91.4422C51.5025 91.4668 51.4841 91.4852 51.4596 91.5097C51.435 91.5281 51.4105 91.5466 51.3798 91.5588C51.3491 91.5711 51.3184 91.5834 51.2816 91.5957C51.2447 91.6018 51.2018 91.6079 51.1588 91.6079C51.122 91.6079 51.079 91.6018 51.0422 91.5895C51.0054 91.5772 50.9685 91.5588 50.944 91.5343C50.9133 91.5097 50.8887 91.479 50.8703 91.4422C50.8519 91.4054 50.8458 91.3624 50.8458 91.3133C50.8458 91.2581 50.8519 91.2151 50.8703 91.1783C50.8887 91.1415 50.9133 91.1046 50.9378 91.0801C50.9685 91.0555 50.9992 91.031 51.036 91.0187C51.0729 91.0064 51.1097 90.9941 51.1465 90.988L51.435 90.9512C51.4596 90.9512 51.4841 90.9389 51.4964 90.9205C51.5148 90.9021 51.5209 90.8714 51.5209 90.8346C51.5209 90.7732 51.5025 90.7302 51.4596 90.6995C51.4166 90.675 51.3614 90.6566 51.2877 90.6566C51.2079 90.6566 51.1527 90.675 51.1158 90.7057C51.079 90.7364 51.0545 90.7855 51.0483 90.853H50.8887V90.8591ZM51.5271 91.0555C51.5148 91.0678 51.4964 91.0739 51.4718 91.0801C51.4534 91.0862 51.4289 91.0923 51.4043 91.0985C51.3798 91.1046 51.3552 91.1046 51.3245 91.1108C51.2938 91.1169 51.2693 91.1169 51.2386 91.123C51.2079 91.1292 51.1772 91.1353 51.1527 91.1415C51.1281 91.1476 51.1036 91.1599 51.0851 91.1721C51.0667 91.1844 51.0483 91.2028 51.036 91.2212C51.0238 91.2397 51.0176 91.2642 51.0176 91.2888C51.0176 91.3195 51.0238 91.344 51.0299 91.3686C51.0422 91.3931 51.0545 91.4115 51.0667 91.4238C51.0852 91.4361 51.1036 91.4483 51.1281 91.4606C51.1527 91.4668 51.1772 91.4729 51.2018 91.4729C51.2202 91.4729 51.2386 91.4729 51.2631 91.4668C51.2877 91.4606 51.3061 91.4545 51.3307 91.4484C51.3552 91.4422 51.3798 91.4299 51.3982 91.4177C51.4227 91.4054 51.4411 91.387 51.4596 91.3686C51.478 91.3501 51.4902 91.3256 51.5025 91.3072C51.5148 91.2826 51.5209 91.2581 51.5209 91.2274V91.0555H51.5271ZM52.2513 90.9819H52.3434C52.368 90.9819 52.3925 90.9819 52.4171 90.9757C52.4416 90.9696 52.4662 90.9635 52.4846 90.9512C52.503 90.9389 52.5214 90.9205 52.5337 90.9021C52.546 90.8837 52.5521 90.8591 52.5521 90.8284C52.5521 90.81 52.546 90.7855 52.5398 90.767C52.5337 90.7486 52.5214 90.7302 52.503 90.7179C52.4846 90.7057 52.4662 90.6934 52.4416 90.6811C52.4171 90.675 52.3864 90.6688 52.3496 90.6688C52.3311 90.6688 52.3127 90.6688 52.2882 90.675C52.2636 90.6811 52.2391 90.6873 52.2145 90.7057C52.19 90.7179 52.1716 90.7364 52.1531 90.767C52.1347 90.7916 52.1224 90.8223 52.1163 90.8653H51.9506C51.9567 90.8161 51.9629 90.7793 51.9813 90.7425C51.9936 90.7057 52.012 90.675 52.0365 90.6504C52.0549 90.6259 52.0795 90.6013 52.1102 90.589C52.1347 90.5706 52.1654 90.5584 52.19 90.5461C52.2207 90.5338 52.2452 90.5277 52.2759 90.5215C52.3066 90.5154 52.3311 90.5154 52.3557 90.5154C52.4048 90.5154 52.4478 90.5215 52.4907 90.5338C52.5337 90.5461 52.5767 90.5645 52.6135 90.589C52.6503 90.6136 52.681 90.6443 52.6994 90.6811C52.724 90.7179 52.7301 90.7609 52.7301 90.81C52.7301 90.8407 52.724 90.8714 52.7178 90.8959C52.7117 90.9205 52.6994 90.9389 52.681 90.9573C52.6687 90.9757 52.6503 90.9941 52.6319 91.0064C52.6135 91.0187 52.5951 91.031 52.5767 91.0371V91.0433C52.5951 91.0433 52.6135 91.0555 52.638 91.0617C52.6626 91.0739 52.681 91.0862 52.6994 91.1046C52.7178 91.123 52.7362 91.1476 52.7485 91.1721C52.7608 91.2028 52.7669 91.2335 52.7669 91.2765C52.7669 91.3317 52.7546 91.387 52.7301 91.4238C52.7055 91.4668 52.6749 91.5036 52.6319 91.5281C52.5951 91.5527 52.546 91.5772 52.4969 91.5895C52.4478 91.6018 52.3987 91.6079 52.3434 91.6079C52.2759 91.6079 52.2207 91.6018 52.1654 91.5834C52.1102 91.565 52.0672 91.5404 52.0304 91.5097C51.9936 91.479 51.9629 91.4422 51.9383 91.3992C51.9138 91.3563 51.9015 91.3072 51.8953 91.2581H52.0733C52.0795 91.2949 52.0856 91.3256 52.104 91.3501C52.1225 91.3747 52.1409 91.3931 52.1654 91.4115C52.19 91.4238 52.2145 91.4361 52.2452 91.4422C52.2759 91.4484 52.3066 91.4545 52.3373 91.4545C52.4171 91.4545 52.4784 91.4361 52.5214 91.4054C52.5644 91.3747 52.5828 91.3317 52.5828 91.2765C52.5828 91.2519 52.5767 91.2335 52.5705 91.2151C52.5644 91.1967 52.5521 91.1783 52.5337 91.166C52.5153 91.1537 52.4907 91.1415 52.4662 91.1353C52.4355 91.1292 52.4048 91.123 52.3618 91.123C52.3557 91.123 52.3434 91.123 52.3311 91.123C52.3189 91.123 52.3127 91.123 52.3004 91.123C52.2882 91.123 52.282 91.123 52.2698 91.123C52.2575 91.123 52.2513 91.123 52.2391 91.123V90.9819H52.2513ZM52.9695 90.5522H53.1475V91.3379H53.1536L53.6569 90.5522H53.8595V91.5772H53.6815V90.7916H53.6753L53.172 91.5772H52.9695V90.5522ZM54.1173 90.5522H54.2953V90.9696H54.774V90.5522H54.952V91.5772H54.774V91.1169H54.2953V91.5772H54.1173V90.5522ZM56.02 90.9819H56.1121C56.1366 90.9819 56.1612 90.9819 56.1857 90.9757C56.2103 90.9696 56.2348 90.9635 56.2532 90.9512C56.2716 90.9389 56.2901 90.9205 56.3023 90.9021C56.3146 90.8837 56.3207 90.8591 56.3207 90.8284C56.3207 90.81 56.3146 90.7855 56.3085 90.767C56.3023 90.7486 56.2901 90.7302 56.2716 90.7179C56.2532 90.7057 56.2348 90.6934 56.2103 90.6811C56.1857 90.675 56.155 90.6688 56.1182 90.6688C56.0998 90.6688 56.0814 90.6688 56.0568 90.675C56.0323 90.6811 56.0077 90.6873 55.9832 90.7057C55.9586 90.7179 55.9402 90.7364 55.9218 90.767C55.9034 90.7916 55.8911 90.8223 55.885 90.8653H55.7192C55.7254 90.8161 55.7315 90.7793 55.7499 90.7425C55.7622 90.7057 55.7806 90.675 55.8052 90.6504C55.8236 90.6259 55.8481 90.6013 55.8788 90.589C55.9034 90.5706 55.9341 90.5584 55.9586 90.5461C55.9893 90.5338 56.0139 90.5277 56.0445 90.5215C56.0752 90.5154 56.0998 90.5154 56.1243 90.5154C56.1734 90.5154 56.2164 90.5215 56.2594 90.5338C56.3023 90.5461 56.3453 90.5645 56.3821 90.589C56.419 90.6136 56.4496 90.6443 56.4681 90.6811C56.4926 90.7179 56.4987 90.7609 56.4987 90.81C56.4987 90.8407 56.4926 90.8714 56.4865 90.8959C56.4803 90.9205 56.4681 90.9389 56.4496 90.9573C56.4374 90.9757 56.419 90.9941 56.4005 91.0064C56.3821 91.0187 56.3637 91.031 56.3453 91.0371V91.0433C56.3637 91.0433 56.3821 91.0555 56.4067 91.0617C56.4312 91.0739 56.4496 91.0862 56.4681 91.1046C56.4865 91.123 56.5049 91.1476 56.5172 91.1721C56.5294 91.2028 56.5356 91.2335 56.5356 91.2765C56.5356 91.3317 56.5233 91.387 56.4987 91.4238C56.4742 91.4668 56.4435 91.5036 56.4005 91.5281C56.3637 91.5527 56.3146 91.5772 56.2655 91.5895C56.2164 91.6018 56.1673 91.6079 56.1121 91.6079C56.0445 91.6079 55.9893 91.6018 55.9341 91.5834C55.8788 91.565 55.8359 91.5404 55.799 91.5097C55.7622 91.479 55.7315 91.4422 55.707 91.3992C55.6824 91.3563 55.6701 91.3072 55.664 91.2581H55.842C55.8481 91.2949 55.8543 91.3256 55.8727 91.3501C55.8911 91.3747 55.9095 91.3931 55.9341 91.4115C55.9586 91.4238 55.9832 91.4361 56.0139 91.4422C56.0445 91.4484 56.0752 91.4545 56.1059 91.4545C56.1857 91.4545 56.2471 91.4361 56.2901 91.4054C56.333 91.3747 56.3514 91.3317 56.3514 91.2765C56.3514 91.2519 56.3453 91.2335 56.3392 91.2151C56.333 91.1967 56.3207 91.1783 56.3023 91.166C56.2839 91.1537 56.2594 91.1415 56.2348 91.1353C56.2041 91.1292 56.1734 91.123 56.1305 91.123C56.1243 91.123 56.1121 91.123 56.0998 91.123C56.0875 91.123 56.0814 91.123 56.0691 91.123C56.0568 91.123 56.0507 91.123 56.0384 91.123C56.0261 91.123 56.02 91.123 56.0077 91.123V90.9819H56.02ZM56.7381 90.5522H57.1739C57.2967 90.5522 57.3949 90.5768 57.4563 90.6197C57.5176 90.6688 57.5483 90.7364 57.5483 90.8223C57.5483 90.8714 57.536 90.9082 57.5115 90.945C57.4869 90.9757 57.4563 91.0064 57.4194 91.031C57.4747 91.0494 57.5176 91.0801 57.5483 91.1169C57.579 91.1537 57.5974 91.2028 57.5974 91.2642C57.5974 91.3133 57.5913 91.3563 57.5729 91.3931C57.5545 91.4299 57.5299 91.4606 57.4992 91.4913C57.4685 91.5159 57.4256 91.5404 57.3765 91.5527C57.3274 91.565 57.266 91.5711 57.1985 91.5711H56.732V90.5522H56.7381ZM56.91 91.4361H57.18C57.2292 91.4361 57.266 91.4361 57.2967 91.4238C57.3274 91.4177 57.3519 91.4054 57.3703 91.3931C57.3887 91.3808 57.401 91.3624 57.4072 91.344C57.4133 91.3256 57.4194 91.301 57.4194 91.2765C57.4194 91.2519 57.4133 91.2274 57.4072 91.209C57.401 91.1906 57.3887 91.1721 57.3703 91.1599C57.3519 91.1476 57.3274 91.1353 57.2967 91.1292C57.266 91.123 57.2292 91.1169 57.18 91.1169H56.91V91.4361ZM56.91 90.9819H57.1739C57.2353 90.9819 57.2783 90.9696 57.3151 90.945C57.3519 90.9205 57.3642 90.8837 57.3642 90.8346C57.3642 90.8039 57.3581 90.7855 57.3519 90.767C57.3396 90.7486 57.3274 90.7302 57.3151 90.7179C57.2967 90.7057 57.2783 90.6995 57.2598 90.6934C57.2414 90.6873 57.2169 90.6873 57.1985 90.6873H56.91V90.9819ZM57.7079 90.5522H57.9043L58.1805 91.387H58.1867L58.4629 90.5522H58.6593L58.2665 91.6202C58.248 91.6754 58.2296 91.7184 58.2112 91.7614C58.1928 91.8043 58.1805 91.835 58.1621 91.8596C58.1437 91.8903 58.1314 91.9087 58.113 91.9271C58.0946 91.9455 58.0762 91.9578 58.0578 91.9701C58.0394 91.9823 58.0148 91.9885 57.9902 91.9885C57.9657 91.9946 57.9411 91.9946 57.9105 91.9946C57.8859 91.9946 57.8675 91.9946 57.8491 91.9885C57.8368 91.9885 57.8245 91.9823 57.8123 91.9823V91.8228C57.8245 91.8289 57.8368 91.8289 57.8552 91.835C57.8736 91.8412 57.892 91.8412 57.9166 91.8412C57.9473 91.8412 57.978 91.835 57.9964 91.8166C58.0148 91.8043 58.0332 91.7798 58.0455 91.7491L58.1007 91.6018L57.7079 90.5522ZM58.7943 90.5522H58.9723V91.0494L59.494 90.5522H59.7273L59.2424 91.0064L59.7334 91.5772H59.5063L59.1073 91.1108L58.9784 91.2212V91.5772H58.8004V90.5522H58.7943ZM60.5866 91.0617C60.5866 91.0064 60.5804 90.9512 60.5682 90.9082C60.5559 90.8591 60.5375 90.8161 60.5129 90.7855C60.4884 90.7486 60.4577 90.7241 60.4208 90.7057C60.384 90.6873 60.3411 90.675 60.2919 90.675C60.2428 90.675 60.1999 90.6873 60.1631 90.7057C60.1262 90.7241 60.0955 90.7548 60.071 90.7855C60.0464 90.8223 60.028 90.8591 60.0157 90.9082C60.0035 90.9573 59.9973 91.0064 59.9973 91.0617C59.9973 91.1169 60.0035 91.1721 60.0157 91.2212C60.028 91.2703 60.0464 91.3133 60.071 91.344C60.0955 91.3808 60.1262 91.4054 60.1631 91.4238C60.1999 91.4422 60.2428 91.4545 60.2919 91.4545C60.3411 91.4545 60.384 91.4422 60.4208 91.4238C60.4577 91.4054 60.4884 91.3747 60.5129 91.344C60.5375 91.3072 60.5559 91.2703 60.5682 91.2212C60.5804 91.1721 60.5866 91.123 60.5866 91.0617ZM60.7646 91.0617C60.7646 91.1476 60.7523 91.2213 60.7339 91.2888C60.7093 91.3563 60.6786 91.4115 60.6418 91.4606C60.5988 91.5097 60.5497 91.5466 60.4884 91.5711C60.427 91.5957 60.3656 91.6079 60.2858 91.6079C60.2122 91.6079 60.1446 91.5957 60.0833 91.5711C60.0219 91.5466 59.9728 91.5097 59.936 91.4606C59.893 91.4115 59.8623 91.3563 59.8439 91.2888C59.8193 91.2213 59.8132 91.1476 59.8132 91.0617C59.8132 90.9819 59.8255 90.9021 59.8439 90.8346C59.8684 90.767 59.8991 90.7118 59.936 90.6627C59.9789 90.6136 60.028 90.5768 60.0833 90.5522C60.1446 90.5277 60.206 90.5154 60.2858 90.5154C60.3595 90.5154 60.427 90.5277 60.4884 90.5522C60.5497 90.5768 60.5988 90.6136 60.6418 90.6627C60.6848 90.7118 60.7155 90.767 60.7339 90.8346C60.7523 90.9021 60.7646 90.9819 60.7646 91.0617ZM60.961 90.5522H61.3968C61.5195 90.5522 61.6177 90.5768 61.6791 90.6197C61.7405 90.6688 61.7712 90.7364 61.7712 90.8223C61.7712 90.8714 61.7589 90.9082 61.7343 90.945C61.7098 90.9757 61.6791 91.0064 61.6423 91.031C61.6975 91.0494 61.7405 91.0801 61.7712 91.1169C61.8019 91.1537 61.8203 91.2028 61.8203 91.2642C61.8203 91.3133 61.8141 91.3563 61.7957 91.3931C61.7773 91.4299 61.7589 91.4606 61.7221 91.4913C61.6914 91.5159 61.6484 91.5404 61.5993 91.5527C61.5502 91.565 61.4888 91.5711 61.4213 91.5711H60.9548V90.5522H60.961ZM61.139 91.4361H61.409C61.4581 91.4361 61.495 91.4361 61.5257 91.4238C61.5564 91.4177 61.5809 91.4054 61.5993 91.3931C61.6177 91.3808 61.63 91.3624 61.6361 91.344C61.6423 91.3256 61.6484 91.301 61.6484 91.2765C61.6484 91.2519 61.6423 91.2274 61.6361 91.209C61.63 91.1906 61.6177 91.1721 61.5993 91.1599C61.5809 91.1476 61.5564 91.1353 61.5257 91.1292C61.495 91.123 61.4581 91.1169 61.409 91.1169H61.139V91.4361ZM61.139 90.9819H61.4029C61.4643 90.9819 61.5072 90.9696 61.5441 90.945C61.5809 90.9205 61.5932 90.8837 61.5932 90.8346C61.5932 90.8039 61.587 90.7855 61.5809 90.767C61.5686 90.7486 61.5564 90.7302 61.5441 90.7179C61.5257 90.7057 61.5072 90.6995 61.4888 90.6934C61.4704 90.6873 61.4459 90.6873 61.4275 90.6873H61.139V90.9819ZM46.7825 92.8232H47.2183C47.3411 92.8232 47.4393 92.8478 47.5006 92.8907C47.562 92.9399 47.5927 93.0074 47.5927 93.0933C47.5927 93.1424 47.5804 93.1792 47.5559 93.2161C47.5313 93.2467 47.5006 93.2774 47.4638 93.302C47.519 93.3204 47.562 93.3511 47.5927 93.3879C47.6234 93.4247 47.6418 93.4738 47.6418 93.5352C47.6418 93.5843 47.6357 93.6273 47.6173 93.6641C47.5988 93.7009 47.5743 93.7316 47.5436 93.7623C47.5129 93.7869 47.4699 93.8114 47.4208 93.8237C47.3717 93.836 47.3104 93.8421 47.2428 93.8421H46.7764V92.8232H46.7825ZM46.9605 93.7071H47.2306C47.2797 93.7071 47.3165 93.7071 47.3472 93.6948C47.3779 93.6887 47.4024 93.6764 47.4208 93.6641C47.4393 93.6518 47.4515 93.6334 47.4577 93.615C47.4638 93.5966 47.4699 93.572 47.4699 93.5475C47.4699 93.5229 47.4638 93.4984 47.4577 93.48C47.4515 93.4616 47.4393 93.4432 47.4208 93.4309C47.4024 93.4186 47.3779 93.4063 47.3472 93.4002C47.3165 93.394 47.2797 93.3879 47.2306 93.3879H46.9605V93.7071ZM46.9605 93.2529H47.2244C47.2858 93.2529 47.3288 93.2406 47.3656 93.2161C47.4024 93.1915 47.4147 93.1547 47.4147 93.1056C47.4147 93.0749 47.4086 93.0565 47.4024 93.0381C47.3902 93.0196 47.3779 93.0012 47.3656 92.989C47.3472 92.9767 47.3288 92.9705 47.3104 92.9644C47.2919 92.9583 47.2674 92.9583 47.249 92.9583H46.9605V93.2529ZM48.7343 93.5229C48.7282 93.5659 48.7098 93.6089 48.6852 93.6518C48.6607 93.6948 48.63 93.7316 48.5932 93.7685C48.5564 93.7991 48.5072 93.8298 48.4581 93.8483C48.409 93.8667 48.3477 93.8789 48.2863 93.8789C48.2188 93.8789 48.1512 93.8667 48.096 93.8421C48.0408 93.8176 47.9855 93.7869 47.9426 93.7378C47.8996 93.6887 47.8689 93.6334 47.8444 93.5659C47.8198 93.4984 47.8075 93.4186 47.8075 93.3204C47.8075 93.259 47.8137 93.1976 47.8259 93.1485C47.8382 93.0994 47.8566 93.0503 47.8812 93.0135C47.9057 92.9705 47.9303 92.9398 47.961 92.9092C47.9917 92.8785 48.0224 92.8539 48.0592 92.8355C48.096 92.8171 48.1267 92.8048 48.1635 92.7925C48.2004 92.7803 48.231 92.7803 48.2679 92.7803C48.3354 92.7803 48.4029 92.7925 48.4581 92.811C48.5134 92.8294 48.5686 92.8662 48.6055 92.9092C48.6484 92.9521 48.6791 93.0074 48.7037 93.0687C48.7282 93.1363 48.7405 93.2099 48.7405 93.2958V93.3818H47.9917C47.9917 93.4309 47.9978 93.4738 48.0101 93.5168C48.0224 93.5598 48.0408 93.5905 48.0653 93.6212C48.0899 93.6518 48.1206 93.6703 48.1574 93.6887C48.1942 93.7009 48.231 93.7132 48.2801 93.7132C48.3231 93.7132 48.3661 93.7071 48.3968 93.6948C48.4275 93.6825 48.452 93.6641 48.4766 93.6457C48.495 93.6273 48.5134 93.6027 48.5257 93.5782C48.5379 93.5536 48.5502 93.5291 48.5563 93.5045H48.7343V93.5229ZM48.5686 93.2529C48.5686 93.2038 48.5625 93.1608 48.5441 93.1178C48.5318 93.081 48.5134 93.0442 48.4888 93.0196C48.4643 92.9951 48.4336 92.9705 48.4029 92.9583C48.3661 92.946 48.3292 92.9398 48.2863 92.9398C48.2433 92.9398 48.2065 92.946 48.1758 92.9644C48.139 92.9767 48.1144 93.0012 48.0837 93.0319C48.0592 93.0626 48.0346 93.0933 48.0224 93.1301C48.0101 93.167 47.9978 93.2099 47.9917 93.2529H48.5686ZM49.8085 93.8483H49.0167V94.0999H48.851V93.6948H48.986C49.0167 93.6273 49.0351 93.5536 49.0535 93.4861C49.0719 93.4125 49.0842 93.3388 49.0903 93.2713C49.0965 93.1976 49.1026 93.124 49.1088 93.0503C49.1088 92.9767 49.1149 92.903 49.1149 92.8294H49.833V93.7009H49.9803V94.106H49.8146V93.8483H49.8085ZM49.655 93.6948V92.9767H49.2806C49.2745 93.0319 49.2683 93.0933 49.2683 93.1547C49.2622 93.2161 49.2561 93.2774 49.2499 93.3388C49.2438 93.4002 49.2315 93.4616 49.2192 93.5229C49.207 93.5843 49.1885 93.6396 49.1701 93.6948H49.655ZM51.0176 93.5229C51.0115 93.5659 50.9931 93.6089 50.9685 93.6518C50.944 93.6948 50.9133 93.7316 50.8765 93.7685C50.8396 93.7991 50.7905 93.8298 50.7414 93.8483C50.6923 93.8667 50.6309 93.8789 50.5696 93.8789C50.5021 93.8789 50.4345 93.8667 50.3793 93.8421C50.3241 93.8176 50.2688 93.7869 50.2258 93.7378C50.1829 93.6887 50.1522 93.6334 50.1276 93.5659C50.1031 93.4984 50.0908 93.4186 50.0908 93.3204C50.0908 93.259 50.097 93.1976 50.1092 93.1485C50.1215 93.0994 50.1399 93.0503 50.1645 93.0135C50.189 92.9705 50.2136 92.9398 50.2443 92.9092C50.275 92.8785 50.3056 92.8539 50.3425 92.8355C50.3793 92.8171 50.41 92.8048 50.4468 92.7925C50.4836 92.7803 50.5143 92.7803 50.5512 92.7803C50.6187 92.7803 50.6862 92.7925 50.7414 92.811C50.7967 92.8294 50.8519 92.8662 50.8887 92.9092C50.9317 92.9521 50.9624 93.0074 50.9869 93.0687C51.0115 93.1363 51.0238 93.2099 51.0238 93.2958V93.3818H50.275C50.275 93.4309 50.2811 93.4738 50.2934 93.5168C50.3056 93.5598 50.3241 93.5905 50.3486 93.6212C50.3732 93.6518 50.4038 93.6703 50.4407 93.6887C50.4775 93.7009 50.5143 93.7132 50.5634 93.7132C50.6064 93.7132 50.6494 93.7071 50.6801 93.6948C50.7107 93.6825 50.7353 93.6641 50.7598 93.6457C50.7783 93.6273 50.7967 93.6027 50.8089 93.5782C50.8212 93.5536 50.8335 93.5291 50.8396 93.5045H51.0176V93.5229ZM50.8519 93.2529C50.8519 93.2038 50.8458 93.1608 50.8274 93.1178C50.8151 93.081 50.7967 93.0442 50.7721 93.0196C50.7476 92.9951 50.7169 92.9705 50.6862 92.9583C50.6494 92.946 50.6125 92.9398 50.5696 92.9398C50.5266 92.9398 50.4898 92.946 50.4591 92.9644C50.4223 92.9767 50.3977 93.0012 50.367 93.0319C50.3425 93.0626 50.3179 93.0933 50.3056 93.1301C50.2934 93.167 50.2811 93.2099 50.275 93.2529H50.8519ZM51.5087 92.9767H51.1527V92.8232H52.0365V92.9767H51.6805V93.8483H51.5025V92.9767H51.5087ZM52.3066 92.8355H52.5091V93.0442H52.3066V92.8355ZM52.3066 93.6396H52.5091V93.8483H52.3066V93.6396ZM54.4426 93.8483H54.2523V93.2467H53.9024C53.8656 93.2467 53.8288 93.2467 53.8042 93.2467C53.7797 93.2467 53.7551 93.2467 53.7367 93.2529C53.7183 93.2529 53.6999 93.259 53.6876 93.2652C53.6753 93.2713 53.6631 93.2774 53.6508 93.2836C53.6385 93.2958 53.6262 93.302 53.614 93.3143C53.6017 93.3265 53.5955 93.3388 53.5833 93.3572C53.5771 93.3756 53.571 93.4002 53.5648 93.4247C53.5587 93.4493 53.5587 93.48 53.5526 93.5229L53.5403 93.6764C53.5403 93.6948 53.5403 93.7132 53.5342 93.7255C53.5342 93.7378 53.528 93.7562 53.528 93.7685C53.5219 93.7807 53.5219 93.793 53.5157 93.8053C53.5096 93.8176 53.5096 93.8298 53.5035 93.8421H53.2886C53.2948 93.836 53.3009 93.8237 53.3132 93.8176C53.3193 93.8053 53.3255 93.793 53.3316 93.7807C53.3377 93.7685 53.3439 93.75 53.3439 93.7316C53.35 93.7132 53.35 93.6887 53.3562 93.658L53.3746 93.4677C53.3746 93.437 53.3807 93.4063 53.3868 93.3756C53.393 93.345 53.3991 93.3204 53.4175 93.2958C53.4298 93.2713 53.4482 93.2467 53.4789 93.2283C53.5035 93.2099 53.5403 93.1915 53.5833 93.1792C53.5648 93.1731 53.5403 93.1608 53.5096 93.1485C53.4851 93.1363 53.4544 93.1178 53.4298 93.0933C53.4053 93.0687 53.3807 93.0381 53.3684 92.9951C53.35 92.9521 53.3439 92.903 53.3439 92.8416C53.3439 92.7987 53.35 92.7557 53.3562 92.7189C53.3684 92.6821 53.3807 92.6514 53.3991 92.6207C53.4175 92.59 53.436 92.5654 53.4544 92.547C53.4789 92.5286 53.4973 92.5102 53.5219 92.4979C53.5464 92.4856 53.571 92.4734 53.6017 92.4672C53.6324 92.4611 53.6631 92.455 53.6937 92.4488C53.7244 92.4427 53.7551 92.4427 53.7858 92.4427C53.8165 92.4427 53.8411 92.4427 53.8656 92.4427H54.4487V93.8483H54.4426ZM54.2523 92.6084H53.8226C53.8042 92.6084 53.7919 92.6084 53.7735 92.6084C53.7551 92.6084 53.7367 92.6084 53.7244 92.6084C53.706 92.6084 53.6876 92.6145 53.6753 92.6207C53.6569 92.6268 53.6446 92.633 53.6324 92.6391C53.614 92.6514 53.5955 92.6636 53.5833 92.6821C53.571 92.7005 53.5587 92.7128 53.5526 92.7373C53.5464 92.7557 53.5403 92.7741 53.5342 92.7987C53.528 92.8171 53.528 92.8416 53.528 92.8601C53.528 92.8723 53.528 92.8907 53.528 92.903C53.528 92.9214 53.5342 92.9337 53.5403 92.9521C53.5464 92.9705 53.5526 92.9889 53.5648 93.0012C53.5771 93.0196 53.5894 93.0319 53.614 93.0503C53.6324 93.0626 53.6446 93.0749 53.6631 93.081C53.6815 93.0872 53.6999 93.0933 53.7183 93.0933C53.7367 93.0994 53.7551 93.0994 53.7797 93.0994C53.8042 93.0994 53.8288 93.0994 53.8533 93.0994H54.2584V92.6084H54.2523ZM54.7188 92.8232H54.8968V93.2406H55.3755V92.8232H55.5535V93.8483H55.3755V93.3879H54.8968V93.8483H54.7188V92.8232ZM55.8052 93.1301C55.8052 93.0687 55.8174 93.0135 55.842 92.9705C55.8665 92.9276 55.8911 92.8907 55.9279 92.8662C55.9648 92.8416 56.0077 92.8171 56.0568 92.811C56.1059 92.7987 56.1612 92.7925 56.2225 92.7925C56.2716 92.7925 56.3208 92.7987 56.3699 92.8048C56.419 92.8171 56.4619 92.8294 56.4926 92.8539C56.5294 92.8785 56.5601 92.903 56.5785 92.9398C56.6031 92.9767 56.6092 93.0196 56.6092 93.0687V93.6641C56.6092 93.6825 56.6154 93.6948 56.6215 93.7071C56.6276 93.7194 56.6461 93.7255 56.6645 93.7255C56.6706 93.7255 56.6829 93.7255 56.6952 93.7255C56.7074 93.7255 56.7136 93.7194 56.7258 93.7194V93.8421C56.7136 93.8483 56.6952 93.8483 56.6829 93.8544C56.6706 93.8544 56.6522 93.8605 56.6338 93.8605C56.6031 93.8605 56.5785 93.8605 56.554 93.8544C56.5294 93.8483 56.511 93.8421 56.4987 93.8298C56.4865 93.8176 56.4742 93.8053 56.4619 93.7807C56.4558 93.7623 56.4496 93.7378 56.4435 93.7132C56.419 93.7378 56.4005 93.7562 56.376 93.7807C56.3514 93.7992 56.3269 93.8176 56.2962 93.8298C56.2655 93.8421 56.2348 93.8544 56.198 93.8667C56.1612 93.8728 56.1182 93.8789 56.0752 93.8789C56.0384 93.8789 55.9954 93.8728 55.9586 93.8605C55.9218 93.8483 55.885 93.8298 55.8604 93.8053C55.8297 93.7807 55.8052 93.7501 55.7868 93.7132C55.7683 93.6764 55.7622 93.6334 55.7622 93.5843C55.7622 93.5291 55.7683 93.4861 55.7868 93.4493C55.8052 93.4125 55.8297 93.3756 55.8543 93.3511C55.885 93.3265 55.9156 93.302 55.9525 93.2897C55.9893 93.2774 56.0261 93.2652 56.063 93.259L56.3514 93.2222C56.376 93.2222 56.4005 93.2099 56.4128 93.1915C56.4312 93.1731 56.4374 93.1424 56.4374 93.1056C56.4374 93.0442 56.419 93.0012 56.376 92.9705C56.333 92.946 56.2778 92.9276 56.2041 92.9276C56.1243 92.9276 56.0691 92.946 56.0323 92.9767C55.9954 93.0074 55.9709 93.0565 55.9648 93.124H55.8052V93.1301ZM56.4435 93.3265C56.4312 93.3388 56.4128 93.345 56.3883 93.3511C56.3699 93.3572 56.3453 93.3634 56.3207 93.3695C56.2962 93.3756 56.2716 93.3756 56.241 93.3818C56.2103 93.3879 56.1857 93.3879 56.155 93.3941C56.1243 93.4002 56.0936 93.4063 56.0691 93.4125C56.0445 93.4186 56.02 93.4309 56.0016 93.4432C55.9832 93.4554 55.9648 93.4738 55.9525 93.4923C55.9402 93.5107 55.9341 93.5352 55.9341 93.5598C55.9341 93.5905 55.9402 93.615 55.9463 93.6396C55.9586 93.6641 55.9709 93.6825 55.9832 93.6948C56.0016 93.7071 56.02 93.7194 56.0445 93.7316C56.0691 93.7378 56.0936 93.7439 56.1182 93.7439C56.1366 93.7439 56.155 93.7439 56.1796 93.7378C56.2041 93.7316 56.2225 93.7255 56.2471 93.7194C56.2716 93.7132 56.2962 93.7009 56.3146 93.6887C56.3392 93.6764 56.3576 93.658 56.376 93.6396C56.3944 93.6212 56.4067 93.5966 56.419 93.5782C56.4312 93.5536 56.4374 93.5291 56.4374 93.4984V93.3265H56.4435ZM57.4685 92.4365H57.9718C58.0271 92.4365 58.0762 92.4365 58.1191 92.4427C58.1621 92.4427 58.1989 92.4488 58.2358 92.4611C58.2726 92.4734 58.3033 92.4856 58.334 92.5041C58.3647 92.5225 58.3892 92.547 58.4138 92.5716C58.4383 92.6023 58.4567 92.633 58.469 92.6698C58.4813 92.7066 58.4874 92.7496 58.4874 92.7925C58.4874 92.8171 58.4813 92.8416 58.4751 92.8723C58.469 92.903 58.4567 92.9276 58.4445 92.9583C58.4322 92.9828 58.4076 93.0135 58.3831 93.0319C58.3585 93.0565 58.3278 93.0749 58.2971 93.0872C58.3278 93.0994 58.3524 93.1117 58.3831 93.1301C58.4138 93.1485 58.4383 93.167 58.4629 93.1976C58.4874 93.2222 58.5058 93.259 58.5242 93.2958C58.5427 93.3327 58.5488 93.3818 58.5488 93.4309C58.5488 93.4616 58.5427 93.4923 58.5365 93.5291C58.5304 93.5598 58.5181 93.5905 58.4997 93.6212C58.4813 93.6518 58.4629 93.6825 58.4383 93.7071C58.4138 93.7316 58.3831 93.7562 58.3462 93.7807C58.3094 93.7992 58.2665 93.8176 58.2174 93.8298C58.1682 93.8421 58.113 93.8483 58.0578 93.8483H57.4624V92.4365H57.4685ZM58.0332 93.6825C58.0946 93.6825 58.1437 93.6764 58.1867 93.6641C58.2296 93.6518 58.2603 93.6334 58.291 93.615C58.3156 93.5905 58.334 93.5659 58.3462 93.5352C58.3585 93.5045 58.3647 93.4738 58.3647 93.437C58.3647 93.4002 58.3585 93.3634 58.3462 93.3388C58.334 93.3081 58.3156 93.2836 58.291 93.2652C58.2665 93.2406 58.2296 93.2283 58.1867 93.2161C58.1437 93.2038 58.0946 93.1976 58.0332 93.1976H57.6527V93.6887H58.0332V93.6825ZM58.0087 93.0381C58.07 93.0381 58.1191 93.0319 58.156 93.0196C58.1928 93.0074 58.2235 92.9889 58.2419 92.9705C58.2603 92.9521 58.2787 92.9276 58.2849 92.8969C58.291 92.8723 58.2971 92.8416 58.2971 92.811C58.2971 92.7803 58.291 92.7496 58.2849 92.725C58.2726 92.7005 58.2603 92.6759 58.2358 92.6575C58.2112 92.6391 58.1805 92.6268 58.1437 92.6145C58.1069 92.6084 58.0639 92.6023 58.0087 92.6023H57.6588V93.0381H58.0087ZM59.6352 93.5229C59.6291 93.5659 59.6106 93.6089 59.5861 93.6518C59.5615 93.6948 59.5309 93.7316 59.494 93.7685C59.4572 93.7991 59.4081 93.8298 59.359 93.8483C59.3099 93.8667 59.2485 93.8789 59.1871 93.8789C59.1196 93.8789 59.0521 93.8667 58.9969 93.8421C58.9416 93.8176 58.8864 93.7869 58.8434 93.7378C58.8004 93.6887 58.7698 93.6334 58.7452 93.5659C58.7207 93.4984 58.7084 93.4186 58.7084 93.3204C58.7084 93.259 58.7145 93.1976 58.7268 93.1485C58.7391 93.0994 58.7575 93.0503 58.782 93.0135C58.8066 92.9705 58.8311 92.9398 58.8618 92.9092C58.8925 92.8785 58.9232 92.8539 58.96 92.8355C58.9969 92.8171 59.0275 92.8048 59.0644 92.7925C59.1012 92.7803 59.1319 92.7803 59.1687 92.7803C59.2362 92.7803 59.3038 92.7925 59.359 92.811C59.4142 92.8294 59.4695 92.8662 59.5063 92.9092C59.5493 92.9521 59.58 93.0074 59.6045 93.0687C59.6291 93.1363 59.6413 93.2099 59.6413 93.2958V93.3818H58.8925C58.8925 93.4309 58.8987 93.4738 58.9109 93.5168C58.9232 93.5598 58.9416 93.5905 58.9662 93.6212C58.9907 93.6518 59.0214 93.6703 59.0582 93.6887C59.0951 93.7009 59.1319 93.7132 59.181 93.7132C59.224 93.7132 59.2669 93.7071 59.2976 93.6948C59.3283 93.6825 59.3529 93.6641 59.3774 93.6457C59.3958 93.6273 59.4142 93.6027 59.4265 93.5782C59.4388 93.5536 59.4511 93.5291 59.4572 93.5045H59.6352V93.5229ZM59.4695 93.2529C59.4695 93.2038 59.4633 93.1608 59.4449 93.1178C59.4326 93.081 59.4142 93.0442 59.3897 93.0196C59.3651 92.9951 59.3344 92.9705 59.3038 92.9583C59.2669 92.946 59.2301 92.9398 59.1871 92.9398C59.1442 92.9398 59.1073 92.946 59.0767 92.9644C59.0398 92.9767 59.0153 93.0012 58.9846 93.0319C58.96 93.0626 58.9355 93.0933 58.9232 93.1301C58.9109 93.167 58.8987 93.2099 58.8925 93.2529H59.4695ZM59.8562 92.8232H60.0342V93.2406H60.5129V92.8232H60.6909V93.8483H60.5129V93.3879H60.028V93.8483H59.85V92.8232H59.8562ZM60.9487 92.8232H61.1267V93.2406H61.6055V92.8232H61.7834V93.8483H61.6055V93.3879H61.1267V93.8483H60.9487V92.8232Z" fill="white"/>
<path d="M58.6906 18.2305H50.6807V67.4255H58.6906V18.2305Z" fill="#FFD089"/>
<path d="M57.5428 20.5195H51.8223V33.1022H57.5428V20.5195Z" fill="#B3B3B3"/>
<path d="M54.6825 41.1111C56.2622 41.1111 57.5428 39.8305 57.5428 38.2509C57.5428 36.6712 56.2622 35.3906 54.6825 35.3906C53.1028 35.3906 51.8223 36.6712 51.8223 38.2509C51.8223 39.8305 53.1028 41.1111 54.6825 41.1111Z" fill="#B3B3B3"/>
<path d="M54.6825 47.9744C56.2622 47.9744 57.5428 46.6938 57.5428 45.1142C57.5428 43.5345 56.2622 42.2539 54.6825 42.2539C53.1028 42.2539 51.8223 43.5345 51.8223 45.1142C51.8223 46.6938 53.1028 47.9744 54.6825 47.9744Z" fill="#B3B3B3"/>
<path d="M54.6825 54.8416C56.2622 54.8416 57.5428 53.561 57.5428 51.9813C57.5428 50.4017 56.2622 49.1211 54.6825 49.1211C53.1028 49.1211 51.8223 50.4017 51.8223 51.9813C51.8223 53.561 53.1028 54.8416 54.6825 54.8416Z" fill="#B3B3B3"/>
<path d="M54.6825 61.7049C56.2622 61.7049 57.5428 60.4243 57.5428 58.8446C57.5428 57.265 56.2622 55.9844 54.6825 55.9844C53.1028 55.9844 51.8223 57.265 51.8223 58.8446C51.8223 60.4243 53.1028 61.7049 54.6825 61.7049Z" fill="#B3B3B3"/>
<path d="M41.0121 11.4956L5.97852 37.2695L19.582 55.7603L54.6156 29.9864L41.0121 11.4956Z" fill="white"/>
<path d="M30.2169 44.1253C35.556 44.1253 39.8841 39.7972 39.8841 34.4582C39.8841 29.1191 35.556 24.791 30.2169 24.791C24.8779 24.791 20.5498 29.1191 20.5498 34.4582C20.5498 39.7972 24.8779 44.1253 30.2169 44.1253Z" fill="#B3B3B3"/>
<path d="M40.79 17.8634C41.5603 17.2257 41.6678 16.0842 41.0301 15.3139C40.3924 14.5436 39.251 14.4361 38.4807 15.0739C37.7104 15.7116 37.6029 16.853 38.2406 17.6233C38.8783 18.3936 40.0197 18.5011 40.79 17.8634Z" fill="#B3B3B3"/>
<path d="M51.5723 30.8888C52.3426 30.2511 52.4501 29.1096 51.8123 28.3393C51.1746 27.569 50.0332 27.4615 49.2629 28.0992C48.4926 28.7369 48.3851 29.8784 49.0228 30.6487C49.6605 31.419 50.8019 31.5265 51.5723 30.8888Z" fill="#B3B3B3"/>
<path d="M11.4562 38.9952C12.1633 38.2881 12.1633 37.1416 11.4562 36.4345C10.7491 35.7274 9.60266 35.7274 8.89556 36.4345C8.18846 37.1416 8.18846 38.2881 8.89556 38.9952C9.60266 39.7023 10.7491 39.7023 11.4562 38.9952Z" fill="#B3B3B3"/>
<path d="M21.1836 52.9122C21.9539 52.2745 22.0614 51.1331 21.4237 50.3628C20.786 49.5925 19.6446 49.485 18.8743 50.1227C18.1039 50.7604 17.9965 51.9018 18.6342 52.6721C19.2719 53.4424 20.4133 53.5499 21.1836 52.9122Z" fill="#B3B3B3"/>
<path d="M45.8126 62.127H6.4873V76.0047H45.8126V62.127Z" fill="#FFD089"/>
<path d="M51.8162 30.603C51.5707 30.9406 51.0796 31.2106 50.6807 31.2597V27.7305C51.1103 27.7734 51.6013 28.0803 51.8162 28.3872V30.603Z" fill="#FFD089" stroke="#FFD089" stroke-width="0.0613787"/>
<path d="M17.4745 75.3123C20.9321 75.3123 23.7351 72.5093 23.7351 69.0516C23.7351 65.594 20.9321 62.791 17.4745 62.791C14.0168 62.791 11.2139 65.594 11.2139 69.0516C11.2139 72.5093 14.0168 75.3123 17.4745 75.3123Z" fill="#B3B3B3"/>
<path d="M34.8446 75.3123C38.3023 75.3123 41.1052 72.5093 41.1052 69.0516C41.1052 65.594 38.3023 62.791 34.8446 62.791C31.387 62.791 28.584 65.594 28.584 69.0516C28.584 72.5093 31.387 75.3123 34.8446 75.3123Z" fill="#B3B3B3"/>
<path d="M19.1929 67.2715H15.6943V70.7701H19.1929V67.2715Z" fill="#FFD089"/>
<path d="M36.563 67.2715H33.0645V70.7701H36.563V67.2715Z" fill="#FFD089"/>
</g>
<defs>
<clipPath id="clip0_201_286">
<rect width="65" height="97.4079" fill="white"/>
</clipPath>
</defs>
</svg>
