<svg width="65" height="98" viewBox="0 0 65 98" fill="none" xmlns="http://www.w3.org/2000/svg">
<g clip-path="url(#clip0_201_163)">
<rect width="65" height="97.5" fill="#B3B3B3"/>
<path d="M64.9816 0H0V97.4693H64.9816V0Z" fill="#B3B3B3"/>
<path d="M3.04102 3.07763H7.80236V9.03084H7.00368V3.77186H3.83355V9.03084H3.04102V3.07763ZM8.50888 4.69341H9.32599L10.481 8.22602H10.4994L11.6544 4.69341H12.4715L10.8128 9.20287C10.7267 9.43018 10.653 9.62678 10.5793 9.79266C10.5117 9.95854 10.438 10.0998 10.3704 10.2166C10.3028 10.3333 10.2352 10.4316 10.1615 10.5053C10.0939 10.579 10.0202 10.6343 9.93421 10.6773C9.85434 10.7204 9.76219 10.7511 9.65774 10.7634C9.55945 10.7818 9.44272 10.7879 9.30756 10.7879C9.19697 10.7879 9.1171 10.7818 9.04952 10.7695C8.98809 10.7634 8.93894 10.7511 8.88979 10.7388V10.0691C8.93894 10.0876 9.00037 10.0998 9.08024 10.1183C9.16011 10.1367 9.23998 10.1428 9.32599 10.1428C9.46115 10.1428 9.57173 10.106 9.65774 10.0445C9.74376 9.97697 9.81134 9.88481 9.85434 9.76808L10.1001 9.15372L8.50888 4.69341ZM14.2655 5.3385H12.7726V4.69341H16.5079V5.3385H15.015V9.03084H14.2716V5.3385H14.2655ZM17.2575 4.69341H18.0008V6.32763H19.205C19.4446 6.32763 19.6535 6.35835 19.8378 6.42593C20.0221 6.48736 20.1818 6.57952 20.3109 6.69625C20.4399 6.81298 20.5382 6.95428 20.6058 7.12016C20.6733 7.28604 20.7102 7.47035 20.7102 7.67924C20.7102 7.88812 20.6733 8.07857 20.6058 8.24445C20.5382 8.41033 20.4399 8.55164 20.3109 8.66837C20.1818 8.7851 20.0221 8.87111 19.8378 8.93869C19.6535 9.00012 19.4385 9.03084 19.205 9.03084H17.2575V4.69341ZM18.0008 8.43491H19.0576C19.1866 8.43491 19.3094 8.42262 19.42 8.3919C19.5306 8.36733 19.6289 8.32432 19.7088 8.26288C19.7887 8.20145 19.8562 8.12158 19.8992 8.02943C19.9422 7.93113 19.9668 7.8144 19.9668 7.67924C19.9668 7.54408 19.9422 7.42735 19.8931 7.33519C19.8501 7.24304 19.7825 7.16317 19.6965 7.10173C19.6105 7.04029 19.5122 6.99729 19.3893 6.96657C19.2726 6.93585 19.1374 6.92357 18.99 6.92357H18.0008V8.43491ZM27.3331 9.03084H23.9786V10.0937H23.2844V8.38576H23.8558C23.9725 8.09701 24.0708 7.79597 24.1384 7.49493C24.2059 7.18774 24.2612 6.88056 24.2981 6.57338C24.335 6.26005 24.3595 5.95287 24.3718 5.63954C24.3841 5.32621 24.3903 5.01289 24.3903 4.69341H27.4191V8.38576H28.0335V10.0937H27.3392V9.03084H27.3331ZM26.6696 8.38576V5.3385H25.0968C25.0783 5.58425 25.0599 5.83614 25.0353 6.09417C25.0169 6.3522 24.9923 6.61638 24.9555 6.87442C24.9248 7.13245 24.8756 7.39048 24.8203 7.64237C24.765 7.89426 24.6974 8.14001 24.6053 8.37347H26.6696V8.38576ZM31.7749 6.85598C31.7749 6.61638 31.7504 6.39521 31.6951 6.19861C31.6398 5.99587 31.5599 5.82385 31.4493 5.6764C31.3387 5.52895 31.2097 5.41837 31.05 5.3385C30.8964 5.25249 30.7121 5.21563 30.5032 5.21563C30.2943 5.21563 30.1162 5.25863 29.9564 5.3385C29.8028 5.41837 29.6677 5.5351 29.5571 5.6764C29.4465 5.82385 29.3666 5.99587 29.3113 6.19861C29.256 6.40135 29.2315 6.61638 29.2315 6.85598C29.2315 7.10173 29.256 7.3229 29.3113 7.52564C29.3666 7.72839 29.4465 7.90041 29.5571 8.04786C29.6677 8.1953 29.7967 8.30589 29.9564 8.3919C30.11 8.47177 30.2943 8.51478 30.5032 8.51478C30.7121 8.51478 30.8964 8.47177 31.05 8.3919C31.2097 8.30589 31.3449 8.1953 31.4493 8.04786C31.5599 7.90041 31.6398 7.72839 31.6951 7.52564C31.7442 7.3229 31.7749 7.10173 31.7749 6.85598ZM32.5183 6.85598C32.5183 7.21232 32.4753 7.53179 32.3832 7.82054C32.291 8.10315 32.162 8.34275 31.9838 8.54549C31.8118 8.74823 31.5968 8.90183 31.351 9.00627C31.1053 9.11071 30.8227 9.166 30.5032 9.166C30.1899 9.166 29.9073 9.11071 29.6554 9.00627C29.4096 8.89568 29.1946 8.74209 29.0226 8.54549C28.8506 8.34275 28.7154 8.10315 28.6232 7.82054C28.5311 7.53179 28.4881 7.21232 28.4881 6.85598C28.4881 6.5058 28.5311 6.18633 28.6232 5.90372C28.7154 5.62111 28.8444 5.38151 29.0226 5.17876C29.1946 4.97602 29.4035 4.82858 29.6554 4.72413C29.9011 4.61355 30.1837 4.5644 30.5032 4.5644C30.8165 4.5644 31.0991 4.61969 31.351 4.72413C31.6029 4.82858 31.8118 4.98217 31.9838 5.17876C32.1559 5.38151 32.291 5.62111 32.3832 5.90372C32.4692 6.18633 32.5183 6.5058 32.5183 6.85598ZM33.36 4.69341H34.4474L35.5963 8.2506H35.6147L36.7759 4.69341H37.7957V9.03084H37.1015V5.54124H37.0831L35.9342 9.03084H35.2215L34.0727 5.54124H34.0542V9.03084H33.36V4.69341ZM41.912 6.85598C41.912 6.61638 41.8874 6.39521 41.8321 6.19861C41.7768 5.99587 41.697 5.82385 41.5864 5.6764C41.4758 5.52895 41.3468 5.41837 41.187 5.3385C41.0335 5.25249 40.8491 5.21563 40.6403 5.21563C40.4314 5.21563 40.2471 5.25863 40.0935 5.3385C39.9399 5.41837 39.8047 5.5351 39.6941 5.6764C39.5835 5.82385 39.5037 5.99587 39.4484 6.19861C39.3931 6.40135 39.3685 6.61638 39.3685 6.85598C39.3685 7.10173 39.3931 7.3229 39.4484 7.52564C39.5037 7.72839 39.5835 7.90041 39.6941 8.04786C39.8047 8.1953 39.9337 8.30589 40.0935 8.3919C40.2471 8.47177 40.4314 8.51478 40.6403 8.51478C40.8491 8.51478 41.0273 8.47177 41.187 8.3919C41.3468 8.30589 41.4819 8.1953 41.5864 8.04786C41.6908 7.90041 41.7768 7.72839 41.8321 7.52564C41.8874 7.3229 41.912 7.10173 41.912 6.85598ZM42.6554 6.85598C42.6554 7.21232 42.6124 7.53179 42.5202 7.82054C42.4281 8.10315 42.299 8.34275 42.1209 8.54549C41.9489 8.74823 41.7338 8.90183 41.4881 9.00627C41.2423 9.11071 40.9597 9.166 40.6403 9.166C40.3269 9.166 40.0443 9.11071 39.7924 9.00627C39.5467 8.89568 39.3317 8.74209 39.1596 8.54549C38.9876 8.34275 38.8525 8.10315 38.7603 7.82054C38.6681 7.53179 38.6251 7.21232 38.6251 6.85598C38.6251 6.5058 38.6681 6.18633 38.7603 5.90372C38.8525 5.62111 38.9815 5.38151 39.1596 5.17876C39.3317 4.97602 39.5405 4.82858 39.7924 4.72413C40.0382 4.61355 40.3208 4.5644 40.6403 4.5644C40.9536 4.5644 41.2362 4.61969 41.4881 4.72413C41.74 4.82858 41.9489 4.98217 42.1209 5.17876C42.2929 5.38151 42.4281 5.62111 42.5202 5.90372C42.6124 6.18633 42.6554 6.5058 42.6554 6.85598ZM44.6705 3.01005C44.7074 3.18207 44.7811 3.32338 44.8917 3.42168C45.0023 3.51997 45.1681 3.56912 45.3832 3.56912C45.6043 3.56912 45.7641 3.51997 45.8747 3.42168C45.9852 3.32338 46.059 3.18207 46.0897 3.00391H46.7839C46.7839 3.16364 46.7471 3.31109 46.6795 3.44625C46.6119 3.57527 46.5136 3.68585 46.3907 3.77801C46.2679 3.87016 46.1204 3.94389 45.9484 3.99304C45.7764 4.04219 45.5921 4.06676 45.3832 4.06676C45.1743 4.06676 44.9838 4.04219 44.8179 3.99304C44.6459 3.94389 44.5046 3.87631 44.3818 3.78415C44.2589 3.692 44.1667 3.58141 44.093 3.45239C44.0254 3.31723 43.9886 3.16979 43.9886 3.00391H44.6705V3.01005ZM43.5032 4.69341H44.2466V8.01714H44.265L46.3969 4.69341H47.2447V9.03084H46.4952V5.70712H46.4767L44.3572 9.03084H43.5032V4.69341Z" fill="white"/>
<path d="M57.8235 82.7374H57.2644C57.2152 82.209 57.1292 81.8404 57.0064 81.6377C56.8835 81.4288 56.6009 81.2752 56.1524 81.1707V80.5933H61.9274V81.3735H57.8235V82.7374ZM56.2261 74.5786H56.8589C57.0371 74.7629 57.3565 75.0148 57.805 75.322C58.2535 75.6292 58.7389 75.8995 59.2549 76.1391C59.7587 76.3726 60.2195 76.5507 60.6373 76.6736C60.9076 76.7535 61.3376 76.8518 61.9274 76.9746V77.7794C60.8216 77.5951 59.7219 77.1897 58.6221 76.563C57.9771 76.1944 57.4241 75.8073 56.9572 75.3957V78.6027H56.2261V74.5786ZM57.6453 73.3806V72.5328H58.53V73.3806H57.6453ZM61.0427 73.3806V72.5328H61.9274V73.3806H61.0427ZM56.1278 69.7497C56.1278 69.0002 56.435 68.4534 57.0555 68.1216C57.5347 67.8636 58.1859 67.7346 59.0215 67.7346C59.8079 67.7346 60.4591 67.8513 60.9752 68.0847C61.7124 68.4226 62.0872 68.9817 62.0872 69.7558C62.0872 70.4501 61.7861 70.9723 61.1779 71.3102C60.6741 71.5928 59.9983 71.7341 59.1443 71.7341C58.487 71.7341 57.9218 71.6481 57.4487 71.4822C56.5701 71.1566 56.1278 70.5791 56.1278 69.7497ZM61.4236 69.7558C61.4236 69.3749 61.2578 69.0739 60.9199 68.8527C60.5881 68.6315 59.9615 68.5148 59.046 68.5148C58.3887 68.5148 57.848 68.5947 57.4241 68.7544C57.0002 68.9141 56.7852 69.2336 56.7852 69.7005C56.7852 70.1306 56.9879 70.4439 57.3934 70.6467C57.7927 70.8432 58.3887 70.9415 59.1751 70.9415C59.7649 70.9415 60.2441 70.8801 60.6004 70.7511C61.1472 70.5606 61.4236 70.2289 61.4236 69.7558ZM56.1278 65.1296C56.1278 64.3801 56.435 63.8333 57.0555 63.5016C57.5347 63.2435 58.1859 63.1145 59.0215 63.1145C59.8079 63.1145 60.4591 63.2312 60.9752 63.4647C61.7124 63.8026 62.0872 64.3617 62.0872 65.1296C62.0872 65.8239 61.7861 66.3461 61.1779 66.684C60.6741 66.9666 59.9983 67.1079 59.1443 67.1079C58.487 67.1079 57.9218 67.0219 57.4487 66.8499C56.5701 66.5427 56.1278 65.9652 56.1278 65.1296ZM61.4236 65.1419C61.4236 64.761 61.2578 64.46 60.9199 64.2388C60.5881 64.0115 59.9615 63.9009 59.046 63.9009C58.3887 63.9009 57.848 63.9808 57.4241 64.1466C57.0002 64.3064 56.7852 64.6259 56.7852 65.0928C56.7852 65.5228 56.9879 65.8362 57.3934 66.0389C57.7927 66.2355 58.3887 66.3338 59.1751 66.3338C59.7649 66.3338 60.2441 66.2724 60.6004 66.1433C61.1472 65.9406 61.4236 65.6088 61.4236 65.1419ZM59.3348 61.7813V55.4472H59.9307V61.7875H59.3348V61.7813ZM61.9274 54.2062C61.4298 54.1816 60.9936 54.0772 60.625 53.899C60.2563 53.7208 59.9185 53.3645 59.6174 52.8484L59.1689 52.0682C58.9662 51.718 58.7942 51.4784 58.6529 51.3371C58.4317 51.1159 58.1736 51.0053 57.8849 51.0053C57.547 51.0053 57.2828 51.1036 57.0801 51.3064C56.8773 51.5091 56.779 51.7794 56.779 52.1174C56.779 52.615 56.9695 52.9652 57.3443 53.1556C57.547 53.2601 57.8296 53.3154 58.1859 53.3277V54.0649C57.6822 54.0588 57.2705 53.9666 56.9511 53.7884C56.392 53.4751 56.1094 52.916 56.1094 52.1174C56.1094 51.4538 56.2875 50.9685 56.65 50.6613C57.0063 50.3541 57.4057 50.2005 57.848 50.2005C58.315 50.2005 58.7081 50.3664 59.0399 50.692C59.2304 50.8825 59.4638 51.2204 59.7341 51.7057L60.0413 52.2587C60.1888 52.5228 60.3239 52.7317 60.4591 52.8853C60.6925 53.1556 60.9567 53.3277 61.2393 53.3952V50.2312H61.9274V54.2062ZM56.1278 47.6018C56.1278 46.8522 56.435 46.3054 57.0555 45.9737C57.5347 45.7156 58.1859 45.5866 59.0215 45.5866C59.8079 45.5866 60.4591 45.7034 60.9752 45.9368C61.7124 46.2747 62.0872 46.8338 62.0872 47.6079C62.0872 48.3021 61.7861 48.8243 61.1779 49.1622C60.6741 49.4449 59.9983 49.5862 59.1443 49.5862C58.487 49.5862 57.9218 49.5002 57.4487 49.3281C56.5701 49.0148 56.1278 48.4373 56.1278 47.6018ZM61.4236 47.614C61.4236 47.2331 61.2578 46.9321 60.9199 46.7109C60.5881 46.4898 59.9615 46.373 59.046 46.373C58.3887 46.373 57.848 46.4529 57.4241 46.6188C57.0002 46.7785 56.7852 47.098 56.7852 47.5649C56.7852 47.995 56.9879 48.3083 57.3934 48.511C57.7927 48.7076 58.3887 48.8059 59.1751 48.8059C59.7649 48.8059 60.2441 48.7445 60.6004 48.6155C61.1472 48.4127 61.4236 48.081 61.4236 47.614ZM57.6453 44.3088V43.4609H58.53V44.3088H57.6453ZM61.0427 44.3088V43.4609H61.9274V44.3088H61.0427ZM56.1278 40.6778C56.1278 39.9283 56.435 39.3877 57.0555 39.0498C57.5347 38.7917 58.1859 38.6627 59.0215 38.6627C59.8079 38.6627 60.4591 38.7795 60.9752 39.0129C61.7124 39.3508 62.0872 39.9099 62.0872 40.684C62.0872 41.3782 61.7861 41.9004 61.1779 42.2383C60.6741 42.5209 59.9983 42.6622 59.1443 42.6622C58.487 42.6622 57.9218 42.5762 57.4487 42.4042C56.5701 42.0909 56.1278 41.5134 56.1278 40.6778ZM61.4236 40.684C61.4236 40.3031 61.2578 40.002 60.9199 39.7809C60.5881 39.5597 59.9615 39.443 59.046 39.443C58.3887 39.443 57.848 39.5228 57.4241 39.6887C57.0002 39.8484 56.7852 40.1679 56.7852 40.6348C56.7852 41.0649 56.9879 41.3782 57.3934 41.581C57.7927 41.7776 58.3887 41.8759 59.1751 41.8759C59.7649 41.8759 60.2441 41.8144 60.6004 41.6854C61.1472 41.4888 61.4236 41.1571 61.4236 40.684ZM56.1278 36.064C56.1278 35.3144 56.435 34.7738 57.0555 34.4359C57.5347 34.1778 58.1859 34.0488 59.0215 34.0488C59.8079 34.0488 60.4591 34.1656 60.9752 34.399C61.7124 34.7369 62.0872 35.296 62.0872 36.0701C62.0872 36.7643 61.7861 37.2865 61.1779 37.6244C60.6741 37.9071 59.9983 38.0484 59.1443 38.0484C58.487 38.0484 57.9218 37.9623 57.4487 37.7903C56.5701 37.4708 56.1278 36.8933 56.1278 36.064ZM61.4236 36.0701C61.4236 35.6892 61.2578 35.3881 60.9199 35.167C60.5881 34.9458 59.9615 34.8291 59.046 34.8291C58.3887 34.8291 57.848 34.9089 57.4241 35.0748C57.0002 35.2346 56.7852 35.554 56.7852 36.0209C56.7852 36.451 56.9879 36.7643 57.3934 36.9671C57.7927 37.1637 58.3887 37.262 59.1751 37.262C59.7649 37.262 60.2441 37.2005 60.6004 37.0715C61.1472 36.8749 61.4236 36.537 61.4236 36.0701Z" fill="white"/>
<path d="M3.34809 89.3666C3.35423 89.4465 3.37266 89.5141 3.40338 89.5632C3.46482 89.6554 3.5754 89.7045 3.74128 89.7045C3.81501 89.7045 3.87644 89.6923 3.93788 89.6738C4.05461 89.6308 4.1099 89.5632 4.1099 89.4588C4.1099 89.3851 4.08533 89.3298 4.03618 89.2929C3.98703 89.2622 3.91331 89.2315 3.80886 89.2069L3.61841 89.1639C3.49554 89.1393 3.40338 89.1025 3.35423 89.0718C3.26208 89.0103 3.21907 88.9243 3.21907 88.8076C3.21907 88.6786 3.26208 88.5741 3.34809 88.4942C3.4341 88.4144 3.55697 88.3714 3.72285 88.3714C3.8703 88.3714 3.99317 88.4082 4.09762 88.482C4.20206 88.5557 4.25121 88.6663 4.25121 88.826H4.07304C4.06075 88.7523 4.04232 88.6908 4.0116 88.654C3.95631 88.5803 3.85187 88.5434 3.71671 88.5434C3.60612 88.5434 3.52011 88.568 3.47096 88.6171C3.42181 88.6663 3.39724 88.7216 3.39724 88.783C3.39724 88.8506 3.42796 88.8997 3.48325 88.9366C3.52011 88.955 3.60612 88.9857 3.74128 89.0103L3.93788 89.0533C4.03618 89.0779 4.1099 89.1025 4.15905 89.1455C4.25121 89.2131 4.29421 89.3052 4.29421 89.4342C4.29421 89.5878 4.23892 89.7045 4.12219 89.7721C4.0116 89.8397 3.87644 89.8704 3.729 89.8704C3.55083 89.8704 3.41567 89.8274 3.31737 89.7353C3.21907 89.6493 3.16992 89.5264 3.16992 89.3728H3.34809V89.3666ZM4.65055 89.1148C4.65055 89.2008 4.66283 89.2806 4.68126 89.3544C4.70584 89.4281 4.73656 89.4834 4.77342 89.5325C4.81642 89.5817 4.86557 89.6247 4.92087 89.6493C4.97616 89.6738 5.04374 89.6923 5.11132 89.6923C5.17276 89.6923 5.22805 89.68 5.27106 89.6615C5.32021 89.6431 5.36321 89.6124 5.39393 89.5755C5.43079 89.5387 5.45537 89.5018 5.47994 89.4527C5.49837 89.4097 5.5168 89.3605 5.52295 89.3175H5.70726C5.70111 89.3605 5.69497 89.3974 5.68268 89.4404C5.67039 89.4834 5.65196 89.5264 5.62739 89.5632C5.60281 89.6063 5.57824 89.6431 5.54138 89.6738C5.51066 89.7107 5.4738 89.7414 5.43079 89.766C5.38779 89.7906 5.33864 89.8151 5.28949 89.8274C5.23419 89.8397 5.1789 89.852 5.11746 89.852C5.07446 89.852 5.03145 89.8459 4.9823 89.8397C4.93315 89.8274 4.884 89.8151 4.83486 89.7967C4.78571 89.7783 4.7427 89.7476 4.69355 89.7107C4.65055 89.6738 4.60754 89.6308 4.57682 89.5755C4.53996 89.5202 4.51538 89.4588 4.49695 89.3851C4.47852 89.3114 4.46624 89.2253 4.46624 89.127C4.46624 89.0287 4.47238 88.9489 4.49081 88.869C4.50924 88.7953 4.53382 88.7277 4.56453 88.6724C4.59525 88.6171 4.63211 88.568 4.67512 88.5311C4.71813 88.4942 4.76113 88.4574 4.81028 88.439C4.85943 88.4144 4.90858 88.3959 4.96387 88.3837C5.01917 88.3714 5.06832 88.3652 5.11746 88.3652C5.1789 88.3652 5.24034 88.3714 5.28949 88.3837C5.34478 88.3959 5.38779 88.4144 5.43079 88.439C5.4738 88.4635 5.51066 88.4881 5.54138 88.5188C5.5721 88.5495 5.59667 88.5803 5.62125 88.6171C5.64582 88.6478 5.65811 88.6847 5.67039 88.7216C5.68268 88.7584 5.68883 88.7891 5.69497 88.826H5.51066C5.49837 88.783 5.47994 88.74 5.45537 88.7031C5.43079 88.6663 5.40007 88.6356 5.36935 88.611C5.33864 88.5864 5.29563 88.568 5.25877 88.5557C5.21576 88.5434 5.17276 88.5373 5.12361 88.5373C5.04988 88.5373 4.98845 88.5495 4.92701 88.5803C4.87172 88.6048 4.81642 88.6478 4.77956 88.697C4.73656 88.7461 4.70584 88.8076 4.68126 88.8752C4.65669 88.9427 4.65055 89.0287 4.65055 89.1148ZM3.20064 91.0684H3.45867L3.729 91.9101H3.73514L4.0116 91.0684H4.25121V92.0944H4.08533V91.265H4.07918L3.80886 92.0944H3.63684L3.36652 91.265H3.36038V92.0944H3.1945V91.0684H3.20064ZM4.50924 91.3756C4.50924 91.3142 4.52153 91.2589 4.5461 91.2159C4.57068 91.1729 4.59525 91.136 4.63211 91.1115C4.66898 91.0869 4.71198 91.0623 4.76113 91.0562C4.81028 91.0439 4.86557 91.0377 4.92701 91.0377C4.97616 91.0377 5.02531 91.0439 5.07446 91.05C5.12361 91.0623 5.16661 91.0746 5.19733 91.0992C5.23419 91.1237 5.26491 91.1483 5.28334 91.1852C5.30792 91.222 5.31406 91.265 5.31406 91.3142V91.9101C5.31406 91.9286 5.32021 91.9408 5.32635 91.9531C5.33249 91.9654 5.35092 91.9716 5.36935 91.9716C5.3755 91.9716 5.38779 91.9716 5.40007 91.9716C5.41236 91.9716 5.4185 91.9654 5.43079 91.9654V92.0883C5.4185 92.0944 5.40007 92.0944 5.38779 92.1006C5.3755 92.1006 5.35707 92.1067 5.33864 92.1067C5.30792 92.1067 5.28334 92.1067 5.25877 92.1006C5.23419 92.0944 5.21576 92.0883 5.20348 92.076C5.19119 92.0637 5.1789 92.0514 5.16661 92.0269C5.16047 92.0084 5.15433 91.9839 5.14818 91.9593C5.12361 91.9839 5.10518 92.0023 5.0806 92.0269C5.05603 92.0453 5.03145 92.0637 5.00073 92.076C4.97002 92.0883 4.9393 92.1006 4.90244 92.1129C4.86557 92.119 4.82257 92.1252 4.77956 92.1252C4.7427 92.1252 4.6997 92.119 4.66283 92.1067C4.62597 92.0944 4.58911 92.076 4.56453 92.0514C4.53382 92.0269 4.50924 91.9961 4.49081 91.9593C4.47238 91.9224 4.46624 91.8794 4.46624 91.8303C4.46624 91.775 4.47238 91.732 4.49081 91.6951C4.50924 91.6582 4.53382 91.6214 4.55839 91.5968C4.58911 91.5722 4.61983 91.5477 4.65669 91.5354C4.69355 91.5231 4.73041 91.5108 4.76728 91.5046L5.05603 91.4678C5.0806 91.4678 5.10518 91.4555 5.11746 91.4371C5.1359 91.4186 5.14204 91.3879 5.14204 91.3511C5.14204 91.2896 5.12361 91.2466 5.0806 91.2159C5.0376 91.1913 4.9823 91.1729 4.90858 91.1729C4.82871 91.1729 4.77342 91.1913 4.73656 91.222C4.6997 91.2528 4.67512 91.3019 4.66898 91.3695H4.50924V91.3756ZM5.14818 91.5722C5.1359 91.5845 5.11746 91.5907 5.09289 91.5968C5.07446 91.6029 5.04988 91.6091 5.02531 91.6152C5.00073 91.6214 4.97616 91.6214 4.94544 91.6275C4.91472 91.6337 4.89015 91.6337 4.85943 91.6398C4.82871 91.6459 4.79799 91.6521 4.77342 91.6582C4.74884 91.6644 4.72427 91.6767 4.70584 91.689C4.68741 91.7012 4.66898 91.7197 4.65669 91.7381C4.6444 91.7565 4.63826 91.7811 4.63826 91.8057C4.63826 91.8364 4.6444 91.861 4.65055 91.8856C4.66283 91.9101 4.67512 91.9286 4.68741 91.9408C4.70584 91.9531 4.72427 91.9654 4.74884 91.9777C4.77342 91.9838 4.79799 91.99 4.82257 91.99C4.841 91.99 4.85943 91.99 4.88401 91.9838C4.90858 91.9777 4.92701 91.9716 4.95159 91.9654C4.97616 91.9593 5.00073 91.947 5.01917 91.9347C5.04374 91.9224 5.06217 91.904 5.0806 91.8856C5.09903 91.8671 5.11132 91.8425 5.12361 91.8241C5.1359 91.7995 5.14204 91.775 5.14204 91.7443V91.5722H5.14818ZM5.60281 91.0684H6.24176V91.222H5.78098V92.0944H5.60281V91.0684ZM6.39535 91.3756C6.39535 91.3142 6.40763 91.2589 6.43221 91.2159C6.45678 91.1729 6.48136 91.136 6.51822 91.1115C6.55508 91.0869 6.59809 91.0623 6.64724 91.0562C6.69639 91.0439 6.75168 91.0377 6.81312 91.0377C6.86227 91.0377 6.91142 91.0439 6.96056 91.05C7.00971 91.0623 7.05272 91.0746 7.08344 91.0992C7.1203 91.1237 7.15102 91.1483 7.16945 91.1852C7.19402 91.222 7.20017 91.265 7.20017 91.3142V91.9101C7.20017 91.9286 7.20631 91.9408 7.21246 91.9531C7.2186 91.9654 7.23703 91.9716 7.25546 91.9716C7.2616 91.9716 7.27389 91.9716 7.28618 91.9716C7.29847 91.9716 7.30461 91.9654 7.3169 91.9654V92.0883C7.30461 92.0944 7.28618 92.0944 7.27389 92.1006C7.2616 92.1006 7.24317 92.1067 7.22474 92.1067C7.19402 92.1067 7.16945 92.1067 7.14487 92.1006C7.1203 92.0944 7.10187 92.0883 7.08958 92.076C7.07729 92.0637 7.06501 92.0514 7.05272 92.0269C7.04658 92.0084 7.04043 91.9839 7.03429 91.9593C7.00971 91.9839 6.99128 92.0023 6.96671 92.0269C6.94213 92.0453 6.91756 92.0637 6.88684 92.076C6.85612 92.0883 6.8254 92.1006 6.78854 92.1129C6.75168 92.119 6.70867 92.1252 6.66567 92.1252C6.62881 92.1252 6.5858 92.119 6.54894 92.1067C6.51208 92.0944 6.47521 92.076 6.45064 92.0514C6.41992 92.0269 6.39535 91.9961 6.37692 91.9593C6.35849 91.9224 6.35234 91.8794 6.35234 91.8303C6.35234 91.775 6.35849 91.732 6.37692 91.6951C6.39535 91.6582 6.41992 91.6214 6.4445 91.5968C6.47522 91.5722 6.50593 91.5477 6.5428 91.5354C6.57966 91.5231 6.61652 91.5108 6.65338 91.5046L6.94213 91.4678C6.96671 91.4678 6.99128 91.4555 7.00357 91.4371C7.022 91.4186 7.02815 91.3879 7.02815 91.3511C7.02815 91.2896 7.00971 91.2466 6.96671 91.2159C6.9237 91.1913 6.86841 91.1729 6.79469 91.1729C6.71482 91.1729 6.65953 91.1913 6.62266 91.222C6.5858 91.2528 6.56123 91.3019 6.55508 91.3695H6.39535V91.3756ZM7.03429 91.5722C7.022 91.5845 7.00357 91.5907 6.979 91.5968C6.96056 91.6029 6.93599 91.6091 6.91142 91.6152C6.88684 91.6214 6.86227 91.6214 6.83155 91.6275C6.80083 91.6337 6.77625 91.6337 6.74554 91.6398C6.71482 91.6459 6.6841 91.6521 6.65953 91.6582C6.63495 91.6644 6.61038 91.6767 6.59194 91.689C6.57351 91.7012 6.55508 91.7197 6.5428 91.7381C6.53051 91.7565 6.52436 91.7811 6.52436 91.8057C6.52436 91.8364 6.53051 91.861 6.53665 91.8856C6.54894 91.9101 6.56123 91.9286 6.57351 91.9408C6.59194 91.9531 6.61038 91.9654 6.63495 91.9777C6.65952 91.9838 6.6841 91.99 6.70867 91.99C6.72711 91.99 6.74554 91.99 6.77011 91.9838C6.79469 91.9777 6.81312 91.9716 6.83769 91.9654C6.86227 91.9593 6.88684 91.947 6.90527 91.9347C6.92985 91.9224 6.94828 91.904 6.96671 91.8856C6.98514 91.8671 6.99743 91.8425 7.00971 91.8241C7.022 91.7995 7.02815 91.775 7.02815 91.7443V91.5722H7.03429ZM7.75924 91.4985H7.8514C7.87597 91.4985 7.90055 91.4985 7.92512 91.4924C7.9497 91.4862 7.97427 91.4801 7.9927 91.4678C8.01113 91.4555 8.02956 91.4371 8.04185 91.4186C8.05414 91.4002 8.06028 91.3756 8.06028 91.3449C8.06028 91.3265 8.05414 91.3019 8.04799 91.2835C8.04185 91.265 8.02956 91.2466 8.01113 91.2343C7.9927 91.222 7.97427 91.2098 7.94969 91.1975C7.92512 91.1913 7.8944 91.1852 7.85754 91.1852C7.83911 91.1852 7.82068 91.1852 7.7961 91.1913C7.77153 91.1975 7.74695 91.2036 7.72238 91.222C7.6978 91.2343 7.67937 91.2528 7.66094 91.2835C7.64251 91.3081 7.63022 91.3388 7.62408 91.3818H7.4582C7.46435 91.3326 7.47049 91.2958 7.48892 91.2589C7.50121 91.222 7.51964 91.1913 7.54421 91.1667C7.56264 91.1422 7.58722 91.1176 7.61794 91.1053C7.64251 91.0869 7.67323 91.0746 7.6978 91.0623C7.72852 91.05 7.7531 91.0439 7.78382 91.0377C7.81453 91.0316 7.83911 91.0316 7.86368 91.0316C7.91283 91.0316 7.95584 91.0377 7.99884 91.05C8.04185 91.0623 8.08486 91.0807 8.12172 91.1053C8.15858 91.1299 8.1893 91.1606 8.20773 91.1975C8.2323 91.2343 8.23845 91.2773 8.23845 91.3265C8.23845 91.3572 8.2323 91.3879 8.22616 91.4125C8.22002 91.4371 8.20773 91.4555 8.1893 91.4739C8.17701 91.4924 8.15858 91.5108 8.14015 91.5231C8.12172 91.5354 8.10329 91.5476 8.08486 91.5538V91.5599C8.10329 91.5599 8.12172 91.5722 8.14629 91.5784C8.17087 91.5907 8.1893 91.6029 8.20773 91.6214C8.22616 91.6398 8.24459 91.6644 8.25688 91.689C8.26917 91.7197 8.27531 91.7504 8.27531 91.7934C8.27531 91.8487 8.26302 91.904 8.23845 91.9408C8.21387 91.9839 8.18315 92.0207 8.14015 92.0453C8.10329 92.0699 8.05414 92.0944 8.00499 92.1067C7.95584 92.119 7.90669 92.1252 7.8514 92.1252C7.78382 92.1252 7.72852 92.119 7.67323 92.1006C7.61794 92.0821 7.57493 92.0576 7.53807 92.0269C7.50121 91.9961 7.47049 91.9593 7.44591 91.9163C7.42134 91.8733 7.40905 91.8241 7.40291 91.775H7.58108C7.58722 91.8118 7.59336 91.8425 7.61179 91.8671C7.63022 91.8917 7.64866 91.9101 7.67323 91.9286C7.6978 91.9408 7.72238 91.9531 7.7531 91.9593C7.78382 91.9654 7.81453 91.9716 7.84525 91.9716C7.92512 91.9716 7.98656 91.9531 8.02956 91.9224C8.07257 91.8917 8.091 91.8487 8.091 91.7934C8.091 91.7688 8.08486 91.7504 8.07871 91.732C8.07257 91.7135 8.06028 91.6951 8.04185 91.6828C8.02342 91.6705 7.99884 91.6582 7.97427 91.6521C7.94355 91.646 7.91283 91.6398 7.86983 91.6398C7.86368 91.6398 7.8514 91.6398 7.83911 91.6398C7.82682 91.6398 7.82068 91.6398 7.80839 91.6398C7.7961 91.6398 7.78996 91.6398 7.77767 91.6398C7.76538 91.6398 7.75924 91.6398 7.74695 91.6398V91.4985H7.75924ZM8.47805 91.0684H8.65622V91.8548H8.66236L9.16614 91.0684H9.36888V92.0944H9.19072V91.308H9.18457L8.68079 92.0944H8.47805V91.0684ZM9.62077 91.0684H9.79894V91.4862H10.2781V91.0684H10.4563V92.0944H10.2781V91.6337H9.79894V92.0944H9.62077V91.0684ZM11.5315 91.4985H11.6236C11.6482 91.4985 11.6728 91.4985 11.6973 91.4924C11.7219 91.4862 11.7465 91.4801 11.7649 91.4678C11.7833 91.4555 11.8018 91.4371 11.8141 91.4186C11.8263 91.4002 11.8325 91.3756 11.8325 91.3449C11.8325 91.3265 11.8263 91.3019 11.8202 91.2835C11.8141 91.265 11.8018 91.2466 11.7833 91.2343C11.7649 91.222 11.7465 91.2098 11.7219 91.1975C11.6973 91.1913 11.6666 91.1852 11.6298 91.1852C11.6113 91.1852 11.5929 91.1852 11.5683 91.1913C11.5437 91.1975 11.5192 91.2036 11.4946 91.222C11.47 91.2343 11.4516 91.2528 11.4332 91.2835C11.4147 91.3081 11.4024 91.3388 11.3963 91.3818H11.2304C11.2366 91.3326 11.2427 91.2958 11.2611 91.2589C11.2734 91.222 11.2919 91.1913 11.3164 91.1667C11.3349 91.1422 11.3594 91.1176 11.3901 91.1053C11.4147 91.0869 11.4454 91.0746 11.47 91.0623C11.5007 91.05 11.5253 91.0439 11.556 91.0377C11.5867 91.0316 11.6113 91.0316 11.6359 91.0316C11.685 91.0316 11.7281 91.0377 11.7711 91.05C11.8141 91.0623 11.8571 91.0807 11.8939 91.1053C11.9308 91.1299 11.9615 91.1606 11.9799 91.1975C12.0045 91.2343 12.0107 91.2773 12.0107 91.3265C12.0107 91.3572 12.0045 91.3879 11.9984 91.4125C11.9922 91.4371 11.9799 91.4555 11.9615 91.4739C11.9492 91.4924 11.9308 91.5108 11.9124 91.5231C11.8939 91.5354 11.8755 91.5476 11.8571 91.5538V91.5599C11.8755 91.5599 11.8939 91.5722 11.9185 91.5784C11.9431 91.5907 11.9615 91.6029 11.9799 91.6214C11.9984 91.6398 12.0168 91.6644 12.0291 91.689C12.0414 91.7197 12.0475 91.7504 12.0475 91.7934C12.0475 91.8487 12.0352 91.904 12.0107 91.9408C11.9861 91.9839 11.9554 92.0207 11.9124 92.0453C11.8755 92.0699 11.8263 92.0944 11.7772 92.1067C11.7281 92.119 11.6789 92.1252 11.6236 92.1252C11.556 92.1252 11.5007 92.119 11.4454 92.1006C11.3901 92.0821 11.3471 92.0576 11.3103 92.0269C11.2734 91.9961 11.2427 91.9593 11.2181 91.9163C11.1936 91.8733 11.1813 91.8241 11.1751 91.775H11.3533C11.3594 91.8118 11.3656 91.8425 11.384 91.8671C11.4024 91.8917 11.4209 91.9101 11.4454 91.9286C11.47 91.9408 11.4946 91.9531 11.5253 91.9593C11.556 91.9654 11.5867 91.9716 11.6175 91.9716C11.6973 91.9716 11.7588 91.9531 11.8018 91.9224C11.8448 91.8917 11.8632 91.8487 11.8632 91.7934C11.8632 91.7688 11.8571 91.7504 11.8509 91.732C11.8448 91.7135 11.8325 91.6951 11.8141 91.6828C11.7956 91.6705 11.7711 91.6582 11.7465 91.6521C11.7158 91.646 11.685 91.6398 11.642 91.6398C11.6359 91.6398 11.6236 91.6398 11.6113 91.6398C11.599 91.6398 11.5929 91.6398 11.5806 91.6398C11.5683 91.6398 11.5622 91.6398 11.5499 91.6398C11.5376 91.6398 11.5315 91.6398 11.5192 91.6398V91.4985H11.5315ZM12.2503 91.0684H12.6865C12.8093 91.0684 12.9076 91.093 12.9691 91.136C13.0305 91.1852 13.0612 91.2528 13.0612 91.3388C13.0612 91.3879 13.0489 91.4248 13.0244 91.4616C12.9998 91.4924 12.9691 91.5231 12.9322 91.5476C12.9875 91.5661 13.0305 91.5968 13.0612 91.6337C13.0919 91.6705 13.1104 91.7197 13.1104 91.7811C13.1104 91.8303 13.1042 91.8733 13.0858 91.9101C13.0674 91.947 13.0428 91.9777 13.0121 92.0084C12.9814 92.033 12.9384 92.0576 12.8892 92.0699C12.8401 92.0821 12.7786 92.0883 12.711 92.0883H12.2441V91.0684H12.2503ZM12.4223 91.9531H12.6926C12.7418 91.9531 12.7786 91.9531 12.8093 91.9408C12.8401 91.9347 12.8646 91.9224 12.8831 91.9101C12.9015 91.8978 12.9138 91.8794 12.9199 91.861C12.9261 91.8425 12.9322 91.818 12.9322 91.7934C12.9322 91.7688 12.9261 91.7442 12.9199 91.7258C12.9138 91.7074 12.9015 91.689 12.8831 91.6767C12.8646 91.6644 12.8401 91.6521 12.8093 91.6459C12.7786 91.6398 12.7418 91.6337 12.6926 91.6337H12.4223V91.9531ZM12.4223 91.4985H12.6865C12.7479 91.4985 12.7909 91.4862 12.8278 91.4616C12.8646 91.4371 12.8769 91.4002 12.8769 91.3511C12.8769 91.3203 12.8708 91.3019 12.8646 91.2835C12.8523 91.265 12.8401 91.2466 12.8278 91.2343C12.8093 91.222 12.7909 91.2159 12.7725 91.2097C12.754 91.2036 12.7295 91.2036 12.711 91.2036H12.4223V91.4985ZM13.2148 91.0684H13.4114L13.6879 91.904H13.694L13.9705 91.0684H14.1671L13.7739 92.1374C13.7555 92.1927 13.737 92.2357 13.7186 92.2787C13.7002 92.3218 13.6879 92.3525 13.6694 92.377C13.651 92.4078 13.6387 92.4262 13.6203 92.4446C13.6019 92.4631 13.5834 92.4753 13.565 92.4876C13.5466 92.4999 13.522 92.5061 13.4974 92.5061C13.4729 92.5122 13.4483 92.5122 13.4176 92.5122C13.393 92.5122 13.3746 92.5122 13.3561 92.5061C13.3438 92.5061 13.3315 92.4999 13.3193 92.4999V92.3402C13.3315 92.3463 13.3438 92.3463 13.3623 92.3525C13.3807 92.3586 13.3991 92.3586 13.4237 92.3586C13.4544 92.3586 13.4851 92.3525 13.5036 92.334C13.522 92.3218 13.5404 92.2972 13.5527 92.2665L13.608 92.119L13.2148 91.0684ZM14.3084 91.0684H14.4866V91.5661L15.0088 91.0684H15.2422L14.7569 91.5231L15.2484 92.0944H15.0211L14.6217 91.6275L14.4927 91.7381V92.0944H14.3145V91.0684H14.3084ZM16.1023 91.5784C16.1023 91.5231 16.0962 91.4678 16.0839 91.4248C16.0716 91.3756 16.0532 91.3326 16.0286 91.3019C16.004 91.265 15.9733 91.2405 15.9365 91.222C15.8996 91.2036 15.8566 91.1913 15.8074 91.1913C15.7583 91.1913 15.7153 91.2036 15.6784 91.222C15.6416 91.2405 15.6108 91.2712 15.5863 91.3019C15.5617 91.3388 15.5433 91.3756 15.531 91.4248C15.5187 91.4739 15.5125 91.5231 15.5125 91.5784C15.5125 91.6337 15.5187 91.689 15.531 91.7381C15.5433 91.7873 15.5617 91.8303 15.5863 91.861C15.6108 91.8978 15.6416 91.9224 15.6784 91.9408C15.7153 91.9593 15.7583 91.9716 15.8074 91.9716C15.8566 91.9716 15.8996 91.9593 15.9365 91.9408C15.9733 91.9224 16.004 91.8917 16.0286 91.861C16.0532 91.8241 16.0716 91.7873 16.0839 91.7381C16.0962 91.689 16.1023 91.6398 16.1023 91.5784ZM16.2805 91.5784C16.2805 91.6644 16.2682 91.7381 16.2498 91.8057C16.2252 91.8733 16.1945 91.9286 16.1576 91.9777C16.1146 92.0269 16.0655 92.0637 16.004 92.0883C15.9426 92.1129 15.8812 92.1252 15.8013 92.1252C15.7276 92.1252 15.66 92.1129 15.5986 92.0883C15.5371 92.0637 15.488 92.0269 15.4511 91.9777C15.4081 91.9286 15.3774 91.8733 15.359 91.8057C15.3344 91.7381 15.3282 91.6644 15.3282 91.5784C15.3282 91.4985 15.3405 91.4186 15.359 91.3511C15.3835 91.2835 15.4143 91.2282 15.4511 91.179C15.488 91.1299 15.5433 91.093 15.5986 91.0684C15.66 91.0439 15.7214 91.0316 15.8013 91.0316C15.875 91.0316 15.9426 91.0439 16.004 91.0684C16.0655 91.093 16.1146 91.1299 16.1576 91.179C16.2006 91.2282 16.2314 91.2835 16.2498 91.3511C16.2682 91.4186 16.2805 91.4985 16.2805 91.5784ZM16.4771 91.0684H16.9133C17.0362 91.0684 17.1345 91.093 17.1959 91.136C17.2573 91.1852 17.2881 91.2528 17.2881 91.3388C17.2881 91.3879 17.2758 91.4248 17.2512 91.4616C17.2266 91.4924 17.1959 91.5231 17.1591 91.5476C17.2143 91.5661 17.2573 91.5968 17.2881 91.6337C17.3188 91.6705 17.3372 91.7197 17.3372 91.7811C17.3372 91.8303 17.3311 91.8733 17.3126 91.9101C17.2942 91.947 17.2696 91.9777 17.2389 92.0084C17.2082 92.033 17.1652 92.0576 17.116 92.0699C17.0669 92.0821 17.0055 92.0883 16.9379 92.0883H16.471V91.0684H16.4771ZM16.6553 91.9531H16.9256C16.9747 91.9531 17.0116 91.9531 17.0423 91.9408C17.073 91.9347 17.0976 91.9224 17.116 91.9101C17.1345 91.8978 17.1468 91.8794 17.1529 91.861C17.1591 91.8425 17.1652 91.818 17.1652 91.7934C17.1652 91.7688 17.1591 91.7442 17.1529 91.7258C17.1468 91.7074 17.1345 91.689 17.116 91.6767C17.0976 91.6644 17.073 91.6521 17.0423 91.6459C17.0116 91.6398 16.9747 91.6337 16.9256 91.6337H16.6553V91.9531ZM16.6553 91.4985H16.9194C16.9809 91.4985 17.0239 91.4862 17.0608 91.4616C17.0976 91.4371 17.1099 91.4002 17.1099 91.3511C17.1099 91.3203 17.1038 91.3019 17.0976 91.2835C17.0853 91.265 17.073 91.2466 17.0608 91.2343C17.0423 91.222 17.0239 91.2159 17.0055 91.2097C16.987 91.2036 16.9625 91.2036 16.944 91.2036H16.6553V91.4985ZM3.20064 93.3416H3.63684C3.75971 93.3416 3.85801 93.3662 3.91945 93.4092C3.98089 93.4583 4.0116 93.5259 4.0116 93.6119C4.0116 93.6611 3.99932 93.6979 3.97474 93.7348C3.95017 93.7655 3.91945 93.7962 3.88259 93.8208C3.93788 93.8392 3.98089 93.87 4.0116 93.9068C4.04232 93.9437 4.06075 93.9928 4.06075 94.0543C4.06075 94.1034 4.05461 94.1464 4.03618 94.1833C4.01775 94.2201 3.99317 94.2509 3.96246 94.2816C3.93174 94.3062 3.88873 94.3307 3.83958 94.343C3.79043 94.3553 3.729 94.3615 3.66142 94.3615H3.1945V93.3416H3.20064ZM3.37881 94.2263H3.64913C3.69828 94.2263 3.73514 94.2263 3.76586 94.214C3.79658 94.2079 3.82115 94.1956 3.83958 94.1833C3.85801 94.171 3.8703 94.1526 3.87644 94.1341C3.88259 94.1157 3.88873 94.0911 3.88873 94.0666C3.88873 94.042 3.88259 94.0174 3.87644 93.999C3.8703 93.9805 3.85801 93.9621 3.83958 93.9498C3.82115 93.9375 3.79658 93.9252 3.76586 93.9191C3.73514 93.913 3.69828 93.9068 3.64913 93.9068H3.37881V94.2263ZM3.37881 93.7717H3.64298C3.70442 93.7717 3.74743 93.7594 3.78429 93.7348C3.82115 93.7102 3.83344 93.6734 3.83344 93.6242C3.83344 93.5935 3.82729 93.5751 3.82115 93.5566C3.80886 93.5382 3.79658 93.5198 3.78429 93.5075C3.76586 93.4952 3.74743 93.489 3.729 93.4829C3.71056 93.4768 3.68599 93.4768 3.66756 93.4768H3.37881V93.7717ZM5.15433 94.042C5.14818 94.085 5.12975 94.128 5.10518 94.171C5.0806 94.214 5.04988 94.2509 5.01302 94.2877C4.97616 94.3184 4.92701 94.3492 4.87786 94.3676C4.82871 94.386 4.76728 94.3983 4.70584 94.3983C4.63826 94.3983 4.57068 94.386 4.51539 94.3615C4.46009 94.3369 4.4048 94.3062 4.36179 94.257C4.31879 94.2079 4.28807 94.1526 4.26349 94.085C4.23892 94.0174 4.22663 93.9375 4.22663 93.8392C4.22663 93.7778 4.23278 93.7164 4.24506 93.6672C4.25735 93.6181 4.27578 93.5689 4.30036 93.5321C4.32493 93.4891 4.34951 93.4583 4.38022 93.4276C4.41094 93.3969 4.44166 93.3723 4.47852 93.3539C4.51539 93.3355 4.5461 93.3232 4.58297 93.3109C4.61983 93.2986 4.65055 93.2986 4.68741 93.2986C4.75499 93.2986 4.82257 93.3109 4.87786 93.3293C4.93315 93.3477 4.98845 93.3846 5.02531 93.4276C5.06832 93.4706 5.09903 93.5259 5.12361 93.5874C5.14818 93.6549 5.16047 93.7287 5.16047 93.8147V93.9007H4.41094C4.41094 93.9498 4.41709 93.9928 4.42937 94.0358C4.44166 94.0788 4.46009 94.1096 4.48467 94.1403C4.50924 94.171 4.53996 94.1894 4.57682 94.2079C4.61368 94.2201 4.65055 94.2324 4.6997 94.2324C4.7427 94.2324 4.78571 94.2263 4.81642 94.214C4.84714 94.2017 4.87172 94.1833 4.89629 94.1649C4.91472 94.1464 4.93315 94.1218 4.94544 94.0973C4.95773 94.0727 4.97002 94.0481 4.97616 94.0236H5.15433V94.042ZM4.98845 93.7717C4.98845 93.7225 4.9823 93.6795 4.96387 93.6365C4.95159 93.5996 4.93315 93.5628 4.90858 93.5382C4.88401 93.5136 4.85329 93.489 4.82257 93.4768C4.78571 93.4645 4.74884 93.4583 4.70584 93.4583C4.66283 93.4583 4.62597 93.4645 4.59525 93.4829C4.55839 93.4952 4.53382 93.5198 4.5031 93.5505C4.47852 93.5812 4.45395 93.6119 4.44166 93.6488C4.42937 93.6857 4.41709 93.7287 4.41094 93.7717H4.98845ZM6.22947 94.3676H5.43694V94.6195H5.27106V94.214H5.40622C5.43694 94.1464 5.45537 94.0727 5.4738 94.0051C5.49223 93.9314 5.50452 93.8577 5.51066 93.7901C5.5168 93.7164 5.52295 93.6426 5.52909 93.5689C5.52909 93.4952 5.53523 93.4215 5.53523 93.3477H6.25404V94.2201H6.40149V94.6256H6.23561V94.3676H6.22947ZM6.07588 94.214V93.4952H5.70111C5.69497 93.5505 5.68883 93.6119 5.68883 93.6734C5.68268 93.7348 5.67654 93.7962 5.67039 93.8577C5.66425 93.9191 5.65196 93.9805 5.63968 94.042C5.62739 94.1034 5.60896 94.1587 5.59053 94.214H6.07588ZM7.43977 94.042C7.43363 94.085 7.4152 94.128 7.39062 94.171C7.36605 94.214 7.33533 94.2509 7.29847 94.2877C7.2616 94.3184 7.21245 94.3492 7.16331 94.3676C7.11416 94.386 7.05272 94.3983 6.99128 94.3983C6.9237 94.3983 6.85612 94.386 6.80083 94.3615C6.74554 94.3369 6.69024 94.3062 6.64724 94.257C6.60423 94.2079 6.57351 94.1526 6.54894 94.085C6.52436 94.0174 6.51208 93.9375 6.51208 93.8392C6.51208 93.7778 6.51822 93.7164 6.53051 93.6672C6.5428 93.6181 6.56123 93.5689 6.5858 93.5321C6.61038 93.4891 6.63495 93.4583 6.66567 93.4276C6.69639 93.3969 6.72711 93.3723 6.76397 93.3539C6.80083 93.3355 6.83155 93.3232 6.86841 93.3109C6.90527 93.2986 6.93599 93.2986 6.97285 93.2986C7.04043 93.2986 7.10801 93.3109 7.16331 93.3293C7.2186 93.3477 7.27389 93.3846 7.31075 93.4276C7.35376 93.4706 7.38448 93.5259 7.40905 93.5874C7.43363 93.6549 7.44591 93.7287 7.44591 93.8147V93.9007H6.69639C6.69639 93.9498 6.70253 93.9928 6.71482 94.0358C6.72711 94.0788 6.74554 94.1096 6.77011 94.1403C6.79469 94.171 6.8254 94.1894 6.86227 94.2079C6.89913 94.2201 6.93599 94.2324 6.98514 94.2324C7.02814 94.2324 7.07115 94.2263 7.10187 94.214C7.13259 94.2017 7.15716 94.1833 7.18174 94.1649C7.20017 94.1464 7.2186 94.1218 7.23089 94.0973C7.24317 94.0727 7.25546 94.0481 7.2616 94.0236H7.43977V94.042ZM7.27389 93.7717C7.27389 93.7225 7.26775 93.6795 7.24932 93.6365C7.23703 93.5996 7.2186 93.5628 7.19402 93.5382C7.16945 93.5136 7.13873 93.489 7.10801 93.4768C7.07115 93.4645 7.03429 93.4583 6.99128 93.4583C6.94828 93.4583 6.91142 93.4645 6.8807 93.4829C6.84383 93.4952 6.81926 93.5198 6.78854 93.5505C6.76397 93.5812 6.73939 93.6119 6.72711 93.6488C6.71482 93.6857 6.70253 93.7287 6.69639 93.7717H7.27389ZM7.93126 93.4952H7.57493V93.3416H8.45962V93.4952H8.10943V94.3676H7.93126V93.4952ZM8.72994 93.3539H8.93268V93.5628H8.72994V93.3539ZM8.72994 94.1587H8.93268V94.3676H8.72994V94.1587ZM10.8679 94.3676H10.6775V93.7655H10.3273C10.2904 93.7655 10.2536 93.7655 10.229 93.7655C10.2044 93.7655 10.1798 93.7655 10.1614 93.7717C10.143 93.7717 10.1246 93.7778 10.1123 93.7839C10.1 93.7901 10.0877 93.7962 10.0754 93.8024C10.0631 93.8147 10.0508 93.8208 10.0385 93.8331C10.0263 93.8454 10.0201 93.8577 10.0078 93.8761C10.0017 93.8945 9.99554 93.9191 9.98939 93.9437C9.98325 93.9683 9.98325 93.999 9.9771 94.042L9.96482 94.1956C9.96482 94.214 9.96482 94.2324 9.95867 94.2447C9.95867 94.257 9.95253 94.2754 9.95253 94.2877C9.95253 94.3 9.94639 94.3123 9.94024 94.3246C9.9341 94.3369 9.9341 94.3492 9.92796 94.3615H9.70678C9.71293 94.3553 9.71907 94.343 9.73136 94.3369C9.7375 94.3246 9.74365 94.3123 9.74979 94.3C9.75593 94.2877 9.76208 94.2693 9.76208 94.2509C9.76822 94.2324 9.76822 94.2079 9.77436 94.1771L9.79279 93.9867C9.79279 93.956 9.79894 93.9253 9.80508 93.8945C9.81123 93.8638 9.81737 93.8392 9.8358 93.8147C9.84809 93.7901 9.86652 93.7655 9.89724 93.7471C9.92181 93.7287 9.95867 93.7102 10.0017 93.6979C9.98325 93.6918 9.95867 93.6795 9.92796 93.6672C9.90338 93.6549 9.87266 93.6365 9.84809 93.6119C9.82351 93.5873 9.79894 93.5566 9.78665 93.5136C9.76822 93.4706 9.76208 93.4215 9.76208 93.36C9.76208 93.317 9.76822 93.274 9.77436 93.2372C9.78665 93.2003 9.79894 93.1696 9.81737 93.1389C9.8358 93.1081 9.85423 93.0836 9.87266 93.0651C9.89724 93.0467 9.91567 93.0283 9.94024 93.016C9.96482 93.0037 9.98939 92.9914 10.0201 92.9853C10.0508 92.9791 10.0815 92.973 10.1123 92.9668C10.143 92.9607 10.1737 92.9607 10.2044 92.9607C10.2351 92.9607 10.2597 92.9607 10.2843 92.9607H10.8679V94.3676ZM10.6775 93.1266H10.2474C10.229 93.1266 10.2167 93.1266 10.1983 93.1266C10.1798 93.1266 10.1614 93.1266 10.1491 93.1266C10.1307 93.1266 10.1123 93.1327 10.1 93.1389C10.0815 93.145 10.0693 93.1512 10.057 93.1573C10.0385 93.1696 10.0201 93.1819 10.0078 93.2003C9.99554 93.2187 9.98325 93.231 9.9771 93.2556C9.97096 93.274 9.96482 93.2925 9.95867 93.317C9.95253 93.3355 9.95253 93.36 9.95253 93.3785C9.95253 93.3908 9.95253 93.4092 9.95253 93.4215C9.95253 93.4399 9.95867 93.4522 9.96482 93.4706C9.97096 93.4891 9.97711 93.5075 9.98939 93.5198C10.0017 93.5321 10.014 93.5505 10.0385 93.5689C10.057 93.5812 10.0693 93.5935 10.0877 93.5996C10.1061 93.6058 10.1246 93.6119 10.143 93.6119C10.1614 93.6181 10.1798 93.6181 10.2044 93.6181C10.229 93.6181 10.2536 93.6181 10.2781 93.6181H10.6836V93.1266H10.6775ZM11.1444 93.3416H11.3226V93.7594H11.8018V93.3416H11.9799V94.3676H11.7956V93.9068H11.3164V94.3676H11.1383V93.3416H11.1444ZM12.9384 94.1771C12.9445 94.1833 12.9568 94.1894 12.9691 94.1956C12.9814 94.2017 12.9936 94.2079 13.0059 94.214C13.0182 94.2201 13.0305 94.2201 13.0489 94.2263C13.0612 94.2263 13.0797 94.2324 13.0919 94.2324C13.1227 94.2324 13.1472 94.2263 13.1657 94.2201C13.1841 94.214 13.2025 94.2017 13.221 94.1894C13.2332 94.1771 13.2517 94.1587 13.2578 94.1464C13.2701 94.128 13.2763 94.1096 13.2824 94.0911L12.7049 92.9607H12.9261L13.393 93.8945L13.7493 92.9607H13.9643L13.522 94.0174C13.4913 94.0911 13.4606 94.1464 13.436 94.1956C13.4114 94.2447 13.3807 94.2877 13.35 94.3184C13.3193 94.3492 13.2824 94.3737 13.2455 94.386C13.2087 94.3983 13.1595 94.4106 13.1042 94.4106C13.0735 94.4106 13.0489 94.4045 13.0182 94.3983C12.9936 94.3922 12.9691 94.3799 12.9568 94.3676L12.9384 94.1771ZM14.9043 94.0051C14.9043 94.0297 14.8982 94.0543 14.892 94.085C14.8859 94.1157 14.8736 94.1464 14.8613 94.171C14.849 94.2017 14.8306 94.2263 14.806 94.2509C14.7815 94.2754 14.7569 94.3 14.7262 94.3246C14.6954 94.343 14.6586 94.3614 14.6156 94.3737C14.5726 94.386 14.5234 94.3922 14.4681 94.3922C14.4374 94.3922 14.4067 94.386 14.376 94.3799C14.3453 94.3737 14.3084 94.3614 14.2777 94.343C14.247 94.3246 14.2162 94.3062 14.1855 94.2754C14.1548 94.2447 14.1302 94.214 14.1118 94.171C14.0934 94.128 14.0749 94.085 14.0626 94.0297C14.0504 93.9744 14.0442 93.913 14.0442 93.8454C14.0442 93.7594 14.0565 93.6857 14.0811 93.6181C14.1056 93.5505 14.1364 93.4952 14.1794 93.446C14.2224 93.3969 14.2654 93.36 14.3207 93.3355C14.376 93.3109 14.4313 93.2986 14.4927 93.2986C14.548 93.2986 14.591 93.3047 14.634 93.317C14.677 93.3293 14.7139 93.3416 14.7446 93.3662C14.7753 93.3846 14.7999 93.4092 14.8245 93.4338C14.8429 93.4583 14.8613 93.4829 14.8736 93.5136C14.8859 93.5382 14.8982 93.5689 14.9043 93.5996C14.9105 93.6304 14.9166 93.6549 14.9166 93.6795H14.7507C14.7446 93.6119 14.72 93.5566 14.677 93.5136C14.6401 93.4706 14.5849 93.4522 14.5111 93.4522C14.462 93.4522 14.419 93.4645 14.3821 93.4829C14.3453 93.5013 14.3145 93.5321 14.29 93.5689C14.2654 93.6058 14.247 93.6488 14.2347 93.6979C14.2224 93.7471 14.2162 93.8024 14.2162 93.8638C14.2162 93.9314 14.2224 93.9928 14.2347 94.0358C14.247 94.085 14.2654 94.128 14.29 94.1587C14.3145 94.1894 14.3453 94.214 14.376 94.2263C14.4128 94.2386 14.4497 94.2509 14.4927 94.2509C14.5234 94.2509 14.5541 94.2447 14.5787 94.2324C14.6033 94.2201 14.6279 94.2017 14.6524 94.1833C14.677 94.1649 14.6954 94.1341 14.7077 94.1034C14.72 94.0727 14.7323 94.0358 14.7384 93.999H14.9043V94.0051ZM15.7952 93.8515C15.7952 93.7962 15.789 93.7409 15.7767 93.6979C15.7644 93.6488 15.746 93.6058 15.7214 93.5751C15.6969 93.5382 15.6661 93.5136 15.6293 93.4952C15.5924 93.4768 15.5494 93.4645 15.5003 93.4645C15.4511 93.4645 15.4081 93.4768 15.3712 93.4952C15.3344 93.5136 15.3037 93.5443 15.2791 93.5751C15.2545 93.6119 15.2361 93.6488 15.2238 93.6979C15.2115 93.7471 15.2054 93.7962 15.2054 93.8515C15.2054 93.9068 15.2115 93.9621 15.2238 94.0113C15.2361 94.0604 15.2545 94.1034 15.2791 94.1341C15.3037 94.171 15.3344 94.1956 15.3712 94.214C15.4081 94.2324 15.4511 94.2447 15.5003 94.2447C15.5494 94.2447 15.5924 94.2324 15.6293 94.214C15.6661 94.1956 15.6969 94.1649 15.7214 94.1341C15.746 94.0973 15.7644 94.0604 15.7767 94.0113C15.789 93.9621 15.7952 93.913 15.7952 93.8515ZM15.9733 93.8515C15.9733 93.9375 15.961 94.0113 15.9426 94.0788C15.918 94.1464 15.8873 94.2017 15.8505 94.2509C15.8074 94.3 15.7583 94.3369 15.6969 94.3615C15.6354 94.386 15.574 94.3983 15.4941 94.3983C15.4204 94.3983 15.3528 94.386 15.2914 94.3615C15.2299 94.3369 15.1808 94.3 15.1439 94.2509C15.1009 94.2017 15.0702 94.1464 15.0518 94.0788C15.0272 94.0113 15.0211 93.9375 15.0211 93.8515C15.0211 93.7717 15.0333 93.6918 15.0518 93.6242C15.0763 93.5566 15.1071 93.5013 15.1439 93.4522C15.1808 93.403 15.2361 93.3662 15.2914 93.3416C15.3528 93.317 15.4143 93.3047 15.4941 93.3047C15.5678 93.3047 15.6354 93.317 15.6969 93.3416C15.7583 93.3662 15.8074 93.403 15.8505 93.4522C15.8935 93.5013 15.9242 93.5566 15.9426 93.6242C15.961 93.6918 15.9733 93.7717 15.9733 93.8515ZM16.1699 93.3416H16.6061C16.729 93.3416 16.8273 93.3662 16.8887 93.4092C16.9502 93.4583 16.9809 93.5259 16.9809 93.6119C16.9809 93.6611 16.9686 93.6979 16.944 93.7348C16.9194 93.7655 16.8887 93.7962 16.8519 93.8208C16.9072 93.8392 16.9502 93.87 16.9809 93.9068C17.0116 93.9437 17.03 93.9928 17.03 94.0543C17.03 94.1034 17.0239 94.1464 17.0055 94.1833C16.987 94.2201 16.9625 94.2509 16.9317 94.2816C16.901 94.3062 16.858 94.3307 16.8089 94.343C16.7597 94.3553 16.6983 94.3615 16.6307 94.3615H16.1638V93.3416H16.1699ZM16.3481 94.2263H16.6184C16.6676 94.2263 16.7044 94.2263 16.7351 94.214C16.7659 94.2079 16.7904 94.1956 16.8089 94.1833C16.8273 94.171 16.8396 94.1526 16.8457 94.1341C16.8519 94.1157 16.858 94.0911 16.858 94.0666C16.858 94.042 16.8519 94.0174 16.8457 93.999C16.8396 93.9805 16.8273 93.9621 16.8089 93.9498C16.7904 93.9375 16.7659 93.9252 16.7351 93.9191C16.7044 93.913 16.6676 93.9068 16.6184 93.9068H16.3481V94.2263ZM16.3481 93.7717H16.6123C16.6737 93.7717 16.7167 93.7594 16.7536 93.7348C16.7904 93.7102 16.8027 93.6734 16.8027 93.6242C16.8027 93.5935 16.7966 93.5751 16.7904 93.5566C16.7781 93.5382 16.7659 93.5198 16.7536 93.5075C16.7351 93.4952 16.7167 93.489 16.6983 93.4829C16.6798 93.4768 16.6553 93.4768 16.6368 93.4768H16.3481V93.7717ZM17.2512 93.3416H17.4294V94.128H17.4355L17.9393 93.3416H18.142V94.3676H17.9639V93.5812H17.9577L17.4539 94.3676H17.2512V93.3416ZM19.0144 93.9498C18.9776 93.9621 18.9346 93.9683 18.8854 93.9744C18.8424 93.9805 18.7994 93.9867 18.7564 93.9867C18.6212 93.9867 18.5168 93.9621 18.4492 93.9068C18.3816 93.8515 18.3509 93.7717 18.3509 93.6549V93.3355H18.5291V93.6181C18.5291 93.6549 18.5352 93.6918 18.5414 93.7164C18.5537 93.7471 18.566 93.7655 18.5905 93.7839C18.609 93.8024 18.6397 93.8147 18.6765 93.8269C18.7134 93.8331 18.7564 93.8392 18.8056 93.8392C18.8178 93.8392 18.8363 93.8392 18.8547 93.8331C18.8731 93.8331 18.8916 93.8269 18.9161 93.8208C18.9346 93.8147 18.953 93.8147 18.9714 93.8085C18.9899 93.8024 19.0083 93.7962 19.0206 93.7962V93.3293H19.1987V94.3553H19.0206V93.9498H19.0144Z" fill="white"/>
<path d="M31.9386 20.1492L3.52539 29.6992L21.6193 83.5324L50.0326 73.9824L31.9386 20.1492Z" fill="#FFD089"/>
<path d="M23.7021 56.2831C30.6714 56.2831 36.3212 50.6333 36.3212 43.664C36.3212 36.6947 30.6714 31.0449 23.7021 31.0449C16.7328 31.0449 11.083 36.6947 11.083 43.664C11.083 50.6333 16.7328 56.2831 23.7021 56.2831Z" fill="#B3B3B3"/>
<path d="M34.5084 74.7063C39.7371 74.7063 43.9758 70.4676 43.9758 65.2389C43.9758 60.0102 39.7371 55.7715 34.5084 55.7715C29.2797 55.7715 25.041 60.0102 25.041 65.2389C25.041 70.4676 29.2797 74.7063 34.5084 74.7063Z" fill="#B3B3B3"/>
<path d="M49.8163 13.02L32.8047 56.3711L39.8621 59.1405L56.8738 15.7895L49.8163 13.02Z" fill="white"/>
<path d="M51.9942 16.5319L49.5771 22.6914L51.0412 23.2659L53.4583 17.1064L51.9942 16.5319Z" fill="#B3B3B3"/>
<path d="M49.0128 23.8307L46.5957 29.9902L48.0598 30.5648L50.4769 24.4053L49.0128 23.8307Z" fill="#B3B3B3"/>
<path d="M46.0333 31.1295L43.6162 37.2891L45.0803 37.8636L47.4974 31.7041L46.0333 31.1295Z" fill="#B3B3B3"/>
<path d="M43.0528 38.4284L40.6357 44.5879L42.0998 45.1624L44.5169 39.0029L43.0528 38.4284Z" fill="#B3B3B3"/>
<path d="M38.9172 45.6034L35.1064 55.3145L39.0641 56.8675L42.8749 47.1564L38.9172 45.6034Z" fill="#FFD089"/>
<path d="M41.8761 49.6711L41.8638 49.6404L40.7334 46.3535L42.8837 47.1829L41.8761 49.6711Z" fill="#B3B3B3" stroke="#B3B3B3" stroke-width="0.0614367"/>
<path d="M49.5801 3.33569H49.8381L50.1084 4.17737H50.1146L50.391 3.33569H50.6306V4.36168H50.4648V3.53229H50.4586L50.1883 4.36168H50.0163L49.746 3.53229H49.7398V4.36168H49.5801V3.33569ZM50.8887 3.64287C50.8887 3.58144 50.901 3.52614 50.9255 3.48314C50.9501 3.44013 50.9747 3.40327 51.0116 3.3787C51.0484 3.35412 51.0914 3.32955 51.1406 3.3234C51.1897 3.31112 51.245 3.30497 51.3064 3.30497C51.3556 3.30497 51.4047 3.31112 51.4539 3.31726C51.503 3.32955 51.5461 3.34183 51.5768 3.36641C51.6136 3.39098 51.6444 3.41556 51.6628 3.45242C51.6874 3.48928 51.6935 3.53229 51.6935 3.58144V4.17737C51.6935 4.1958 51.6996 4.20809 51.7058 4.22038C51.7119 4.23267 51.7304 4.23881 51.7488 4.23881C51.7549 4.23881 51.7672 4.23881 51.7795 4.23881C51.7918 4.23881 51.7979 4.23267 51.8102 4.23267V4.35554C51.7979 4.36168 51.7795 4.36168 51.7672 4.36783C51.7549 4.37397 51.7365 4.37397 51.7181 4.37397C51.6874 4.37397 51.6628 4.37397 51.6382 4.36783C51.6136 4.36168 51.5952 4.35554 51.5829 4.34325C51.5706 4.33096 51.5583 4.31868 51.5461 4.2941C51.5399 4.27567 51.5338 4.2511 51.5276 4.22652C51.503 4.2511 51.4846 4.26953 51.46 4.2941C51.4355 4.31253 51.4109 4.33096 51.3802 4.3494C51.3495 4.36168 51.3187 4.37397 51.2819 4.38626C51.245 4.3924 51.202 4.39854 51.159 4.39854C51.1221 4.39854 51.0791 4.3924 51.0423 4.38011C51.0054 4.36783 50.9685 4.3494 50.944 4.32482C50.9133 4.30025 50.8887 4.26953 50.8702 4.23267C50.8518 4.1958 50.8457 4.1528 50.8457 4.10365C50.8457 4.04836 50.8518 4.00535 50.8702 3.96849C50.8887 3.93163 50.9133 3.89476 50.9378 3.87019C50.9685 3.84561 50.9993 3.82104 51.0361 3.80875C51.073 3.79647 51.1099 3.78418 51.1467 3.77803L51.4355 3.74117C51.46 3.73503 51.4846 3.72888 51.4969 3.71045C51.5153 3.69202 51.5215 3.6613 51.5215 3.62444C51.5215 3.56301 51.503 3.52 51.46 3.48928C51.417 3.46471 51.3617 3.44628 51.288 3.44628C51.2081 3.44628 51.1529 3.46471 51.116 3.49543C51.0791 3.52614 51.0546 3.57529 51.0484 3.64287H50.8887ZM51.5215 3.83947C51.5092 3.85176 51.4908 3.8579 51.4662 3.86405C51.4478 3.87019 51.4232 3.87633 51.3986 3.88248C51.374 3.88862 51.3495 3.88862 51.3187 3.89476C51.288 3.90091 51.2634 3.90091 51.2327 3.90705C51.202 3.91319 51.1713 3.91934 51.1467 3.92548C51.1221 3.93163 51.0976 3.94391 51.0791 3.9562C51.0607 3.96849 51.0423 3.98692 51.03 4.00535C51.0177 4.02378 51.0116 4.04836 51.0116 4.07293C51.0116 4.10365 51.0177 4.12822 51.0238 4.1528C51.0361 4.17737 51.0484 4.1958 51.0607 4.20809C51.0791 4.22038 51.0976 4.23267 51.1221 4.24495C51.1467 4.25724 51.1713 4.25724 51.1959 4.25724C51.2143 4.25724 51.2327 4.25724 51.2573 4.2511C51.2819 4.24495 51.3003 4.23881 51.3249 4.23267C51.3495 4.22652 51.374 4.21423 51.3925 4.20195C51.417 4.18966 51.4355 4.17123 51.4539 4.1528C51.4723 4.13437 51.4846 4.11594 51.4969 4.09136C51.5092 4.06679 51.5153 4.04221 51.5153 4.01149V3.83947H51.5215ZM52.7932 3.99921C52.7932 4.02378 52.7871 4.04836 52.7809 4.07907C52.7748 4.10979 52.7625 4.14051 52.7502 4.16509C52.7379 4.1958 52.7195 4.22038 52.6949 4.2511C52.6703 4.27567 52.6458 4.30025 52.6151 4.32482C52.5843 4.34325 52.5475 4.36168 52.5045 4.37397C52.4615 4.38626 52.4123 4.3924 52.357 4.3924C52.3263 4.3924 52.2956 4.38626 52.2649 4.38011C52.2341 4.37397 52.1973 4.36168 52.1666 4.34325C52.1358 4.32482 52.1051 4.30639 52.0744 4.27567C52.0437 4.2511 52.0191 4.21423 52.0007 4.17123C51.9823 4.12822 51.9638 4.08522 51.9515 4.02992C51.9392 3.97463 51.9331 3.91319 51.9331 3.84561C51.9331 3.7596 51.9454 3.68588 51.97 3.6183C51.9945 3.55072 52.0253 3.48928 52.0683 3.44628C52.1113 3.39713 52.1543 3.36026 52.2096 3.33569C52.2649 3.31112 52.3202 3.29883 52.3816 3.29883C52.4369 3.29883 52.4799 3.30497 52.5229 3.31726C52.5659 3.32955 52.6028 3.34183 52.6335 3.36641C52.6642 3.38484 52.6888 3.40941 52.7133 3.43399C52.7318 3.45856 52.7502 3.48314 52.7625 3.51386C52.7748 3.53843 52.7871 3.56915 52.7932 3.59987C52.7994 3.63059 52.8055 3.65516 52.8055 3.67974H52.6396C52.6335 3.61216 52.6089 3.55686 52.5659 3.51386C52.529 3.47699 52.4737 3.45242 52.4 3.45242C52.3509 3.45242 52.3079 3.46471 52.271 3.48314C52.2341 3.50157 52.2034 3.53229 52.1788 3.56915C52.1543 3.60601 52.1358 3.64902 52.1236 3.69817C52.1113 3.74732 52.1051 3.80261 52.1051 3.86405C52.1051 3.93163 52.1113 3.99306 52.1236 4.04221C52.1358 4.09136 52.1543 4.12822 52.1788 4.16509C52.2034 4.1958 52.2341 4.22038 52.2649 4.23267C52.3017 4.24495 52.3386 4.25724 52.3816 4.25724C52.4123 4.25724 52.443 4.2511 52.4676 4.23881C52.4922 4.22652 52.5168 4.20809 52.5413 4.18966C52.5659 4.16508 52.5843 4.14051 52.5966 4.10979C52.6089 4.07907 52.6212 4.04221 52.6273 4.00535H52.7932V3.99921ZM53.2417 3.48928H52.8854V3.33569H53.7701V3.48928H53.4137V4.36168H53.2356V3.48928H53.2417ZM54.8268 4.03607C54.8206 4.07907 54.8022 4.12208 54.7776 4.16509C54.753 4.20809 54.7223 4.24495 54.6855 4.28181C54.6486 4.31868 54.5995 4.34325 54.5503 4.36168C54.5012 4.38011 54.4397 4.3924 54.3783 4.3924C54.3107 4.3924 54.2431 4.38011 54.1878 4.36168C54.1325 4.33711 54.0772 4.30639 54.0342 4.25724C53.9912 4.20809 53.9605 4.1528 53.9359 4.08522C53.9114 4.01764 53.8991 3.93777 53.8991 3.83947C53.8991 3.77803 53.9052 3.72274 53.9175 3.66745C53.9298 3.6183 53.9482 3.56915 53.9728 3.53229C53.9974 3.48928 54.0219 3.45856 54.0527 3.42785C54.0834 3.39713 54.1141 3.37255 54.151 3.35412C54.1878 3.33569 54.2185 3.3234 54.2554 3.31112C54.2923 3.29883 54.323 3.29883 54.3599 3.29883C54.4274 3.29883 54.495 3.31112 54.5503 3.32955C54.6056 3.34798 54.6609 3.38484 54.6978 3.42785C54.7408 3.47085 54.7715 3.52614 54.7961 3.58758C54.8206 3.65516 54.8329 3.72888 54.8329 3.8149V3.90091H54.0834C54.0834 3.95006 54.0895 3.99921 54.1018 4.03607C54.1141 4.07907 54.1325 4.10979 54.1571 4.14051C54.1817 4.17123 54.2124 4.18966 54.2493 4.20809C54.2861 4.22038 54.323 4.23267 54.3721 4.23267C54.4151 4.23267 54.4582 4.22652 54.4889 4.21423C54.5196 4.20195 54.5442 4.18352 54.5687 4.16509C54.5872 4.14665 54.6056 4.12208 54.6179 4.0975C54.6302 4.07293 54.6425 4.04836 54.6486 4.02378H54.8268V4.03607ZM54.6609 3.76575C54.6609 3.7166 54.6547 3.67359 54.6363 3.63059C54.624 3.59372 54.6056 3.55686 54.581 3.53229C54.5564 3.50771 54.5257 3.48314 54.495 3.47085C54.4581 3.45856 54.4213 3.45242 54.3783 3.45242C54.3353 3.45242 54.2984 3.45856 54.2677 3.47699C54.2308 3.48928 54.2063 3.51386 54.1755 3.54457C54.151 3.56915 54.1264 3.60601 54.1141 3.64287C54.1018 3.67974 54.0895 3.72274 54.0834 3.76575H54.6609ZM55.0357 3.33569H55.2138V3.47699H55.22C55.2323 3.45242 55.2445 3.42785 55.263 3.40941C55.2814 3.39098 55.2998 3.37255 55.3244 3.35412C55.349 3.33569 55.3797 3.3234 55.4104 3.31726C55.4411 3.31112 55.478 3.30497 55.521 3.30497C55.5763 3.30497 55.6316 3.31726 55.6807 3.33569C55.7299 3.35412 55.779 3.39098 55.8159 3.42785C55.8528 3.47085 55.8835 3.52614 55.9081 3.58758C55.9326 3.64902 55.9449 3.72274 55.9449 3.80875C55.9449 3.91319 55.9326 4.00535 55.9142 4.07907C55.8958 4.1528 55.865 4.21423 55.822 4.25724C55.7852 4.30639 55.736 4.33711 55.6807 4.36168C55.6254 4.38626 55.564 4.3924 55.4964 4.3924C55.4596 4.3924 55.4288 4.38626 55.4043 4.38011C55.3736 4.37397 55.349 4.36168 55.3244 4.34325C55.2998 4.33096 55.2814 4.31253 55.263 4.2941C55.2445 4.27567 55.2323 4.25724 55.2261 4.24495H55.22V4.76716H55.0418V3.33569H55.0357ZM55.2077 3.85176C55.2077 3.90705 55.2138 3.9562 55.2261 4.00535C55.2384 4.0545 55.2507 4.09136 55.2753 4.12822C55.2998 4.16508 55.3244 4.18966 55.3613 4.20809C55.3981 4.22652 55.435 4.23881 55.4841 4.23881C55.5333 4.23881 55.5763 4.22652 55.607 4.20809C55.6439 4.18966 55.6746 4.15894 55.693 4.12822C55.7176 4.09136 55.736 4.0545 55.7422 4.00535C55.7545 3.9562 55.7606 3.90705 55.7606 3.85176C55.7606 3.79647 55.7545 3.74117 55.7422 3.69202C55.7299 3.64287 55.7115 3.59987 55.693 3.56915C55.6746 3.53843 55.6377 3.50771 55.607 3.48928C55.5702 3.47085 55.5271 3.45856 55.4841 3.45856C55.435 3.45856 55.3981 3.47085 55.3613 3.48928C55.3244 3.50771 55.2998 3.53843 55.2753 3.56915C55.2507 3.60601 55.2384 3.64902 55.2261 3.69202C55.2138 3.74117 55.2077 3.79647 55.2077 3.85176ZM56.0924 3.72274H56.5716V3.90091H56.0924V3.72274ZM56.7927 3.33569H56.9709V3.83333L57.4931 3.33569H57.7266L57.2412 3.79032L57.7327 4.36168H57.5054L57.1061 3.89476L56.9771 4.00535V4.36168H56.7989V3.33569H56.7927ZM58.5621 3.48928H58.1689L58.1628 3.73503C58.1566 3.8579 58.1505 3.96234 58.1321 4.04836C58.1198 4.13437 58.0952 4.1958 58.0706 4.2511C58.0461 4.30025 58.0153 4.33711 57.9723 4.36168C57.9355 4.38011 57.8925 4.3924 57.8433 4.3924C57.8249 4.3924 57.8126 4.3924 57.7942 4.38626C57.7819 4.38011 57.7696 4.37397 57.7634 4.36783V4.21423C57.788 4.22652 57.8126 4.22652 57.831 4.22652C57.8433 4.22652 57.8556 4.22652 57.8679 4.22038C57.8802 4.21423 57.8925 4.20809 57.9047 4.1958C57.917 4.18352 57.9293 4.16509 57.9355 4.14051C57.9478 4.11594 57.9539 4.08522 57.96 4.04836C57.9662 4.01149 57.9723 3.96234 57.9785 3.91319C57.9846 3.8579 57.9846 3.79646 57.9908 3.72274L57.9969 3.34183H58.7341V4.36168H58.556V3.48928H58.5621ZM58.9983 3.64287C58.9983 3.58144 59.0106 3.52614 59.0352 3.48314C59.0598 3.44013 59.0843 3.40327 59.1212 3.3787C59.1581 3.35412 59.2011 3.32955 59.2502 3.3234C59.2994 3.31112 59.3547 3.30497 59.4161 3.30497C59.4652 3.30497 59.5144 3.31112 59.5635 3.31726C59.6127 3.32955 59.6557 3.34183 59.6864 3.36641C59.7233 3.39098 59.754 3.41556 59.7724 3.45242C59.797 3.48928 59.8031 3.53229 59.8031 3.58144V4.17737C59.8031 4.1958 59.8093 4.20809 59.8154 4.22038C59.8216 4.23267 59.84 4.23881 59.8584 4.23881C59.8646 4.23881 59.8769 4.23881 59.8892 4.23881C59.9014 4.23881 59.9076 4.23267 59.9199 4.23267V4.35554C59.9076 4.36168 59.8891 4.36168 59.8769 4.36783C59.8646 4.37397 59.8461 4.37397 59.8277 4.37397C59.797 4.37397 59.7724 4.37397 59.7478 4.36783C59.7233 4.36168 59.7048 4.35554 59.6926 4.34325C59.6803 4.33096 59.668 4.31868 59.6557 4.2941C59.6495 4.27567 59.6434 4.2511 59.6373 4.22652C59.6127 4.2511 59.5943 4.26953 59.5697 4.2941C59.5451 4.31253 59.5205 4.33096 59.4898 4.3494C59.4591 4.36168 59.4284 4.37397 59.3915 4.38626C59.3547 4.3924 59.3116 4.39854 59.2686 4.39854C59.2318 4.39854 59.1888 4.3924 59.1519 4.38011C59.115 4.36783 59.0782 4.3494 59.0536 4.32482C59.0229 4.30025 58.9983 4.26953 58.9799 4.23267C58.9615 4.1958 58.9553 4.1528 58.9553 4.10365C58.9553 4.04836 58.9615 4.00535 58.9799 3.96849C58.9983 3.93163 59.0229 3.89476 59.0475 3.87019C59.0782 3.84561 59.1089 3.82104 59.1458 3.80875C59.1826 3.79647 59.2195 3.78418 59.2564 3.77803L59.5451 3.74117C59.5697 3.73503 59.5943 3.72888 59.6065 3.71045C59.625 3.69202 59.6311 3.6613 59.6311 3.62444C59.6311 3.56301 59.6127 3.52 59.5697 3.48928C59.5267 3.46471 59.4714 3.44628 59.3977 3.44628C59.3178 3.44628 59.2625 3.46471 59.2256 3.49543C59.1888 3.52614 59.1642 3.57529 59.1581 3.64287H58.9983ZM59.6311 3.83947C59.6188 3.85176 59.6004 3.8579 59.5758 3.86405C59.5574 3.87019 59.5328 3.87633 59.5082 3.88248C59.4837 3.88862 59.4591 3.88862 59.4284 3.89476C59.3977 3.90091 59.3731 3.90091 59.3424 3.90705C59.3116 3.91319 59.2809 3.91934 59.2564 3.92548C59.2318 3.93163 59.2072 3.94391 59.1888 3.9562C59.1703 3.96849 59.1519 3.98692 59.1396 4.00535C59.1273 4.02378 59.1212 4.04836 59.1212 4.07293C59.1212 4.10365 59.1273 4.12822 59.1335 4.1528C59.1458 4.17737 59.1581 4.1958 59.1703 4.20809C59.1888 4.22038 59.2072 4.23267 59.2318 4.24495C59.2564 4.25724 59.2809 4.25724 59.3055 4.25724C59.3239 4.25724 59.3424 4.25724 59.3669 4.2511C59.3915 4.24495 59.4099 4.23881 59.4345 4.23267C59.4591 4.22652 59.4837 4.21423 59.5021 4.20195C59.5267 4.18966 59.5451 4.17123 59.5635 4.1528C59.582 4.13437 59.5943 4.11594 59.6065 4.09136C59.6188 4.06679 59.625 4.04221 59.625 4.01149V3.83947H59.6311ZM60.9029 3.99921C60.9029 4.02378 60.8967 4.04836 60.8906 4.07907C60.8844 4.10979 60.8721 4.14051 60.8598 4.16509C60.8476 4.1958 60.8291 4.22038 60.8046 4.2511C60.78 4.27567 60.7554 4.30025 60.7247 4.32482C60.694 4.34325 60.6571 4.36168 60.6141 4.37397C60.5711 4.38626 60.5219 4.3924 60.4667 4.3924C60.4359 4.3924 60.4052 4.38626 60.3745 4.38011C60.3438 4.37397 60.3069 4.36168 60.2762 4.34325C60.2455 4.32482 60.2148 4.30639 60.184 4.27567C60.1533 4.2511 60.1288 4.21423 60.1103 4.17123C60.0919 4.12822 60.0735 4.08522 60.0612 4.02992C60.0489 3.97463 60.0427 3.91319 60.0427 3.84561C60.0427 3.7596 60.055 3.68588 60.0796 3.6183C60.1042 3.55072 60.1349 3.48928 60.1779 3.44628C60.2209 3.39713 60.2639 3.36026 60.3192 3.33569C60.3745 3.31112 60.4298 3.29883 60.4912 3.29883C60.5465 3.29883 60.5895 3.30497 60.6325 3.31726C60.6755 3.32955 60.7124 3.34183 60.7431 3.36641C60.7738 3.38484 60.7984 3.40941 60.823 3.43399C60.8414 3.45856 60.8598 3.48314 60.8721 3.51386C60.8844 3.53843 60.8967 3.56915 60.9029 3.59987C60.909 3.63059 60.9151 3.65516 60.9151 3.67974H60.7493C60.7431 3.61216 60.7185 3.55686 60.6755 3.51386C60.6387 3.47699 60.5834 3.45242 60.5097 3.45242C60.4605 3.45242 60.4175 3.46471 60.3806 3.48314C60.3438 3.50157 60.3131 3.53229 60.2885 3.56915C60.2639 3.60601 60.2455 3.64902 60.2332 3.69817C60.2209 3.74732 60.2148 3.80261 60.2148 3.86405C60.2148 3.93163 60.2209 3.99306 60.2332 4.04221C60.2455 4.09136 60.2639 4.12822 60.2885 4.16509C60.3131 4.1958 60.3438 4.22038 60.3745 4.23267C60.4114 4.24495 60.4482 4.25724 60.4912 4.25724C60.5219 4.25724 60.5527 4.2511 60.5772 4.23881C60.6018 4.22652 60.6264 4.20809 60.651 4.18966C60.6755 4.16508 60.694 4.14051 60.7063 4.10979C60.7185 4.07907 60.7308 4.04221 60.737 4.00535H60.9029V3.99921ZM61.8858 3.99921C61.8797 4.02378 61.8797 4.04836 61.8736 4.07907C61.8674 4.10979 61.8551 4.14051 61.8428 4.16509C61.8305 4.1958 61.8121 4.22038 61.7875 4.2511C61.7691 4.27567 61.7384 4.30025 61.7077 4.32482C61.677 4.34325 61.6401 4.36168 61.5971 4.37397C61.5541 4.38626 61.5049 4.3924 61.4496 4.3924C61.4189 4.3924 61.3882 4.38626 61.3575 4.38011C61.3268 4.37397 61.2899 4.36168 61.2592 4.34325C61.2285 4.32482 61.1978 4.30639 61.167 4.27567C61.1363 4.2511 61.1117 4.21423 61.0933 4.17123C61.0749 4.12822 61.0564 4.08522 61.0442 4.02992C61.0319 3.97463 61.0257 3.91319 61.0257 3.84561C61.0257 3.7596 61.038 3.68588 61.0626 3.6183C61.0872 3.55072 61.1179 3.48928 61.1609 3.44628C61.2039 3.39713 61.2469 3.36026 61.3022 3.33569C61.3575 3.31112 61.4128 3.29883 61.4742 3.29883C61.5295 3.29883 61.5725 3.30497 61.6155 3.31726C61.6585 3.32955 61.6954 3.34183 61.7261 3.36641C61.7568 3.38484 61.7814 3.40941 61.806 3.43399C61.8305 3.45856 61.8428 3.48314 61.8551 3.51386C61.8674 3.53843 61.8797 3.56915 61.8858 3.59987C61.892 3.63059 61.8981 3.65516 61.8981 3.67974H61.7323C61.72 3.61216 61.7015 3.55686 61.6585 3.51386C61.6217 3.47699 61.5664 3.45242 61.4926 3.45242C61.4435 3.45242 61.4005 3.46471 61.3636 3.48314C61.3268 3.50157 61.296 3.53229 61.2715 3.56915C61.2469 3.60601 61.2285 3.64902 61.2162 3.69817C61.2039 3.74732 61.1978 3.80261 61.1978 3.86405C61.1978 3.93163 61.2039 3.99306 61.2162 4.04221C61.2285 4.09136 61.2469 4.12822 61.2715 4.16509C61.296 4.1958 61.3268 4.22038 61.3575 4.23267C61.3944 4.24495 61.4312 4.25724 61.4742 4.25724C61.5049 4.25724 61.5357 4.2511 61.5602 4.23881C61.5909 4.22652 61.6094 4.20809 61.634 4.18966C61.6524 4.16508 61.677 4.14051 61.6892 4.10979C61.7015 4.07907 61.7138 4.04221 61.72 4.00535H61.8858V3.99921ZM50.858 5.82388H50.3788V6.69628H50.2006V5.67028H51.0361V6.69628H50.858V5.82388ZM52.013 6.18021C52.013 6.12491 52.0068 6.06962 51.9945 6.02662C51.9823 5.97747 51.9638 5.93446 51.9392 5.90374C51.9147 5.86688 51.884 5.84231 51.8471 5.82388C51.8102 5.80544 51.7672 5.79316 51.7181 5.79316C51.6689 5.79316 51.6259 5.80544 51.5891 5.82388C51.5522 5.84231 51.5215 5.87302 51.4969 5.90374C51.4723 5.9406 51.4539 5.97747 51.4416 6.02662C51.4293 6.07577 51.4232 6.12491 51.4232 6.18021C51.4232 6.2355 51.4293 6.29079 51.4416 6.33994C51.4539 6.38909 51.4723 6.4321 51.4969 6.46282C51.5215 6.49968 51.5522 6.52425 51.5891 6.54268C51.6259 6.56112 51.6689 6.5734 51.7181 6.5734C51.7672 6.5734 51.8102 6.56112 51.8471 6.54268C51.884 6.52425 51.9147 6.49353 51.9392 6.46282C51.9638 6.42595 51.9823 6.38909 51.9945 6.33994C52.0068 6.29079 52.013 6.2355 52.013 6.18021ZM52.1911 6.18021C52.1911 6.26622 52.1788 6.33994 52.1604 6.40752C52.1358 6.4751 52.1051 6.5304 52.0683 6.57955C52.0314 6.6287 51.9761 6.66556 51.9147 6.69013C51.8532 6.71471 51.7918 6.72699 51.7119 6.72699C51.6382 6.72699 51.5706 6.71471 51.5092 6.69013C51.4478 6.66556 51.3986 6.6287 51.3617 6.57955C51.3187 6.5304 51.288 6.4751 51.2696 6.40752C51.245 6.33994 51.2389 6.26622 51.2389 6.18021C51.2389 6.0942 51.2512 6.02047 51.2696 5.95289C51.288 5.88531 51.3249 5.83002 51.3617 5.78087C51.4047 5.73172 51.4539 5.69486 51.5092 5.67028C51.5706 5.64571 51.6321 5.63342 51.7119 5.63342C51.7857 5.63342 51.8532 5.64571 51.9147 5.67028C51.9761 5.69486 52.0253 5.73172 52.0683 5.78087C52.1113 5.83002 52.142 5.88531 52.1604 5.95289C52.1788 6.02047 52.1911 6.10034 52.1911 6.18021ZM53.7455 6.3338C53.7455 6.35837 53.7393 6.38295 53.7332 6.41367C53.7271 6.44439 53.7148 6.4751 53.7025 6.49968C53.6902 6.5304 53.6718 6.55497 53.6472 6.58569C53.6226 6.61026 53.598 6.63484 53.5673 6.65941C53.5366 6.67784 53.4997 6.69628 53.4567 6.70856C53.4137 6.72085 53.3646 6.72699 53.3093 6.72699C53.2786 6.72699 53.2478 6.72085 53.2171 6.71471C53.1864 6.70856 53.1495 6.69628 53.1188 6.67784C53.0881 6.65941 53.0574 6.64098 53.0267 6.61026C52.996 6.58569 52.9714 6.54883 52.953 6.50582C52.9345 6.46282 52.9161 6.41981 52.9038 6.36452C52.8915 6.30922 52.8854 6.24779 52.8854 6.18021C52.8854 6.0942 52.8977 6.02047 52.9222 5.95289C52.9468 5.88531 52.9775 5.82388 53.0205 5.78087C53.0635 5.73172 53.1065 5.69486 53.1618 5.67028C53.2171 5.64571 53.2724 5.63342 53.3339 5.63342C53.3892 5.63342 53.4322 5.63957 53.4752 5.65185C53.5182 5.66414 53.555 5.67643 53.5857 5.701C53.6165 5.71943 53.641 5.74401 53.6656 5.76858C53.684 5.79316 53.7025 5.81773 53.7148 5.84845C53.7271 5.87302 53.7393 5.90374 53.7455 5.93446C53.7516 5.96518 53.7578 5.98975 53.7578 6.01433H53.5919C53.5857 5.94675 53.5612 5.89146 53.5182 5.84845C53.4813 5.81159 53.426 5.78701 53.3523 5.78701C53.3031 5.78701 53.2601 5.7993 53.2233 5.81773C53.1864 5.83616 53.1557 5.86688 53.1311 5.90374C53.1065 5.9406 53.0881 5.98361 53.0758 6.03276C53.0635 6.08191 53.0574 6.1372 53.0574 6.19864C53.0574 6.26622 53.0635 6.32766 53.0758 6.37681C53.0881 6.42595 53.1065 6.46282 53.1311 6.49968C53.1557 6.5304 53.1864 6.55497 53.2171 6.56726C53.254 6.57955 53.2909 6.59183 53.3339 6.59183C53.3646 6.59183 53.3953 6.58569 53.4199 6.5734C53.4444 6.56112 53.469 6.54268 53.4936 6.52425C53.5182 6.49968 53.5366 6.4751 53.5489 6.44439C53.5612 6.41367 53.5735 6.3768 53.5796 6.33994H53.7455V6.3338ZM54.6425 6.18021C54.6425 6.12491 54.6363 6.06962 54.624 6.02662C54.6117 5.97747 54.5933 5.93446 54.5687 5.90374C54.5442 5.86688 54.5134 5.84231 54.4766 5.82388C54.4397 5.80544 54.3967 5.79316 54.3476 5.79316C54.2984 5.79316 54.2554 5.80544 54.2185 5.82388C54.1817 5.84231 54.151 5.87302 54.1264 5.90374C54.1018 5.9406 54.0834 5.97747 54.0711 6.02662C54.0588 6.07577 54.0527 6.12491 54.0527 6.18021C54.0527 6.2355 54.0588 6.29079 54.0711 6.33994C54.0834 6.38909 54.1018 6.4321 54.1264 6.46282C54.151 6.49968 54.1817 6.52425 54.2185 6.54268C54.2554 6.56112 54.2984 6.5734 54.3476 6.5734C54.3967 6.5734 54.4397 6.56112 54.4766 6.54268C54.5134 6.52425 54.5442 6.49353 54.5687 6.46282C54.5933 6.42595 54.6117 6.38909 54.624 6.33994C54.6363 6.29079 54.6425 6.2355 54.6425 6.18021ZM54.8145 6.18021C54.8145 6.26622 54.8022 6.33994 54.7838 6.40752C54.7592 6.4751 54.7285 6.5304 54.6916 6.57955C54.6547 6.6287 54.5995 6.66556 54.538 6.69013C54.4766 6.71471 54.4151 6.72699 54.3353 6.72699C54.2554 6.72699 54.194 6.71471 54.1325 6.69013C54.0711 6.66556 54.0219 6.6287 53.9851 6.57955C53.9482 6.5304 53.9114 6.4751 53.8929 6.40752C53.8684 6.33994 53.8622 6.26622 53.8622 6.18021C53.8622 6.0942 53.8745 6.02047 53.8929 5.95289C53.9114 5.88531 53.9482 5.83002 53.9851 5.78087C54.0281 5.73172 54.0772 5.69486 54.1325 5.67028C54.194 5.64571 54.2554 5.63342 54.3353 5.63342C54.4151 5.63342 54.4766 5.64571 54.538 5.67028C54.5995 5.69486 54.6486 5.73172 54.6916 5.78087C54.7346 5.83002 54.7653 5.88531 54.7838 5.95289C54.8022 6.02047 54.8145 6.10034 54.8145 6.18021ZM55.2814 6.10034H55.3736C55.3981 6.10034 55.4227 6.10034 55.4473 6.0942C55.4719 6.08805 55.4964 6.08191 55.5149 6.06962C55.5333 6.05733 55.5517 6.0389 55.564 6.02047C55.5763 6.00204 55.5824 5.97747 55.5824 5.94675C55.5824 5.92832 55.5763 5.90374 55.5702 5.88531C55.564 5.86688 55.5517 5.84845 55.5333 5.83616C55.5149 5.82388 55.4964 5.81159 55.4719 5.7993C55.4473 5.78701 55.4166 5.78701 55.3797 5.78701C55.3613 5.78701 55.3428 5.78701 55.3183 5.79316C55.2937 5.7993 55.2691 5.80544 55.2445 5.82388C55.22 5.83616 55.2015 5.85459 55.1831 5.88531C55.1647 5.90989 55.1524 5.9406 55.1462 5.98361H54.9865C54.9926 5.93446 54.9988 5.8976 55.0172 5.86074C55.0295 5.82388 55.0479 5.79316 55.0725 5.76858C55.0909 5.74401 55.1155 5.71943 55.1462 5.70715C55.1708 5.68871 55.2015 5.67643 55.2261 5.66414C55.2568 5.65185 55.2814 5.64571 55.3121 5.63957C55.3428 5.63342 55.3674 5.63342 55.392 5.63342C55.4411 5.63342 55.4841 5.63957 55.5271 5.65185C55.5702 5.66414 55.6132 5.68257 55.65 5.70715C55.6869 5.73172 55.7176 5.76244 55.736 5.7993C55.7606 5.83616 55.7668 5.87917 55.7668 5.92832C55.7668 5.95904 55.7606 5.98975 55.7545 6.01433C55.7483 6.0389 55.736 6.05733 55.7176 6.07577C55.7053 6.0942 55.6869 6.10648 55.6685 6.12491C55.65 6.1372 55.6316 6.14949 55.6132 6.15563V6.16178C55.6316 6.16792 55.65 6.17406 55.6746 6.18021C55.6992 6.1925 55.7176 6.20478 55.736 6.22321C55.7545 6.24164 55.7729 6.26622 55.7852 6.29079C55.7975 6.32151 55.8036 6.35223 55.8036 6.39524C55.8036 6.45053 55.7913 6.50582 55.7668 6.54268C55.7422 6.58569 55.7115 6.62255 55.6685 6.64713C55.6316 6.6717 55.5824 6.69628 55.5333 6.70856C55.4841 6.72085 55.435 6.72699 55.3797 6.72699C55.3121 6.72699 55.2568 6.72085 55.2015 6.70242C55.1462 6.68399 55.1032 6.65941 55.0664 6.6287C55.0295 6.59798 54.9988 6.56112 54.9742 6.51811C54.9496 6.4751 54.9374 6.42595 54.9312 6.37681H55.1094C55.1155 6.41367 55.1217 6.44439 55.1401 6.46896C55.1585 6.49354 55.177 6.51197 55.2015 6.5304C55.2261 6.54268 55.2507 6.55497 55.2814 6.56112C55.3121 6.56726 55.3428 6.5734 55.3736 6.5734C55.4534 6.5734 55.5149 6.55497 55.5579 6.52425C55.6009 6.49353 55.6193 6.45053 55.6193 6.39524C55.6193 6.37066 55.6132 6.35223 55.607 6.3338C55.6009 6.31537 55.5886 6.29694 55.5702 6.28465C55.5517 6.27236 55.5271 6.26008 55.5026 6.25393C55.4719 6.24779 55.4411 6.24164 55.3981 6.24164C55.392 6.24164 55.3797 6.24164 55.3674 6.24164C55.3551 6.24164 55.349 6.24164 55.3367 6.24164C55.3244 6.24164 55.3183 6.24164 55.306 6.24164C55.2937 6.24164 55.2875 6.24164 55.2753 6.24164V6.10034H55.2814ZM56.8542 6.69628H56.0616V6.94817H55.8958V6.54268H56.0309C56.0616 6.4751 56.0801 6.40138 56.0985 6.3338C56.1169 6.26008 56.1292 6.18635 56.1354 6.11877C56.1415 6.04505 56.1477 5.97132 56.1538 5.8976C56.1538 5.82388 56.1599 5.75015 56.1599 5.67643H56.8788V6.54883H57.0262V6.95431H56.8603V6.69628H56.8542ZM56.7006 6.54268V5.82388H56.3258C56.3197 5.87917 56.3135 5.9406 56.3135 6.00204C56.3074 6.06348 56.3012 6.12491 56.2951 6.18635C56.289 6.24779 56.2767 6.30922 56.2644 6.37066C56.2521 6.4321 56.2337 6.48739 56.2152 6.54268H56.7006ZM57.1921 5.97747C57.1921 5.91603 57.2044 5.86074 57.2289 5.81773C57.2535 5.77473 57.2781 5.73786 57.315 5.71329C57.3518 5.68871 57.3948 5.66414 57.444 5.658C57.4931 5.64571 57.5484 5.63957 57.6099 5.63957C57.659 5.63957 57.7081 5.64571 57.7573 5.65185C57.8064 5.66414 57.8495 5.67643 57.8802 5.701C57.917 5.72558 57.9478 5.75015 57.9662 5.78701C57.9908 5.82387 57.9969 5.86688 57.9969 5.91603V6.51197C57.9969 6.5304 58.003 6.54268 58.0092 6.55497C58.0153 6.56726 58.0338 6.5734 58.0522 6.5734C58.0583 6.5734 58.0706 6.5734 58.0829 6.5734C58.0952 6.5734 58.1013 6.56726 58.1136 6.56726V6.69013C58.1013 6.69628 58.0829 6.69628 58.0706 6.70242C58.0583 6.70856 58.0399 6.70856 58.0215 6.70856C57.9908 6.70856 57.9662 6.70856 57.9416 6.70242C57.917 6.69628 57.8986 6.69013 57.8863 6.67784C57.874 6.66556 57.8617 6.65327 57.8495 6.6287C57.8433 6.61026 57.8372 6.58569 57.831 6.56112C57.8064 6.58569 57.788 6.60412 57.7634 6.6287C57.7389 6.64713 57.7143 6.66556 57.6836 6.68399C57.6529 6.69628 57.6221 6.70856 57.5853 6.72085C57.5484 6.72699 57.5054 6.73314 57.4624 6.73314C57.4255 6.73314 57.3825 6.72699 57.3457 6.71471C57.3088 6.70242 57.2719 6.68399 57.2474 6.65941C57.2167 6.63484 57.1921 6.60412 57.1736 6.56726C57.1552 6.5304 57.1491 6.48739 57.1491 6.43824C57.1491 6.38295 57.1552 6.33994 57.1736 6.30308C57.1921 6.26622 57.2167 6.22936 57.2412 6.20478C57.2719 6.18021 57.3027 6.15563 57.3395 6.14335C57.3764 6.13106 57.4133 6.11877 57.4501 6.11263L57.7389 6.07577C57.7634 6.06962 57.788 6.06348 57.8003 6.04505C57.8187 6.02662 57.8249 5.9959 57.8249 5.95904C57.8249 5.8976 57.8064 5.85459 57.7634 5.82388C57.7204 5.7993 57.6651 5.78087 57.5914 5.78087C57.5116 5.78087 57.4563 5.7993 57.4194 5.83002C57.3825 5.86074 57.358 5.90989 57.3518 5.97747H57.1921ZM57.8249 6.17406C57.8126 6.18635 57.7942 6.1925 57.7696 6.19864C57.7512 6.20478 57.7266 6.21093 57.702 6.21707C57.6774 6.22321 57.6529 6.22321 57.6221 6.22936C57.5914 6.2355 57.5668 6.2355 57.5361 6.24164C57.5054 6.24779 57.4747 6.25393 57.4501 6.26008C57.4255 6.26622 57.401 6.27851 57.3825 6.29079C57.3641 6.30308 57.3457 6.32151 57.3334 6.33994C57.3211 6.35837 57.315 6.38295 57.315 6.40752C57.315 6.43824 57.3211 6.46282 57.3272 6.48739C57.3395 6.51197 57.3518 6.5304 57.3641 6.54268C57.3825 6.55497 57.401 6.56726 57.4255 6.57955C57.4501 6.58569 57.4747 6.59183 57.4993 6.59183C57.5177 6.59183 57.5361 6.59183 57.5607 6.58569C57.5853 6.57955 57.6037 6.5734 57.6283 6.56726C57.6529 6.56112 57.6774 6.54883 57.6959 6.53654C57.7204 6.52425 57.7389 6.50582 57.7573 6.48739C57.7757 6.46896 57.788 6.45053 57.8003 6.42595C57.8126 6.40138 57.8187 6.37681 57.8187 6.34609V6.17406H57.8249ZM58.2857 5.67028H58.4638V6.08191H58.943V5.66414H59.1212V6.69628H58.943V6.2355H58.4638V6.69628H58.2857V5.67028ZM59.3792 5.67028H59.5574V6.45667H59.5635L60.0673 5.67028H60.2701V6.69628H60.0919V5.90989H60.0857L59.582 6.69628H59.3792V5.67028ZM61.6831 6.18021C61.6831 6.12491 61.677 6.06962 61.6647 6.02662C61.6524 5.97747 61.634 5.93446 61.6094 5.90374C61.5848 5.86688 61.5541 5.84231 61.5172 5.82388C61.4804 5.80544 61.4374 5.79316 61.3882 5.79316C61.3391 5.79316 61.296 5.80544 61.2592 5.82388C61.2223 5.84231 61.1916 5.87302 61.167 5.90374C61.1425 5.9406 61.124 5.97747 61.1117 6.02662C61.0995 6.07577 61.0933 6.12491 61.0933 6.18021C61.0933 6.2355 61.0995 6.29079 61.1117 6.33994C61.124 6.38909 61.1425 6.4321 61.167 6.46282C61.1916 6.49968 61.2223 6.52425 61.2592 6.54268C61.296 6.56112 61.3391 6.5734 61.3882 6.5734C61.4374 6.5734 61.4804 6.56112 61.5172 6.54268C61.5541 6.52425 61.5848 6.49353 61.6094 6.46282C61.634 6.42595 61.6524 6.38909 61.6647 6.33994C61.677 6.29079 61.6831 6.2355 61.6831 6.18021ZM60.5281 5.67028H60.7063V6.10648H60.9029C60.909 6.03276 60.9274 5.97132 60.952 5.90989C60.9766 5.84845 61.0073 5.80544 61.0503 5.76244C61.0933 5.71943 61.1425 5.68871 61.1978 5.67028C61.253 5.64571 61.3145 5.63957 61.3821 5.63957C61.4558 5.63957 61.5234 5.65185 61.5848 5.67643C61.6462 5.701 61.6954 5.73786 61.7323 5.78701C61.7753 5.83616 61.806 5.89146 61.8244 5.95904C61.849 6.02662 61.8551 6.10034 61.8551 6.18635C61.8551 6.27236 61.8428 6.34609 61.8244 6.41367C61.7998 6.48125 61.7691 6.53654 61.7323 6.58569C61.6954 6.63484 61.6401 6.6717 61.5848 6.69628C61.5234 6.72085 61.4619 6.73314 61.3821 6.73314C61.3145 6.73314 61.2469 6.72085 61.1916 6.70242C61.1363 6.67784 61.0872 6.64713 61.0442 6.60412C61.0012 6.56112 60.9704 6.51197 60.9459 6.45053C60.9213 6.38909 60.909 6.32151 60.9029 6.24779H60.7063V6.70242H60.5281V5.67028ZM52.9099 8.15847H52.4307V9.03087H52.2526V8.00488H53.0881V9.03087H52.9099V8.15847ZM54.0404 8.15847H53.6472L53.641 8.40422C53.6349 8.52709 53.6288 8.63153 53.6103 8.71754C53.598 8.80355 53.5735 8.86499 53.5489 8.92028C53.5243 8.96943 53.4936 9.00629 53.4506 9.03087C53.4137 9.0493 53.3707 9.06159 53.3216 9.06159C53.3031 9.06159 53.2909 9.06159 53.2724 9.05544C53.2601 9.0493 53.2478 9.04316 53.2417 9.03701V8.88342C53.2663 8.89571 53.2909 8.89571 53.3093 8.89571C53.3216 8.89571 53.3339 8.89571 53.3461 8.88956C53.3584 8.88342 53.3707 8.87728 53.383 8.86499C53.3953 8.8527 53.4076 8.83427 53.4137 8.8097C53.426 8.78512 53.4322 8.7544 53.4383 8.71754C53.4444 8.68068 53.4506 8.63153 53.4567 8.58238C53.4629 8.52709 53.4629 8.46565 53.469 8.39193L53.4752 8.01102H54.2124V9.03087H54.0342V8.15847H54.0404ZM55.3551 8.70525C55.349 8.74826 55.3306 8.79127 55.306 8.83427C55.2814 8.87728 55.2507 8.91414 55.2138 8.951C55.177 8.98786 55.1278 9.01244 55.0787 9.03087C55.0295 9.0493 54.9681 9.06159 54.9066 9.06159C54.8391 9.06159 54.7715 9.0493 54.7162 9.03087C54.6609 9.00629 54.6056 8.97558 54.5626 8.92643C54.5196 8.87728 54.4889 8.82198 54.4643 8.7544C54.4397 8.68682 54.4274 8.60696 54.4274 8.50866C54.4274 8.44722 54.4336 8.39193 54.4459 8.33663C54.4582 8.28749 54.4766 8.23834 54.5012 8.20147C54.5257 8.15847 54.5503 8.12775 54.581 8.09703C54.6117 8.06631 54.6425 8.04174 54.6793 8.02331C54.7162 8.00488 54.7469 7.99259 54.7838 7.9803C54.8206 7.96801 54.8513 7.96801 54.8882 7.96801C54.9558 7.96801 55.0234 7.9803 55.0787 7.99873C55.134 8.01716 55.1892 8.05403 55.2261 8.09703C55.2691 8.14004 55.2998 8.19533 55.3244 8.25677C55.349 8.32435 55.3613 8.39807 55.3613 8.48408V8.57009H54.6117C54.6117 8.61924 54.6179 8.66839 54.6302 8.70525C54.6425 8.74826 54.6609 8.77898 54.6855 8.8097C54.71 8.84042 54.7408 8.85885 54.7776 8.87728C54.8145 8.88957 54.8513 8.90185 54.9005 8.90185C54.9435 8.90185 54.9865 8.89571 55.0172 8.88342C55.0479 8.87113 55.0725 8.8527 55.0971 8.83427C55.1155 8.81584 55.134 8.79127 55.1462 8.76669C55.1585 8.74212 55.1708 8.71754 55.177 8.69297H55.3551V8.70525ZM55.1892 8.43493C55.1892 8.38578 55.1831 8.34278 55.1647 8.29977C55.1524 8.26291 55.134 8.22605 55.1094 8.20147C55.0848 8.1769 55.0541 8.15233 55.0234 8.14004C54.9865 8.12775 54.9496 8.12161 54.9066 8.12161C54.8636 8.12161 54.8268 8.12775 54.7961 8.14618C54.7592 8.15847 54.7346 8.18304 54.7039 8.21376C54.6793 8.23834 54.6547 8.2752 54.6425 8.31206C54.6302 8.34892 54.6179 8.39193 54.6117 8.43493H55.1892ZM55.8528 7.60554C55.8589 7.64854 55.8773 7.67926 55.9019 7.70384C55.9265 7.72841 55.9695 7.7407 56.0186 7.7407C56.0678 7.7407 56.1108 7.72841 56.1354 7.70384C56.1599 7.67926 56.1784 7.64854 56.1845 7.60554H56.3504C56.3504 7.6424 56.3443 7.67926 56.3258 7.70998C56.3074 7.7407 56.289 7.76527 56.2582 7.78985C56.2275 7.81442 56.1968 7.82671 56.1538 7.839C56.1108 7.85128 56.0678 7.85743 56.0186 7.85743C55.9695 7.85743 55.9265 7.85128 55.8835 7.839C55.8405 7.82671 55.8098 7.80828 55.779 7.78985C55.7483 7.76527 55.7299 7.7407 55.7115 7.70998C55.693 7.67926 55.6869 7.6424 55.6869 7.60554H55.8528ZM55.5702 8.00488H55.7483V8.79127H55.7545L56.2582 8.00488H56.461V9.03087H56.2828V8.24448H56.2767L55.7729 9.03087H55.5702V8.00488ZM57.4133 8.15847H57.0201L57.0139 8.40422C57.0078 8.52709 57.0016 8.63153 56.9832 8.71754C56.9709 8.80355 56.9463 8.86499 56.9218 8.92028C56.8972 8.96943 56.8665 9.00629 56.8235 9.03087C56.7866 9.0493 56.7436 9.06159 56.6944 9.06159C56.676 9.06159 56.6637 9.06159 56.6453 9.05544C56.633 9.0493 56.6207 9.04316 56.6146 9.03701V8.88342C56.6392 8.89571 56.6637 8.89571 56.6822 8.89571C56.6944 8.89571 56.7067 8.89571 56.719 8.88956C56.7313 8.88342 56.7436 8.87728 56.7559 8.86499C56.7682 8.8527 56.7805 8.83427 56.7866 8.8097C56.7989 8.78512 56.805 8.7544 56.8112 8.71754C56.8173 8.68068 56.8235 8.63153 56.8296 8.58238C56.8357 8.52709 56.8357 8.46565 56.8419 8.39193L56.848 8.01102H57.5853V9.03087H57.4071V8.15847H57.4133ZM57.8495 8.00488H58.0276V8.79127H58.0338L58.5375 8.00488H58.7403V9.03087H58.5621V8.24448H58.556L58.0522 9.03087H57.8495V8.00488ZM59.8093 8.66839C59.8093 8.69297 59.8031 8.71754 59.797 8.74826C59.7909 8.77898 59.7786 8.8097 59.7663 8.83427C59.754 8.86499 59.7356 8.88956 59.711 8.92028C59.6864 8.94486 59.6618 8.96943 59.6311 8.99401C59.6004 9.01244 59.5635 9.03087 59.5205 9.04316C59.4775 9.05544 59.4284 9.06159 59.3731 9.06159C59.3424 9.06159 59.3116 9.05544 59.2809 9.0493C59.2502 9.04316 59.2133 9.03087 59.1826 9.01244C59.1519 8.99401 59.1212 8.97558 59.0905 8.94486C59.0598 8.92028 59.0352 8.88342 59.0167 8.84042C58.9983 8.79741 58.9799 8.7544 58.9676 8.69911C58.9553 8.64382 58.9492 8.58238 58.9492 8.5148C58.9492 8.42879 58.9615 8.35507 58.986 8.28749C59.0106 8.21991 59.0413 8.15847 59.0843 8.11546C59.1273 8.06631 59.1703 8.02945 59.2256 8.00488C59.2809 7.9803 59.3362 7.96801 59.3977 7.96801C59.4529 7.96801 59.496 7.97416 59.539 7.98645C59.582 7.99873 59.6188 8.01102 59.6495 8.0356C59.6803 8.05403 59.7048 8.0786 59.7294 8.10318C59.7478 8.12775 59.7663 8.15232 59.7786 8.18304C59.7909 8.20762 59.8031 8.23834 59.8093 8.26906C59.8154 8.29977 59.8216 8.32435 59.8216 8.34892H59.6557C59.6495 8.28134 59.625 8.22605 59.582 8.18304C59.5451 8.14618 59.4898 8.12161 59.4161 8.12161C59.3669 8.12161 59.3239 8.13389 59.2871 8.15232C59.2502 8.17076 59.2195 8.20147 59.1949 8.23834C59.1703 8.2752 59.1519 8.3182 59.1396 8.36735C59.1273 8.4165 59.1212 8.4718 59.1212 8.53323C59.1212 8.60081 59.1273 8.66225 59.1396 8.7114C59.1519 8.76055 59.1703 8.79741 59.1949 8.83427C59.2195 8.86499 59.2502 8.88956 59.2809 8.90185C59.3178 8.91414 59.3547 8.92643 59.3977 8.92643C59.4284 8.92643 59.4591 8.92028 59.4837 8.908C59.5082 8.89571 59.5328 8.87728 59.5574 8.85885C59.582 8.83427 59.6004 8.8097 59.6127 8.77898C59.625 8.74826 59.6373 8.7114 59.6434 8.67454H59.8093V8.66839ZM60.2578 8.15847H59.9014V8.00488H60.7861V8.15847H60.4298V9.03087H60.2516V8.15847H60.2578ZM60.9643 8.31206C60.9643 8.25062 60.9766 8.19533 61.0012 8.15232C61.0257 8.10932 61.0503 8.07246 61.0872 8.04788C61.124 8.02331 61.167 7.99873 61.2162 7.99259C61.2653 7.9803 61.3206 7.97416 61.3821 7.97416C61.4312 7.97416 61.4804 7.9803 61.5295 7.98645C61.5787 7.99873 61.6217 8.01102 61.6524 8.0356C61.6892 8.06017 61.72 8.08474 61.7384 8.12161C61.763 8.15847 61.7753 8.20147 61.7753 8.25062V8.84656C61.7753 8.86499 61.7814 8.87728 61.7875 8.88956C61.7998 8.90185 61.8121 8.908 61.8306 8.908C61.8367 8.908 61.849 8.908 61.8613 8.908C61.8736 8.908 61.8797 8.90185 61.892 8.90185V9.02473C61.8797 9.03087 61.8613 9.03087 61.849 9.03701C61.8367 9.04316 61.8183 9.04316 61.7998 9.04316C61.7691 9.04316 61.7445 9.04316 61.72 9.03701C61.6954 9.03087 61.677 9.02473 61.6647 9.01244C61.6524 9.00015 61.6401 8.98786 61.6278 8.96329C61.6217 8.94486 61.6155 8.92028 61.6094 8.89571C61.5848 8.92028 61.5664 8.93871 61.5418 8.96329C61.5172 8.98172 61.4926 9.00015 61.4619 9.01858C61.4312 9.03087 61.4005 9.04316 61.3636 9.05544C61.3268 9.06159 61.2838 9.06773 61.2408 9.06773C61.2039 9.06773 61.1609 9.06159 61.124 9.0493C61.0872 9.03701 61.0503 9.01858 61.0257 8.99401C60.995 8.96943 60.9704 8.93871 60.952 8.90185C60.9336 8.86499 60.9274 8.82198 60.9274 8.77284C60.9274 8.71754 60.9336 8.67454 60.952 8.63768C60.9704 8.60081 60.995 8.56395 61.0196 8.53938C61.0503 8.5148 61.081 8.49023 61.1179 8.47794C61.1547 8.46565 61.1916 8.45336 61.2285 8.44722L61.5172 8.41036C61.5418 8.40422 61.5664 8.39807 61.5787 8.37964C61.5971 8.36121 61.6032 8.33049 61.6032 8.29363C61.6032 8.23219 61.5848 8.18919 61.5418 8.15847C61.4988 8.13389 61.4435 8.11546 61.3698 8.11546C61.2899 8.11546 61.2346 8.13389 61.1978 8.16461C61.1609 8.19533 61.1363 8.24448 61.1302 8.31206H60.9643ZM61.5971 8.50866C61.5848 8.52095 61.5664 8.52709 61.5418 8.53323C61.5234 8.53938 61.4988 8.54552 61.4742 8.55166C61.4496 8.55781 61.4251 8.55781 61.3943 8.56395C61.3636 8.57009 61.3391 8.57009 61.3083 8.57624C61.2776 8.58238 61.2469 8.58853 61.2223 8.59467C61.1978 8.60081 61.1732 8.6131 61.1547 8.62539C61.1363 8.63767 61.1179 8.65611 61.1056 8.67454C61.0933 8.69297 61.0872 8.71754 61.0872 8.74212C61.0872 8.77284 61.0933 8.79741 61.0995 8.82199C61.1117 8.84656 61.124 8.86499 61.1363 8.87728C61.1547 8.88957 61.1732 8.90185 61.1978 8.91414C61.2223 8.92643 61.2469 8.92643 61.2715 8.92643C61.2899 8.92643 61.3083 8.92643 61.3329 8.92028C61.3575 8.91414 61.3759 8.908 61.4005 8.90185C61.4251 8.89571 61.4496 8.88342 61.4681 8.87113C61.4926 8.85885 61.5111 8.84042 61.5295 8.82199C61.5479 8.80355 61.5602 8.78512 61.5725 8.76055C61.5848 8.73597 61.5909 8.7114 61.5909 8.68068V8.50866H61.5971Z" fill="white"/>
<path d="M24.1641 89.4062C24.888 89.4062 25.4115 89.7044 25.7344 90.3008C25.9844 90.7617 26.1094 91.3932 26.1094 92.1953C26.1094 92.9557 25.9961 93.5846 25.7695 94.082C25.4414 94.7956 24.9049 95.1523 24.1602 95.1523C23.4883 95.1523 22.9883 94.8607 22.6602 94.2773C22.3867 93.7904 22.25 93.1367 22.25 92.3164C22.25 91.681 22.332 91.1354 22.4961 90.6797C22.8034 89.8307 23.3594 89.4062 24.1641 89.4062ZM24.1562 94.5117C24.5208 94.5117 24.8112 94.3503 25.0273 94.0273C25.2435 93.7044 25.3516 93.1029 25.3516 92.2227C25.3516 91.5872 25.2734 91.0651 25.1172 90.6562C24.9609 90.2448 24.6576 90.0391 24.207 90.0391C23.793 90.0391 23.4896 90.2344 23.2969 90.625C23.1068 91.013 23.0117 91.5859 23.0117 92.3438C23.0117 92.9141 23.0729 93.3724 23.1953 93.7188C23.3828 94.2474 23.7031 94.5117 24.1562 94.5117ZM27.2188 91.0391V90.5C27.7266 90.4505 28.0807 90.3685 28.2812 90.2539C28.4818 90.1367 28.6315 89.862 28.7305 89.4297H29.2852V95H28.5352V91.0391H27.2188ZM31.5898 94.1484H32.4062V95H31.5898V94.1484ZM33.8984 91.0391V90.5C34.4062 90.4505 34.7604 90.3685 34.9609 90.2539C35.1615 90.1367 35.3112 89.862 35.4102 89.4297H35.9648V95H35.2148V91.0391H33.8984ZM37.8359 95C37.862 94.5182 37.9609 94.099 38.1328 93.7422C38.3073 93.3854 38.6458 93.0612 39.1484 92.7695L39.8984 92.3359C40.2344 92.1406 40.4701 91.974 40.6055 91.8359C40.819 91.6198 40.9258 91.3724 40.9258 91.0938C40.9258 90.7682 40.8281 90.5104 40.6328 90.3203C40.4375 90.1276 40.1771 90.0312 39.8516 90.0312C39.3698 90.0312 39.0365 90.2135 38.8516 90.5781C38.7526 90.7734 38.6979 91.0443 38.6875 91.3906H37.9727C37.9805 90.9036 38.0703 90.5065 38.2422 90.1992C38.5469 89.6576 39.0846 89.3867 39.8555 89.3867C40.4961 89.3867 40.9635 89.5599 41.2578 89.9062C41.5547 90.2526 41.7031 90.638 41.7031 91.0625C41.7031 91.5104 41.5456 91.8932 41.2305 92.2109C41.0482 92.3958 40.7214 92.6198 40.25 92.8828L39.7148 93.1797C39.4596 93.3203 39.2591 93.4544 39.1133 93.582C38.8529 93.8086 38.6888 94.0599 38.6211 94.3359H41.6758V95H37.8359ZM42.7227 94.1484H43.5391V95H42.7227V94.1484ZM44.5156 95C44.5417 94.5182 44.6406 94.099 44.8125 93.7422C44.987 93.3854 45.3255 93.0612 45.8281 92.7695L46.5781 92.3359C46.9141 92.1406 47.1497 91.974 47.2852 91.8359C47.4987 91.6198 47.6055 91.3724 47.6055 91.0938C47.6055 90.7682 47.5078 90.5104 47.3125 90.3203C47.1172 90.1276 46.8568 90.0312 46.5312 90.0312C46.0495 90.0312 45.7161 90.2135 45.5312 90.5781C45.4323 90.7734 45.3776 91.0443 45.3672 91.3906H44.6523C44.6602 90.9036 44.75 90.5065 44.9219 90.1992C45.2266 89.6576 45.7643 89.3867 46.5352 89.3867C47.1758 89.3867 47.6432 89.5599 47.9375 89.9062C48.2344 90.2526 48.3828 90.638 48.3828 91.0625C48.3828 91.5104 48.2253 91.8932 47.9102 92.2109C47.7279 92.3958 47.401 92.6198 46.9297 92.8828L46.3945 93.1797C46.1393 93.3203 45.9388 93.4544 45.793 93.582C45.5326 93.8086 45.3685 94.0599 45.3008 94.3359H48.3555V95H44.5156ZM50.8828 89.4062C51.6068 89.4062 52.1302 89.7044 52.4531 90.3008C52.7031 90.7617 52.8281 91.3932 52.8281 92.1953C52.8281 92.9557 52.7148 93.5846 52.4883 94.082C52.1602 94.7956 51.6237 95.1523 50.8789 95.1523C50.207 95.1523 49.707 94.8607 49.3789 94.2773C49.1055 93.7904 48.9688 93.1367 48.9688 92.3164C48.9688 91.681 49.0508 91.1354 49.2148 90.6797C49.5221 89.8307 50.0781 89.4062 50.8828 89.4062ZM50.875 94.5117C51.2396 94.5117 51.5299 94.3503 51.7461 94.0273C51.9622 93.7044 52.0703 93.1029 52.0703 92.2227C52.0703 91.5872 51.9922 91.0651 51.8359 90.6562C51.6797 90.2448 51.3763 90.0391 50.9258 90.0391C50.5117 90.0391 50.2083 90.2344 50.0156 90.625C49.8255 91.013 49.7305 91.5859 49.7305 92.3438C49.7305 92.9141 49.7917 93.3724 49.9141 93.7188C50.1016 94.2474 50.4219 94.5117 50.875 94.5117ZM53.4219 95C53.4479 94.5182 53.5469 94.099 53.7188 93.7422C53.8932 93.3854 54.2318 93.0612 54.7344 92.7695L55.4844 92.3359C55.8203 92.1406 56.056 91.974 56.1914 91.8359C56.4049 91.6198 56.5117 91.3724 56.5117 91.0938C56.5117 90.7682 56.4141 90.5104 56.2188 90.3203C56.0234 90.1276 55.763 90.0312 55.4375 90.0312C54.9557 90.0312 54.6224 90.2135 54.4375 90.5781C54.3385 90.7734 54.2839 91.0443 54.2734 91.3906H53.5586C53.5664 90.9036 53.6562 90.5065 53.8281 90.1992C54.1328 89.6576 54.6706 89.3867 55.4414 89.3867C56.082 89.3867 56.5495 89.5599 56.8438 89.9062C57.1406 90.2526 57.2891 90.638 57.2891 91.0625C57.2891 91.5104 57.1315 91.8932 56.8164 92.2109C56.6341 92.3958 56.3073 92.6198 55.8359 92.8828L55.3008 93.1797C55.0456 93.3203 54.8451 93.4544 54.6992 93.582C54.4388 93.8086 54.2747 94.0599 54.207 94.3359H57.2617V95H53.4219ZM59.7031 95.1523C59.0417 95.1523 58.5612 94.9714 58.2617 94.6094C57.9648 94.2448 57.8164 93.8021 57.8164 93.2812H58.5508C58.582 93.6432 58.6497 93.9062 58.7539 94.0703C58.9362 94.3646 59.2656 94.5117 59.7422 94.5117C60.112 94.5117 60.4089 94.4128 60.6328 94.2148C60.8568 94.0169 60.9688 93.7617 60.9688 93.4492C60.9688 93.0638 60.8503 92.7943 60.6133 92.6406C60.3789 92.487 60.0521 92.4102 59.6328 92.4102C59.5859 92.4102 59.5378 92.4115 59.4883 92.4141C59.4414 92.4141 59.3932 92.4154 59.3438 92.418V91.7969C59.4167 91.8047 59.4779 91.8099 59.5273 91.8125C59.5768 91.8151 59.6302 91.8164 59.6875 91.8164C59.9505 91.8164 60.1667 91.7747 60.3359 91.6914C60.6328 91.5456 60.7812 91.2852 60.7812 90.9102C60.7812 90.6315 60.6823 90.4167 60.4844 90.2656C60.2865 90.1146 60.056 90.0391 59.793 90.0391C59.3242 90.0391 59 90.1953 58.8203 90.5078C58.7214 90.6797 58.6654 90.9245 58.6523 91.2422H57.957C57.957 90.8255 58.0404 90.4714 58.207 90.1797C58.4935 89.6589 58.9974 89.3984 59.7188 89.3984C60.2891 89.3984 60.7305 89.526 61.043 89.7812C61.3555 90.0339 61.5117 90.401 61.5117 90.8828C61.5117 91.2266 61.4193 91.5052 61.2344 91.7188C61.1198 91.8516 60.9714 91.9557 60.7891 92.0312C61.0833 92.112 61.3125 92.2682 61.4766 92.5C61.6432 92.7292 61.7266 93.0104 61.7266 93.3438C61.7266 93.8776 61.5508 94.3125 61.1992 94.6484C60.8477 94.9844 60.349 95.1523 59.7031 95.1523Z" fill="white"/>
</g>
<defs>
<clipPath id="clip0_201_163">
<rect width="65" height="97.5" fill="white"/>
</clipPath>
</defs>
</svg>
