<svg width="148" height="40" viewBox="0 0 148 40" fill="none" xmlns="http://www.w3.org/2000/svg">
<path fill-rule="evenodd" clip-rule="evenodd" d="M0 20C0 8.95431 8.9543 0 20 0H128C139.046 0 148 8.95431 148 20C148 31.0457 139.046 40 128 40H20C8.9543 40 0 31.0457 0 20ZM138 20C138 28.2843 131.284 35 123 35C114.716 35 108 28.2843 108 20C108 11.7157 114.716 5 123 5C131.284 5 138 11.7157 138 20ZM25 35C33.2843 35 40 28.2843 40 20C40 11.7157 33.2843 5 25 5C16.7157 5 10 11.7157 10 20C10 28.2843 16.7157 35 25 35Z" fill="#FFD79B"/>
</svg>
