<svg width="208" height="207" viewBox="0 0 208 207" fill="none" xmlns="http://www.w3.org/2000/svg">
<g id="Group 13">
<path id="[Linked] Vector 52" d="M122.211 15.4898L108.318 41.4684M88.3937 14.7917L102.736 41.8585" stroke="black" stroke-width="3.72362"/>
<path id="[Linked] Vector 53" d="M177.392 57.7802L147.956 58.9776M160.847 28.2782L144.789 54.3638" stroke="black" stroke-width="3.72362"/>
<path id="[Linked] Vector 54" d="M194.978 116.284L166.869 107.465M189.375 82.9271L165.447 102.053" stroke="black" stroke-width="3.72362"/>
<path id="[Linked] Vector 55" d="M165.011 175.652L150.663 149.922M183.876 147.577L153.352 145.015" stroke="black" stroke-width="3.72362"/>
<path id="[Linked] Vector 56" d="M87.8092 191.699L101.562 165.646M121.63 192.215L107.142 165.226" stroke="black" stroke-width="3.72362"/>
<path id="[Linked] Vector 57" d="M27.9197 156.617L54.6059 144.137M54.5808 177.433L59.3096 147.168" stroke="black" stroke-width="3.72362"/>
<path id="[Linked] Vector 58" d="M14.5773 89.1946L41.7645 100.542M17.1132 122.924L42.6861 106.062" stroke="black" stroke-width="3.72362"/>
<path id="[Linked] Vector 59" d="M43.4661 29.3891L61.5295 52.662M29.0493 59.9876L59.6111 57.9188" stroke="black" stroke-width="3.72362"/>
</g>
</svg>
