<svg width="347" height="345" viewBox="0 0 347 345" fill="none" xmlns="http://www.w3.org/2000/svg">
<rect x="103.125" y="100.3" width="141.266" height="141.266" fill="white"/>
<rect x="49.8926" y="47.0671" width="247.73" height="247.73" stroke="#FFC164" stroke-width="3.72362"/>
<line x1="175.62" y1="1.41284" x2="175.62" y2="39.5545" stroke="#FFC164" stroke-width="3.72362"/>
<line x1="175.62" y1="8.13819e-08" x2="175.62" y2="38.1416" stroke="#FFC164" stroke-width="3.72362"/>
<line x1="126.176" y1="1.41284" x2="126.176" y2="39.5545" stroke="#FFC164" stroke-width="3.72362"/>
<line x1="126.176" y1="8.13819e-08" x2="126.176" y2="38.1416" stroke="#FFC164" stroke-width="3.72362"/>
<line x1="76.7327" y1="8.13819e-08" x2="76.7327" y2="38.1416" stroke="#FFC164" stroke-width="3.72362"/>
<line x1="225.063" y1="8.13819e-08" x2="225.063" y2="38.1416" stroke="#FFC164" stroke-width="3.72362"/>
<line x1="274.506" y1="8.13819e-08" x2="274.506" y2="38.1416" stroke="#FFC164" stroke-width="3.72362"/>
<line x1="344.69" y1="167.137" x2="306.549" y2="167.137" stroke="#FFC164" stroke-width="3.72362"/>
<line x1="346.103" y1="167.143" x2="307.962" y2="167.143" stroke="#FFC164" stroke-width="3.72362"/>
<line x1="344.917" y1="117.694" x2="306.775" y2="117.694" stroke="#FFC164" stroke-width="3.72362"/>
<line x1="346.329" y1="117.7" x2="308.187" y2="117.7" stroke="#FFC164" stroke-width="3.72362"/>
<line x1="345.771" y1="67.2712" x2="307.629" y2="67.2712" stroke="#FFC164" stroke-width="3.72362"/>
<line x1="345.878" y1="216.586" x2="307.736" y2="216.586" stroke="#FFC164" stroke-width="3.72362"/>
<line x1="345.653" y1="266.029" x2="307.511" y2="266.029" stroke="#FFC164" stroke-width="3.72362"/>
<line x1="38.1416" y1="167.137" x2="-3.8147e-05" y2="167.137" stroke="#FFC164" stroke-width="3.72362"/>
<line x1="39.554" y1="167.143" x2="1.41232" y2="167.143" stroke="#FFC164" stroke-width="3.72362"/>
<line x1="38.3674" y1="117.694" x2="0.225792" y2="117.694" stroke="#FFC164" stroke-width="3.72362"/>
<line x1="39.7793" y1="117.7" x2="1.63766" y2="117.7" stroke="#FFC164" stroke-width="3.72362"/>
<line x1="40.0049" y1="68.2571" x2="1.86324" y2="68.2571" stroke="#FFC164" stroke-width="3.72362"/>
<line x1="39.3284" y1="216.586" x2="1.18673" y2="216.586" stroke="#FFC164" stroke-width="3.72362"/>
<line x1="39.1035" y1="266.029" x2="0.961876" y2="266.029" stroke="#FFC164" stroke-width="3.72362"/>
<line x1="171.905" y1="341.866" x2="171.905" y2="303.725" stroke="#FFC164" stroke-width="3.72362"/>
<line x1="171.892" y1="343.279" x2="171.892" y2="305.137" stroke="#FFC164" stroke-width="3.72362"/>
<line x1="221.347" y1="342.312" x2="221.347" y2="304.17" stroke="#FFC164" stroke-width="3.72362"/>
<line x1="221.334" y1="343.724" x2="221.334" y2="305.582" stroke="#FFC164" stroke-width="3.72362"/>
<line x1="270.775" y1="344.169" x2="270.775" y2="306.027" stroke="#FFC164" stroke-width="3.72362"/>
<line x1="122.451" y1="342.833" x2="122.451" y2="304.692" stroke="#FFC164" stroke-width="3.72362"/>
<line x1="73.009" y1="342.389" x2="73.009" y2="304.248" stroke="#FFC164" stroke-width="3.72362"/>
</svg>
