<svg width="867" height="862" viewBox="0 0 867 862" fill="none" xmlns="http://www.w3.org/2000/svg">
<rect x="258.08" y="251.01" width="353.533" height="353.533" fill="#FFC164"/>
<rect x="124.861" y="117.791" width="619.971" height="619.971" stroke="white" stroke-width="9.31875"/>
<line x1="439.507" y1="3.53564" x2="439.507" y2="98.9892" stroke="white" stroke-width="9.31875"/>
<line x1="439.507" y1="2.03667e-07" x2="439.507" y2="95.4535" stroke="white" stroke-width="9.31875"/>
<line x1="315.769" y1="3.53564" x2="315.769" y2="98.9892" stroke="white" stroke-width="9.31875"/>
<line x1="315.769" y1="2.03667e-07" x2="315.769" y2="95.4535" stroke="white" stroke-width="9.31875"/>
<line x1="192.031" y1="2.03667e-07" x2="192.031" y2="95.4535" stroke="white" stroke-width="9.31875"/>
<line x1="563.245" y1="2.03667e-07" x2="563.245" y2="95.4535" stroke="white" stroke-width="9.31875"/>
<line x1="686.982" y1="2.03667e-07" x2="686.982" y2="95.4535" stroke="white" stroke-width="9.31875"/>
<line x1="862.625" y1="418.278" x2="767.171" y2="418.278" stroke="white" stroke-width="9.31875"/>
<line x1="866.161" y1="418.294" x2="770.707" y2="418.294" stroke="white" stroke-width="9.31875"/>
<line x1="863.191" y1="294.541" x2="767.738" y2="294.541" stroke="white" stroke-width="9.31875"/>
<line x1="866.724" y1="294.558" x2="771.271" y2="294.558" stroke="white" stroke-width="9.31875"/>
<line x1="865.329" y1="168.354" x2="769.875" y2="168.354" stroke="white" stroke-width="9.31875"/>
<line x1="865.596" y1="542.03" x2="770.143" y2="542.03" stroke="white" stroke-width="9.31875"/>
<line x1="865.034" y1="665.767" x2="769.58" y2="665.767" stroke="white" stroke-width="9.31875"/>
<line x1="95.4536" y1="418.278" x2="6.86646e-05" y2="418.278" stroke="white" stroke-width="9.31875"/>
<line x1="98.988" y1="418.294" x2="3.53449" y2="418.294" stroke="white" stroke-width="9.31875"/>
<line x1="96.0181" y1="294.541" x2="0.564522" y2="294.541" stroke="white" stroke-width="9.31875"/>
<line x1="99.5515" y1="294.558" x2="4.09797" y2="294.558" stroke="white" stroke-width="9.31875"/>
<line x1="100.116" y1="170.821" x2="4.66267" y2="170.821" stroke="white" stroke-width="9.31875"/>
<line x1="98.4236" y1="542.03" x2="2.97004" y2="542.03" stroke="white" stroke-width="9.31875"/>
<line x1="97.8606" y1="665.767" x2="2.40705" y2="665.767" stroke="white" stroke-width="9.31875"/>
<line x1="430.21" y1="855.557" x2="430.21" y2="760.103" stroke="white" stroke-width="9.31875"/>
<line x1="430.179" y1="859.092" x2="430.179" y2="763.638" stroke="white" stroke-width="9.31875"/>
<line x1="553.945" y1="856.671" x2="553.945" y2="761.218" stroke="white" stroke-width="9.31875"/>
<line x1="553.912" y1="860.206" x2="553.912" y2="764.753" stroke="white" stroke-width="9.31875"/>
<line x1="677.645" y1="861.319" x2="677.645" y2="765.865" stroke="white" stroke-width="9.31875"/>
<line x1="306.446" y1="857.978" x2="306.446" y2="762.524" stroke="white" stroke-width="9.31875"/>
<line x1="182.712" y1="856.865" x2="182.712" y2="761.412" stroke="white" stroke-width="9.31875"/>
</svg>
