<svg width="273" height="97" viewBox="0 0 273 97" fill="none" xmlns="http://www.w3.org/2000/svg">
<path fill-rule="evenodd" clip-rule="evenodd" d="M272.194 0.451172H0.783203V96.2307H272.194V0.451172ZM76.6092 91.443C100.473 91.443 119.818 72.0977 119.818 48.2342C119.818 24.3706 100.473 5.02539 76.6092 5.02539C52.7456 5.02539 33.4004 24.3706 33.4004 48.2342C33.4004 72.0977 52.7456 91.443 76.6092 91.443ZM239.703 48.2342C239.703 72.0977 220.358 91.443 196.494 91.443C172.63 91.443 153.285 72.0977 153.285 48.2342C153.285 24.3706 172.63 5.02539 196.494 5.02539C220.358 5.02539 239.703 24.3706 239.703 48.2342Z" fill="#FFD089"/>
<path d="M88.4723 35.9512H64.3262V60.0973H88.4723V35.9512Z" fill="#FFD089"/>
<path d="M208.356 35.9512H184.209V60.0973H208.356V35.9512Z" fill="#FFD089"/>
</svg>
