<svg width="159" height="159" viewBox="0 0 159 159" fill="none" xmlns="http://www.w3.org/2000/svg">
<path fill-rule="evenodd" clip-rule="evenodd" d="M158.499 79.7024C158.499 123.422 123.057 158.864 79.3372 158.864C35.6175 158.864 0.175781 123.422 0.175781 79.7024C0.175781 35.9828 35.6175 0.541016 79.3372 0.541016C123.057 0.541016 158.499 35.9828 158.499 79.7024ZM129.461 79.7032C129.461 107.385 107.02 129.826 79.338 129.826C51.6557 129.826 29.2148 107.385 29.2148 79.7032C29.2148 52.021 51.6557 29.5801 79.338 29.5801C107.02 29.5801 129.461 52.021 129.461 79.7032Z" fill="#FFD089"/>
<path d="M97.8531 60.7715H60.4058V98.2189H97.8531V60.7715Z" fill="#FFD089"/>
</svg>
