<svg width="272" height="97" viewBox="0 0 272 97" fill="none" xmlns="http://www.w3.org/2000/svg">
<path fill-rule="evenodd" clip-rule="evenodd" d="M0.876968 96.5332L271.612 96.5332V0.451477L0.876968 0.451477V96.5332ZM24.2695 79.2734L196.398 79.2734V16.26L24.2695 16.26V79.2734Z" fill="#FFD089"/>
<path d="M86.4944 47.6334C86.4944 37.4348 95.0488 29.1672 105.601 29.1672C116.154 29.1672 124.708 37.4348 124.708 47.6334C124.708 57.832 116.154 66.0996 105.601 66.0996C95.0488 66.0996 86.4944 57.832 86.4944 47.6334Z" fill="#FFD089"/>
<path d="M43.6848 47.5404C43.6848 41.4984 48.5828 36.6003 54.6249 36.6003C60.6669 36.6003 65.5649 41.4984 65.5649 47.5404C65.5649 53.5824 60.6669 58.4805 54.6249 58.4805C48.5828 58.4805 43.6848 53.5824 43.6848 47.5404Z" fill="#FFD089"/>
</svg>
