<svg width="352" height="243" viewBox="0 0 352 243" fill="none" xmlns="http://www.w3.org/2000/svg">
<path fill-rule="evenodd" clip-rule="evenodd" d="M290.89 237.365L29.768 47.3556L60.701 4.84572L321.823 194.855L290.89 237.365ZM94.2361 65.8888L57.1347 38.8914L63.5519 30.0725L100.653 57.0699L94.2361 65.8888ZM100.894 71.6629L137.996 98.6603L144.413 89.8414L107.312 62.844L100.894 71.6629ZM181.758 131.428L144.656 104.43L151.073 95.6115L188.175 122.609L181.758 131.428ZM188.41 137.206L225.512 164.203L231.929 155.384L194.827 128.387L188.41 137.206ZM287.814 220.072L229.32 177.508L246.667 153.67L305.161 196.234L287.814 220.072Z" fill="#FFD089"/>
</svg>
