<svg width="253" height="134" viewBox="0 0 253 134" fill="none" xmlns="http://www.w3.org/2000/svg">
<path fill-rule="evenodd" clip-rule="evenodd" d="M0.902344 133.385L253 133.385V0.201248L0.902344 0.201248L0.902344 133.385ZM248.243 117.689C248.243 111.647 243.345 106.749 237.303 106.749C231.261 106.749 226.363 111.647 226.363 117.689C226.363 123.731 231.261 128.629 237.303 128.629C243.345 128.629 248.243 123.731 248.243 117.689ZM237.303 4.95773C243.345 4.95773 248.243 9.85578 248.243 15.8978C248.243 21.9398 243.345 26.8379 237.303 26.8379C231.261 26.8379 226.363 21.9398 226.363 15.8978C226.363 9.85578 231.261 4.95773 237.303 4.95773ZM27.5381 117.689C27.5381 111.647 22.64 106.749 16.598 106.749C10.556 106.749 5.65793 111.647 5.65793 117.689C5.65793 123.731 10.556 128.629 16.598 128.629C22.64 128.629 27.5381 123.731 27.5381 117.689ZM16.598 4.95773C22.64 4.95773 27.5381 9.85578 27.5381 15.8978C27.5381 21.9398 22.64 26.8379 16.598 26.8379C10.556 26.8379 5.65793 21.9398 5.65793 15.8978C5.65793 9.85578 10.556 4.95773 16.598 4.95773ZM181.65 67.2684C181.65 37.0582 157.16 12.568 126.95 12.568C96.7399 12.568 72.2497 37.0582 72.2497 67.2684C72.2497 97.4786 96.7399 121.969 126.95 121.969C157.16 121.969 181.65 97.4786 181.65 67.2684Z" fill="#FFD089"/>
</svg>
