<svg width="330" height="339" viewBox="0 0 330 339" fill="none" xmlns="http://www.w3.org/2000/svg">
<path d="M66.1023 231.767C63.3537 234.104 59.1701 235.169 53.8793 233.879C48.5798 232.587 42.742 228.991 38.0308 223.025C33.3196 217.06 31.0685 210.413 30.8896 204.768C30.7111 199.132 32.5395 195.085 35.2881 192.748C38.0368 190.411 42.2203 189.346 47.5111 190.635C52.8106 191.927 58.6484 195.524 63.3597 201.489C68.0709 207.455 70.3219 214.101 70.5008 219.747C70.6794 225.383 68.8509 229.43 66.1023 231.767Z" stroke="#C0C0C0" stroke-width="19.0262"/>
<path d="M286.187 151.079C283.147 152.984 278.892 153.408 273.907 151.268C268.916 149.125 263.765 144.568 260.101 137.793C256.438 131.019 255.3 123.947 256.034 118.217C256.767 112.493 259.21 108.719 262.251 106.814C265.291 104.908 269.546 104.484 274.532 106.625C279.522 108.767 284.673 113.325 288.337 120.099C292 126.873 293.138 133.946 292.404 139.676C291.671 145.399 289.228 149.173 286.187 151.079Z" stroke="#C0C0C0" stroke-width="19.0262"/>
<path d="M236.867 118.772L62.844 174.519" stroke="#C0C0C0" stroke-width="19.0262"/>
<path d="M252.503 160.85L95.0376 217.177" stroke="#C0C0C0" stroke-width="19.0262"/>
</svg>
