<svg width="680" height="92" viewBox="0 0 680 92" fill="none" xmlns="http://www.w3.org/2000/svg">
<path fill-rule="evenodd" clip-rule="evenodd" d="M6 22C2.68629 22 0 24.6863 0 28V63C0 66.3137 2.68629 69 6 69H47C50.3137 69 53 66.3137 53 63V28C53 24.6863 50.3137 22 47 22H6ZM27 54C31.4183 54 35 50.4183 35 46C35 41.5817 31.4183 38 27 38C22.5817 38 19 41.5817 19 46C19 50.4183 22.5817 54 27 54Z" fill="#FFD089"/>
<path fill-rule="evenodd" clip-rule="evenodd" d="M633 22C629.686 22 627 24.6863 627 28V63C627 66.3137 629.686 69 633 69H674C677.314 69 680 66.3137 680 63V28C680 24.6863 677.314 22 674 22H633ZM654 54C658.418 54 662 50.4183 662 46C662 41.5817 658.418 38 654 38C649.582 38 646 41.5817 646 46C646 50.4183 649.582 54 654 54Z" fill="#FFD089"/>
<path fill-rule="evenodd" clip-rule="evenodd" d="M79 0C62.4315 0 49 13.4315 49 30V62C49 78.5685 62.4315 92 79 92H601C617.569 92 631 78.5685 631 62V30C631 13.4315 617.569 0 601 0H79ZM203.484 33.7651C200.613 36.7827 199.177 40.9648 199.177 46.3115C199.177 49.1387 199.792 51.8193 201.023 54.3535C202.253 56.8877 204.062 58.8872 206.45 60.3521C208.838 61.8169 211.548 62.5493 214.58 62.5493C217.378 62.5493 219.985 61.8901 222.402 60.5718C224.819 59.2388 226.687 57.2832 228.005 54.7051C229.324 52.127 229.983 49.2046 229.983 45.938C229.983 42.7153 229.353 39.8369 228.093 37.3027C226.848 34.7539 225.032 32.769 222.644 31.3481C220.256 29.9272 217.576 29.2168 214.602 29.2168C210.061 29.2168 206.355 30.7329 203.484 33.7651ZM206.692 55.562C204.612 53.3208 203.572 50.2593 203.572 46.3774C203.572 41.5288 204.656 38.0718 206.824 36.0063C209.006 33.9263 211.606 32.8862 214.624 32.8862C216.748 32.8862 218.66 33.4282 220.359 34.5122C222.073 35.5815 223.369 37.0977 224.248 39.0605C225.142 41.0088 225.588 43.2939 225.588 45.916C225.588 50.0615 224.548 53.2622 222.468 55.5181C220.403 57.7739 217.766 58.9019 214.558 58.9019C211.409 58.9019 208.787 57.7886 206.692 55.562ZM243.694 33.5894V62H247.957V33.5894H258.613V29.7881H233.081V33.5894H243.694ZM263.008 29.7881V62H267.271V48.9043H275.532C280.088 48.9043 283.237 47.9595 284.98 46.0698C286.724 44.1655 287.595 41.8438 287.595 39.1045C287.595 37.5078 287.266 36.043 286.606 34.71C285.962 33.377 285.105 32.3442 284.036 31.6118C282.966 30.8647 281.641 30.3594 280.059 30.0957C278.931 29.8906 277.297 29.7881 275.159 29.7881H263.008ZM275.598 45.103H267.271V33.5894H275.51C277.444 33.5894 278.77 33.6846 279.487 33.875C280.601 34.1826 281.494 34.8198 282.168 35.7866C282.856 36.7388 283.201 37.8887 283.201 39.2363C283.201 41.0967 282.622 42.5396 281.465 43.5649C280.308 44.5903 278.352 45.103 275.598 45.103ZM298.823 29.7881L286.453 62H290.979L294.517 52.2441H307.986L311.743 62H316.599L303.416 29.7881H298.823ZM306.667 48.7725H295.747L299.285 39.3242C300.032 37.2881 300.61 35.2373 301.021 33.1719C301.519 34.915 302.28 37.1416 303.306 39.8516L306.667 48.7725ZM339.495 43.8945V29.7881H335.122V43.8945C333.013 43.8652 331.57 43.4844 330.793 42.752C330.032 42.0195 329.036 40.2104 327.805 37.3247C326.882 35.186 326.128 33.6846 325.542 32.8203C324.956 31.9414 324.143 31.2163 323.103 30.645C322.078 30.0591 320.862 29.7661 319.456 29.7661C317.976 29.7661 317.156 29.7808 316.995 29.8101V33.5015L318.708 33.4575C320.012 33.4575 320.994 33.7505 321.653 34.3364C322.312 34.9224 323.103 36.3652 324.026 38.665C325.037 41.1992 325.908 42.8618 326.641 43.6528C327.373 44.4292 328.318 45.0518 329.475 45.5205C327.395 46.0918 325.344 48.0107 323.323 51.2773L316.687 62H321.982L327.366 53.2549L327.629 52.8154C329.065 50.3691 330.317 48.7798 331.387 48.0474C332.471 47.3003 333.716 46.9268 335.122 46.9268V62H339.495V46.9268C341.267 46.9268 342.644 47.4028 343.625 48.355C344.607 49.3071 345.815 50.9404 347.251 53.2549L352.634 62H357.908L351.272 51.2773C349.294 48.0254 347.251 46.1064 345.142 45.5205C346.445 44.9639 347.441 44.2681 348.13 43.4331C348.818 42.5835 349.631 40.9941 350.569 38.665C351.433 36.5117 352.202 35.1055 352.876 34.4463C353.535 33.7871 354.546 33.4575 355.908 33.4575C356.011 33.4575 356.296 33.4648 356.765 33.4795C357.19 33.4941 357.468 33.5015 357.6 33.5015V29.8101C357.263 29.7808 356.399 29.7661 355.007 29.7661C353.733 29.7661 352.561 30.0664 351.492 30.667C350.422 31.2529 349.595 31.9854 349.009 32.8643C348.438 33.7285 347.705 35.2153 346.812 37.3247C345.596 40.1665 344.592 41.9756 343.801 42.752C343.025 43.5137 341.589 43.8945 339.495 43.8945ZM361.665 29.7881V62H385.703V58.1987H365.928V47.2344H383.748V43.4551H365.928V33.5894H384.956V29.7881H361.665ZM391.724 29.7881V62H395.986V46.8169H412.729V62H416.992V29.7881H412.729V43.0156H395.986V29.7881H391.724ZM428.044 29.7881H424.177V62H428.44L445.601 36.5557V62H449.468V29.7881H445.183L428.044 55.2983V29.7881ZM456.543 29.7881V62H480.581V58.1987H460.806V47.2344H478.625V43.4551H460.806V33.5894H479.834V29.7881H456.543Z" fill="#C0C0C0"/>
</svg>
