<svg width="289" height="394" viewBox="0 0 289 394" fill="none" xmlns="http://www.w3.org/2000/svg">
<path fill-rule="evenodd" clip-rule="evenodd" d="M116 30.2461C116 13.6776 102.569 0.246094 86 0.246094H30C13.4315 0.246094 0 13.6776 0 30.2461V363.246C0 379.815 13.4315 393.246 30 393.246H86C102.569 393.246 116 379.815 116 363.246V30.2461ZM74.2119 93.7451H42V98.0078H55.0957V106.27C55.0957 110.825 56.0405 113.975 57.9302 115.718C59.8345 117.461 62.1562 118.333 64.8955 118.333C66.4922 118.333 67.957 118.003 69.29 117.344C70.623 116.699 71.6558 115.842 72.3882 114.773C73.1353 113.704 73.6406 112.378 73.9043 110.796C74.1094 109.668 74.2119 108.035 74.2119 105.896V93.7451ZM58.897 106.335V98.0078H70.4106V106.248C70.4106 108.181 70.3154 109.507 70.125 110.225C69.8174 111.338 69.1802 112.231 68.2134 112.905C67.2612 113.594 66.1113 113.938 64.7637 113.938C62.9033 113.938 61.4604 113.359 60.4351 112.202C59.4097 111.045 58.897 109.089 58.897 106.335ZM74.2119 123.848H42V147.886H45.8013V128.11H56.7656V145.93H60.5449V128.11H70.4106V147.139H74.2119V123.848ZM74.2119 162.607L42 150.237V154.763L51.7559 158.301V171.77L42 175.527V180.383L74.2119 167.2V162.607ZM55.2275 170.452V159.531L64.6758 163.069C66.7119 163.816 68.7627 164.395 70.8281 164.805C69.085 165.303 66.8584 166.064 64.1484 167.09L55.2275 170.452ZM74.2119 188.118V183.855H42V188.118H57.0732C57.0732 189.7 56.6191 190.989 55.7109 191.985C54.8174 192.981 53.1621 194.219 50.7451 195.698L42 201.082V206.377L52.7227 199.741C55.9893 197.72 57.9082 195.669 58.4795 193.589C58.9043 194.629 59.4683 195.522 60.1714 196.27C60.8892 197.017 62.6104 197.932 65.335 199.016C67.4883 199.88 68.8945 200.649 69.5537 201.323C70.2129 201.982 70.5425 202.993 70.5425 204.355C70.5425 204.458 70.5352 204.744 70.5205 205.212C70.5059 205.637 70.4985 205.923 70.4985 206.069H74.1899C74.2192 205.981 74.2339 205.117 74.2339 203.477C74.2339 202.188 73.9336 201.008 73.333 199.939C72.7471 198.87 72.0146 198.042 71.1357 197.456C70.2715 196.885 68.7847 196.152 66.6753 195.259C63.8042 194.028 61.9878 193.018 61.2261 192.227C60.479 191.436 60.1055 190.066 60.1055 188.118H74.2119ZM74.2119 214.309V210.046H42V234.546H33.0571V238.325H45.8013V235.381H74.2119V231.096H45.8013V214.309H74.2119ZM74.2119 247.268V243.401H42V247.664L67.4443 264.824H42V268.691H74.2119V264.407L48.7017 247.268H74.2119ZM42 296.904V301.167H74.2119V286.885C74.2119 284.014 73.9189 281.831 73.333 280.337C72.7617 278.843 71.7437 277.649 70.2788 276.755C68.814 275.862 67.1953 275.415 65.4229 275.415C63.1377 275.415 61.2114 276.155 59.644 277.634C58.0767 279.114 57.0806 281.399 56.6558 284.49C56.1138 283.362 55.5791 282.505 55.0518 281.919C53.9092 280.674 52.481 279.495 50.7671 278.381L42 272.778V278.14L48.7017 282.402C50.6353 283.647 52.1147 284.673 53.1401 285.479C54.1655 286.284 54.8833 287.002 55.2935 287.632C55.7036 288.276 55.9893 288.928 56.1504 289.587C56.2529 290.071 56.3042 290.862 56.3042 291.96V296.904H42ZM70.6523 296.904H59.9956V287.742C59.9956 285.793 60.1934 284.27 60.5889 283.171C60.999 282.073 61.6436 281.238 62.5225 280.667C63.416 280.095 64.3828 279.81 65.4229 279.81C66.9463 279.81 68.1987 280.359 69.1802 281.458C70.1616 282.571 70.6523 284.321 70.6523 286.709V296.904Z" fill="#C0C0C0"/>
<path fill-rule="evenodd" clip-rule="evenodd" d="M289 30.2461C289 13.6776 275.569 0.246094 259 0.246094H203C186.431 0.246094 173 13.6776 173 30.2461V363.246C173 379.815 186.431 393.246 203 393.246H259C275.569 393.246 289 379.815 289 363.246V30.2461ZM243.411 110.669H215V114.932H243.411V125.589H247.212V100.057H243.411V110.669ZM247.212 133.917V130.049H215V134.312L240.444 151.473H215V155.34H247.212V151.055L221.702 133.917H247.212ZM247.212 166.656V162.393H215V196.583H247.212V192.32H218.801V181.619H247.212V177.356H218.801V166.656H247.212ZM247.212 207.525V203.658H215V207.92L240.444 225.081H215V228.948H247.212V224.664L221.702 207.525H247.212ZM247.212 236.067H215V240.33H230.183V257.073H215V261.336H247.212V257.073H233.984V240.33H247.212V236.067ZM247.212 277.288L215 264.917V269.444L224.756 272.981V286.451L215 290.208V295.064L247.212 281.88V277.288ZM228.228 285.132V274.212L237.676 277.75C239.712 278.497 241.763 279.075 243.828 279.485C242.085 279.983 239.858 280.745 237.148 281.771L228.228 285.132Z" fill="#C0C0C0"/>
<path fill-rule="evenodd" clip-rule="evenodd" d="M173 15C173 6.71573 166.284 0 158 0H131C122.716 0 116 6.71572 116 15V35.8615C116 44.1458 122.716 50.8615 131 50.8615H158C166.284 50.8615 173 44.1458 173 35.8616V15ZM131.813 16.4375C125.176 20.3373 125.249 29.9596 131.945 33.7575L144.751 41.0211C151.447 44.8191 159.743 39.9443 159.684 32.2466L159.572 17.5246C159.513 9.82678 151.143 5.07933 144.506 8.97914L131.813 16.4375Z" fill="#FFD089"/>
<path fill-rule="evenodd" clip-rule="evenodd" d="M116 202.861C116 211.146 122.716 217.861 131 217.861H158C166.284 217.861 173 211.146 173 202.861V182C173 173.716 166.284 167 158 167H131C122.716 167 116 173.716 116 182V202.861ZM152.281 179.367C148.432 172.701 138.81 172.701 134.961 179.367L127.599 192.117C123.75 198.784 128.562 207.117 136.26 207.117H150.982C158.68 207.117 163.491 198.784 159.642 192.117L152.281 179.367Z" fill="#FFD089"/>
<path fill-rule="evenodd" clip-rule="evenodd" d="M115.879 374.492C115.879 382.777 122.595 389.492 130.879 389.492H157.879C166.163 389.492 172.879 382.777 172.879 374.492V353.631C172.879 345.347 166.163 338.631 157.879 338.631H130.879C122.595 338.631 115.879 345.347 115.879 353.631V374.492ZM157 373.16C163.667 369.311 163.667 359.689 157 355.84L144.25 348.479C137.583 344.63 129.25 349.441 129.25 357.139V371.861C129.25 379.559 137.583 384.371 144.25 380.522L157 373.16Z" fill="#FFD089"/>
</svg>
