<svg width="350" height="258" viewBox="0 0 350 258" fill="none" xmlns="http://www.w3.org/2000/svg">
<path fill-rule="evenodd" clip-rule="evenodd" d="M30 0C13.4315 0 0 13.4315 0 30V227.198C0 243.767 13.4315 257.198 30 257.198H320C336.569 257.198 350 243.767 350 227.198V30C350 13.4315 336.569 0 320 0H30ZM109.587 111.788H89.9878V116.49C89.9878 128.385 88.6914 136.288 86.0986 140.199H83.5938V151.515H87.395V144H108.687V151.515H112.488V140.199H109.587V111.788ZM94.0967 115.589H105.325V140.199H90.4712C91.9067 137.137 92.8662 133.233 93.3496 128.487C93.8477 123.727 94.0967 119.977 94.0967 117.237V115.589ZM121.497 111.788H117.629V144H121.892L139.053 118.556V144H142.92V111.788H138.635L121.497 137.298V111.788ZM158.74 111.788L146.37 144H150.896L154.434 134.244H167.903L171.66 144H176.516L163.333 111.788H158.74ZM166.584 130.772H155.664L159.202 121.324C159.949 119.288 160.527 117.237 160.938 115.172C161.436 116.915 162.197 119.142 163.223 121.852L166.584 130.772ZM203.455 111.788H183.284V134.464C183.284 137.159 183.042 138.873 182.559 139.605C182.075 140.323 181.35 140.682 180.383 140.682C179.885 140.682 179.285 140.536 178.582 140.243L177.856 144.022C179.175 144.374 180.303 144.549 181.24 144.549C182.793 144.549 184.075 144.117 185.085 143.253C186.096 142.374 186.755 141.151 187.063 139.583C187.385 138.016 187.546 135.548 187.546 132.179V115.589H199.192V144H203.455V111.788ZM213.474 115.765C210.603 118.783 209.167 122.965 209.167 128.312C209.167 131.139 209.783 133.819 211.013 136.354C212.244 138.888 214.053 140.887 216.44 142.352C218.828 143.817 221.538 144.549 224.57 144.549C227.368 144.549 229.976 143.89 232.393 142.572C234.81 141.239 236.677 139.283 237.996 136.705C239.314 134.127 239.973 131.205 239.973 127.938C239.973 124.715 239.343 121.837 238.083 119.303C236.838 116.754 235.022 114.769 232.634 113.348C230.247 111.927 227.566 111.217 224.592 111.217C220.051 111.217 216.345 112.733 213.474 115.765ZM216.682 137.562C214.602 135.321 213.562 132.259 213.562 128.377C213.562 123.529 214.646 120.072 216.814 118.006C218.997 115.926 221.597 114.886 224.614 114.886C226.738 114.886 228.65 115.428 230.349 116.512C232.063 117.582 233.359 119.098 234.238 121.061C235.132 123.009 235.579 125.294 235.579 127.916C235.579 132.062 234.539 135.262 232.458 137.518C230.393 139.774 227.756 140.902 224.548 140.902C221.399 140.902 218.777 139.789 216.682 137.562ZM266.384 111.788H245.554V144H249.817V115.589H266.384V111.788ZM200 213C200 226.807 188.807 238 175 238C161.193 238 150 226.807 150 213C150 199.193 161.193 188 175 188C188.807 188 200 199.193 200 213ZM30 201C24.4772 201 20 205.477 20 211V216C20 221.523 24.4771 226 30 226H111C116.523 226 121 221.523 121 216V211C121 205.477 116.523 201 111 201H30ZM229 211C229 205.477 233.477 201 239 201H320C325.523 201 330 205.477 330 211V216C330 221.523 325.523 226 320 226H239C233.477 226 229 221.523 229 216V211ZM30 32C24.4772 32 20 36.4772 20 42V47C20 52.5228 24.4771 57 30 57H111C116.523 57 121 52.5228 121 47V42C121 36.4772 116.523 32 111 32H30ZM229 42C229 36.4772 233.477 32 239 32H320C325.523 32 330 36.4772 330 42V47C330 52.5228 325.523 57 320 57H239C233.477 57 229 52.5228 229 47V42ZM175 70C188.807 70 200 58.8071 200 45C200 31.1929 188.807 20 175 20C161.193 20 150 31.1929 150 45C150 58.8071 161.193 70 175 70Z" fill="#C0C0C0"/>
</svg>
