<svg width="404" height="248" viewBox="0 0 404 248" fill="none" xmlns="http://www.w3.org/2000/svg">
<circle cx="201.5" cy="31.5" r="17.5" stroke="white" stroke-width="4"/>
<path fill-rule="evenodd" clip-rule="evenodd" d="M43 159C43 71.1867 113.963 0 201.5 0C289.037 0 360 71.1867 360 159H43ZM107 156C107 104.638 148.414 63 199.5 63C250.586 63 292 104.638 292 156H107ZM54 130C54 127.239 56.2386 125 59 125H91C93.7614 125 96 127.239 96 130V137C96 139.761 93.7614 142 91 142H59C56.2386 142 54 139.761 54 137V130ZM308 125C305.239 125 303 127.239 303 130V137C303 139.761 305.239 142 308 142H340C342.761 142 345 139.761 345 137V130C345 127.239 342.761 125 340 125H308Z" fill="#FFD089"/>
<path fill-rule="evenodd" clip-rule="evenodd" d="M30 156C13.4315 156 0 169.431 0 186V218C0 234.569 13.4315 248 30 248H374C390.569 248 404 234.569 404 218V186C404 169.431 390.569 156 374 156H30ZM122.069 207.783L117.806 206.706C117.22 209.416 116.1 211.459 114.444 212.836C112.789 214.213 110.768 214.902 108.38 214.902C106.417 214.902 104.593 214.396 102.909 213.386C101.224 212.375 99.979 210.852 99.1733 208.815C98.3823 206.765 97.9868 204.37 97.9868 201.63C97.9868 199.506 98.3237 197.448 98.9976 195.456C99.6714 193.449 100.836 191.853 102.491 190.666C104.161 189.479 106.234 188.886 108.709 188.886C110.863 188.886 112.65 189.421 114.071 190.49C115.492 191.56 116.576 193.266 117.323 195.61L121.52 194.621C120.655 191.647 119.125 189.34 116.927 187.7C114.73 186.059 112.02 185.239 108.797 185.239C105.956 185.239 103.348 185.891 100.975 187.194C98.6167 188.483 96.793 190.38 95.5039 192.885C94.2295 195.375 93.5923 198.298 93.5923 201.652C93.5923 204.729 94.1562 207.607 95.2842 210.288C96.4268 212.968 98.082 215.019 100.25 216.44C102.433 217.846 105.26 218.549 108.731 218.549C112.086 218.549 114.92 217.634 117.235 215.803C119.564 213.957 121.175 211.284 122.069 207.783ZM148.37 185.788H128.199V208.464C128.199 211.159 127.958 212.873 127.474 213.605C126.991 214.323 126.266 214.682 125.299 214.682C124.801 214.682 124.2 214.536 123.497 214.243L122.772 218.022C124.09 218.374 125.218 218.549 126.156 218.549C127.708 218.549 128.99 218.117 130.001 217.253C131.012 216.374 131.671 215.151 131.979 213.583C132.301 212.016 132.462 209.548 132.462 206.179V189.589H144.107V218H148.37V185.788ZM159.312 185.788H155.445V218H159.708L176.869 192.556V218H180.736V185.788H176.451L159.312 211.298V185.788ZM208.949 218H213.211V185.788H198.929C196.058 185.788 193.875 186.081 192.381 186.667C190.887 187.238 189.693 188.256 188.8 189.721C187.906 191.186 187.459 192.805 187.459 194.577C187.459 196.862 188.199 198.789 189.679 200.356C191.158 201.923 193.443 202.919 196.534 203.344C195.406 203.886 194.549 204.421 193.963 204.948C192.718 206.091 191.539 207.519 190.426 209.233L184.823 218H190.184L194.447 211.298C195.692 209.365 196.717 207.885 197.523 206.86C198.329 205.834 199.046 205.117 199.676 204.707C200.321 204.296 200.973 204.011 201.632 203.85C202.115 203.747 202.906 203.696 204.005 203.696H208.949V218ZM208.949 189.348V200.004H199.786C197.838 200.004 196.314 199.807 195.216 199.411C194.117 199.001 193.282 198.356 192.711 197.478C192.14 196.584 191.854 195.617 191.854 194.577C191.854 193.054 192.403 191.801 193.502 190.82C194.615 189.838 196.366 189.348 198.753 189.348H208.949ZM220.375 185.788V218H224.637V202.817H241.38V218H245.643V185.788H241.38V199.016H224.637V185.788H220.375ZM256.695 185.788H252.828V218H257.091L274.251 192.556V218H278.119V185.788H273.834L256.695 211.298V185.788ZM285.194 185.788V218H309.232V214.199H289.457V203.234H307.276V199.455H289.457V189.589H308.485V185.788H285.194Z" fill="#FFD089"/>
</svg>
