<svg width="771" height="330" viewBox="0 0 771 330" fill="none" xmlns="http://www.w3.org/2000/svg">
<path fill-rule="evenodd" clip-rule="evenodd" d="M500 214C483.431 214 470 227.431 470 244V300C470 316.569 483.431 330 500 330H741C757.569 330 771 316.569 771 300V244C771 227.431 757.569 214 741 214H500ZM523.952 255.788H498.618V288H502.88V259.589H519.667V288H523.952V255.788ZM530.917 255.788V288H535.18V274.904H543.442C547.998 274.904 551.147 273.959 552.89 272.07C554.633 270.166 555.505 267.844 555.505 265.104C555.505 263.508 555.175 262.043 554.516 260.71C553.872 259.377 553.015 258.344 551.945 257.612C550.876 256.865 549.55 256.359 547.968 256.096C546.84 255.891 545.207 255.788 543.068 255.788H530.917ZM543.508 271.103H535.18V259.589H543.42C545.354 259.589 546.679 259.685 547.397 259.875C548.51 260.183 549.404 260.82 550.078 261.787C550.766 262.739 551.11 263.889 551.11 265.236C551.11 267.097 550.532 268.54 549.375 269.565C548.217 270.59 546.262 271.103 543.508 271.103ZM562.932 259.765C560.061 262.783 558.625 266.965 558.625 272.312C558.625 275.139 559.24 277.819 560.471 280.354C561.701 282.888 563.51 284.887 565.898 286.352C568.286 287.817 570.996 288.549 574.028 288.549C576.826 288.549 579.433 287.89 581.85 286.572C584.267 285.239 586.135 283.283 587.453 280.705C588.771 278.127 589.431 275.205 589.431 271.938C589.431 268.715 588.801 265.837 587.541 263.303C586.296 260.754 584.479 258.769 582.092 257.348C579.704 255.927 577.023 255.217 574.05 255.217C569.509 255.217 565.803 256.733 562.932 259.765ZM566.14 281.562C564.06 279.321 563.02 276.259 563.02 272.377C563.02 267.529 564.104 264.072 566.271 262.006C568.454 259.926 571.054 258.886 574.072 258.886C576.196 258.886 578.107 259.428 579.807 260.512C581.521 261.582 582.817 263.098 583.696 265.061C584.589 267.009 585.036 269.294 585.036 271.916C585.036 276.062 583.996 279.262 581.916 281.518C579.851 283.774 577.214 284.902 574.006 284.902C570.856 284.902 568.234 283.789 566.14 281.562ZM595.034 255.788V288H619.072V284.199H599.296V273.234H617.116V269.455H599.296V259.589H618.325V255.788H595.034ZM629.289 255.788H625.026V288H629.289V272.927C630.871 272.927 632.16 273.381 633.156 274.289C634.152 275.183 635.39 276.838 636.87 279.255L642.253 288H647.548L640.913 277.277C638.891 274.011 636.84 272.092 634.76 271.521C635.8 271.096 636.694 270.532 637.441 269.829C638.188 269.111 639.104 267.39 640.188 264.665C641.052 262.512 641.821 261.105 642.495 260.446C643.154 259.787 644.165 259.458 645.527 259.458C645.629 259.458 645.915 259.465 646.384 259.479C646.809 259.494 647.094 259.501 647.241 259.501V255.81C647.153 255.781 646.289 255.766 644.648 255.766C643.359 255.766 642.18 256.066 641.11 256.667C640.041 257.253 639.213 257.985 638.627 258.864C638.056 259.729 637.324 261.215 636.43 263.325C635.2 266.196 634.189 268.012 633.398 268.774C632.607 269.521 631.237 269.895 629.289 269.895V255.788ZM655.48 255.788H651.218V288H675.717V296.943H679.497V284.199H676.552V255.788H672.268V284.199H655.48V255.788ZM688.439 255.788H684.572V288H688.835L705.996 262.556V288H709.863V255.788H705.578L688.439 281.298V255.788ZM738.076 288H742.338V255.788H728.056C725.185 255.788 723.002 256.081 721.508 256.667C720.014 257.238 718.82 258.256 717.927 259.721C717.033 261.186 716.586 262.805 716.586 264.577C716.586 266.862 717.326 268.789 718.806 270.356C720.285 271.923 722.57 272.919 725.661 273.344C724.533 273.886 723.676 274.421 723.09 274.948C721.845 276.091 720.666 277.519 719.553 279.233L713.95 288H719.311L723.574 281.298C724.819 279.365 725.844 277.885 726.65 276.86C727.456 275.834 728.173 275.117 728.803 274.707C729.448 274.296 730.1 274.011 730.759 273.85C731.242 273.747 732.033 273.696 733.132 273.696H738.076V288ZM738.076 259.348V270.004H728.913C726.965 270.004 725.441 269.807 724.343 269.411C723.244 269.001 722.409 268.356 721.838 267.478C721.267 266.584 720.981 265.617 720.981 264.577C720.981 263.054 721.53 261.801 722.629 260.82C723.742 259.838 725.493 259.348 727.88 259.348H738.076Z" fill="#FFD089"/>
<path fill-rule="evenodd" clip-rule="evenodd" d="M0 30C0 13.4315 13.4315 0 30 0H741C757.569 0 771 13.4315 771 30V86C771 102.569 757.569 116 741 116H30C13.4315 116 0 102.569 0 86V30ZM295.624 74V41.7881H307.708C310.169 41.7881 312.14 42.1177 313.619 42.7769C315.113 43.4214 316.278 44.4248 317.113 45.7871C317.962 47.1348 318.387 48.5483 318.387 50.0278C318.387 51.4048 318.014 52.7012 317.267 53.917C316.52 55.1328 315.392 56.1143 313.883 56.8613C315.831 57.4326 317.325 58.4067 318.365 59.7837C319.42 61.1606 319.947 62.7866 319.947 64.6616C319.947 66.1704 319.625 67.5767 318.98 68.8804C318.351 70.1694 317.567 71.1655 316.629 71.8687C315.692 72.5718 314.513 73.1064 313.092 73.4727C311.686 73.8242 309.957 74 307.906 74H295.624ZM299.886 55.3232H306.852C308.741 55.3232 310.096 55.1987 310.917 54.9497C312 54.6274 312.813 54.0928 313.355 53.3457C313.912 52.5986 314.19 51.6611 314.19 50.5332C314.19 49.4639 313.934 48.5264 313.421 47.7207C312.909 46.9004 312.176 46.3438 311.224 46.0508C310.272 45.7432 308.639 45.5894 306.324 45.5894H299.886V55.3232ZM299.886 70.1987H307.906C309.283 70.1987 310.25 70.1475 310.807 70.0449C311.788 69.8691 312.608 69.5762 313.268 69.166C313.927 68.7559 314.469 68.1626 314.894 67.3862C315.318 66.5952 315.531 65.687 315.531 64.6616C315.531 63.4604 315.223 62.4204 314.608 61.5415C313.993 60.6479 313.136 60.0254 312.037 59.6738C310.953 59.3076 309.386 59.1245 307.335 59.1245H299.886V70.1987ZM322.562 64.9033L326.627 63.8486C326.935 65.416 327.755 66.9834 329.088 68.5508C330.436 70.1182 332.215 70.9019 334.427 70.9019C336.683 70.9019 338.463 70.3232 339.767 69.166C341.07 68.0088 341.722 66.6099 341.722 64.9692C341.722 63.1968 341.034 61.7905 339.657 60.7505C338.28 59.6958 336.405 59.1685 334.032 59.1685H331.988V55.4551C333.951 55.4551 335.453 55.3452 336.493 55.1255C337.533 54.8911 338.448 54.3125 339.239 53.3896C340.045 52.4521 340.448 51.3901 340.448 50.2036C340.448 48.7974 339.898 47.5742 338.8 46.5342C337.716 45.4941 336.244 44.9741 334.383 44.9741C332.757 44.9741 331.366 45.3843 330.208 46.2046C329.066 47.0103 328.275 48.0869 327.835 49.4346C327.396 50.7676 327.176 51.7637 327.176 52.4229L323.089 51.5C324.1 44.6592 327.879 41.2388 334.427 41.2388C337.577 41.2388 340.074 42.1177 341.92 43.8755C343.766 45.6187 344.688 47.6621 344.688 50.0059C344.688 53.0088 343.268 55.3379 340.426 56.9932C342.066 57.4473 343.436 58.3774 344.535 59.7837C345.648 61.1753 346.205 62.8452 346.205 64.7935C346.205 67.562 345.128 69.8838 342.975 71.7588C340.836 73.6191 337.994 74.5493 334.449 74.5493C328.355 74.5493 324.393 71.334 322.562 64.9033ZM347.984 74L360.355 41.7881H364.947L378.131 74H373.275L369.518 64.2441H356.048L352.511 74H347.984ZM357.279 60.7725H368.199L364.837 51.8516C363.812 49.1416 363.05 46.915 362.552 45.1719C362.142 47.2373 361.563 49.2881 360.816 51.3242L357.279 60.7725ZM381.603 41.7881H385.47V67.2983L402.608 41.7881H406.893V74H403.026V48.5557L385.865 74H381.603V41.7881ZM413.749 74V41.7881H420.165L427.789 64.5957C428.492 66.7197 429.005 68.3091 429.327 69.3638C429.693 68.1919 430.265 66.4707 431.041 64.2002L438.753 41.7881H444.488V74H440.379V47.0396L431.019 74H427.174L417.857 46.5781V74H413.749ZM450.069 58.3115C450.069 52.9648 451.505 48.7827 454.376 45.7651C457.247 42.7329 460.953 41.2168 465.494 41.2168C468.468 41.2168 471.148 41.9272 473.536 43.3481C475.924 44.769 477.74 46.7539 478.985 49.3027C480.245 51.8369 480.875 54.7153 480.875 57.938C480.875 61.2046 480.216 64.127 478.897 66.7051C477.579 69.2832 475.711 71.2388 473.294 72.5718C470.877 73.8901 468.27 74.5493 465.472 74.5493C462.44 74.5493 459.73 73.8169 457.342 72.3521C454.955 70.8872 453.146 68.8877 451.915 66.3535C450.685 63.8193 450.069 61.1387 450.069 58.3115ZM454.464 58.3774C454.464 62.2593 455.504 65.3208 457.584 67.562C459.679 69.7886 462.301 70.9019 465.45 70.9019C468.658 70.9019 471.295 69.7739 473.36 67.5181C475.44 65.2622 476.48 62.0615 476.48 57.916C476.48 55.2939 476.034 53.0088 475.14 51.0605C474.261 49.0977 472.965 47.5815 471.251 46.5122C469.552 45.4282 467.64 44.8862 465.516 44.8862C462.499 44.8862 459.898 45.9263 457.716 48.0063C455.548 50.0718 454.464 53.5288 454.464 58.3774ZM488.302 41.7881H507.901V70.1987H510.802V81.5146H507V74H485.709V81.5146H481.908V70.1987H484.413C487.005 66.2876 488.302 58.3848 488.302 46.4902V41.7881ZM503.639 45.5894H492.411V47.2373C492.411 49.9766 492.162 53.7266 491.664 58.4873C491.18 63.2334 490.221 67.1372 488.785 70.1987H503.639V45.5894ZM515.965 74V41.7881H539.256V45.5894H520.228V55.4551H538.048V59.2344H520.228V70.1987H540.003V74H515.965ZM545.958 41.7881H549.825V67.2983L566.964 41.7881H571.249V74H567.381V48.5557L550.221 74H545.958V41.7881ZM561.976 34.1196H564.679C564.459 35.9507 563.785 37.3569 562.657 38.3384C561.544 39.3198 560.057 39.8105 558.197 39.8105C556.322 39.8105 554.82 39.3271 553.692 38.3604C552.579 37.3789 551.913 35.9653 551.693 34.1196H554.396C554.601 35.1157 555.003 35.8628 555.604 36.3608C556.219 36.8442 557.04 37.0859 558.065 37.0859C559.251 37.0859 560.145 36.8516 560.746 36.3828C561.361 35.8994 561.771 35.145 561.976 34.1196ZM601.219 62.7061L605.482 63.7827C604.588 67.2837 602.977 69.957 600.648 71.8027C598.333 73.6338 595.499 74.5493 592.145 74.5493C588.673 74.5493 585.846 73.8462 583.663 72.4399C581.495 71.019 579.84 68.9683 578.697 66.2876C577.569 63.6069 577.005 60.7285 577.005 57.6523C577.005 54.2979 577.643 51.3755 578.917 48.8853C580.206 46.3804 582.03 44.4834 584.388 43.1943C586.761 41.8906 589.369 41.2388 592.21 41.2388C595.433 41.2388 598.143 42.0591 600.34 43.6997C602.538 45.3403 604.068 47.6475 604.933 50.6211L600.736 51.6099C599.989 49.2661 598.905 47.5596 597.484 46.4902C596.063 45.4209 594.276 44.8862 592.123 44.8862C589.647 44.8862 587.574 45.4795 585.904 46.666C584.249 47.8525 583.084 49.4492 582.411 51.4561C581.737 53.4482 581.4 55.5063 581.4 57.6304C581.4 60.3696 581.795 62.7646 582.586 64.8154C583.392 66.8516 584.637 68.375 586.322 69.3857C588.006 70.3965 589.83 70.9019 591.793 70.9019C594.181 70.9019 596.202 70.2134 597.857 68.8364C599.513 67.4595 600.633 65.416 601.219 62.7061ZM617.457 74V45.5894H606.844V41.7881H632.376V45.5894H621.72V74H617.457ZM636.595 74V41.7881H648.68C651.141 41.7881 653.111 42.1177 654.591 42.7769C656.085 43.4214 657.25 44.4248 658.084 45.7871C658.934 47.1348 659.359 48.5483 659.359 50.0278C659.359 51.4048 658.985 52.7012 658.238 53.917C657.491 55.1328 656.363 56.1143 654.854 56.8613C656.803 57.4326 658.297 58.4067 659.337 59.7837C660.392 61.1606 660.919 62.7866 660.919 64.6616C660.919 66.1704 660.597 67.5767 659.952 68.8804C659.322 70.1694 658.539 71.1655 657.601 71.8687C656.664 72.5718 655.484 73.1064 654.063 73.4727C652.657 73.8242 650.929 74 648.878 74H636.595ZM640.858 55.3232H647.823C649.713 55.3232 651.068 55.1987 651.888 54.9497C652.972 54.6274 653.785 54.0928 654.327 53.3457C654.884 52.5986 655.162 51.6611 655.162 50.5332C655.162 49.4639 654.906 48.5264 654.393 47.7207C653.88 46.9004 653.148 46.3438 652.196 46.0508C651.244 45.7432 649.61 45.5894 647.296 45.5894H640.858V55.3232ZM640.858 70.1987H648.878C650.255 70.1987 651.222 70.1475 651.778 70.0449C652.76 69.8691 653.58 69.5762 654.239 69.166C654.898 68.7559 655.44 68.1626 655.865 67.3862C656.29 66.5952 656.502 65.687 656.502 64.6616C656.502 63.4604 656.195 62.4204 655.58 61.5415C654.964 60.6479 654.107 60.0254 653.009 59.6738C651.925 59.3076 650.357 59.1245 648.307 59.1245H640.858V70.1987ZM666.852 41.7881H670.719V67.2983L687.857 41.7881H692.142V74H688.275V48.5557L671.114 74H666.852V41.7881ZM699.217 74V41.7881H722.508V45.5894H703.48V55.4551H721.3V59.2344H703.48V70.1987H723.255V74H699.217ZM190.496 62C188.72 68.9009 182.455 74 175 74C167.545 74 161.28 68.9009 159.504 62H123.496C121.72 68.9009 115.455 74 108 74C100.545 74 94.2802 68.9009 92.5041 62H56.4959C54.7198 68.9009 48.4554 74 41 74C32.1634 74 25 66.8366 25 58C25 49.1634 32.1634 42 41 42C48.4554 42 54.7198 47.0991 56.4959 54H92.5041C94.2802 47.0991 100.545 42 108 42C115.455 42 121.72 47.0991 123.496 54H159.504C161.28 47.0991 167.545 42 175 42C182.455 42 188.72 47.0991 190.496 54H226.504C228.28 47.0991 234.545 42 242 42C250.837 42 258 49.1634 258 58C258 66.8366 250.837 74 242 74C234.545 74 228.28 68.9009 226.504 62H190.496Z" fill="#FFD089"/>
<path fill-rule="evenodd" clip-rule="evenodd" d="M500 116C483.431 116 470 129.431 470 146V184C470 200.569 483.431 214 500 214H741C757.569 214 771 200.569 771 184V146C771 129.431 757.569 116 741 116H500ZM744 154C750.627 154 756 148.627 756 142C756 135.373 750.627 130 744 130C737.373 130 732 135.373 732 142C732 148.627 737.373 154 744 154ZM509 190C509 196.627 503.627 202 497 202C490.373 202 485 196.627 485 190C485 183.373 490.373 178 497 178C503.627 178 509 183.373 509 190ZM626.994 154.448C625.107 148.641 616.893 148.641 615.006 154.448C614.162 157.044 611.742 158.802 609.012 158.802C602.907 158.802 600.368 166.615 605.308 170.204C607.516 171.809 608.441 174.653 607.597 177.25C605.71 183.057 612.356 187.885 617.296 184.296C619.504 182.691 622.496 182.691 624.704 184.296C629.644 187.885 636.29 183.057 634.403 177.25C633.559 174.653 634.484 171.809 636.692 170.204C641.632 166.615 639.093 158.802 632.988 158.802C630.258 158.802 627.838 157.044 626.994 154.448Z" fill="#C0C0C0"/>
</svg>
