<svg width="546" height="237" viewBox="0 0 546 237" fill="none" xmlns="http://www.w3.org/2000/svg">
<path fill-rule="evenodd" clip-rule="evenodd" d="M0 207C0 223.569 13.4315 237 30 237H516C532.569 237 546 223.569 546 207V30C546 13.4315 532.569 0 516 0H30C13.4315 0 0 13.4315 0 30V207ZM278.849 168.004L279.903 172.069C286.334 170.238 289.549 166.276 289.549 160.182C289.549 156.637 288.619 153.795 286.759 151.657C284.884 149.503 282.562 148.427 279.793 148.427C277.845 148.427 276.175 148.983 274.784 150.097C273.377 151.195 272.447 152.565 271.993 154.206C270.338 151.364 268.009 149.943 265.006 149.943C262.662 149.943 260.619 150.866 258.875 152.711C257.118 154.557 256.239 157.055 256.239 160.204C256.239 166.752 259.659 170.531 266.5 171.542L267.423 167.455C266.764 167.455 265.768 167.235 264.435 166.796C263.087 166.356 262.01 165.565 261.205 164.423C260.384 163.266 259.974 161.874 259.974 160.248C259.974 158.388 260.494 156.916 261.534 155.832C262.574 154.733 263.797 154.184 265.204 154.184C266.39 154.184 267.452 154.586 268.39 155.392C269.312 156.183 269.891 157.099 270.125 158.139C270.345 159.179 270.455 160.68 270.455 162.643H274.168V160.6C274.168 158.227 274.696 156.352 275.75 154.975C276.791 153.598 278.197 152.909 279.969 152.909C281.61 152.909 283.009 153.561 284.166 154.865C285.323 156.168 285.902 157.948 285.902 160.204C285.902 162.416 285.118 164.196 283.551 165.543C281.983 166.876 280.416 167.697 278.849 168.004ZM256.788 143.285H289V131.002C289 128.952 288.824 127.223 288.473 125.817C288.106 124.396 287.572 123.217 286.869 122.279C286.166 121.342 285.169 120.558 283.88 119.928C282.577 119.284 281.17 118.961 279.662 118.961C277.787 118.961 276.161 119.489 274.784 120.543C273.407 121.583 272.433 123.078 271.861 125.026C271.114 123.517 270.133 122.389 268.917 121.642C267.701 120.895 266.405 120.521 265.028 120.521C263.548 120.521 262.135 120.946 260.787 121.796C259.425 122.631 258.421 123.795 257.777 125.29C257.118 126.769 256.788 128.739 256.788 131.2V143.285ZM270.323 132.057V139.022H260.589V132.584C260.589 130.27 260.743 128.637 261.051 127.685C261.344 126.732 261.9 126 262.721 125.487C263.526 124.975 264.464 124.718 265.533 124.718C266.661 124.718 267.599 124.997 268.346 125.553C269.093 126.095 269.627 126.908 269.95 127.992C270.199 128.812 270.323 130.167 270.323 132.057ZM285.199 131.002V139.022H274.125V131.574C274.125 129.523 274.308 127.956 274.674 126.872C275.025 125.773 275.648 124.916 276.542 124.301C277.42 123.686 278.46 123.378 279.662 123.378C280.687 123.378 281.595 123.59 282.386 124.015C283.163 124.44 283.756 124.982 284.166 125.641C284.576 126.3 284.869 127.121 285.045 128.102C285.147 128.659 285.199 129.625 285.199 131.002ZM256.788 113.534V117.841L280.453 104.789C282.826 105.697 284.349 106.532 285.023 107.294C285.682 108.041 286.012 108.935 286.012 109.975C286.012 111.249 285.682 112.458 285.023 113.6H288.67C289.183 112.003 289.439 110.656 289.439 109.557C289.439 107.755 288.956 106.371 287.989 105.404C287.022 104.438 284.972 103.2 281.837 101.691L256.788 89.606V93.8467L276.52 103.031L256.788 113.534ZM256.788 81.6519V85.9146H289V81.6519H273.927C273.927 80.0698 274.381 78.7808 275.289 77.7847C276.183 76.7886 277.838 75.5508 280.255 74.0713L289 68.688V63.3926L278.277 70.0283C275.011 72.0498 273.092 74.1006 272.521 76.1807C272.096 75.1406 271.532 74.2471 270.829 73.5C270.111 72.7529 268.39 71.8374 265.665 70.7534C263.512 69.8892 262.105 69.1201 261.446 68.4463C260.787 67.7871 260.458 66.7764 260.458 65.4141C260.458 65.3115 260.465 65.0259 260.479 64.5571C260.494 64.1323 260.501 63.8467 260.501 63.7002H256.81C256.781 63.7881 256.766 64.6523 256.766 66.293C256.766 67.582 257.066 68.7612 257.667 69.8306C258.253 70.8999 258.985 71.7275 259.864 72.3135C260.729 72.8848 262.215 73.6172 264.325 74.5107C267.196 75.7412 269.012 76.752 269.774 77.543C270.521 78.334 270.895 79.7036 270.895 81.6519H256.788ZM450 67C450 55.9543 458.954 47 470 47H506C517.046 47 526 55.9543 526 67V171C526 182.046 517.046 191 506 191H470C458.954 191 450 182.046 450 171V67ZM384 47C376.268 47 370 53.268 370 61V177C370 184.732 376.268 191 384 191C391.732 191 398 184.732 398 177V61C398 53.268 391.732 47 384 47ZM497 23C497 27.9706 492.971 32 488 32C483.029 32 479 27.9706 479 23C479 18.0294 483.029 14 488 14C492.971 14 497 18.0294 497 23ZM488 223C492.971 223 497 218.971 497 214C497 209.029 492.971 205 488 205C483.029 205 479 209.029 479 214C479 218.971 483.029 223 488 223ZM97 67C97 55.9543 88.0457 47 77 47H41C29.9543 47 21 55.9543 21 67V171C21 182.046 29.9543 191 41 191H77C88.0457 191 97 182.046 97 171V67ZM163 47C170.732 47 177 53.268 177 61V177C177 184.732 170.732 191 163 191C155.268 191 149 184.732 149 177V61C149 53.268 155.268 47 163 47ZM50 23C50 27.9706 54.0294 32 59 32C63.9706 32 68 27.9706 68 23C68 18.0294 63.9706 14 59 14C54.0294 14 50 18.0294 50 23ZM59 223C54.0294 223 50 218.971 50 214C50 209.029 54.0294 205 59 205C63.9706 205 68 209.029 68 214C68 218.971 63.9706 223 59 223Z" fill="#FFD089"/>
</svg>
