<svg width="403" height="403" viewBox="0 0 403 403" fill="none" xmlns="http://www.w3.org/2000/svg">
<rect width="38" height="27" rx="5" transform="matrix(1 0 0 -1 123 327)" fill="#FFD089"/>
<rect width="38" height="27" rx="5" transform="matrix(1 0 0 -1 243 327)" fill="#FFD089"/>
<rect width="38" height="27" rx="5" transform="matrix(1 0 0 -1 123 104)" fill="#FFD089"/>
<rect width="38" height="27" rx="5" transform="matrix(1 0 0 -1 243 104)" fill="#FFD089"/>
<path fill-rule="evenodd" clip-rule="evenodd" d="M201.5 403C312.785 403 403 312.785 403 201.5C403 90.2146 312.785 0 201.5 0C90.2146 0 0 90.2146 0 201.5C0 312.785 90.2146 403 201.5 403ZM107.243 184.524V188.655C103.419 188.816 100.241 189.974 97.7065 192.127C95.187 194.28 93.9272 197.151 93.9272 200.74C93.9272 204.314 95.1943 207.193 97.7285 209.375C100.263 211.543 103.434 212.701 107.243 212.847V217H111.242V212.847C115.49 212.613 118.764 211.353 121.063 209.068C123.363 206.783 124.513 204.007 124.513 200.74C124.513 197.4 123.327 194.61 120.954 192.369C118.581 190.113 115.343 188.875 111.242 188.655V184.524H107.243ZM117.746 206.783C116.164 208.248 113.996 209.046 111.242 209.178V192.303C114.054 192.464 116.237 193.284 117.79 194.764C119.342 196.229 120.119 198.221 120.119 200.74C120.119 203.304 119.328 205.318 117.746 206.783ZM100.805 194.676C102.445 193.226 104.591 192.442 107.243 192.325V209.156C104.547 209.039 102.387 208.248 100.761 206.783C99.1494 205.318 98.3438 203.304 98.3438 200.74C98.3438 198.147 99.1641 196.126 100.805 194.676ZM128.864 184.788H124.557L137.609 208.453C136.701 210.826 135.866 212.349 135.104 213.023C134.357 213.682 133.463 214.012 132.423 214.012C131.149 214.012 129.94 213.682 128.798 213.023V216.67C130.395 217.183 131.742 217.439 132.841 217.439C134.643 217.439 136.027 216.956 136.994 215.989C137.96 215.022 139.198 212.972 140.707 209.837L152.792 184.788H148.551L139.367 204.52L128.864 184.788ZM156.549 184.788V217H160.812V201.817H177.555V217H181.818V184.788H177.555V198.016H160.812V184.788H156.549ZM193.266 184.788H189.003V217H193.266V201.927C194.848 201.927 196.137 202.381 197.133 203.289C198.129 204.183 199.367 205.838 200.846 208.255L206.229 217H211.525L204.889 206.277C202.868 203.011 200.817 201.092 198.737 200.521C199.777 200.096 200.67 199.532 201.417 198.829C202.165 198.111 203.08 196.39 204.164 193.665C205.028 191.512 205.797 190.105 206.471 189.446C207.13 188.787 208.141 188.458 209.503 188.458C209.606 188.458 209.892 188.465 210.36 188.479C210.785 188.494 211.071 188.501 211.217 188.501V184.81C211.129 184.781 210.265 184.766 208.625 184.766C207.335 184.766 206.156 185.066 205.087 185.667C204.018 186.253 203.19 186.985 202.604 187.864C202.033 188.729 201.3 190.215 200.407 192.325C199.176 195.196 198.166 197.012 197.375 197.774C196.583 198.521 195.214 198.895 193.266 198.895V184.788ZM219.457 184.788H215.194V217H239.694V225.943H243.473V213.199H240.529V184.788H236.244V213.199H219.457V184.788ZM252.416 184.788H248.549V217H252.812L269.972 191.556V217H273.839V184.788H269.555L252.416 210.298V184.788ZM302.052 217H306.315V184.788H292.033C289.162 184.788 286.979 185.081 285.485 185.667C283.991 186.238 282.797 187.256 281.903 188.721C281.01 190.186 280.563 191.805 280.563 193.577C280.563 195.862 281.303 197.789 282.782 199.356C284.262 200.923 286.547 201.919 289.638 202.344C288.51 202.886 287.653 203.421 287.067 203.948C285.822 205.091 284.643 206.519 283.529 208.233L277.926 217H283.288L287.55 210.298C288.795 208.365 289.821 206.885 290.626 205.86C291.432 204.834 292.15 204.117 292.78 203.707C293.424 203.296 294.076 203.011 294.735 202.85C295.219 202.747 296.01 202.696 297.108 202.696H302.052V217ZM302.052 188.348V199.004H292.89C290.941 199.004 289.418 198.807 288.319 198.411C287.221 198.001 286.386 197.356 285.814 196.478C285.243 195.584 284.958 194.617 284.958 193.577C284.958 192.054 285.507 190.801 286.605 189.82C287.719 188.838 289.469 188.348 291.857 188.348H302.052ZM182 67V82.1C182.323 82.0344 182.658 82 183 82H220C220.342 82 220.677 82.0344 221 82.1V67C221 61.4772 225.477 57 231 57H292C297.523 57 302 61.4772 302 67V114C302 119.523 297.523 124 292 124H231C225.477 124 221 119.523 221 114V98.9C220.677 98.9656 220.342 99 220 99H183C182.658 99 182.323 98.9656 182 98.9V114C182 119.523 177.523 124 172 124H111C105.477 124 101 119.523 101 114V67C101 61.4772 105.477 57 111 57H172C177.523 57 182 61.4772 182 67ZM183 322C182.658 322 182.323 321.966 182 321.9V337C182 342.523 177.523 347 172 347H111C105.477 347 101 342.523 101 337V290C101 284.477 105.477 280 111 280H172C177.523 280 182 284.477 182 290V305.1C182.323 305.034 182.658 305 183 305H220C220.342 305 220.677 305.034 221 305.1V290C221 284.477 225.477 280 231 280H292C297.523 280 302 284.477 302 290V337C302 342.523 297.523 347 292 347H231C225.477 347 221 342.523 221 337V321.9C220.677 321.966 220.342 322 220 322H183ZM357 201.5C357 207.851 351.851 213 345.5 213C339.149 213 334 207.851 334 201.5C334 195.149 339.149 190 345.5 190C351.851 190 357 195.149 357 201.5ZM57.5 213C63.8513 213 69 207.851 69 201.5C69 195.149 63.8513 190 57.5 190C51.1487 190 46 195.149 46 201.5C46 207.851 51.1487 213 57.5 213Z" fill="#FFD089"/>
</svg>
