<svg width="979" height="624" viewBox="0 0 979 624" fill="none" xmlns="http://www.w3.org/2000/svg">
<path fill-rule="evenodd" clip-rule="evenodd" d="M6.13896 47.282C6.13896 30.7134 19.5704 17.282 36.139 17.282L946.63 17.282C963.198 17.282 976.63 30.7134 976.63 47.282L976.63 103.282C976.63 119.851 963.198 133.282 946.63 133.282L36.139 133.282C19.5704 133.282 6.13896 119.851 6.13896 103.282L6.13896 47.282ZM214.858 58.7849L218.725 58.7849L218.725 84.2952L235.864 58.7849L240.149 58.7849L240.149 90.9968L236.282 90.9968L236.282 65.5525L219.121 90.9968L214.858 90.9968L214.858 58.7849ZM247.268 90.9968L247.268 58.7849L251.531 58.7849L251.531 72.0124L268.274 72.0124L268.274 58.7849L272.536 58.7849L272.536 90.9968L268.274 90.9968L268.274 75.8137L251.531 75.8137L251.531 90.9968L247.268 90.9968ZM282.578 58.7849L302.178 58.7849L302.178 87.1955L305.078 87.1955L305.078 98.5115L301.277 98.5115L301.277 90.9968L279.985 90.9968L279.985 98.5115L276.184 98.5115L276.184 87.1955L278.689 87.1955C281.282 83.2844 282.578 75.3816 282.578 63.487L282.578 58.7849ZM297.915 62.5862L286.687 62.5862L286.687 64.2341C286.687 66.9734 286.438 70.7234 285.94 75.4841C285.456 80.2302 284.497 84.134 283.061 87.1955L297.915 87.1955L297.915 62.5862ZM310.22 58.7849L314.087 58.7849L314.087 84.2952L331.225 58.7849L335.51 58.7849L335.51 90.9968L331.643 90.9968L331.643 65.5525L314.482 90.9968L310.22 90.9968L310.22 58.7849ZM342.322 90.9968L342.322 58.7849L354.407 58.7849C356.867 58.7849 358.838 59.1145 360.317 59.7737C361.811 60.4182 362.976 61.4216 363.811 62.7839C364.66 64.1316 365.085 65.5452 365.085 67.0246C365.085 68.4016 364.712 69.698 363.965 70.9138C363.218 72.1296 362.09 73.1111 360.581 73.8581C362.529 74.4294 364.023 75.4035 365.063 76.7805C366.118 78.1575 366.645 79.7834 366.645 81.6584C366.645 83.1672 366.323 84.5735 365.679 85.8772C365.049 87.1662 364.265 88.1623 363.327 88.8655C362.39 89.5686 361.211 90.1033 359.79 90.4695C358.384 90.821 356.655 90.9968 354.604 90.9968L342.322 90.9968ZM346.584 72.3201L353.55 72.3201C355.439 72.3201 356.794 72.1955 357.615 71.9465C358.699 71.6243 359.512 71.0896 360.054 70.3425C360.61 69.5954 360.888 68.6579 360.888 67.53C360.888 66.4607 360.632 65.5232 360.119 64.7175C359.607 63.8972 358.874 63.3406 357.922 63.0476C356.97 62.74 355.337 62.5862 353.022 62.5862L346.584 62.5862L346.584 72.3201ZM346.584 87.1955L354.604 87.1955C355.981 87.1955 356.948 87.1443 357.505 87.0417C358.486 86.866 359.306 86.573 359.966 86.1628C360.625 85.7527 361.167 85.1594 361.592 84.383C362.016 83.592 362.229 82.6838 362.229 81.6584C362.229 80.4573 361.921 79.4172 361.306 78.5383C360.691 77.6448 359.834 77.0222 358.735 76.6706C357.651 76.3044 356.084 76.1213 354.033 76.1213L346.584 76.1213L346.584 87.1955ZM372.578 58.7849L376.445 58.7849L376.445 84.2952L393.584 58.7849L397.868 58.7849L397.868 90.9968L394.001 90.9968L394.001 65.5525L376.841 90.9968L372.578 90.9968L372.578 58.7849ZM407.778 58.7849L427.378 58.7849L427.378 87.1955L430.278 87.1955L430.278 98.5115L426.477 98.5115L426.477 90.9968L405.185 90.9968L405.185 98.5115L401.384 98.5115L401.384 87.1955L403.889 87.1955C406.482 83.2844 407.778 75.3816 407.778 63.487L407.778 58.7849ZM423.115 62.5862L411.887 62.5862L411.887 64.2341C411.887 66.9734 411.638 70.7234 411.14 75.4841C410.657 80.2302 409.697 84.134 408.262 87.1955L423.115 87.1955L423.115 62.5862ZM432.629 58.7849L436.936 58.7849L447.439 78.5163L456.623 58.7849L460.864 58.7849L448.779 83.8337C447.27 86.9685 446.033 89.0193 445.066 89.9861C444.099 90.9529 442.715 91.4363 440.913 91.4363C439.814 91.4363 438.467 91.1799 436.87 90.6672L436.87 87.0198C438.013 87.6789 439.221 88.0085 440.495 88.0085C441.535 88.0085 442.429 87.6789 443.176 87.0198C443.938 86.3459 444.773 84.8225 445.681 82.4495L432.629 58.7849ZM457.92 90.9968L470.29 58.7849L474.883 58.7849L488.066 90.9968L483.21 90.9968L479.453 81.241L465.984 81.241L462.446 90.9968L457.92 90.9968ZM467.214 77.7693L478.135 77.7693L474.773 68.8484C473.747 66.1384 472.986 63.9119 472.488 62.1687C472.077 64.2341 471.499 66.2849 470.752 68.321L467.214 77.7693ZM494.834 58.7849L515.005 58.7849L515.005 90.9968L510.742 90.9968L510.742 62.5862L499.097 62.5862L499.096 79.1755C499.096 82.5447 498.935 85.0129 498.613 86.5803C498.305 88.1477 497.646 89.3708 496.636 90.2497C495.625 91.114 494.343 91.5461 492.79 91.5461C491.853 91.5461 490.725 91.3703 489.407 91.0188L490.132 87.2395C490.835 87.5325 491.435 87.6789 491.933 87.6789C492.9 87.6789 493.625 87.3201 494.109 86.6023C494.592 85.8699 494.834 84.156 494.834 81.4607L494.834 58.7849ZM522.168 58.7849L526.43 58.7849L526.431 72.5398L534.121 72.5398C537.71 72.5398 540.31 72.9573 541.921 73.7922C543.533 74.6272 544.69 75.7624 545.393 77.198C546.096 78.6335 546.448 80.113 546.448 81.6365C546.448 84.1267 545.598 86.3093 543.899 88.1843C542.2 90.0593 539.035 90.9968 534.407 90.9968L522.168 90.9968L522.168 58.7849ZM526.431 87.3713L534.231 87.3713C537.395 87.3713 539.453 86.8147 540.405 85.7014C541.372 84.5735 541.855 83.2185 541.855 81.6365C541.855 80.3474 541.504 79.2561 540.801 78.3625C540.112 77.4543 539.189 76.8684 538.032 76.6047C536.875 76.3411 534.912 76.2092 532.143 76.2092L526.43 76.2092L526.431 87.3713ZM551.677 90.9968L551.677 58.7849L555.94 58.7849L555.94 72.0124L572.683 72.0124L572.683 58.7849L576.946 58.7849L576.946 90.9968L572.683 90.9968L572.683 75.8137L555.94 75.8137L555.94 90.9968L551.677 90.9968ZM582.768 75.3083C582.768 69.9617 584.204 65.7795 587.075 62.7619C589.946 59.7297 593.652 58.2136 598.193 58.2136C601.167 58.2136 603.847 58.9241 606.235 60.345C608.623 61.7659 610.439 63.7507 611.684 66.2995C612.944 68.8337 613.574 71.7121 613.574 74.9348C613.574 78.2014 612.915 81.1238 611.596 83.7019C610.278 86.28 608.41 88.2356 605.993 89.5686C603.576 90.887 600.969 91.5461 598.171 91.5461C595.139 91.5461 592.429 90.8137 590.041 89.3489C587.654 87.884 585.845 85.8845 584.614 83.3503C583.384 80.8161 582.768 78.1355 582.768 75.3083ZM587.163 75.3743C587.163 79.2561 588.203 82.3176 590.283 84.5588C592.378 86.7854 595 87.8987 598.149 87.8987C601.357 87.8987 603.994 86.7707 606.059 84.5149C608.139 82.259 609.179 79.0583 609.179 74.9128C609.179 72.2908 608.733 70.0056 607.839 68.0574C606.96 66.0945 605.664 64.5784 603.95 63.509C602.251 62.425 600.339 61.883 598.215 61.883C595.198 61.883 592.597 62.9231 590.415 65.0032C588.247 67.0686 587.163 70.5256 587.163 75.3743ZM642.073 79.7029L646.335 80.7795C645.442 84.2805 643.83 86.9538 641.501 88.7995C639.187 90.6306 636.352 91.5461 632.998 91.5461C629.526 91.5461 626.699 90.843 624.516 89.4368C622.348 88.0159 620.693 85.9651 619.551 83.2844C618.423 80.6037 617.859 77.7253 617.859 74.6492C617.859 71.2947 618.496 68.3723 619.77 65.8821C621.059 63.3772 622.883 61.4802 625.242 60.1911C627.615 58.8874 630.222 58.2356 633.064 58.2356C636.286 58.2356 638.996 59.0559 641.194 60.6965C643.391 62.3371 644.922 64.6443 645.786 67.6179L641.589 68.6067C640.842 66.2629 639.758 64.5564 638.337 63.487C636.916 62.4177 635.129 61.883 632.976 61.883C630.5 61.883 628.428 62.4763 626.758 63.6628C625.102 64.8493 623.938 66.446 623.264 68.4529C622.59 70.4451 622.253 72.5032 622.253 74.6272C622.253 77.3664 622.649 79.7615 623.44 81.8122C624.245 83.8484 625.491 85.3718 627.175 86.3826C628.86 87.3933 630.683 87.8987 632.646 87.8987C635.034 87.8987 637.055 87.2102 638.711 85.8332C640.366 84.4563 641.487 82.4128 642.073 79.7029ZM658.31 90.9968L658.31 62.5862L647.698 62.5862L647.698 58.7849L673.23 58.7849L673.23 62.5862L662.573 62.5862L662.573 90.9968L658.31 90.9968ZM677.778 58.7849L682.041 58.7849L682.041 72.5398L689.731 72.5398C693.32 72.5398 695.92 72.9573 697.532 73.7922C699.143 74.6272 700.3 75.7624 701.003 77.198C701.706 78.6335 702.058 80.113 702.058 81.6365C702.058 84.1267 701.208 86.3093 699.509 88.1843C697.81 90.0593 694.646 90.9968 690.017 90.9968L677.778 90.9968L677.778 58.7849ZM682.041 87.3713L689.841 87.3713C693.005 87.3713 695.063 86.8147 696.015 85.7014C696.982 84.5735 697.466 83.2185 697.466 81.6365C697.466 80.3474 697.114 79.2561 696.411 78.3625C695.722 77.4543 694.8 76.8684 693.642 76.6047C692.485 76.3411 690.522 76.2092 687.754 76.2092L682.041 76.2092L682.041 87.3713ZM926.513 44.5607C922.721 37.8614 913.099 37.7793 909.193 44.4128L876.677 99.6372C872.771 106.271 877.511 114.645 885.209 114.711L949.293 115.258C956.99 115.324 961.873 107.032 958.081 100.332L926.513 44.5607Z" fill="#FFD089"/>
<path fill-rule="evenodd" clip-rule="evenodd" d="M856.195 592.058C856.053 608.626 869.37 622.172 885.938 622.313L941.936 622.792C958.503 622.933 972.049 609.617 972.191 593.049L976.85 47.4211C976.991 30.8531 963.675 17.3075 947.107 17.166L891.109 16.6878C874.541 16.5463 860.996 29.8626 860.854 46.4305L856.195 592.058ZM887.058 173.08C881.536 173.033 877.021 177.472 876.973 182.994L876.769 206.993C876.721 212.516 881.16 217.031 886.683 217.078L948.681 217.608C954.203 217.655 958.718 213.216 958.766 207.694L958.97 183.695C959.018 178.172 954.579 173.657 949.056 173.609L887.058 173.08ZM933.215 330.78L933.215 356.115L901.003 356.115L901.003 351.83L929.414 351.83L929.414 335.043L901.003 335.043L901.003 330.78L933.215 330.78ZM916.691 361.784C922.038 361.784 926.22 363.219 929.238 366.09C932.27 368.961 933.786 372.667 933.786 377.208C933.786 380.182 933.076 382.863 931.655 385.25C930.234 387.638 928.249 389.455 925.7 390.7C923.166 391.959 920.288 392.589 917.065 392.589C913.798 392.589 910.876 391.93 908.298 390.612C905.72 389.293 903.764 387.426 902.431 385.009C901.113 382.592 900.454 379.984 900.454 377.187C900.454 374.154 901.186 371.444 902.651 369.057C904.116 366.669 906.115 364.86 908.649 363.629C911.184 362.399 913.864 361.784 916.691 361.784ZM916.625 366.178C912.744 366.178 909.682 367.218 907.441 369.298C905.214 371.393 904.101 374.015 904.101 377.165C904.101 380.373 905.229 383.009 907.485 385.075C909.741 387.155 912.941 388.195 917.087 388.195C919.709 388.195 921.994 387.748 923.942 386.854C925.905 385.976 927.421 384.679 928.491 382.965C929.575 381.266 930.117 379.354 930.117 377.23C930.117 374.213 929.077 371.613 926.997 369.43C924.931 367.262 921.474 366.178 916.625 366.178ZM933.215 398.17L933.215 402.038L907.705 402.038L933.215 419.176L933.215 423.461L901.003 423.461L901.003 419.594L926.447 419.594L901.003 402.433L901.003 398.17L933.215 398.17ZM912.297 453.432L911.22 457.694C907.719 456.801 905.046 455.189 903.2 452.86C901.369 450.546 900.454 447.711 900.454 444.357C900.454 440.885 901.157 438.058 902.563 435.875C903.984 433.708 906.035 432.052 908.715 430.91C911.396 429.782 914.274 429.218 917.351 429.218C920.705 429.218 923.627 429.855 926.118 431.129C928.623 432.418 930.52 434.242 931.809 436.601C933.112 438.974 933.764 441.581 933.764 444.423C933.764 447.646 932.944 450.355 931.303 452.553C929.663 454.75 927.355 456.281 924.382 457.145L923.393 452.948C925.737 452.201 927.443 451.117 928.513 449.696C929.582 448.275 930.117 446.488 930.117 444.335C930.117 441.859 929.523 439.787 928.337 438.117C927.15 436.461 925.554 435.297 923.547 434.623C921.555 433.949 919.497 433.612 917.373 433.612C914.633 433.612 912.238 434.008 910.187 434.799C908.151 435.604 906.628 436.85 905.617 438.534C904.606 440.219 904.101 442.042 904.101 444.005C904.101 446.393 904.79 448.415 906.166 450.07C907.543 451.725 909.587 452.846 912.297 453.432ZM933.215 463.034L933.215 467.296L919.108 467.296C919.108 469.245 919.482 470.614 920.229 471.405C920.991 472.196 922.807 473.207 925.678 474.437C927.788 475.331 929.274 476.063 930.139 476.635C931.018 477.221 931.75 478.048 932.336 479.118C932.936 480.187 933.237 481.366 933.237 482.655C933.237 484.296 933.222 485.16 933.193 485.248L929.501 485.248C929.501 485.102 929.509 484.816 929.523 484.391C929.538 483.922 929.545 483.637 929.545 483.534C929.545 482.172 929.216 481.161 928.557 480.502C927.897 479.828 926.491 479.059 924.338 478.195C921.613 477.111 919.892 476.195 919.174 475.448C918.471 474.701 917.907 473.808 917.482 472.768C916.911 474.848 914.992 476.898 911.726 478.92L901.003 485.556L901.003 480.26L909.748 474.877C912.165 473.397 913.82 472.16 914.714 471.164C915.622 470.167 916.076 468.878 916.076 467.296L901.003 467.296L901.003 463.034L933.215 463.034ZM926.512 44.5609C922.72 37.8616 913.098 37.7795 909.192 44.413L876.677 99.6374C872.771 106.271 877.511 114.645 885.209 114.711L949.292 115.258C956.99 115.324 961.872 107.032 958.08 100.332L926.512 44.5609Z" fill="#FFD089"/>
</svg>
