<svg width="733" height="116" viewBox="0 0 733 116" fill="none" xmlns="http://www.w3.org/2000/svg">
<path fill-rule="evenodd" clip-rule="evenodd" d="M0 30C0 13.4315 13.4315 0 30 0H703C719.569 0 733 13.4315 733 30V86C733 102.569 719.569 116 703 116H30C13.4315 116 0 102.569 0 86V30ZM39.54 74V41.7881H51.625C54.0859 41.7881 56.0562 42.1177 57.5356 42.7769C59.0298 43.4214 60.1943 44.4248 61.0293 45.7871C61.8789 47.1348 62.3037 48.5483 62.3037 50.0278C62.3037 51.4048 61.9302 52.7012 61.1831 53.917C60.436 55.1328 59.3081 56.1143 57.7993 56.8613C59.7476 57.4326 61.2417 58.4067 62.2817 59.7837C63.3364 61.1606 63.8638 62.7866 63.8638 64.6616C63.8638 66.1704 63.5415 67.5767 62.897 68.8804C62.2671 70.1694 61.4834 71.1655 60.5459 71.8687C59.6084 72.5718 58.4292 73.1064 57.0083 73.4727C55.6021 73.8242 53.8735 74 51.8228 74H39.54ZM43.8027 55.3232H50.7681C52.6577 55.3232 54.0127 55.1987 54.833 54.9497C55.917 54.6274 56.73 54.0928 57.272 53.3457C57.8286 52.5986 58.1069 51.6611 58.1069 50.5332C58.1069 49.4639 57.8506 48.5264 57.3379 47.7207C56.8252 46.9004 56.0928 46.3438 55.1406 46.0508C54.1885 45.7432 52.5552 45.5894 50.2407 45.5894H43.8027V55.3232ZM43.8027 70.1987H51.8228C53.1997 70.1987 54.1665 70.1475 54.7231 70.0449C55.7046 69.8691 56.5249 69.5762 57.1841 69.166C57.8433 68.7559 58.3853 68.1626 58.8101 67.3862C59.2349 66.5952 59.4473 65.687 59.4473 64.6616C59.4473 63.4604 59.1396 62.4204 58.5244 61.5415C57.9092 60.6479 57.0522 60.0254 55.9536 59.6738C54.8696 59.3076 53.3022 59.1245 51.2515 59.1245H43.8027V70.1987ZM66.9399 58.3115C66.9399 52.9648 68.3755 48.7827 71.2466 45.7651C74.1177 42.7329 77.8237 41.2168 82.3647 41.2168C85.3384 41.2168 88.019 41.9272 90.4067 43.3481C92.7944 44.769 94.6108 46.7539 95.856 49.3027C97.1157 51.8369 97.7456 54.7153 97.7456 57.938C97.7456 61.2046 97.0864 64.127 95.7681 66.7051C94.4497 69.2832 92.582 71.2388 90.165 72.5718C87.748 73.8901 85.1406 74.5493 82.3428 74.5493C79.3105 74.5493 76.6006 73.8169 74.2129 72.3521C71.8252 70.8872 70.0161 68.8877 68.7856 66.3535C67.5552 63.8193 66.9399 61.1387 66.9399 58.3115ZM71.3345 58.3774C71.3345 62.2593 72.3745 65.3208 74.4546 67.562C76.5493 69.7886 79.1714 70.9019 82.3208 70.9019C85.5288 70.9019 88.1655 69.7739 90.231 67.5181C92.311 65.2622 93.3511 62.0615 93.3511 57.916C93.3511 55.2939 92.9043 53.0088 92.0107 51.0605C91.1318 49.0977 89.8354 47.5815 88.1216 46.5122C86.4224 45.4282 84.5107 44.8862 82.3867 44.8862C79.3691 44.8862 76.769 45.9263 74.5864 48.0063C72.4185 50.0718 71.3345 53.5288 71.3345 58.3774ZM101.503 64.9033L105.568 63.8486C105.875 65.416 106.696 66.9834 108.029 68.5508C109.376 70.1182 111.156 70.9019 113.368 70.9019C115.624 70.9019 117.404 70.3232 118.708 69.166C120.011 68.0088 120.663 66.6099 120.663 64.9692C120.663 63.1968 119.975 61.7905 118.598 60.7505C117.221 59.6958 115.346 59.1685 112.973 59.1685H110.929V55.4551C112.892 55.4551 114.394 55.3452 115.434 55.1255C116.474 54.8911 117.389 54.3125 118.18 53.3896C118.986 52.4521 119.389 51.3901 119.389 50.2036C119.389 48.7974 118.839 47.5742 117.741 46.5342C116.657 45.4941 115.185 44.9741 113.324 44.9741C111.698 44.9741 110.307 45.3843 109.149 46.2046C108.007 47.0103 107.216 48.0869 106.776 49.4346C106.337 50.7676 106.117 51.7637 106.117 52.4229L102.03 51.5C103.041 44.6592 106.82 41.2388 113.368 41.2388C116.518 41.2388 119.015 42.1177 120.861 43.8755C122.707 45.6187 123.629 47.6621 123.629 50.0059C123.629 53.0088 122.208 55.3379 119.367 56.9932C121.007 57.4473 122.377 58.3774 123.476 59.7837C124.589 61.1753 125.146 62.8452 125.146 64.7935C125.146 67.562 124.069 69.8838 121.916 71.7588C119.777 73.6191 116.935 74.5493 113.39 74.5493C107.296 74.5493 103.334 71.334 101.503 64.9033ZM133.385 41.7881H152.985V70.1987H155.885V81.5146H152.084V74H130.792V81.5146H126.991V70.1987H129.496C132.089 66.2876 133.385 58.3848 133.385 46.4902V41.7881ZM148.722 45.5894H137.494V47.2373C137.494 49.9766 137.245 53.7266 136.747 58.4873C136.264 63.2334 135.304 67.1372 133.869 70.1987H148.722V45.5894ZM161.049 74V41.7881H184.34V45.5894H165.312V55.4551H183.131V59.2344H165.312V70.1987H185.087V74H161.049ZM191.042 41.7881H194.909V67.2983L212.047 41.7881H216.332V74H212.465V48.5557L195.304 74H191.042V41.7881ZM207.06 34.1196H209.762C209.542 35.9507 208.869 37.3569 207.741 38.3384C206.627 39.3198 205.141 39.8105 203.28 39.8105C201.405 39.8105 199.904 39.3271 198.776 38.3604C197.663 37.3789 196.996 35.9653 196.776 34.1196H199.479C199.684 35.1157 200.087 35.8628 200.688 36.3608C201.303 36.8442 202.123 37.0859 203.148 37.0859C204.335 37.0859 205.229 36.8516 205.829 36.3828C206.444 35.8994 206.854 35.145 207.06 34.1196ZM246.303 62.7061L250.565 63.7827C249.672 67.2837 248.061 69.957 245.731 71.8027C243.417 73.6338 240.583 74.5493 237.228 74.5493C233.756 74.5493 230.929 73.8462 228.747 72.4399C226.579 71.019 224.923 68.9683 223.781 66.2876C222.653 63.6069 222.089 60.7285 222.089 57.6523C222.089 54.2979 222.726 51.3755 224 48.8853C225.29 46.3804 227.113 44.4834 229.472 43.1943C231.845 41.8906 234.452 41.2388 237.294 41.2388C240.517 41.2388 243.227 42.0591 245.424 43.6997C247.621 45.3403 249.152 47.6475 250.016 50.6211L245.819 51.6099C245.072 49.2661 243.988 47.5596 242.567 46.4902C241.146 45.4209 239.359 44.8862 237.206 44.8862C234.73 44.8862 232.658 45.4795 230.988 46.666C229.333 47.8525 228.168 49.4492 227.494 51.4561C226.82 53.4482 226.483 55.5063 226.483 57.6304C226.483 60.3696 226.879 62.7646 227.67 64.8154C228.476 66.8516 229.721 68.375 231.405 69.3857C233.09 70.3965 234.914 70.9019 236.876 70.9019C239.264 70.9019 241.286 70.2134 242.941 68.8364C244.596 67.4595 245.717 65.416 246.303 62.7061ZM262.541 74V45.5894H251.928V41.7881H277.46V45.5894H266.803V74H262.541ZM281.679 74V41.7881H293.764C296.225 41.7881 298.195 42.1177 299.674 42.7769C301.168 43.4214 302.333 44.4248 303.168 45.7871C304.018 47.1348 304.442 48.5483 304.442 50.0278C304.442 51.4048 304.069 52.7012 303.322 53.917C302.575 55.1328 301.447 56.1143 299.938 56.8613C301.886 57.4326 303.38 58.4067 304.42 59.7837C305.475 61.1606 306.002 62.7866 306.002 64.6616C306.002 66.1704 305.68 67.5767 305.036 68.8804C304.406 70.1694 303.622 71.1655 302.685 71.8687C301.747 72.5718 300.568 73.1064 299.147 73.4727C297.741 73.8242 296.012 74 293.961 74H281.679ZM285.941 55.3232H292.907C294.796 55.3232 296.151 55.1987 296.972 54.9497C298.056 54.6274 298.869 54.0928 299.411 53.3457C299.967 52.5986 300.246 51.6611 300.246 50.5332C300.246 49.4639 299.989 48.5264 299.477 47.7207C298.964 46.9004 298.231 46.3438 297.279 46.0508C296.327 45.7432 294.694 45.5894 292.379 45.5894H285.941V55.3232ZM285.941 70.1987H293.961C295.338 70.1987 296.305 70.1475 296.862 70.0449C297.843 69.8691 298.664 69.5762 299.323 69.166C299.982 68.7559 300.524 68.1626 300.949 67.3862C301.374 66.5952 301.586 65.687 301.586 64.6616C301.586 63.4604 301.278 62.4204 300.663 61.5415C300.048 60.6479 299.191 60.0254 298.092 59.6738C297.008 59.3076 295.441 59.1245 293.39 59.1245H285.941V70.1987ZM311.935 41.7881H315.802V67.2983L332.941 41.7881H337.226V74H333.358V48.5557L316.198 74H311.935V41.7881ZM344.301 74V41.7881H367.592V45.5894H348.563V55.4551H366.383V59.2344H348.563V70.1987H368.339V74H344.301ZM415.183 46.0854C409.661 46.0382 405.145 50.477 405.098 55.9996L405.084 57.6081C405.037 63.1308 409.476 67.646 414.999 67.6932L682.561 69.978C688.083 70.0251 692.599 65.5864 692.646 60.0637L692.659 58.4552C692.707 52.9326 688.268 48.4174 682.745 48.3702L415.183 46.0854Z" fill="#C0C0C0"/>
</svg>
